%TF.GenerationSoftware,KiCad,Pcbnew,(6.0.8)*%
%TF.CreationDate,2022-10-23T00:13:42+03:00*%
%TF.ProjectId,PowerBoard,506f7765-7242-46f6-9172-642e6b696361,rev?*%
%TF.SameCoordinates,Original*%
%TF.FileFunction,Copper,L2,Bot*%
%TF.FilePolarity,Positive*%
%FSLAX46Y46*%
G04 Gerber Fmt 4.6, Leading zero omitted, Abs format (unit mm)*
G04 Created by KiCad (PCBNEW (6.0.8)) date 2022-10-23 00:13:42*
%MOMM*%
%LPD*%
G01*
G04 APERTURE LIST*
%TA.AperFunction,ComponentPad*%
%ADD10R,1.600000X1.600000*%
%TD*%
%TA.AperFunction,ComponentPad*%
%ADD11C,1.600000*%
%TD*%
%TA.AperFunction,ComponentPad*%
%ADD12R,1.700000X1.700000*%
%TD*%
%TA.AperFunction,ComponentPad*%
%ADD13O,1.700000X1.700000*%
%TD*%
%TA.AperFunction,ComponentPad*%
%ADD14R,2.400000X2.400000*%
%TD*%
%TA.AperFunction,ComponentPad*%
%ADD15C,2.400000*%
%TD*%
%TA.AperFunction,ComponentPad*%
%ADD16R,1.800000X1.800000*%
%TD*%
%TA.AperFunction,ComponentPad*%
%ADD17C,1.800000*%
%TD*%
%TA.AperFunction,ComponentPad*%
%ADD18C,3.600000*%
%TD*%
%TA.AperFunction,ConnectorPad*%
%ADD19C,5.600000*%
%TD*%
%TA.AperFunction,ComponentPad*%
%ADD20R,3.000000X3.000000*%
%TD*%
%TA.AperFunction,ComponentPad*%
%ADD21C,3.000000*%
%TD*%
%TA.AperFunction,ComponentPad*%
%ADD22O,1.800000X1.800000*%
%TD*%
%TA.AperFunction,ComponentPad*%
%ADD23R,3.200000X3.200000*%
%TD*%
%TA.AperFunction,ComponentPad*%
%ADD24O,3.200000X3.200000*%
%TD*%
%TA.AperFunction,ViaPad*%
%ADD25C,1.000000*%
%TD*%
%TA.AperFunction,Conductor*%
%ADD26C,2.000000*%
%TD*%
%TA.AperFunction,Conductor*%
%ADD27C,1.000000*%
%TD*%
%TA.AperFunction,Conductor*%
%ADD28C,0.500000*%
%TD*%
G04 APERTURE END LIST*
D10*
%TO.P,C1,1*%
%TO.N,VCC*%
X232410000Y-67012755D03*
D11*
%TO.P,C1,2*%
%TO.N,GND*%
X232410000Y-63512755D03*
%TD*%
D12*
%TO.P,J4,1,Pin_1*%
%TO.N,Net-(J4-Pad1)*%
X217170000Y-65405000D03*
D13*
%TO.P,J4,2,Pin_2*%
%TO.N,Net-(J4-Pad2)*%
X219710000Y-65405000D03*
%TD*%
D14*
%TO.P,C2,1*%
%TO.N,+5F*%
X219710000Y-46017246D03*
D15*
%TO.P,C2,2*%
%TO.N,GND*%
X219710000Y-53517246D03*
%TD*%
D16*
%TO.P,D4,1,K*%
%TO.N,Net-(D4-Pad1)*%
X245110000Y-57150000D03*
D17*
%TO.P,D4,2,A*%
%TO.N,VCC*%
X242570000Y-57150000D03*
%TD*%
D18*
%TO.P,H3,1,1*%
%TO.N,GND*%
X246380000Y-30480000D03*
D19*
X246380000Y-30480000D03*
%TD*%
D12*
%TO.P,J6,1,Pin_1*%
%TO.N,+3V3*%
X233045000Y-29210000D03*
D13*
%TO.P,J6,2,Pin_2*%
X230505000Y-29210000D03*
%TO.P,J6,3,Pin_3*%
X227965000Y-29210000D03*
%TO.P,J6,4,Pin_4*%
%TO.N,GND*%
X225425000Y-29210000D03*
%TO.P,J6,5,Pin_5*%
X222885000Y-29210000D03*
%TO.P,J6,6,Pin_6*%
X220345000Y-29210000D03*
%TD*%
D20*
%TO.P,J3,1,Pin_1*%
%TO.N,Net-(J3-Pad1)*%
X207645000Y-60325000D03*
D21*
%TO.P,J3,2,Pin_2*%
%TO.N,Net-(J3-Pad2)*%
X207645000Y-65405000D03*
%TD*%
D19*
%TO.P,H1,1,1*%
%TO.N,GND*%
X246380000Y-81280000D03*
D18*
X246380000Y-81280000D03*
%TD*%
D16*
%TO.P,D3,1,K*%
%TO.N,Net-(D3-Pad1)*%
X206375000Y-40640000D03*
D17*
%TO.P,D3,2,A*%
%TO.N,+3V3*%
X208915000Y-40640000D03*
%TD*%
D20*
%TO.P,J1,1,Pin_1*%
%TO.N,Net-(J1-Pad1)*%
X233680000Y-78740000D03*
D21*
%TO.P,J1,2,Pin_2*%
%TO.N,Net-(J1-Pad2)*%
X238760000Y-78740000D03*
%TD*%
D12*
%TO.P,J2,1,Pin_1*%
%TO.N,Net-(J2-Pad1)*%
X215265000Y-71120000D03*
D13*
%TO.P,J2,2,Pin_2*%
%TO.N,Net-(J2-Pad2)*%
X217805000Y-71120000D03*
%TO.P,J2,3,Pin_3*%
%TO.N,Net-(J2-Pad3)*%
X220345000Y-71120000D03*
%TO.P,J2,4,Pin_4*%
%TO.N,Net-(J2-Pad4)*%
X222885000Y-71120000D03*
%TD*%
D16*
%TO.P,U1,1,SENSE_A*%
%TO.N,Net-(J4-Pad2)*%
X227335000Y-74405000D03*
D22*
%TO.P,U1,2,OUT1*%
%TO.N,Net-(J1-Pad1)*%
X226065000Y-79485000D03*
%TO.P,U1,3,OUT2*%
%TO.N,Net-(J1-Pad2)*%
X224795000Y-74405000D03*
%TO.P,U1,4,Vs*%
%TO.N,VCC*%
X223525000Y-79485000D03*
%TO.P,U1,5,IN1*%
%TO.N,Net-(J2-Pad4)*%
X222255000Y-74405000D03*
%TO.P,U1,6,EnA*%
%TO.N,+3V3*%
X220985000Y-79485000D03*
%TO.P,U1,7,IN2*%
%TO.N,Net-(J2-Pad3)*%
X219715000Y-74405000D03*
%TO.P,U1,8,GND*%
%TO.N,GND*%
X218445000Y-79485000D03*
%TO.P,U1,9,Vss*%
%TO.N,+3V3*%
X217175000Y-74405000D03*
%TO.P,U1,10,IN3*%
%TO.N,Net-(J2-Pad2)*%
X215905000Y-79485000D03*
%TO.P,U1,11,EnB*%
%TO.N,+3V3*%
X214635000Y-74405000D03*
%TO.P,U1,12,IN4*%
%TO.N,Net-(J2-Pad1)*%
X213365000Y-79485000D03*
%TO.P,U1,13,OUT3*%
%TO.N,Net-(J3-Pad1)*%
X212095000Y-74405000D03*
%TO.P,U1,14,OUT4*%
%TO.N,Net-(J3-Pad2)*%
X210825000Y-79485000D03*
%TO.P,U1,15,SENSE_B*%
%TO.N,Net-(J4-Pad1)*%
X209555000Y-74405000D03*
%TD*%
D23*
%TO.P,D1,1,K*%
%TO.N,Net-(D1-Pad1)*%
X245110000Y-35560000D03*
D24*
%TO.P,D1,2,A*%
%TO.N,GND*%
X245110000Y-50800000D03*
%TD*%
D19*
%TO.P,H4,1,1*%
%TO.N,GND*%
X202565000Y-81280000D03*
D18*
X202565000Y-81280000D03*
%TD*%
%TO.P,H2,1,1*%
%TO.N,GND*%
X202565000Y-30480000D03*
D19*
X202565000Y-30480000D03*
%TD*%
D20*
%TO.P,J5,1,Pin_1*%
%TO.N,VCC*%
X245110000Y-69850000D03*
D21*
%TO.P,J5,2,Pin_2*%
%TO.N,GND*%
X245110000Y-64770000D03*
%TD*%
D16*
%TO.P,D2,1,K*%
%TO.N,Net-(D2-Pad1)*%
X206370000Y-50165000D03*
D17*
%TO.P,D2,2,A*%
%TO.N,+5F*%
X208910000Y-50165000D03*
%TD*%
D25*
%TO.N,+5F*%
X232410000Y-34290000D03*
X234950000Y-53340000D03*
X237490000Y-53340000D03*
X232410000Y-33020000D03*
X236220000Y-53340000D03*
X231140000Y-34290000D03*
X231140000Y-33020000D03*
X233680000Y-34290000D03*
X237490000Y-54610000D03*
X236220000Y-54610000D03*
X233680000Y-33020000D03*
X238760000Y-53340000D03*
%TO.N,+3V3*%
X227965000Y-34290000D03*
X227965000Y-36830000D03*
X226695000Y-36830000D03*
X217170000Y-31750000D03*
X215900000Y-37465000D03*
X217170000Y-38100000D03*
X226695000Y-35560000D03*
X215900000Y-33655000D03*
X218440000Y-31750000D03*
X215900000Y-34925000D03*
X215900000Y-36195000D03*
X226695000Y-34290000D03*
X227965000Y-35560000D03*
X215900000Y-32385000D03*
X218440000Y-38100000D03*
%TD*%
D26*
%TO.N,GND*%
X232410000Y-63512755D02*
X243852755Y-63512755D01*
X243852755Y-63512755D02*
X245110000Y-64770000D01*
D27*
%TO.N,+5F*%
X237490000Y-53340000D02*
X237490000Y-54610000D01*
X237490000Y-54610000D02*
X236220000Y-53340000D01*
X236220000Y-54610000D02*
X237490000Y-53340000D01*
X232410000Y-33020000D02*
X232410000Y-34290000D01*
X234950000Y-38100000D02*
X234950000Y-53340000D01*
X236220000Y-53340000D02*
X236220000Y-54610000D01*
X232410000Y-34290000D02*
X236220000Y-38100000D01*
X234950000Y-53340000D02*
X236220000Y-54610000D01*
X233680000Y-33020000D02*
X233680000Y-34290000D01*
X231140000Y-34290000D02*
X234950000Y-38100000D01*
X236220000Y-38100000D02*
X236220000Y-53340000D01*
X231140000Y-33020000D02*
X231140000Y-34290000D01*
X238760000Y-53340000D02*
X237490000Y-54610000D01*
D28*
%TO.N,Net-(J2-Pad1)*%
X210185000Y-71120000D02*
X215265000Y-71120000D01*
X207645000Y-73660000D02*
X210185000Y-71120000D01*
X208280000Y-77470000D02*
X207645000Y-76835000D01*
X207645000Y-76835000D02*
X207645000Y-73660000D01*
X213365000Y-79485000D02*
X211350000Y-77470000D01*
X211350000Y-77470000D02*
X208280000Y-77470000D01*
%TO.N,Net-(J2-Pad2)*%
X209550000Y-81280000D02*
X214110000Y-81280000D01*
X217805000Y-71120000D02*
X216505000Y-69820000D01*
X209580000Y-69820000D02*
X206375000Y-73025000D01*
X206375000Y-78105000D02*
X209550000Y-81280000D01*
X216505000Y-69820000D02*
X209580000Y-69820000D01*
X214110000Y-81280000D02*
X215905000Y-79485000D01*
X206375000Y-73025000D02*
X206375000Y-78105000D01*
%TO.N,Net-(J4-Pad1)*%
X225425000Y-68580000D02*
X229870000Y-73025000D01*
X211350000Y-76200000D02*
X228600000Y-76200000D01*
X220345000Y-68580000D02*
X225425000Y-68580000D01*
X217170000Y-65405000D02*
X220345000Y-68580000D01*
X228600000Y-76200000D02*
X229870000Y-74930000D01*
X229870000Y-74930000D02*
X229870000Y-73025000D01*
X211350000Y-76200000D02*
X209555000Y-74405000D01*
%TD*%
%TA.AperFunction,Conductor*%
%TO.N,+3V3*%
G36*
X244857978Y-27325002D02*
G01*
X244904471Y-27378658D01*
X244914575Y-27448932D01*
X244885081Y-27513512D01*
X244842508Y-27545472D01*
X244834694Y-27549066D01*
X244527193Y-27733101D01*
X244524467Y-27735163D01*
X244524465Y-27735164D01*
X244314077Y-27894280D01*
X244241367Y-27949270D01*
X244238882Y-27951612D01*
X244238877Y-27951616D01*
X244219794Y-27969599D01*
X243980559Y-28195043D01*
X243978347Y-28197633D01*
X243978345Y-28197635D01*
X243940116Y-28242396D01*
X243747819Y-28467546D01*
X243745900Y-28470358D01*
X243745897Y-28470363D01*
X243682847Y-28562792D01*
X243545871Y-28763591D01*
X243377077Y-29079714D01*
X243243411Y-29412218D01*
X243242491Y-29415492D01*
X243242489Y-29415497D01*
X243185670Y-29617639D01*
X243146437Y-29757213D01*
X243145875Y-29760570D01*
X243145875Y-29760571D01*
X243088293Y-30104672D01*
X243087290Y-30110663D01*
X243066661Y-30468434D01*
X243084792Y-30826340D01*
X243085329Y-30829695D01*
X243085330Y-30829701D01*
X243090316Y-30860828D01*
X243141470Y-31180195D01*
X243236033Y-31525859D01*
X243367374Y-31859288D01*
X243398151Y-31917909D01*
X243530075Y-32169187D01*
X243533957Y-32176582D01*
X243535858Y-32179411D01*
X243535864Y-32179421D01*
X243712813Y-32442747D01*
X243733834Y-32474029D01*
X243964665Y-32748150D01*
X244223751Y-32995738D01*
X244508061Y-33213897D01*
X244514543Y-33217838D01*
X244562358Y-33270318D01*
X244574210Y-33340318D01*
X244546335Y-33405614D01*
X244487584Y-33445474D01*
X244449084Y-33451500D01*
X243461866Y-33451500D01*
X243399684Y-33458255D01*
X243263295Y-33509385D01*
X243146739Y-33596739D01*
X243059385Y-33713295D01*
X243008255Y-33849684D01*
X243001500Y-33911866D01*
X243001500Y-37208134D01*
X243008255Y-37270316D01*
X243059385Y-37406705D01*
X243146739Y-37523261D01*
X243263295Y-37610615D01*
X243399684Y-37661745D01*
X243461866Y-37668500D01*
X246758134Y-37668500D01*
X246820316Y-37661745D01*
X246956705Y-37610615D01*
X247073261Y-37523261D01*
X247160615Y-37406705D01*
X247211745Y-37270316D01*
X247218500Y-37208134D01*
X247218500Y-33911866D01*
X247211745Y-33849684D01*
X247204380Y-33830037D01*
X247199196Y-33759230D01*
X247233116Y-33696861D01*
X247282798Y-33666178D01*
X247492762Y-33596739D01*
X247588968Y-33564922D01*
X247915066Y-33416311D01*
X248160946Y-33270318D01*
X248220262Y-33235099D01*
X248220267Y-33235096D01*
X248223207Y-33233350D01*
X248243869Y-33217837D01*
X248432869Y-33075931D01*
X248509786Y-33018180D01*
X248771451Y-32773319D01*
X249005140Y-32501630D01*
X249111750Y-32346512D01*
X249206190Y-32209101D01*
X249206195Y-32209094D01*
X249208120Y-32206292D01*
X249209732Y-32203298D01*
X249209737Y-32203290D01*
X249318060Y-32002112D01*
X249367967Y-31951616D01*
X249437251Y-31936117D01*
X249503916Y-31960537D01*
X249546795Y-32017122D01*
X249555000Y-32061847D01*
X249555000Y-79698761D01*
X249534998Y-79766882D01*
X249481342Y-79813375D01*
X249411068Y-79823479D01*
X249346488Y-79793985D01*
X249317646Y-79757720D01*
X249221702Y-79576513D01*
X249221698Y-79576506D01*
X249220103Y-79573494D01*
X249019190Y-79276746D01*
X249009321Y-79265108D01*
X248831079Y-79054933D01*
X248787403Y-79003432D01*
X248527454Y-78756750D01*
X248311376Y-78592143D01*
X248245091Y-78541647D01*
X248245089Y-78541646D01*
X248242384Y-78539585D01*
X248239472Y-78537828D01*
X248239467Y-78537825D01*
X247938443Y-78356236D01*
X247938437Y-78356233D01*
X247935528Y-78354478D01*
X247664725Y-78228775D01*
X247613571Y-78205030D01*
X247613569Y-78205029D01*
X247610475Y-78203593D01*
X247364360Y-78120288D01*
X247274255Y-78089789D01*
X247274250Y-78089788D01*
X247271028Y-78088697D01*
X246998796Y-78028344D01*
X246924493Y-78011871D01*
X246924487Y-78011870D01*
X246921158Y-78011132D01*
X246917769Y-78010758D01*
X246917764Y-78010757D01*
X246568338Y-77972180D01*
X246568333Y-77972180D01*
X246564957Y-77971807D01*
X246561558Y-77971801D01*
X246561557Y-77971801D01*
X246392080Y-77971505D01*
X246206592Y-77971182D01*
X246093413Y-77983277D01*
X245853639Y-78008901D01*
X245853631Y-78008902D01*
X245850256Y-78009263D01*
X245500117Y-78085606D01*
X245160271Y-78199317D01*
X245157178Y-78200739D01*
X245157177Y-78200740D01*
X245152679Y-78202809D01*
X244834694Y-78349066D01*
X244831760Y-78350822D01*
X244831758Y-78350823D01*
X244630865Y-78471055D01*
X244527193Y-78533101D01*
X244524467Y-78535163D01*
X244524465Y-78535164D01*
X244250340Y-78742484D01*
X244241367Y-78749270D01*
X244238882Y-78751612D01*
X244238877Y-78751616D01*
X244203847Y-78784627D01*
X243980559Y-78995043D01*
X243747819Y-79267546D01*
X243745900Y-79270358D01*
X243745897Y-79270363D01*
X243713614Y-79317689D01*
X243545871Y-79563591D01*
X243377077Y-79879714D01*
X243243411Y-80212218D01*
X243242491Y-80215492D01*
X243242489Y-80215497D01*
X243149903Y-80544883D01*
X243146437Y-80557213D01*
X243145875Y-80560570D01*
X243145875Y-80560571D01*
X243089708Y-80896216D01*
X243087290Y-80910663D01*
X243066661Y-81268434D01*
X243084792Y-81626340D01*
X243085329Y-81629695D01*
X243085330Y-81629701D01*
X243090316Y-81660828D01*
X243141470Y-81980195D01*
X243236033Y-82325859D01*
X243367374Y-82659288D01*
X243533957Y-82976582D01*
X243535858Y-82979411D01*
X243535864Y-82979421D01*
X243719569Y-83252800D01*
X243733834Y-83274029D01*
X243964665Y-83548150D01*
X244223751Y-83795738D01*
X244508061Y-84013897D01*
X244540056Y-84033350D01*
X244811355Y-84198303D01*
X244811360Y-84198306D01*
X244814270Y-84200075D01*
X244817358Y-84201521D01*
X244817357Y-84201521D01*
X244845914Y-84214898D01*
X244899117Y-84261908D01*
X244918459Y-84330219D01*
X244897799Y-84398143D01*
X244843696Y-84444115D01*
X244792465Y-84455000D01*
X204156077Y-84455000D01*
X204087956Y-84434998D01*
X204041463Y-84381342D01*
X204031359Y-84311068D01*
X204060853Y-84246488D01*
X204097552Y-84217457D01*
X204100066Y-84216311D01*
X204103003Y-84214567D01*
X204103009Y-84214564D01*
X204405262Y-84035099D01*
X204405267Y-84035096D01*
X204408207Y-84033350D01*
X204694786Y-83818180D01*
X204956451Y-83573319D01*
X205190140Y-83301630D01*
X205296750Y-83146512D01*
X205391190Y-83009101D01*
X205391195Y-83009094D01*
X205393120Y-83006292D01*
X205394732Y-83003298D01*
X205394737Y-83003290D01*
X205561395Y-82693772D01*
X205563017Y-82690760D01*
X205697842Y-82358724D01*
X205708142Y-82322568D01*
X205787891Y-82042606D01*
X205796020Y-82014070D01*
X205812020Y-81920467D01*
X205855829Y-81664175D01*
X205855829Y-81664173D01*
X205856401Y-81660828D01*
X205858511Y-81626340D01*
X205878168Y-81304928D01*
X205878278Y-81303131D01*
X205878359Y-81280000D01*
X205858979Y-80922159D01*
X205801066Y-80568505D01*
X205705297Y-80223173D01*
X205702243Y-80215497D01*
X205597299Y-79951787D01*
X205572793Y-79890205D01*
X205516386Y-79783671D01*
X205406702Y-79576513D01*
X205406698Y-79576506D01*
X205405103Y-79573494D01*
X205204190Y-79276746D01*
X205194321Y-79265108D01*
X205016079Y-79054933D01*
X204972403Y-79003432D01*
X204712454Y-78756750D01*
X204496376Y-78592143D01*
X204430091Y-78541647D01*
X204430089Y-78541646D01*
X204427384Y-78539585D01*
X204424472Y-78537828D01*
X204424467Y-78537825D01*
X204123443Y-78356236D01*
X204123437Y-78356233D01*
X204120528Y-78354478D01*
X203849725Y-78228775D01*
X203798571Y-78205030D01*
X203798569Y-78205029D01*
X203795475Y-78203593D01*
X203549360Y-78120288D01*
X203459255Y-78089789D01*
X203459250Y-78089788D01*
X203456028Y-78088697D01*
X203409352Y-78078349D01*
X205611801Y-78078349D01*
X205612394Y-78085641D01*
X205612394Y-78085644D01*
X205616085Y-78131018D01*
X205616500Y-78141233D01*
X205616500Y-78149293D01*
X205616925Y-78152937D01*
X205619789Y-78177507D01*
X205620222Y-78181882D01*
X205624018Y-78228546D01*
X205626140Y-78254637D01*
X205628396Y-78261601D01*
X205629587Y-78267560D01*
X205630971Y-78273415D01*
X205631818Y-78280681D01*
X205656735Y-78349327D01*
X205658152Y-78353455D01*
X205680649Y-78422899D01*
X205684445Y-78429154D01*
X205686951Y-78434628D01*
X205689670Y-78440058D01*
X205692167Y-78446937D01*
X205696180Y-78453057D01*
X205696180Y-78453058D01*
X205732186Y-78507976D01*
X205734523Y-78511680D01*
X205772405Y-78574107D01*
X205776121Y-78578315D01*
X205776122Y-78578316D01*
X205779803Y-78582484D01*
X205779776Y-78582508D01*
X205782429Y-78585500D01*
X205785132Y-78588733D01*
X205789144Y-78594852D01*
X205845383Y-78648128D01*
X205847825Y-78650506D01*
X208966230Y-81768911D01*
X208978616Y-81783323D01*
X208987149Y-81794918D01*
X208987154Y-81794923D01*
X208991492Y-81800818D01*
X208997070Y-81805557D01*
X208997073Y-81805560D01*
X209031768Y-81835035D01*
X209039284Y-81841965D01*
X209044979Y-81847660D01*
X209047861Y-81849940D01*
X209067251Y-81865281D01*
X209070655Y-81868072D01*
X209120703Y-81910591D01*
X209126285Y-81915333D01*
X209132801Y-81918661D01*
X209137850Y-81922028D01*
X209142979Y-81925195D01*
X209148716Y-81929734D01*
X209214875Y-81960655D01*
X209218769Y-81962558D01*
X209283808Y-81995769D01*
X209290916Y-81997508D01*
X209296559Y-81999607D01*
X209302322Y-82001524D01*
X209308950Y-82004622D01*
X209316112Y-82006112D01*
X209316113Y-82006112D01*
X209380412Y-82019486D01*
X209384696Y-82020456D01*
X209455610Y-82037808D01*
X209461212Y-82038156D01*
X209461215Y-82038156D01*
X209466764Y-82038500D01*
X209466762Y-82038536D01*
X209470755Y-82038775D01*
X209474947Y-82039149D01*
X209482115Y-82040640D01*
X209559520Y-82038546D01*
X209562928Y-82038500D01*
X214042930Y-82038500D01*
X214061880Y-82039933D01*
X214076115Y-82042099D01*
X214076119Y-82042099D01*
X214083349Y-82043199D01*
X214090641Y-82042606D01*
X214090644Y-82042606D01*
X214136018Y-82038915D01*
X214146233Y-82038500D01*
X214154293Y-82038500D01*
X214171680Y-82036473D01*
X214182507Y-82035211D01*
X214186882Y-82034778D01*
X214252339Y-82029454D01*
X214252342Y-82029453D01*
X214259637Y-82028860D01*
X214266601Y-82026604D01*
X214272560Y-82025413D01*
X214278415Y-82024029D01*
X214285681Y-82023182D01*
X214354327Y-81998265D01*
X214358455Y-81996848D01*
X214420936Y-81976607D01*
X214420938Y-81976606D01*
X214427899Y-81974351D01*
X214434154Y-81970555D01*
X214439628Y-81968049D01*
X214445058Y-81965330D01*
X214451937Y-81962833D01*
X214458058Y-81958820D01*
X214512976Y-81922814D01*
X214516680Y-81920477D01*
X214579107Y-81882595D01*
X214587484Y-81875197D01*
X214587508Y-81875224D01*
X214590500Y-81872571D01*
X214593733Y-81869868D01*
X214599852Y-81865856D01*
X214653128Y-81809617D01*
X214655506Y-81807175D01*
X215554040Y-80908641D01*
X215616352Y-80874615D01*
X215668256Y-80874266D01*
X215732585Y-80887354D01*
X215732593Y-80887355D01*
X215737656Y-80888385D01*
X215868324Y-80893176D01*
X215963949Y-80896683D01*
X215963953Y-80896683D01*
X215969113Y-80896872D01*
X215974233Y-80896216D01*
X215974235Y-80896216D01*
X216047270Y-80886860D01*
X216198847Y-80867442D01*
X216203795Y-80865957D01*
X216203802Y-80865956D01*
X216415747Y-80802369D01*
X216420690Y-80800886D01*
X216502159Y-80760975D01*
X216624049Y-80701262D01*
X216624052Y-80701260D01*
X216628684Y-80698991D01*
X216817243Y-80564494D01*
X216981303Y-80401005D01*
X216984319Y-80396808D01*
X216984326Y-80396800D01*
X217071960Y-80274844D01*
X217127954Y-80231196D01*
X217198658Y-80224750D01*
X217261622Y-80257553D01*
X217281715Y-80282536D01*
X217301800Y-80315313D01*
X217301806Y-80315321D01*
X217304501Y-80319719D01*
X217456147Y-80494784D01*
X217634349Y-80642730D01*
X217834322Y-80759584D01*
X218050694Y-80842209D01*
X218055760Y-80843240D01*
X218055761Y-80843240D01*
X218108295Y-80853928D01*
X218277656Y-80888385D01*
X218408324Y-80893176D01*
X218503949Y-80896683D01*
X218503953Y-80896683D01*
X218509113Y-80896872D01*
X218514233Y-80896216D01*
X218514235Y-80896216D01*
X218587270Y-80886860D01*
X218738847Y-80867442D01*
X218743795Y-80865957D01*
X218743802Y-80865956D01*
X218955747Y-80802369D01*
X218960690Y-80800886D01*
X219042159Y-80760975D01*
X219164049Y-80701262D01*
X219164052Y-80701260D01*
X219168684Y-80698991D01*
X219357243Y-80564494D01*
X219521303Y-80401005D01*
X219544512Y-80368707D01*
X219612275Y-80274404D01*
X219668270Y-80230756D01*
X219738973Y-80224310D01*
X219801938Y-80257113D01*
X219822031Y-80282096D01*
X219842205Y-80315017D01*
X219848286Y-80323326D01*
X219993113Y-80490519D01*
X220000475Y-80497728D01*
X220170660Y-80639018D01*
X220179099Y-80644927D01*
X220370077Y-80756525D01*
X220379364Y-80760975D01*
X220586003Y-80839883D01*
X220595901Y-80842759D01*
X220713250Y-80866634D01*
X220727299Y-80865438D01*
X220731000Y-80855093D01*
X220731000Y-80853928D01*
X221239000Y-80853928D01*
X221243064Y-80867770D01*
X221256479Y-80869804D01*
X221273613Y-80867609D01*
X221283698Y-80865466D01*
X221495557Y-80801905D01*
X221505152Y-80798144D01*
X221703778Y-80700838D01*
X221712636Y-80695559D01*
X221892716Y-80567109D01*
X221900578Y-80560465D01*
X222057260Y-80404329D01*
X222063937Y-80396484D01*
X222151676Y-80274382D01*
X222207671Y-80230734D01*
X222278374Y-80224288D01*
X222341339Y-80257091D01*
X222361432Y-80282074D01*
X222381800Y-80315313D01*
X222381806Y-80315321D01*
X222384501Y-80319719D01*
X222536147Y-80494784D01*
X222714349Y-80642730D01*
X222914322Y-80759584D01*
X223130694Y-80842209D01*
X223135760Y-80843240D01*
X223135761Y-80843240D01*
X223188295Y-80853928D01*
X223357656Y-80888385D01*
X223488324Y-80893176D01*
X223583949Y-80896683D01*
X223583953Y-80896683D01*
X223589113Y-80896872D01*
X223594233Y-80896216D01*
X223594235Y-80896216D01*
X223667270Y-80886860D01*
X223818847Y-80867442D01*
X223823795Y-80865957D01*
X223823802Y-80865956D01*
X224035747Y-80802369D01*
X224040690Y-80800886D01*
X224122159Y-80760975D01*
X224244049Y-80701262D01*
X224244052Y-80701260D01*
X224248684Y-80698991D01*
X224437243Y-80564494D01*
X224601303Y-80401005D01*
X224604319Y-80396808D01*
X224604326Y-80396800D01*
X224691960Y-80274844D01*
X224747954Y-80231196D01*
X224818658Y-80224750D01*
X224881622Y-80257553D01*
X224901715Y-80282536D01*
X224921800Y-80315313D01*
X224921806Y-80315321D01*
X224924501Y-80319719D01*
X225076147Y-80494784D01*
X225254349Y-80642730D01*
X225454322Y-80759584D01*
X225670694Y-80842209D01*
X225675760Y-80843240D01*
X225675761Y-80843240D01*
X225728295Y-80853928D01*
X225897656Y-80888385D01*
X226028324Y-80893176D01*
X226123949Y-80896683D01*
X226123953Y-80896683D01*
X226129113Y-80896872D01*
X226134233Y-80896216D01*
X226134235Y-80896216D01*
X226207270Y-80886860D01*
X226358847Y-80867442D01*
X226363795Y-80865957D01*
X226363802Y-80865956D01*
X226575747Y-80802369D01*
X226580690Y-80800886D01*
X226662159Y-80760975D01*
X226784049Y-80701262D01*
X226784052Y-80701260D01*
X226788684Y-80698991D01*
X226977243Y-80564494D01*
X227141303Y-80401005D01*
X227222409Y-80288134D01*
X231671500Y-80288134D01*
X231678255Y-80350316D01*
X231729385Y-80486705D01*
X231816739Y-80603261D01*
X231933295Y-80690615D01*
X232069684Y-80741745D01*
X232131866Y-80748500D01*
X235228134Y-80748500D01*
X235290316Y-80741745D01*
X235426705Y-80690615D01*
X235543261Y-80603261D01*
X235630615Y-80486705D01*
X235681745Y-80350316D01*
X235688500Y-80288134D01*
X235688500Y-78718918D01*
X236746917Y-78718918D01*
X236762682Y-78992320D01*
X236763507Y-78996525D01*
X236763508Y-78996533D01*
X236770966Y-79034544D01*
X236815405Y-79261053D01*
X236816792Y-79265103D01*
X236816793Y-79265108D01*
X236902723Y-79516088D01*
X236904112Y-79520144D01*
X236927472Y-79566590D01*
X237023600Y-79757720D01*
X237027160Y-79764799D01*
X237029586Y-79768328D01*
X237029589Y-79768334D01*
X237125334Y-79907642D01*
X237182274Y-79990490D01*
X237366582Y-80193043D01*
X237369877Y-80195798D01*
X237369878Y-80195799D01*
X237463863Y-80274382D01*
X237576675Y-80368707D01*
X237580316Y-80370991D01*
X237805024Y-80511951D01*
X237805028Y-80511953D01*
X237808664Y-80514234D01*
X237933460Y-80570582D01*
X238054345Y-80625164D01*
X238054349Y-80625166D01*
X238058257Y-80626930D01*
X238062377Y-80628150D01*
X238062376Y-80628150D01*
X238316723Y-80703491D01*
X238316727Y-80703492D01*
X238320836Y-80704709D01*
X238325070Y-80705357D01*
X238325075Y-80705358D01*
X238587298Y-80745483D01*
X238587300Y-80745483D01*
X238591540Y-80746132D01*
X238730912Y-80748322D01*
X238861071Y-80750367D01*
X238861077Y-80750367D01*
X238865362Y-80750434D01*
X239137235Y-80717534D01*
X239402127Y-80648041D01*
X239406087Y-80646401D01*
X239406092Y-80646399D01*
X239596589Y-80567492D01*
X239655136Y-80543241D01*
X239891582Y-80405073D01*
X240107089Y-80236094D01*
X240111836Y-80231196D01*
X240294686Y-80042509D01*
X240297669Y-80039431D01*
X240300202Y-80035983D01*
X240300206Y-80035978D01*
X240457257Y-79822178D01*
X240459795Y-79818723D01*
X240478827Y-79783671D01*
X240588418Y-79581830D01*
X240588419Y-79581828D01*
X240590468Y-79578054D01*
X240687269Y-79321877D01*
X240748407Y-79054933D01*
X240753004Y-79003432D01*
X240772531Y-78784627D01*
X240772531Y-78784625D01*
X240772751Y-78782161D01*
X240773118Y-78747205D01*
X240773167Y-78742484D01*
X240773167Y-78742483D01*
X240773193Y-78740000D01*
X240771465Y-78714648D01*
X240754859Y-78471055D01*
X240754858Y-78471049D01*
X240754567Y-78466778D01*
X240752166Y-78455181D01*
X240721129Y-78305315D01*
X240699032Y-78198612D01*
X240607617Y-77940465D01*
X240482013Y-77697112D01*
X240472040Y-77682921D01*
X240327008Y-77476562D01*
X240324545Y-77473057D01*
X240138125Y-77272445D01*
X240134810Y-77269731D01*
X240134806Y-77269728D01*
X239973304Y-77137540D01*
X239926205Y-77098990D01*
X239699284Y-76959933D01*
X239696366Y-76958145D01*
X239696365Y-76958145D01*
X239692704Y-76955901D01*
X239688768Y-76954173D01*
X239445873Y-76847549D01*
X239445869Y-76847548D01*
X239441945Y-76845825D01*
X239178566Y-76770800D01*
X239174324Y-76770196D01*
X239174318Y-76770195D01*
X238969387Y-76741029D01*
X238907443Y-76732213D01*
X238763589Y-76731460D01*
X238637877Y-76730802D01*
X238637871Y-76730802D01*
X238633591Y-76730780D01*
X238629347Y-76731339D01*
X238629343Y-76731339D01*
X238555741Y-76741029D01*
X238362078Y-76766525D01*
X238357938Y-76767658D01*
X238357936Y-76767658D01*
X238290037Y-76786233D01*
X238097928Y-76838788D01*
X238093980Y-76840472D01*
X237849982Y-76944546D01*
X237849978Y-76944548D01*
X237846030Y-76946232D01*
X237783539Y-76983632D01*
X237614725Y-77084664D01*
X237614721Y-77084667D01*
X237611043Y-77086868D01*
X237397318Y-77258094D01*
X237208808Y-77456742D01*
X237049002Y-77679136D01*
X236920857Y-77921161D01*
X236919385Y-77925184D01*
X236919383Y-77925188D01*
X236836038Y-78152937D01*
X236826743Y-78178337D01*
X236768404Y-78445907D01*
X236768068Y-78450177D01*
X236754127Y-78627315D01*
X236746917Y-78718918D01*
X235688500Y-78718918D01*
X235688500Y-77191866D01*
X235681745Y-77129684D01*
X235630615Y-76993295D01*
X235543261Y-76876739D01*
X235426705Y-76789385D01*
X235290316Y-76738255D01*
X235228134Y-76731500D01*
X232131866Y-76731500D01*
X232069684Y-76738255D01*
X231933295Y-76789385D01*
X231816739Y-76876739D01*
X231729385Y-76993295D01*
X231678255Y-77129684D01*
X231671500Y-77191866D01*
X231671500Y-80288134D01*
X227222409Y-80288134D01*
X227276458Y-80212917D01*
X227286281Y-80193043D01*
X227376784Y-80009922D01*
X227376785Y-80009920D01*
X227379078Y-80005280D01*
X227446408Y-79783671D01*
X227476640Y-79554041D01*
X227477468Y-79520144D01*
X227478245Y-79488365D01*
X227478245Y-79488361D01*
X227478327Y-79485000D01*
X227464916Y-79321877D01*
X227459773Y-79259318D01*
X227459772Y-79259312D01*
X227459349Y-79254167D01*
X227402925Y-79029533D01*
X227391576Y-79003432D01*
X227312630Y-78821868D01*
X227312628Y-78821865D01*
X227310570Y-78817131D01*
X227184764Y-78622665D01*
X227028887Y-78451358D01*
X227024836Y-78448159D01*
X227024832Y-78448155D01*
X226851177Y-78311011D01*
X226851172Y-78311008D01*
X226847123Y-78307810D01*
X226842607Y-78305317D01*
X226842604Y-78305315D01*
X226648879Y-78198373D01*
X226648875Y-78198371D01*
X226644355Y-78195876D01*
X226639486Y-78194152D01*
X226639482Y-78194150D01*
X226430903Y-78120288D01*
X226430899Y-78120287D01*
X226426028Y-78118562D01*
X226420935Y-78117655D01*
X226420932Y-78117654D01*
X226203095Y-78078851D01*
X226203089Y-78078850D01*
X226198006Y-78077945D01*
X226125096Y-78077054D01*
X225971581Y-78075179D01*
X225971579Y-78075179D01*
X225966411Y-78075116D01*
X225737464Y-78110150D01*
X225517314Y-78182106D01*
X225512726Y-78184494D01*
X225512722Y-78184496D01*
X225316461Y-78286663D01*
X225311872Y-78289052D01*
X225307739Y-78292155D01*
X225307736Y-78292157D01*
X225130790Y-78425012D01*
X225126655Y-78428117D01*
X225089710Y-78466778D01*
X224979116Y-78582508D01*
X224966639Y-78595564D01*
X224899306Y-78694271D01*
X224844397Y-78739271D01*
X224773872Y-78747442D01*
X224710125Y-78716188D01*
X224689428Y-78691705D01*
X224647571Y-78627004D01*
X224644764Y-78622665D01*
X224488887Y-78451358D01*
X224484836Y-78448159D01*
X224484832Y-78448155D01*
X224311177Y-78311011D01*
X224311172Y-78311008D01*
X224307123Y-78307810D01*
X224302607Y-78305317D01*
X224302604Y-78305315D01*
X224108879Y-78198373D01*
X224108875Y-78198371D01*
X224104355Y-78195876D01*
X224099486Y-78194152D01*
X224099482Y-78194150D01*
X223890903Y-78120288D01*
X223890899Y-78120287D01*
X223886028Y-78118562D01*
X223880935Y-78117655D01*
X223880932Y-78117654D01*
X223663095Y-78078851D01*
X223663089Y-78078850D01*
X223658006Y-78077945D01*
X223585096Y-78077054D01*
X223431581Y-78075179D01*
X223431579Y-78075179D01*
X223426411Y-78075116D01*
X223197464Y-78110150D01*
X222977314Y-78182106D01*
X222972726Y-78184494D01*
X222972722Y-78184496D01*
X222776461Y-78286663D01*
X222771872Y-78289052D01*
X222767739Y-78292155D01*
X222767736Y-78292157D01*
X222590790Y-78425012D01*
X222586655Y-78428117D01*
X222549710Y-78466778D01*
X222439116Y-78582508D01*
X222426639Y-78595564D01*
X222423730Y-78599829D01*
X222423724Y-78599837D01*
X222359002Y-78694716D01*
X222304091Y-78739719D01*
X222233566Y-78747890D01*
X222169819Y-78716636D01*
X222149122Y-78692152D01*
X222107177Y-78627315D01*
X222100885Y-78619144D01*
X221952023Y-78455547D01*
X221944490Y-78448521D01*
X221770901Y-78311429D01*
X221762323Y-78305730D01*
X221568678Y-78198833D01*
X221559272Y-78194606D01*
X221350772Y-78120772D01*
X221340809Y-78118140D01*
X221256836Y-78103182D01*
X221243541Y-78104641D01*
X221239000Y-78119199D01*
X221239000Y-80853928D01*
X220731000Y-80853928D01*
X220731000Y-78117517D01*
X220727082Y-78104173D01*
X220712806Y-78102186D01*
X220662694Y-78109855D01*
X220652666Y-78112244D01*
X220442426Y-78180961D01*
X220432916Y-78184958D01*
X220236728Y-78287087D01*
X220228003Y-78292581D01*
X220051123Y-78425386D01*
X220043416Y-78432229D01*
X219890600Y-78592143D01*
X219884113Y-78600153D01*
X219819602Y-78694723D01*
X219764691Y-78739726D01*
X219694166Y-78747897D01*
X219630419Y-78716643D01*
X219609722Y-78692159D01*
X219567575Y-78627009D01*
X219567570Y-78627003D01*
X219564764Y-78622665D01*
X219408887Y-78451358D01*
X219404836Y-78448159D01*
X219404832Y-78448155D01*
X219231177Y-78311011D01*
X219231172Y-78311008D01*
X219227123Y-78307810D01*
X219222607Y-78305317D01*
X219222604Y-78305315D01*
X219028879Y-78198373D01*
X219028875Y-78198371D01*
X219024355Y-78195876D01*
X219019486Y-78194152D01*
X219019482Y-78194150D01*
X218810903Y-78120288D01*
X218810899Y-78120287D01*
X218806028Y-78118562D01*
X218800935Y-78117655D01*
X218800932Y-78117654D01*
X218583095Y-78078851D01*
X218583089Y-78078850D01*
X218578006Y-78077945D01*
X218505096Y-78077054D01*
X218351581Y-78075179D01*
X218351579Y-78075179D01*
X218346411Y-78075116D01*
X218117464Y-78110150D01*
X217897314Y-78182106D01*
X217892726Y-78184494D01*
X217892722Y-78184496D01*
X217696461Y-78286663D01*
X217691872Y-78289052D01*
X217687739Y-78292155D01*
X217687736Y-78292157D01*
X217510790Y-78425012D01*
X217506655Y-78428117D01*
X217469710Y-78466778D01*
X217359116Y-78582508D01*
X217346639Y-78595564D01*
X217279306Y-78694271D01*
X217224397Y-78739271D01*
X217153872Y-78747442D01*
X217090125Y-78716188D01*
X217069428Y-78691705D01*
X217027571Y-78627004D01*
X217024764Y-78622665D01*
X216868887Y-78451358D01*
X216864836Y-78448159D01*
X216864832Y-78448155D01*
X216691177Y-78311011D01*
X216691172Y-78311008D01*
X216687123Y-78307810D01*
X216682607Y-78305317D01*
X216682604Y-78305315D01*
X216488879Y-78198373D01*
X216488875Y-78198371D01*
X216484355Y-78195876D01*
X216479486Y-78194152D01*
X216479482Y-78194150D01*
X216270903Y-78120288D01*
X216270899Y-78120287D01*
X216266028Y-78118562D01*
X216260935Y-78117655D01*
X216260932Y-78117654D01*
X216043095Y-78078851D01*
X216043089Y-78078850D01*
X216038006Y-78077945D01*
X215965096Y-78077054D01*
X215811581Y-78075179D01*
X215811579Y-78075179D01*
X215806411Y-78075116D01*
X215577464Y-78110150D01*
X215357314Y-78182106D01*
X215352726Y-78184494D01*
X215352722Y-78184496D01*
X215156461Y-78286663D01*
X215151872Y-78289052D01*
X215147739Y-78292155D01*
X215147736Y-78292157D01*
X214970790Y-78425012D01*
X214966655Y-78428117D01*
X214929710Y-78466778D01*
X214819116Y-78582508D01*
X214806639Y-78595564D01*
X214739306Y-78694271D01*
X214684397Y-78739271D01*
X214613872Y-78747442D01*
X214550125Y-78716188D01*
X214529428Y-78691705D01*
X214487571Y-78627004D01*
X214484764Y-78622665D01*
X214328887Y-78451358D01*
X214324836Y-78448159D01*
X214324832Y-78448155D01*
X214151177Y-78311011D01*
X214151172Y-78311008D01*
X214147123Y-78307810D01*
X214142607Y-78305317D01*
X214142604Y-78305315D01*
X213948879Y-78198373D01*
X213948875Y-78198371D01*
X213944355Y-78195876D01*
X213939486Y-78194152D01*
X213939482Y-78194150D01*
X213730903Y-78120288D01*
X213730899Y-78120287D01*
X213726028Y-78118562D01*
X213720935Y-78117655D01*
X213720932Y-78117654D01*
X213503095Y-78078851D01*
X213503089Y-78078850D01*
X213498006Y-78077945D01*
X213425096Y-78077054D01*
X213271581Y-78075179D01*
X213271579Y-78075179D01*
X213266411Y-78075116D01*
X213122515Y-78097135D01*
X213052152Y-78087667D01*
X213014361Y-78061680D01*
X212126276Y-77173595D01*
X212092250Y-77111283D01*
X212097315Y-77040468D01*
X212139862Y-76983632D01*
X212206382Y-76958821D01*
X212215371Y-76958500D01*
X228532930Y-76958500D01*
X228551880Y-76959933D01*
X228566115Y-76962099D01*
X228566119Y-76962099D01*
X228573349Y-76963199D01*
X228580641Y-76962606D01*
X228580644Y-76962606D01*
X228626018Y-76958915D01*
X228636233Y-76958500D01*
X228644293Y-76958500D01*
X228657583Y-76956951D01*
X228672507Y-76955211D01*
X228676882Y-76954778D01*
X228742339Y-76949454D01*
X228742342Y-76949453D01*
X228749637Y-76948860D01*
X228756601Y-76946604D01*
X228762560Y-76945413D01*
X228768415Y-76944029D01*
X228775681Y-76943182D01*
X228844327Y-76918265D01*
X228848455Y-76916848D01*
X228910936Y-76896607D01*
X228910938Y-76896606D01*
X228917899Y-76894351D01*
X228924154Y-76890555D01*
X228929628Y-76888049D01*
X228935058Y-76885330D01*
X228941937Y-76882833D01*
X228998383Y-76845825D01*
X229002976Y-76842814D01*
X229006687Y-76840472D01*
X229069107Y-76802595D01*
X229077484Y-76795197D01*
X229077508Y-76795224D01*
X229080500Y-76792571D01*
X229083733Y-76789868D01*
X229089852Y-76785856D01*
X229143128Y-76729617D01*
X229145506Y-76727175D01*
X230358911Y-75513770D01*
X230373323Y-75501384D01*
X230384918Y-75492851D01*
X230384923Y-75492846D01*
X230390818Y-75488508D01*
X230395557Y-75482930D01*
X230395560Y-75482927D01*
X230425035Y-75448232D01*
X230431965Y-75440716D01*
X230437660Y-75435021D01*
X230455281Y-75412749D01*
X230458072Y-75409345D01*
X230500591Y-75359297D01*
X230500592Y-75359295D01*
X230505333Y-75353715D01*
X230508661Y-75347199D01*
X230512028Y-75342150D01*
X230515195Y-75337021D01*
X230519734Y-75331284D01*
X230550655Y-75265125D01*
X230552561Y-75261225D01*
X230585769Y-75196192D01*
X230587508Y-75189084D01*
X230589607Y-75183441D01*
X230591524Y-75177678D01*
X230594622Y-75171050D01*
X230609487Y-75099583D01*
X230610457Y-75095299D01*
X230626473Y-75029845D01*
X230627808Y-75024390D01*
X230628500Y-75013236D01*
X230628536Y-75013238D01*
X230628775Y-75009245D01*
X230629149Y-75005053D01*
X230630640Y-74997885D01*
X230628546Y-74920479D01*
X230628500Y-74917072D01*
X230628500Y-73092069D01*
X230629933Y-73073118D01*
X230632099Y-73058883D01*
X230632099Y-73058881D01*
X230633199Y-73051651D01*
X230632135Y-73038562D01*
X230628915Y-72998982D01*
X230628500Y-72988767D01*
X230628500Y-72980707D01*
X230625211Y-72952493D01*
X230624778Y-72948118D01*
X230619454Y-72882661D01*
X230619453Y-72882658D01*
X230618860Y-72875363D01*
X230616604Y-72868399D01*
X230615413Y-72862440D01*
X230614029Y-72856585D01*
X230613182Y-72849319D01*
X230588265Y-72780673D01*
X230586848Y-72776545D01*
X230566607Y-72714064D01*
X230566606Y-72714062D01*
X230564351Y-72707101D01*
X230560555Y-72700846D01*
X230558049Y-72695372D01*
X230555330Y-72689942D01*
X230552833Y-72683063D01*
X230512809Y-72622016D01*
X230510472Y-72618312D01*
X230475509Y-72560693D01*
X230475505Y-72560688D01*
X230472595Y-72555892D01*
X230465197Y-72547516D01*
X230465223Y-72547493D01*
X230462574Y-72544503D01*
X230459866Y-72541264D01*
X230455856Y-72535148D01*
X230450549Y-72530121D01*
X230450546Y-72530117D01*
X230399617Y-72481872D01*
X230397175Y-72479494D01*
X229315815Y-71398134D01*
X243101500Y-71398134D01*
X243108255Y-71460316D01*
X243159385Y-71596705D01*
X243246739Y-71713261D01*
X243363295Y-71800615D01*
X243499684Y-71851745D01*
X243561866Y-71858500D01*
X246658134Y-71858500D01*
X246720316Y-71851745D01*
X246856705Y-71800615D01*
X246973261Y-71713261D01*
X247060615Y-71596705D01*
X247111745Y-71460316D01*
X247118500Y-71398134D01*
X247118500Y-68301866D01*
X247111745Y-68239684D01*
X247060615Y-68103295D01*
X246973261Y-67986739D01*
X246856705Y-67899385D01*
X246720316Y-67848255D01*
X246658134Y-67841500D01*
X243561866Y-67841500D01*
X243499684Y-67848255D01*
X243363295Y-67899385D01*
X243246739Y-67986739D01*
X243159385Y-68103295D01*
X243108255Y-68239684D01*
X243101500Y-68301866D01*
X243101500Y-71398134D01*
X229315815Y-71398134D01*
X226008770Y-68091089D01*
X225996384Y-68076677D01*
X225987851Y-68065082D01*
X225987846Y-68065077D01*
X225983508Y-68059182D01*
X225977930Y-68054443D01*
X225977927Y-68054440D01*
X225943232Y-68024965D01*
X225935716Y-68018035D01*
X225930021Y-68012340D01*
X225923880Y-68007482D01*
X225907749Y-67994719D01*
X225904345Y-67991928D01*
X225854297Y-67949409D01*
X225854295Y-67949408D01*
X225848715Y-67944667D01*
X225842199Y-67941339D01*
X225837150Y-67937972D01*
X225832021Y-67934805D01*
X225826284Y-67930266D01*
X225760125Y-67899345D01*
X225756225Y-67897439D01*
X225753863Y-67896233D01*
X225691192Y-67864231D01*
X225684084Y-67862492D01*
X225679774Y-67860889D01*
X231101500Y-67860889D01*
X231108255Y-67923071D01*
X231159385Y-68059460D01*
X231246739Y-68176016D01*
X231363295Y-68263370D01*
X231499684Y-68314500D01*
X231561866Y-68321255D01*
X233258134Y-68321255D01*
X233320316Y-68314500D01*
X233456705Y-68263370D01*
X233573261Y-68176016D01*
X233660615Y-68059460D01*
X233711745Y-67923071D01*
X233718500Y-67860889D01*
X233718500Y-66164621D01*
X233711745Y-66102439D01*
X233660615Y-65966050D01*
X233573261Y-65849494D01*
X233456705Y-65762140D01*
X233320316Y-65711010D01*
X233258134Y-65704255D01*
X231561866Y-65704255D01*
X231499684Y-65711010D01*
X231363295Y-65762140D01*
X231246739Y-65849494D01*
X231159385Y-65966050D01*
X231108255Y-66102439D01*
X231101500Y-66164621D01*
X231101500Y-67860889D01*
X225679774Y-67860889D01*
X225678441Y-67860393D01*
X225672678Y-67858476D01*
X225666050Y-67855378D01*
X225645142Y-67851029D01*
X225601103Y-67841869D01*
X225594583Y-67840513D01*
X225590299Y-67839543D01*
X225519390Y-67822192D01*
X225513788Y-67821844D01*
X225513785Y-67821844D01*
X225508236Y-67821500D01*
X225508238Y-67821464D01*
X225504245Y-67821225D01*
X225500053Y-67820851D01*
X225492885Y-67819360D01*
X225426675Y-67821151D01*
X225415479Y-67821454D01*
X225412072Y-67821500D01*
X220711371Y-67821500D01*
X220643250Y-67801498D01*
X220622276Y-67784595D01*
X219804909Y-66967228D01*
X219770883Y-66904916D01*
X219775948Y-66834101D01*
X219818495Y-66777265D01*
X219877994Y-66753154D01*
X219988288Y-66739025D01*
X219988289Y-66739025D01*
X219993416Y-66738368D01*
X220009672Y-66733491D01*
X220202429Y-66675661D01*
X220202434Y-66675659D01*
X220207384Y-66674174D01*
X220407994Y-66575896D01*
X220589860Y-66446173D01*
X220598828Y-66437237D01*
X220733400Y-66303134D01*
X220748096Y-66288489D01*
X220762284Y-66268745D01*
X220875435Y-66111277D01*
X220878453Y-66107077D01*
X220895538Y-66072509D01*
X220975136Y-65911453D01*
X220975137Y-65911451D01*
X220977430Y-65906811D01*
X221038859Y-65704624D01*
X221040865Y-65698023D01*
X221040865Y-65698021D01*
X221042370Y-65693069D01*
X221071529Y-65471590D01*
X221072126Y-65447161D01*
X221073074Y-65408365D01*
X221073074Y-65408361D01*
X221073156Y-65405000D01*
X221054852Y-65182361D01*
X221000431Y-64965702D01*
X220911354Y-64760840D01*
X220833512Y-64640515D01*
X220792822Y-64577617D01*
X220792820Y-64577614D01*
X220790014Y-64573277D01*
X220639670Y-64408051D01*
X220635619Y-64404852D01*
X220635615Y-64404848D01*
X220468414Y-64272800D01*
X220468410Y-64272798D01*
X220464359Y-64269598D01*
X220447500Y-64260291D01*
X220412136Y-64240769D01*
X220268789Y-64161638D01*
X220263920Y-64159914D01*
X220263916Y-64159912D01*
X220063087Y-64088795D01*
X220063083Y-64088794D01*
X220058212Y-64087069D01*
X220053119Y-64086162D01*
X220053116Y-64086161D01*
X219843373Y-64048800D01*
X219843367Y-64048799D01*
X219838284Y-64047894D01*
X219764452Y-64046992D01*
X219620081Y-64045228D01*
X219620079Y-64045228D01*
X219614911Y-64045165D01*
X219394091Y-64078955D01*
X219181756Y-64148357D01*
X218983607Y-64251507D01*
X218979474Y-64254610D01*
X218979471Y-64254612D01*
X218831224Y-64365919D01*
X218804965Y-64385635D01*
X218729372Y-64464739D01*
X218724283Y-64470064D01*
X218662759Y-64505494D01*
X218591846Y-64502037D01*
X218534060Y-64460791D01*
X218515207Y-64427243D01*
X218473767Y-64316703D01*
X218470615Y-64308295D01*
X218383261Y-64191739D01*
X218266705Y-64104385D01*
X218130316Y-64053255D01*
X218068134Y-64046500D01*
X216271866Y-64046500D01*
X216209684Y-64053255D01*
X216073295Y-64104385D01*
X215956739Y-64191739D01*
X215869385Y-64308295D01*
X215818255Y-64444684D01*
X215811500Y-64506866D01*
X215811500Y-66303134D01*
X215818255Y-66365316D01*
X215869385Y-66501705D01*
X215956739Y-66618261D01*
X216073295Y-66705615D01*
X216209684Y-66756745D01*
X216271866Y-66763500D01*
X217403629Y-66763500D01*
X217471750Y-66783502D01*
X217492724Y-66800405D01*
X219761230Y-69068911D01*
X219773616Y-69083323D01*
X219782149Y-69094918D01*
X219782154Y-69094923D01*
X219786492Y-69100818D01*
X219792070Y-69105557D01*
X219792073Y-69105560D01*
X219826768Y-69135035D01*
X219834284Y-69141965D01*
X219839979Y-69147660D01*
X219842861Y-69149940D01*
X219862251Y-69165281D01*
X219865655Y-69168072D01*
X219915703Y-69210591D01*
X219921285Y-69215333D01*
X219927801Y-69218661D01*
X219932850Y-69222028D01*
X219937979Y-69225195D01*
X219943716Y-69229734D01*
X220009875Y-69260655D01*
X220013769Y-69262558D01*
X220078808Y-69295769D01*
X220085916Y-69297508D01*
X220091559Y-69299607D01*
X220097322Y-69301524D01*
X220103950Y-69304622D01*
X220111112Y-69306112D01*
X220111113Y-69306112D01*
X220175412Y-69319486D01*
X220179696Y-69320456D01*
X220250610Y-69337808D01*
X220256212Y-69338156D01*
X220256215Y-69338156D01*
X220261764Y-69338500D01*
X220261762Y-69338536D01*
X220265755Y-69338775D01*
X220269947Y-69339149D01*
X220277115Y-69340640D01*
X220354520Y-69338546D01*
X220357928Y-69338500D01*
X225058629Y-69338500D01*
X225126750Y-69358502D01*
X225147724Y-69375405D01*
X228625189Y-72852870D01*
X228659215Y-72915182D01*
X228654150Y-72985997D01*
X228611603Y-73042833D01*
X228545083Y-73067644D01*
X228481901Y-73053863D01*
X228481705Y-73054385D01*
X228473304Y-73051236D01*
X228473301Y-73051234D01*
X228392586Y-73020976D01*
X228345316Y-73003255D01*
X228283134Y-72996500D01*
X226386866Y-72996500D01*
X226324684Y-73003255D01*
X226188295Y-73054385D01*
X226071739Y-73141739D01*
X225984385Y-73258295D01*
X225981233Y-73266704D01*
X225981232Y-73266705D01*
X225960538Y-73321906D01*
X225917897Y-73378671D01*
X225851335Y-73403371D01*
X225781986Y-73388164D01*
X225759167Y-73371666D01*
X225758887Y-73371358D01*
X225750315Y-73364588D01*
X225581177Y-73231011D01*
X225581172Y-73231008D01*
X225577123Y-73227810D01*
X225572607Y-73225317D01*
X225572604Y-73225315D01*
X225378879Y-73118373D01*
X225378875Y-73118371D01*
X225374355Y-73115876D01*
X225369486Y-73114152D01*
X225369482Y-73114150D01*
X225160903Y-73040288D01*
X225160899Y-73040287D01*
X225156028Y-73038562D01*
X225150935Y-73037655D01*
X225150932Y-73037654D01*
X224933095Y-72998851D01*
X224933089Y-72998850D01*
X224928006Y-72997945D01*
X224855096Y-72997054D01*
X224701581Y-72995179D01*
X224701579Y-72995179D01*
X224696411Y-72995116D01*
X224467464Y-73030150D01*
X224247314Y-73102106D01*
X224242726Y-73104494D01*
X224242722Y-73104496D01*
X224068754Y-73195058D01*
X224041872Y-73209052D01*
X224037739Y-73212155D01*
X224037736Y-73212157D01*
X223860790Y-73345012D01*
X223856655Y-73348117D01*
X223696639Y-73515564D01*
X223629306Y-73614271D01*
X223574397Y-73659271D01*
X223503872Y-73667442D01*
X223440125Y-73636188D01*
X223419428Y-73611705D01*
X223377571Y-73547004D01*
X223374764Y-73542665D01*
X223218887Y-73371358D01*
X223214836Y-73368159D01*
X223214832Y-73368155D01*
X223041177Y-73231011D01*
X223041172Y-73231008D01*
X223037123Y-73227810D01*
X223032607Y-73225317D01*
X223032604Y-73225315D01*
X222838879Y-73118373D01*
X222838875Y-73118371D01*
X222834355Y-73115876D01*
X222829486Y-73114152D01*
X222829482Y-73114150D01*
X222620903Y-73040288D01*
X222620899Y-73040287D01*
X222616028Y-73038562D01*
X222610935Y-73037655D01*
X222610932Y-73037654D01*
X222393095Y-72998851D01*
X222393089Y-72998850D01*
X222388006Y-72997945D01*
X222315096Y-72997054D01*
X222161581Y-72995179D01*
X222161579Y-72995179D01*
X222156411Y-72995116D01*
X221927464Y-73030150D01*
X221707314Y-73102106D01*
X221702726Y-73104494D01*
X221702722Y-73104496D01*
X221528754Y-73195058D01*
X221501872Y-73209052D01*
X221497739Y-73212155D01*
X221497736Y-73212157D01*
X221320790Y-73345012D01*
X221316655Y-73348117D01*
X221156639Y-73515564D01*
X221089306Y-73614271D01*
X221034397Y-73659271D01*
X220963872Y-73667442D01*
X220900125Y-73636188D01*
X220879428Y-73611705D01*
X220837571Y-73547004D01*
X220834764Y-73542665D01*
X220678887Y-73371358D01*
X220674836Y-73368159D01*
X220674832Y-73368155D01*
X220501177Y-73231011D01*
X220501172Y-73231008D01*
X220497123Y-73227810D01*
X220492607Y-73225317D01*
X220492604Y-73225315D01*
X220298879Y-73118373D01*
X220298875Y-73118371D01*
X220294355Y-73115876D01*
X220289486Y-73114152D01*
X220289482Y-73114150D01*
X220080903Y-73040288D01*
X220080899Y-73040287D01*
X220076028Y-73038562D01*
X220070935Y-73037655D01*
X220070932Y-73037654D01*
X219853095Y-72998851D01*
X219853089Y-72998850D01*
X219848006Y-72997945D01*
X219775096Y-72997054D01*
X219621581Y-72995179D01*
X219621579Y-72995179D01*
X219616411Y-72995116D01*
X219387464Y-73030150D01*
X219167314Y-73102106D01*
X219162726Y-73104494D01*
X219162722Y-73104496D01*
X218988754Y-73195058D01*
X218961872Y-73209052D01*
X218957739Y-73212155D01*
X218957736Y-73212157D01*
X218780790Y-73345012D01*
X218776655Y-73348117D01*
X218616639Y-73515564D01*
X218613730Y-73519829D01*
X218613724Y-73519837D01*
X218549002Y-73614716D01*
X218494091Y-73659719D01*
X218423566Y-73667890D01*
X218359819Y-73636636D01*
X218339122Y-73612152D01*
X218297177Y-73547315D01*
X218290885Y-73539144D01*
X218142023Y-73375547D01*
X218134490Y-73368521D01*
X217960901Y-73231429D01*
X217952323Y-73225730D01*
X217758678Y-73118833D01*
X217749272Y-73114606D01*
X217540772Y-73040772D01*
X217530809Y-73038140D01*
X217446836Y-73023182D01*
X217433541Y-73024641D01*
X217429000Y-73039199D01*
X217429000Y-74533000D01*
X217408998Y-74601121D01*
X217355342Y-74647614D01*
X217303000Y-74659000D01*
X214507000Y-74659000D01*
X214438879Y-74638998D01*
X214392386Y-74585342D01*
X214381000Y-74533000D01*
X214381000Y-74132885D01*
X214889000Y-74132885D01*
X214893475Y-74148124D01*
X214894865Y-74149329D01*
X214902548Y-74151000D01*
X216902885Y-74151000D01*
X216918124Y-74146525D01*
X216919329Y-74145135D01*
X216921000Y-74137452D01*
X216921000Y-73037517D01*
X216917082Y-73024173D01*
X216902806Y-73022186D01*
X216852694Y-73029855D01*
X216842666Y-73032244D01*
X216632426Y-73100961D01*
X216622916Y-73104958D01*
X216426728Y-73207087D01*
X216418003Y-73212581D01*
X216241123Y-73345386D01*
X216233416Y-73352229D01*
X216080600Y-73512143D01*
X216074113Y-73520153D01*
X216009296Y-73615171D01*
X215954385Y-73660174D01*
X215883860Y-73668345D01*
X215820113Y-73637091D01*
X215799416Y-73612606D01*
X215757181Y-73547320D01*
X215750885Y-73539144D01*
X215602023Y-73375547D01*
X215594490Y-73368521D01*
X215420901Y-73231429D01*
X215412323Y-73225730D01*
X215218678Y-73118833D01*
X215209272Y-73114606D01*
X215000772Y-73040772D01*
X214990809Y-73038140D01*
X214906836Y-73023182D01*
X214893541Y-73024641D01*
X214889000Y-73039199D01*
X214889000Y-74132885D01*
X214381000Y-74132885D01*
X214381000Y-73037517D01*
X214377082Y-73024173D01*
X214362806Y-73022186D01*
X214312694Y-73029855D01*
X214302666Y-73032244D01*
X214092426Y-73100961D01*
X214082916Y-73104958D01*
X213886728Y-73207087D01*
X213878003Y-73212581D01*
X213701123Y-73345386D01*
X213693416Y-73352229D01*
X213540600Y-73512143D01*
X213534113Y-73520153D01*
X213469602Y-73614723D01*
X213414691Y-73659726D01*
X213344166Y-73667897D01*
X213280419Y-73636643D01*
X213259722Y-73612159D01*
X213217575Y-73547009D01*
X213217570Y-73547003D01*
X213214764Y-73542665D01*
X213058887Y-73371358D01*
X213054836Y-73368159D01*
X213054832Y-73368155D01*
X212881177Y-73231011D01*
X212881172Y-73231008D01*
X212877123Y-73227810D01*
X212872607Y-73225317D01*
X212872604Y-73225315D01*
X212678879Y-73118373D01*
X212678875Y-73118371D01*
X212674355Y-73115876D01*
X212669486Y-73114152D01*
X212669482Y-73114150D01*
X212460903Y-73040288D01*
X212460899Y-73040287D01*
X212456028Y-73038562D01*
X212450935Y-73037655D01*
X212450932Y-73037654D01*
X212233095Y-72998851D01*
X212233089Y-72998850D01*
X212228006Y-72997945D01*
X212155096Y-72997054D01*
X212001581Y-72995179D01*
X212001579Y-72995179D01*
X211996411Y-72995116D01*
X211767464Y-73030150D01*
X211547314Y-73102106D01*
X211542726Y-73104494D01*
X211542722Y-73104496D01*
X211368754Y-73195058D01*
X211341872Y-73209052D01*
X211337739Y-73212155D01*
X211337736Y-73212157D01*
X211160790Y-73345012D01*
X211156655Y-73348117D01*
X210996639Y-73515564D01*
X210929306Y-73614271D01*
X210874397Y-73659271D01*
X210803872Y-73667442D01*
X210740125Y-73636188D01*
X210719428Y-73611705D01*
X210677571Y-73547004D01*
X210674764Y-73542665D01*
X210518887Y-73371358D01*
X210514836Y-73368159D01*
X210514832Y-73368155D01*
X210341177Y-73231011D01*
X210341172Y-73231008D01*
X210337123Y-73227810D01*
X210332607Y-73225317D01*
X210332604Y-73225315D01*
X210138879Y-73118373D01*
X210138875Y-73118371D01*
X210134355Y-73115876D01*
X210129486Y-73114152D01*
X210129482Y-73114150D01*
X209920903Y-73040288D01*
X209920899Y-73040287D01*
X209916028Y-73038562D01*
X209910935Y-73037655D01*
X209910932Y-73037654D01*
X209693095Y-72998851D01*
X209693089Y-72998850D01*
X209688006Y-72997945D01*
X209682613Y-72997879D01*
X209682444Y-72997877D01*
X209682290Y-72997830D01*
X209677683Y-72997394D01*
X209677773Y-72996443D01*
X209614573Y-72977043D01*
X209568740Y-72922823D01*
X209559496Y-72852430D01*
X209589777Y-72788215D01*
X209594890Y-72782791D01*
X210462276Y-71915405D01*
X210524588Y-71881379D01*
X210551371Y-71878500D01*
X213780500Y-71878500D01*
X213848621Y-71898502D01*
X213895114Y-71952158D01*
X213906500Y-72004500D01*
X213906500Y-72018134D01*
X213913255Y-72080316D01*
X213964385Y-72216705D01*
X214051739Y-72333261D01*
X214168295Y-72420615D01*
X214304684Y-72471745D01*
X214366866Y-72478500D01*
X216163134Y-72478500D01*
X216225316Y-72471745D01*
X216361705Y-72420615D01*
X216478261Y-72333261D01*
X216565615Y-72216705D01*
X216587799Y-72157529D01*
X216609598Y-72099382D01*
X216652240Y-72042618D01*
X216718802Y-72017918D01*
X216788150Y-72033126D01*
X216822817Y-72061114D01*
X216851250Y-72093938D01*
X217023126Y-72236632D01*
X217216000Y-72349338D01*
X217424692Y-72429030D01*
X217429760Y-72430061D01*
X217429763Y-72430062D01*
X217517804Y-72447974D01*
X217643597Y-72473567D01*
X217648772Y-72473757D01*
X217648774Y-72473757D01*
X217861673Y-72481564D01*
X217861677Y-72481564D01*
X217866837Y-72481753D01*
X217871957Y-72481097D01*
X217871959Y-72481097D01*
X218083288Y-72454025D01*
X218083289Y-72454025D01*
X218088416Y-72453368D01*
X218128874Y-72441230D01*
X218297429Y-72390661D01*
X218297434Y-72390659D01*
X218302384Y-72389174D01*
X218502994Y-72290896D01*
X218684860Y-72161173D01*
X218843096Y-72003489D01*
X218906391Y-71915405D01*
X218973453Y-71822077D01*
X218974776Y-71823028D01*
X219021645Y-71779857D01*
X219091580Y-71767625D01*
X219157026Y-71795144D01*
X219184875Y-71826994D01*
X219200565Y-71852598D01*
X219244987Y-71925088D01*
X219391250Y-72093938D01*
X219563126Y-72236632D01*
X219756000Y-72349338D01*
X219964692Y-72429030D01*
X219969760Y-72430061D01*
X219969763Y-72430062D01*
X220057804Y-72447974D01*
X220183597Y-72473567D01*
X220188772Y-72473757D01*
X220188774Y-72473757D01*
X220401673Y-72481564D01*
X220401677Y-72481564D01*
X220406837Y-72481753D01*
X220411957Y-72481097D01*
X220411959Y-72481097D01*
X220623288Y-72454025D01*
X220623289Y-72454025D01*
X220628416Y-72453368D01*
X220668874Y-72441230D01*
X220837429Y-72390661D01*
X220837434Y-72390659D01*
X220842384Y-72389174D01*
X221042994Y-72290896D01*
X221224860Y-72161173D01*
X221383096Y-72003489D01*
X221446391Y-71915405D01*
X221513453Y-71822077D01*
X221514776Y-71823028D01*
X221561645Y-71779857D01*
X221631580Y-71767625D01*
X221697026Y-71795144D01*
X221724875Y-71826994D01*
X221740565Y-71852598D01*
X221784987Y-71925088D01*
X221931250Y-72093938D01*
X222103126Y-72236632D01*
X222296000Y-72349338D01*
X222504692Y-72429030D01*
X222509760Y-72430061D01*
X222509763Y-72430062D01*
X222597804Y-72447974D01*
X222723597Y-72473567D01*
X222728772Y-72473757D01*
X222728774Y-72473757D01*
X222941673Y-72481564D01*
X222941677Y-72481564D01*
X222946837Y-72481753D01*
X222951957Y-72481097D01*
X222951959Y-72481097D01*
X223163288Y-72454025D01*
X223163289Y-72454025D01*
X223168416Y-72453368D01*
X223208874Y-72441230D01*
X223377429Y-72390661D01*
X223377434Y-72390659D01*
X223382384Y-72389174D01*
X223582994Y-72290896D01*
X223764860Y-72161173D01*
X223923096Y-72003489D01*
X224053453Y-71822077D01*
X224062503Y-71803767D01*
X224150136Y-71626453D01*
X224150137Y-71626451D01*
X224152430Y-71621811D01*
X224217370Y-71408069D01*
X224246529Y-71186590D01*
X224248156Y-71120000D01*
X224229852Y-70897361D01*
X224175431Y-70680702D01*
X224086354Y-70475840D01*
X223965014Y-70288277D01*
X223814670Y-70123051D01*
X223810619Y-70119852D01*
X223810615Y-70119848D01*
X223643414Y-69987800D01*
X223643410Y-69987798D01*
X223639359Y-69984598D01*
X223443789Y-69876638D01*
X223438920Y-69874914D01*
X223438916Y-69874912D01*
X223238087Y-69803795D01*
X223238083Y-69803794D01*
X223233212Y-69802069D01*
X223228119Y-69801162D01*
X223228116Y-69801161D01*
X223018373Y-69763800D01*
X223018367Y-69763799D01*
X223013284Y-69762894D01*
X222939452Y-69761992D01*
X222795081Y-69760228D01*
X222795079Y-69760228D01*
X222789911Y-69760165D01*
X222569091Y-69793955D01*
X222356756Y-69863357D01*
X222158607Y-69966507D01*
X222154474Y-69969610D01*
X222154471Y-69969612D01*
X222130247Y-69987800D01*
X221979965Y-70100635D01*
X221825629Y-70262138D01*
X221718201Y-70419621D01*
X221663293Y-70464621D01*
X221592768Y-70472792D01*
X221529021Y-70441538D01*
X221508324Y-70417054D01*
X221427822Y-70292617D01*
X221427820Y-70292614D01*
X221425014Y-70288277D01*
X221274670Y-70123051D01*
X221270619Y-70119852D01*
X221270615Y-70119848D01*
X221103414Y-69987800D01*
X221103410Y-69987798D01*
X221099359Y-69984598D01*
X220903789Y-69876638D01*
X220898920Y-69874914D01*
X220898916Y-69874912D01*
X220698087Y-69803795D01*
X220698083Y-69803794D01*
X220693212Y-69802069D01*
X220688119Y-69801162D01*
X220688116Y-69801161D01*
X220478373Y-69763800D01*
X220478367Y-69763799D01*
X220473284Y-69762894D01*
X220399452Y-69761992D01*
X220255081Y-69760228D01*
X220255079Y-69760228D01*
X220249911Y-69760165D01*
X220029091Y-69793955D01*
X219816756Y-69863357D01*
X219618607Y-69966507D01*
X219614474Y-69969610D01*
X219614471Y-69969612D01*
X219590247Y-69987800D01*
X219439965Y-70100635D01*
X219285629Y-70262138D01*
X219178201Y-70419621D01*
X219123293Y-70464621D01*
X219052768Y-70472792D01*
X218989021Y-70441538D01*
X218968324Y-70417054D01*
X218887822Y-70292617D01*
X218887820Y-70292614D01*
X218885014Y-70288277D01*
X218734670Y-70123051D01*
X218730619Y-70119852D01*
X218730615Y-70119848D01*
X218563414Y-69987800D01*
X218563410Y-69987798D01*
X218559359Y-69984598D01*
X218363789Y-69876638D01*
X218358920Y-69874914D01*
X218358916Y-69874912D01*
X218158087Y-69803795D01*
X218158083Y-69803794D01*
X218153212Y-69802069D01*
X218148119Y-69801162D01*
X218148116Y-69801161D01*
X217938373Y-69763800D01*
X217938367Y-69763799D01*
X217933284Y-69762894D01*
X217859452Y-69761992D01*
X217715081Y-69760228D01*
X217715079Y-69760228D01*
X217709911Y-69760165D01*
X217704802Y-69760947D01*
X217704799Y-69760947D01*
X217686156Y-69763800D01*
X217606386Y-69776007D01*
X217536025Y-69766540D01*
X217498232Y-69740552D01*
X217088766Y-69331085D01*
X217076380Y-69316673D01*
X217067846Y-69305077D01*
X217063508Y-69299182D01*
X217057930Y-69294443D01*
X217057927Y-69294440D01*
X217023232Y-69264965D01*
X217015716Y-69258035D01*
X217010021Y-69252340D01*
X217003880Y-69247482D01*
X216987749Y-69234719D01*
X216984345Y-69231928D01*
X216934297Y-69189409D01*
X216934295Y-69189408D01*
X216928715Y-69184667D01*
X216922199Y-69181339D01*
X216917150Y-69177972D01*
X216912021Y-69174805D01*
X216906284Y-69170266D01*
X216840125Y-69139345D01*
X216836225Y-69137439D01*
X216771192Y-69104231D01*
X216764084Y-69102492D01*
X216758441Y-69100393D01*
X216752678Y-69098476D01*
X216746050Y-69095378D01*
X216674583Y-69080513D01*
X216670299Y-69079543D01*
X216635958Y-69071140D01*
X216599390Y-69062192D01*
X216593788Y-69061844D01*
X216593785Y-69061844D01*
X216588236Y-69061500D01*
X216588238Y-69061464D01*
X216584245Y-69061225D01*
X216580053Y-69060851D01*
X216572885Y-69059360D01*
X216509120Y-69061085D01*
X216495479Y-69061454D01*
X216492072Y-69061500D01*
X209647063Y-69061500D01*
X209628114Y-69060067D01*
X209627907Y-69060036D01*
X209606651Y-69056802D01*
X209599359Y-69057395D01*
X209599356Y-69057395D01*
X209553991Y-69061085D01*
X209543777Y-69061500D01*
X209535707Y-69061500D01*
X209532087Y-69061922D01*
X209532069Y-69061923D01*
X209507461Y-69064792D01*
X209503100Y-69065224D01*
X209477981Y-69067267D01*
X209437661Y-69070546D01*
X209437658Y-69070547D01*
X209430363Y-69071140D01*
X209423399Y-69073396D01*
X209417440Y-69074587D01*
X209411585Y-69075971D01*
X209404319Y-69076818D01*
X209335673Y-69101735D01*
X209331545Y-69103152D01*
X209269064Y-69123393D01*
X209269062Y-69123394D01*
X209262101Y-69125649D01*
X209255846Y-69129445D01*
X209250372Y-69131951D01*
X209244942Y-69134670D01*
X209238063Y-69137167D01*
X209177016Y-69177191D01*
X209173327Y-69179518D01*
X209164843Y-69184667D01*
X209115693Y-69214491D01*
X209115688Y-69214495D01*
X209110892Y-69217405D01*
X209106685Y-69221121D01*
X209106682Y-69221123D01*
X209102545Y-69224777D01*
X209102516Y-69224803D01*
X209102493Y-69224777D01*
X209099503Y-69227426D01*
X209096264Y-69230134D01*
X209090148Y-69234144D01*
X209085121Y-69239451D01*
X209085117Y-69239454D01*
X209036872Y-69290383D01*
X209034494Y-69292825D01*
X205886089Y-72441230D01*
X205871677Y-72453616D01*
X205860082Y-72462149D01*
X205860077Y-72462154D01*
X205854182Y-72466492D01*
X205849443Y-72472070D01*
X205849440Y-72472073D01*
X205819965Y-72506768D01*
X205813035Y-72514284D01*
X205807340Y-72519979D01*
X205805060Y-72522861D01*
X205789719Y-72542251D01*
X205786928Y-72545655D01*
X205744409Y-72595703D01*
X205739667Y-72601285D01*
X205736339Y-72607801D01*
X205732972Y-72612850D01*
X205729805Y-72617979D01*
X205725266Y-72623716D01*
X205694345Y-72689875D01*
X205692442Y-72693769D01*
X205659231Y-72758808D01*
X205657492Y-72765916D01*
X205655393Y-72771559D01*
X205653476Y-72777322D01*
X205650378Y-72783950D01*
X205648888Y-72791112D01*
X205648888Y-72791113D01*
X205635514Y-72855412D01*
X205634544Y-72859696D01*
X205617192Y-72930610D01*
X205616500Y-72941764D01*
X205616464Y-72941762D01*
X205616225Y-72945755D01*
X205615851Y-72949947D01*
X205614360Y-72957115D01*
X205614558Y-72964432D01*
X205616454Y-73034521D01*
X205616500Y-73037928D01*
X205616500Y-78037930D01*
X205615067Y-78056880D01*
X205611801Y-78078349D01*
X203409352Y-78078349D01*
X203183796Y-78028344D01*
X203109493Y-78011871D01*
X203109487Y-78011870D01*
X203106158Y-78011132D01*
X203102769Y-78010758D01*
X203102764Y-78010757D01*
X202753338Y-77972180D01*
X202753333Y-77972180D01*
X202749957Y-77971807D01*
X202746558Y-77971801D01*
X202746557Y-77971801D01*
X202577080Y-77971505D01*
X202391592Y-77971182D01*
X202278413Y-77983277D01*
X202038639Y-78008901D01*
X202038631Y-78008902D01*
X202035256Y-78009263D01*
X201685117Y-78085606D01*
X201345271Y-78199317D01*
X201342178Y-78200739D01*
X201342177Y-78200740D01*
X201337679Y-78202809D01*
X201019694Y-78349066D01*
X201016760Y-78350822D01*
X201016758Y-78350823D01*
X200815865Y-78471055D01*
X200712193Y-78533101D01*
X200709467Y-78535163D01*
X200709465Y-78535164D01*
X200435340Y-78742484D01*
X200426367Y-78749270D01*
X200423882Y-78751612D01*
X200423877Y-78751616D01*
X200388847Y-78784627D01*
X200165559Y-78995043D01*
X199932819Y-79267546D01*
X199930900Y-79270358D01*
X199930897Y-79270363D01*
X199898614Y-79317689D01*
X199730871Y-79563591D01*
X199729270Y-79566590D01*
X199729265Y-79566598D01*
X199627148Y-79757846D01*
X199577418Y-79808516D01*
X199508188Y-79824257D01*
X199441439Y-79800070D01*
X199398362Y-79743635D01*
X199390000Y-79698499D01*
X199390000Y-65383918D01*
X205631917Y-65383918D01*
X205647682Y-65657320D01*
X205648507Y-65661525D01*
X205648508Y-65661533D01*
X205674654Y-65794799D01*
X205700405Y-65926053D01*
X205701792Y-65930103D01*
X205701793Y-65930108D01*
X205780922Y-66161224D01*
X205789112Y-66185144D01*
X205791039Y-66188975D01*
X205879729Y-66365316D01*
X205912160Y-66429799D01*
X205914586Y-66433328D01*
X205914589Y-66433334D01*
X206011874Y-66574883D01*
X206067274Y-66655490D01*
X206070161Y-66658663D01*
X206070162Y-66658664D01*
X206248692Y-66854867D01*
X206251582Y-66858043D01*
X206461675Y-67033707D01*
X206465316Y-67035991D01*
X206690024Y-67176951D01*
X206690028Y-67176953D01*
X206693664Y-67179234D01*
X206761544Y-67209883D01*
X206939345Y-67290164D01*
X206939349Y-67290166D01*
X206943257Y-67291930D01*
X206947377Y-67293150D01*
X206947376Y-67293150D01*
X207201723Y-67368491D01*
X207201727Y-67368492D01*
X207205836Y-67369709D01*
X207210070Y-67370357D01*
X207210075Y-67370358D01*
X207472298Y-67410483D01*
X207472300Y-67410483D01*
X207476540Y-67411132D01*
X207615912Y-67413322D01*
X207746071Y-67415367D01*
X207746077Y-67415367D01*
X207750362Y-67415434D01*
X208022235Y-67382534D01*
X208287127Y-67313041D01*
X208291087Y-67311401D01*
X208291092Y-67311399D01*
X208413631Y-67260641D01*
X208540136Y-67208241D01*
X208776582Y-67070073D01*
X208992089Y-66901094D01*
X209033809Y-66858043D01*
X209128450Y-66760381D01*
X209182669Y-66704431D01*
X209185202Y-66700983D01*
X209185206Y-66700978D01*
X209342257Y-66487178D01*
X209344795Y-66483723D01*
X209372648Y-66432424D01*
X209473418Y-66246830D01*
X209473419Y-66246828D01*
X209475468Y-66243054D01*
X209531398Y-66095040D01*
X209570751Y-65990895D01*
X209570752Y-65990891D01*
X209572269Y-65986877D01*
X209615451Y-65798334D01*
X209632449Y-65724117D01*
X209632450Y-65724113D01*
X209633407Y-65719933D01*
X209634204Y-65711010D01*
X209657531Y-65449627D01*
X209657531Y-65449625D01*
X209657751Y-65447161D01*
X209658193Y-65405000D01*
X209656465Y-65379648D01*
X209639859Y-65136055D01*
X209639858Y-65136049D01*
X209639567Y-65131778D01*
X209584032Y-64863612D01*
X209492617Y-64605465D01*
X209389071Y-64404848D01*
X209368978Y-64365919D01*
X209368978Y-64365918D01*
X209367013Y-64362112D01*
X209357040Y-64347921D01*
X209224905Y-64159912D01*
X209209545Y-64138057D01*
X209023125Y-63937445D01*
X209019810Y-63934731D01*
X209019806Y-63934728D01*
X208814523Y-63766706D01*
X208811205Y-63763990D01*
X208577704Y-63620901D01*
X208573768Y-63619173D01*
X208451662Y-63565572D01*
X230897514Y-63565572D01*
X230898095Y-63570592D01*
X230898095Y-63570596D01*
X230919380Y-63754550D01*
X230925415Y-63806711D01*
X230991510Y-64040287D01*
X231021399Y-64104385D01*
X231091451Y-64254612D01*
X231094099Y-64260291D01*
X231230544Y-64461062D01*
X231397332Y-64637436D01*
X231401358Y-64640514D01*
X231401359Y-64640515D01*
X231586154Y-64781802D01*
X231586158Y-64781805D01*
X231590174Y-64784875D01*
X231804109Y-64899586D01*
X232033631Y-64978617D01*
X232132978Y-64995777D01*
X232268926Y-65019259D01*
X232268932Y-65019260D01*
X232272836Y-65019934D01*
X232276797Y-65020114D01*
X232276798Y-65020114D01*
X232300506Y-65021191D01*
X232300525Y-65021191D01*
X232301925Y-65021255D01*
X243008791Y-65021255D01*
X243076912Y-65041257D01*
X243123405Y-65094913D01*
X243132434Y-65122996D01*
X243165405Y-65291053D01*
X243166792Y-65295103D01*
X243166793Y-65295108D01*
X243218853Y-65447161D01*
X243254112Y-65550144D01*
X243256039Y-65553975D01*
X243339507Y-65719933D01*
X243377160Y-65794799D01*
X243379586Y-65798328D01*
X243379589Y-65798334D01*
X243464477Y-65921846D01*
X243532274Y-66020490D01*
X243535161Y-66023663D01*
X243535162Y-66023664D01*
X243606841Y-66102439D01*
X243716582Y-66223043D01*
X243719877Y-66225798D01*
X243719878Y-66225799D01*
X243740515Y-66243054D01*
X243926675Y-66398707D01*
X243930316Y-66400991D01*
X244155024Y-66541951D01*
X244155028Y-66541953D01*
X244158664Y-66544234D01*
X244283461Y-66600582D01*
X244404345Y-66655164D01*
X244404349Y-66655166D01*
X244408257Y-66656930D01*
X244412377Y-66658150D01*
X244412376Y-66658150D01*
X244666723Y-66733491D01*
X244666727Y-66733492D01*
X244670836Y-66734709D01*
X244675070Y-66735357D01*
X244675075Y-66735358D01*
X244937298Y-66775483D01*
X244937300Y-66775483D01*
X244941540Y-66776132D01*
X245080912Y-66778322D01*
X245211071Y-66780367D01*
X245211077Y-66780367D01*
X245215362Y-66780434D01*
X245487235Y-66747534D01*
X245752127Y-66678041D01*
X245756087Y-66676401D01*
X245756092Y-66676399D01*
X245878632Y-66625641D01*
X246005136Y-66573241D01*
X246241582Y-66435073D01*
X246457089Y-66266094D01*
X246479417Y-66243054D01*
X246644686Y-66072509D01*
X246647669Y-66069431D01*
X246650202Y-66065983D01*
X246650206Y-66065978D01*
X246807257Y-65852178D01*
X246809795Y-65848723D01*
X246837154Y-65798334D01*
X246938418Y-65611830D01*
X246938419Y-65611828D01*
X246940468Y-65608054D01*
X246993299Y-65468240D01*
X247035751Y-65355895D01*
X247035752Y-65355891D01*
X247037269Y-65351877D01*
X247087678Y-65131778D01*
X247097449Y-65089117D01*
X247097450Y-65089113D01*
X247098407Y-65084933D01*
X247107819Y-64979479D01*
X247122531Y-64814627D01*
X247122531Y-64814625D01*
X247122751Y-64812161D01*
X247123193Y-64770000D01*
X247112252Y-64609506D01*
X247104859Y-64501055D01*
X247104858Y-64501049D01*
X247104567Y-64496778D01*
X247097115Y-64460791D01*
X247065534Y-64308295D01*
X247049032Y-64228612D01*
X246957617Y-63970465D01*
X246832013Y-63727112D01*
X246674545Y-63503057D01*
X246488125Y-63302445D01*
X246484810Y-63299731D01*
X246484806Y-63299728D01*
X246279523Y-63131706D01*
X246276205Y-63128990D01*
X246042704Y-62985901D01*
X246038768Y-62984173D01*
X245795873Y-62877549D01*
X245795869Y-62877548D01*
X245791945Y-62875825D01*
X245528566Y-62800800D01*
X245524324Y-62800196D01*
X245524318Y-62800195D01*
X245381851Y-62779919D01*
X245273537Y-62764504D01*
X245208916Y-62735103D01*
X245202197Y-62728856D01*
X244936430Y-62463089D01*
X244933976Y-62460567D01*
X244868893Y-62391743D01*
X244868890Y-62391741D01*
X244865423Y-62388074D01*
X244802994Y-62340344D01*
X244797863Y-62336203D01*
X244741888Y-62288564D01*
X244741887Y-62288563D01*
X244738035Y-62285285D01*
X244733710Y-62282666D01*
X244733705Y-62282662D01*
X244709931Y-62268264D01*
X244698684Y-62260592D01*
X244672581Y-62240635D01*
X244603347Y-62203512D01*
X244597623Y-62200248D01*
X244530397Y-62159534D01*
X244499936Y-62147227D01*
X244487596Y-62141447D01*
X244463105Y-62128315D01*
X244463106Y-62128315D01*
X244458646Y-62125924D01*
X244453865Y-62124278D01*
X244453861Y-62124276D01*
X244384354Y-62100343D01*
X244378176Y-62098033D01*
X244310021Y-62070497D01*
X244310022Y-62070497D01*
X244305326Y-62068600D01*
X244273294Y-62061323D01*
X244260196Y-62057592D01*
X244229124Y-62046893D01*
X244151655Y-62033512D01*
X244145251Y-62032232D01*
X244068611Y-62014820D01*
X244035802Y-62012756D01*
X244022302Y-62011170D01*
X243989919Y-62005576D01*
X243985962Y-62005396D01*
X243985959Y-62005396D01*
X243962249Y-62004319D01*
X243962230Y-62004319D01*
X243960830Y-62004255D01*
X243904647Y-62004255D01*
X243896735Y-62004006D01*
X243891141Y-62003654D01*
X243826342Y-61999577D01*
X243787300Y-62003405D01*
X243784763Y-62003654D01*
X243772467Y-62004255D01*
X232348999Y-62004255D01*
X232346491Y-62004457D01*
X232346486Y-62004457D01*
X232173076Y-62018409D01*
X232173071Y-62018410D01*
X232168035Y-62018815D01*
X232163127Y-62020021D01*
X232163124Y-62020021D01*
X231952703Y-62071705D01*
X231932294Y-62076718D01*
X231927642Y-62078693D01*
X231927638Y-62078694D01*
X231876637Y-62100343D01*
X231708844Y-62171567D01*
X231658110Y-62203516D01*
X231507712Y-62298227D01*
X231507709Y-62298229D01*
X231503433Y-62300922D01*
X231458714Y-62340347D01*
X231325142Y-62458105D01*
X231325139Y-62458108D01*
X231321345Y-62461453D01*
X231167266Y-62649033D01*
X231045159Y-62858833D01*
X231043346Y-62863556D01*
X230996383Y-62985901D01*
X230958167Y-63085457D01*
X230908526Y-63323075D01*
X230897514Y-63565572D01*
X208451662Y-63565572D01*
X208330873Y-63512549D01*
X208330869Y-63512548D01*
X208326945Y-63510825D01*
X208063566Y-63435800D01*
X208059324Y-63435196D01*
X208059318Y-63435195D01*
X207858834Y-63406662D01*
X207792443Y-63397213D01*
X207648589Y-63396460D01*
X207522877Y-63395802D01*
X207522871Y-63395802D01*
X207518591Y-63395780D01*
X207514347Y-63396339D01*
X207514343Y-63396339D01*
X207395302Y-63412011D01*
X207247078Y-63431525D01*
X207242938Y-63432658D01*
X207242936Y-63432658D01*
X207170008Y-63452609D01*
X206982928Y-63503788D01*
X206969185Y-63509650D01*
X206734982Y-63609546D01*
X206734978Y-63609548D01*
X206731030Y-63611232D01*
X206711125Y-63623145D01*
X206499725Y-63749664D01*
X206499721Y-63749667D01*
X206496043Y-63751868D01*
X206282318Y-63923094D01*
X206265717Y-63940588D01*
X206125074Y-64088795D01*
X206093808Y-64121742D01*
X205934002Y-64344136D01*
X205805857Y-64586161D01*
X205804385Y-64590184D01*
X205804383Y-64590188D01*
X205723152Y-64812161D01*
X205711743Y-64843337D01*
X205653404Y-65110907D01*
X205652092Y-65127581D01*
X205634123Y-65355895D01*
X205631917Y-65383918D01*
X199390000Y-65383918D01*
X199390000Y-61873134D01*
X205636500Y-61873134D01*
X205643255Y-61935316D01*
X205694385Y-62071705D01*
X205781739Y-62188261D01*
X205898295Y-62275615D01*
X206034684Y-62326745D01*
X206096866Y-62333500D01*
X209193134Y-62333500D01*
X209255316Y-62326745D01*
X209391705Y-62275615D01*
X209508261Y-62188261D01*
X209595615Y-62071705D01*
X209646745Y-61935316D01*
X209653500Y-61873134D01*
X209653500Y-58776866D01*
X209646745Y-58714684D01*
X209595615Y-58578295D01*
X209508261Y-58461739D01*
X209391705Y-58374385D01*
X209255316Y-58323255D01*
X209193134Y-58316500D01*
X206096866Y-58316500D01*
X206034684Y-58323255D01*
X205898295Y-58374385D01*
X205781739Y-58461739D01*
X205694385Y-58578295D01*
X205643255Y-58714684D01*
X205636500Y-58776866D01*
X205636500Y-61873134D01*
X199390000Y-61873134D01*
X199390000Y-57115469D01*
X241157095Y-57115469D01*
X241170427Y-57346697D01*
X241171564Y-57351743D01*
X241171565Y-57351749D01*
X241203741Y-57494523D01*
X241221346Y-57572642D01*
X241308484Y-57787237D01*
X241429501Y-57984719D01*
X241581147Y-58159784D01*
X241759349Y-58307730D01*
X241959322Y-58424584D01*
X242175694Y-58507209D01*
X242180760Y-58508240D01*
X242180761Y-58508240D01*
X242233846Y-58519040D01*
X242402656Y-58553385D01*
X242532089Y-58558131D01*
X242628949Y-58561683D01*
X242628953Y-58561683D01*
X242634113Y-58561872D01*
X242639233Y-58561216D01*
X242639235Y-58561216D01*
X242713166Y-58551745D01*
X242863847Y-58532442D01*
X242868795Y-58530957D01*
X242868802Y-58530956D01*
X243080747Y-58467369D01*
X243085690Y-58465886D01*
X243166236Y-58426427D01*
X243289049Y-58366262D01*
X243289052Y-58366260D01*
X243293684Y-58363991D01*
X243482243Y-58229494D01*
X243527309Y-58184585D01*
X243589681Y-58150669D01*
X243660487Y-58155857D01*
X243717249Y-58198503D01*
X243734231Y-58229607D01*
X243759385Y-58296705D01*
X243846739Y-58413261D01*
X243963295Y-58500615D01*
X244099684Y-58551745D01*
X244161866Y-58558500D01*
X246058134Y-58558500D01*
X246120316Y-58551745D01*
X246256705Y-58500615D01*
X246373261Y-58413261D01*
X246460615Y-58296705D01*
X246511745Y-58160316D01*
X246518500Y-58098134D01*
X246518500Y-56201866D01*
X246511745Y-56139684D01*
X246460615Y-56003295D01*
X246373261Y-55886739D01*
X246256705Y-55799385D01*
X246120316Y-55748255D01*
X246058134Y-55741500D01*
X244161866Y-55741500D01*
X244099684Y-55748255D01*
X243963295Y-55799385D01*
X243846739Y-55886739D01*
X243759385Y-56003295D01*
X243756233Y-56011703D01*
X243756232Y-56011705D01*
X243735538Y-56066906D01*
X243692897Y-56123671D01*
X243626335Y-56148371D01*
X243556986Y-56133164D01*
X243534167Y-56116666D01*
X243533887Y-56116358D01*
X243401373Y-56011705D01*
X243356177Y-55976011D01*
X243356172Y-55976008D01*
X243352123Y-55972810D01*
X243347607Y-55970317D01*
X243347604Y-55970315D01*
X243153879Y-55863373D01*
X243153875Y-55863371D01*
X243149355Y-55860876D01*
X243144486Y-55859152D01*
X243144482Y-55859150D01*
X242935903Y-55785288D01*
X242935899Y-55785287D01*
X242931028Y-55783562D01*
X242925935Y-55782655D01*
X242925932Y-55782654D01*
X242708095Y-55743851D01*
X242708089Y-55743850D01*
X242703006Y-55742945D01*
X242630096Y-55742054D01*
X242476581Y-55740179D01*
X242476579Y-55740179D01*
X242471411Y-55740116D01*
X242242464Y-55775150D01*
X242022314Y-55847106D01*
X242017726Y-55849494D01*
X242017722Y-55849496D01*
X241821461Y-55951663D01*
X241816872Y-55954052D01*
X241812739Y-55957155D01*
X241812736Y-55957157D01*
X241635790Y-56090012D01*
X241631655Y-56093117D01*
X241471639Y-56260564D01*
X241341119Y-56451899D01*
X241243602Y-56661981D01*
X241181707Y-56885169D01*
X241157095Y-57115469D01*
X199390000Y-57115469D01*
X199390000Y-53472397D01*
X217997296Y-53472397D01*
X217997520Y-53477063D01*
X217997520Y-53477068D01*
X218001131Y-53552230D01*
X218009480Y-53726044D01*
X218029389Y-53826133D01*
X218049812Y-53928805D01*
X218059021Y-53975103D01*
X218060600Y-53979501D01*
X218060602Y-53979508D01*
X218105022Y-54103226D01*
X218144831Y-54214104D01*
X218265025Y-54437797D01*
X218267820Y-54441540D01*
X218267822Y-54441543D01*
X218414171Y-54637528D01*
X218414176Y-54637534D01*
X218416963Y-54641266D01*
X218420272Y-54644546D01*
X218420277Y-54644552D01*
X218518859Y-54742277D01*
X218597307Y-54820043D01*
X218601069Y-54822801D01*
X218601072Y-54822804D01*
X218706764Y-54900300D01*
X218802094Y-54970199D01*
X218806229Y-54972375D01*
X218806233Y-54972377D01*
X218924289Y-55034489D01*
X219026827Y-55088437D01*
X219266568Y-55172158D01*
X219516050Y-55219524D01*
X219636532Y-55224257D01*
X219765125Y-55229310D01*
X219765130Y-55229310D01*
X219769793Y-55229493D01*
X219868774Y-55218653D01*
X220017569Y-55202358D01*
X220017575Y-55202357D01*
X220022222Y-55201848D01*
X220131680Y-55173030D01*
X220263273Y-55138384D01*
X220267793Y-55137194D01*
X220386353Y-55086257D01*
X220496807Y-55038803D01*
X220496810Y-55038801D01*
X220501110Y-55036954D01*
X220505090Y-55034491D01*
X220505094Y-55034489D01*
X220713064Y-54905793D01*
X220713066Y-54905791D01*
X220717047Y-54903328D01*
X220815428Y-54820043D01*
X220907289Y-54742277D01*
X220907291Y-54742275D01*
X220910862Y-54739252D01*
X221078295Y-54548330D01*
X221215669Y-54334758D01*
X221319967Y-54103226D01*
X221388896Y-53858821D01*
X221403941Y-53740561D01*
X221420545Y-53610044D01*
X221420545Y-53610038D01*
X221420943Y-53606913D01*
X221423291Y-53517246D01*
X221413818Y-53389769D01*
X221404818Y-53268657D01*
X221404817Y-53268653D01*
X221404472Y-53264005D01*
X221399738Y-53243080D01*
X221349459Y-53020885D01*
X221348428Y-53016328D01*
X221325017Y-52956126D01*
X221258084Y-52784008D01*
X221258083Y-52784006D01*
X221256391Y-52779655D01*
X221254073Y-52775599D01*
X221132702Y-52563243D01*
X221132700Y-52563241D01*
X221130383Y-52559186D01*
X220973171Y-52359763D01*
X220788209Y-52185769D01*
X220762831Y-52168164D01*
X220583393Y-52043683D01*
X220583390Y-52043681D01*
X220579561Y-52041025D01*
X220575384Y-52038965D01*
X220575377Y-52038961D01*
X220355996Y-51930774D01*
X220355992Y-51930773D01*
X220351810Y-51928710D01*
X220109960Y-51851293D01*
X220105355Y-51850543D01*
X219863935Y-51811226D01*
X219863934Y-51811226D01*
X219859323Y-51810475D01*
X219732364Y-51808813D01*
X219610083Y-51807212D01*
X219610080Y-51807212D01*
X219605406Y-51807151D01*
X219353787Y-51841395D01*
X219109993Y-51912454D01*
X219105740Y-51914414D01*
X219105739Y-51914415D01*
X219059165Y-51935886D01*
X218879380Y-52018768D01*
X218875471Y-52021331D01*
X218670928Y-52155435D01*
X218670923Y-52155439D01*
X218667015Y-52158001D01*
X218477562Y-52327094D01*
X218315183Y-52522333D01*
X218183447Y-52739428D01*
X218181638Y-52743742D01*
X218181637Y-52743744D01*
X218092760Y-52955693D01*
X218085246Y-52973611D01*
X218022738Y-53219736D01*
X217997296Y-53472397D01*
X199390000Y-53472397D01*
X199390000Y-51113134D01*
X204961500Y-51113134D01*
X204968255Y-51175316D01*
X205019385Y-51311705D01*
X205106739Y-51428261D01*
X205223295Y-51515615D01*
X205359684Y-51566745D01*
X205421866Y-51573500D01*
X207318134Y-51573500D01*
X207380316Y-51566745D01*
X207516705Y-51515615D01*
X207633261Y-51428261D01*
X207720615Y-51311705D01*
X207745180Y-51246178D01*
X207787822Y-51189414D01*
X207854383Y-51164714D01*
X207923732Y-51179921D01*
X207943647Y-51193464D01*
X208008724Y-51247492D01*
X208099349Y-51322730D01*
X208299322Y-51439584D01*
X208515694Y-51522209D01*
X208520760Y-51523240D01*
X208520761Y-51523240D01*
X208573846Y-51534040D01*
X208742656Y-51568385D01*
X208872089Y-51573131D01*
X208968949Y-51576683D01*
X208968953Y-51576683D01*
X208974113Y-51576872D01*
X208979233Y-51576216D01*
X208979235Y-51576216D01*
X209053166Y-51566745D01*
X209203847Y-51547442D01*
X209208795Y-51545957D01*
X209208802Y-51545956D01*
X209420747Y-51482369D01*
X209425690Y-51480886D01*
X209506236Y-51441427D01*
X209629049Y-51381262D01*
X209629052Y-51381260D01*
X209633684Y-51378991D01*
X209822243Y-51244494D01*
X209986303Y-51081005D01*
X209994861Y-51069096D01*
X210037248Y-51010108D01*
X210121458Y-50892917D01*
X210224078Y-50685280D01*
X210291408Y-50463671D01*
X210321640Y-50234041D01*
X210323327Y-50165000D01*
X210317032Y-50088434D01*
X210304773Y-49939318D01*
X210304772Y-49939312D01*
X210304349Y-49934167D01*
X210247925Y-49709533D01*
X210239481Y-49690113D01*
X210157630Y-49501868D01*
X210157628Y-49501865D01*
X210155570Y-49497131D01*
X210029764Y-49302665D01*
X209873887Y-49131358D01*
X209869836Y-49128159D01*
X209869832Y-49128155D01*
X209696177Y-48991011D01*
X209696172Y-48991008D01*
X209692123Y-48987810D01*
X209687607Y-48985317D01*
X209687604Y-48985315D01*
X209493879Y-48878373D01*
X209493875Y-48878371D01*
X209489355Y-48875876D01*
X209484486Y-48874152D01*
X209484482Y-48874150D01*
X209275903Y-48800288D01*
X209275899Y-48800287D01*
X209271028Y-48798562D01*
X209265935Y-48797655D01*
X209265932Y-48797654D01*
X209048095Y-48758851D01*
X209048089Y-48758850D01*
X209043006Y-48757945D01*
X208970096Y-48757054D01*
X208816581Y-48755179D01*
X208816579Y-48755179D01*
X208811411Y-48755116D01*
X208582464Y-48790150D01*
X208362314Y-48862106D01*
X208357726Y-48864494D01*
X208357722Y-48864496D01*
X208237513Y-48927073D01*
X208156872Y-48969052D01*
X208152739Y-48972155D01*
X208152736Y-48972157D01*
X208009099Y-49080003D01*
X207971655Y-49108117D01*
X207954170Y-49126414D01*
X207892646Y-49161844D01*
X207821733Y-49158387D01*
X207763947Y-49117141D01*
X207745094Y-49083592D01*
X207723768Y-49026705D01*
X207723767Y-49026703D01*
X207720615Y-49018295D01*
X207633261Y-48901739D01*
X207516705Y-48814385D01*
X207380316Y-48763255D01*
X207318134Y-48756500D01*
X205421866Y-48756500D01*
X205359684Y-48763255D01*
X205223295Y-48814385D01*
X205106739Y-48901739D01*
X205019385Y-49018295D01*
X204968255Y-49154684D01*
X204961500Y-49216866D01*
X204961500Y-51113134D01*
X199390000Y-51113134D01*
X199390000Y-47265380D01*
X218001500Y-47265380D01*
X218008255Y-47327562D01*
X218059385Y-47463951D01*
X218146739Y-47580507D01*
X218263295Y-47667861D01*
X218399684Y-47718991D01*
X218461866Y-47725746D01*
X220958134Y-47725746D01*
X221020316Y-47718991D01*
X221156705Y-47667861D01*
X221273261Y-47580507D01*
X221360615Y-47463951D01*
X221411745Y-47327562D01*
X221418500Y-47265380D01*
X221418500Y-44769112D01*
X221411745Y-44706930D01*
X221360615Y-44570541D01*
X221273261Y-44453985D01*
X221156705Y-44366631D01*
X221020316Y-44315501D01*
X220958134Y-44308746D01*
X218461866Y-44308746D01*
X218399684Y-44315501D01*
X218263295Y-44366631D01*
X218146739Y-44453985D01*
X218059385Y-44570541D01*
X218008255Y-44706930D01*
X218001500Y-44769112D01*
X218001500Y-47265380D01*
X199390000Y-47265380D01*
X199390000Y-41588134D01*
X204966500Y-41588134D01*
X204973255Y-41650316D01*
X205024385Y-41786705D01*
X205111739Y-41903261D01*
X205228295Y-41990615D01*
X205364684Y-42041745D01*
X205426866Y-42048500D01*
X207323134Y-42048500D01*
X207385316Y-42041745D01*
X207521705Y-41990615D01*
X207638261Y-41903261D01*
X207714597Y-41801406D01*
X208118423Y-41801406D01*
X208123704Y-41808461D01*
X208300080Y-41911527D01*
X208309363Y-41915974D01*
X208516003Y-41994883D01*
X208525901Y-41997759D01*
X208742653Y-42041857D01*
X208752883Y-42043076D01*
X208973914Y-42051182D01*
X208984223Y-42050714D01*
X209203623Y-42022608D01*
X209213688Y-42020468D01*
X209425557Y-41956905D01*
X209435152Y-41953144D01*
X209633778Y-41855838D01*
X209642636Y-41850559D01*
X209700097Y-41809572D01*
X209708497Y-41798874D01*
X209701510Y-41785721D01*
X208927811Y-41012021D01*
X208913868Y-41004408D01*
X208912034Y-41004539D01*
X208905420Y-41008790D01*
X208125180Y-41789031D01*
X208118423Y-41801406D01*
X207714597Y-41801406D01*
X207725615Y-41786705D01*
X207776745Y-41650316D01*
X207783500Y-41588134D01*
X207783500Y-41464480D01*
X207803502Y-41396359D01*
X207820405Y-41375384D01*
X208542979Y-40652811D01*
X208549356Y-40641132D01*
X209279408Y-40641132D01*
X209279539Y-40642966D01*
X209283790Y-40649580D01*
X210061307Y-41427096D01*
X210073313Y-41433652D01*
X210085052Y-41424684D01*
X210123010Y-41371859D01*
X210128321Y-41363020D01*
X210226318Y-41164737D01*
X210230117Y-41155142D01*
X210294415Y-40943517D01*
X210296594Y-40933436D01*
X210325702Y-40712338D01*
X210326221Y-40705663D01*
X210327744Y-40643364D01*
X210327550Y-40636646D01*
X210309279Y-40414400D01*
X210307596Y-40404238D01*
X210253710Y-40189708D01*
X210250389Y-40179953D01*
X210162193Y-39977118D01*
X210157315Y-39968020D01*
X210084224Y-39855038D01*
X210073538Y-39845835D01*
X210063973Y-39850238D01*
X209287021Y-40627189D01*
X209279408Y-40641132D01*
X208549356Y-40641132D01*
X208550592Y-40638868D01*
X208550461Y-40637034D01*
X208546210Y-40630420D01*
X207820405Y-39904616D01*
X207786380Y-39842303D01*
X207783500Y-39815520D01*
X207783500Y-39691866D01*
X207776745Y-39629684D01*
X207725615Y-39493295D01*
X207716184Y-39480711D01*
X208120508Y-39480711D01*
X208127251Y-39493040D01*
X208902189Y-40267979D01*
X208916132Y-40275592D01*
X208917966Y-40275461D01*
X208924580Y-40271210D01*
X209703994Y-39491795D01*
X209711011Y-39478944D01*
X209703237Y-39468274D01*
X209700902Y-39466430D01*
X209692320Y-39460729D01*
X209498678Y-39353833D01*
X209489272Y-39349606D01*
X209280772Y-39275772D01*
X209270809Y-39273140D01*
X209053047Y-39234350D01*
X209042796Y-39233381D01*
X208821616Y-39230679D01*
X208811332Y-39231399D01*
X208592693Y-39264855D01*
X208582666Y-39267244D01*
X208372426Y-39335961D01*
X208362916Y-39339958D01*
X208166725Y-39442089D01*
X208158007Y-39447578D01*
X208128961Y-39469386D01*
X208120508Y-39480711D01*
X207716184Y-39480711D01*
X207638261Y-39376739D01*
X207521705Y-39289385D01*
X207385316Y-39238255D01*
X207323134Y-39231500D01*
X205426866Y-39231500D01*
X205364684Y-39238255D01*
X205228295Y-39289385D01*
X205111739Y-39376739D01*
X205024385Y-39493295D01*
X204973255Y-39629684D01*
X204966500Y-39691866D01*
X204966500Y-41588134D01*
X199390000Y-41588134D01*
X199390000Y-34279388D01*
X230126676Y-34279388D01*
X230127190Y-34285263D01*
X230127190Y-34285265D01*
X230131050Y-34329388D01*
X230131379Y-34334214D01*
X230131500Y-34336687D01*
X230131500Y-34339769D01*
X230131801Y-34342838D01*
X230135498Y-34380549D01*
X230135657Y-34382299D01*
X230140468Y-34439590D01*
X230143268Y-34472934D01*
X230143758Y-34474644D01*
X230143913Y-34476413D01*
X230145400Y-34481532D01*
X230145920Y-34486833D01*
X230147703Y-34492738D01*
X230147703Y-34492739D01*
X230172191Y-34573848D01*
X230172688Y-34575535D01*
X230197783Y-34663050D01*
X230198596Y-34664632D01*
X230199091Y-34666336D01*
X230201544Y-34671068D01*
X230203084Y-34676169D01*
X230205973Y-34681603D01*
X230205977Y-34681612D01*
X230245824Y-34756553D01*
X230246568Y-34757975D01*
X230288187Y-34838956D01*
X230289290Y-34840347D01*
X230290108Y-34841926D01*
X230293431Y-34846089D01*
X230295934Y-34850796D01*
X230299828Y-34855571D01*
X230299829Y-34855572D01*
X230353439Y-34921304D01*
X230354531Y-34922663D01*
X230411035Y-34993953D01*
X230415613Y-34997849D01*
X230415743Y-34997980D01*
X230416983Y-34999246D01*
X230417138Y-34999407D01*
X230420935Y-35004062D01*
X230456262Y-35033287D01*
X230465042Y-35041277D01*
X233904595Y-38480829D01*
X233938621Y-38543141D01*
X233941500Y-38569924D01*
X233941500Y-53276181D01*
X233940715Y-53290225D01*
X233936719Y-53325851D01*
X233936868Y-53327623D01*
X233936676Y-53329388D01*
X233937190Y-53335263D01*
X233937190Y-53335265D01*
X233941050Y-53379388D01*
X233941379Y-53384214D01*
X233941500Y-53386687D01*
X233941500Y-53389769D01*
X233941801Y-53392838D01*
X233945498Y-53430549D01*
X233945657Y-53432299D01*
X233950468Y-53489590D01*
X233953268Y-53522934D01*
X233953758Y-53524644D01*
X233953913Y-53526413D01*
X233955400Y-53531532D01*
X233955920Y-53536833D01*
X233957703Y-53542738D01*
X233957703Y-53542739D01*
X233982191Y-53623848D01*
X233982688Y-53625535D01*
X233989176Y-53648159D01*
X234007783Y-53713050D01*
X234008596Y-53714632D01*
X234009091Y-53716336D01*
X234011544Y-53721068D01*
X234013084Y-53726169D01*
X234015973Y-53731603D01*
X234015977Y-53731612D01*
X234055824Y-53806553D01*
X234056568Y-53807975D01*
X234098187Y-53888956D01*
X234099290Y-53890347D01*
X234100108Y-53891926D01*
X234103431Y-53896089D01*
X234105934Y-53900796D01*
X234109828Y-53905571D01*
X234109829Y-53905572D01*
X234141102Y-53943916D01*
X234162796Y-53970515D01*
X234163439Y-53971304D01*
X234164531Y-53972663D01*
X234221035Y-54043953D01*
X234225613Y-54047849D01*
X234225743Y-54047980D01*
X234226983Y-54049246D01*
X234227138Y-54049407D01*
X234230935Y-54054062D01*
X234254868Y-54073861D01*
X234266262Y-54083287D01*
X234275042Y-54091277D01*
X235460352Y-55276586D01*
X235470003Y-55287417D01*
X235491035Y-55313953D01*
X235495097Y-55317410D01*
X235498447Y-55321547D01*
X235499810Y-55322683D01*
X235500935Y-55324062D01*
X235505463Y-55327808D01*
X235505467Y-55327812D01*
X235539756Y-55356179D01*
X235541169Y-55357403D01*
X235542075Y-55358309D01*
X235544450Y-55360260D01*
X235544459Y-55360268D01*
X235572183Y-55383041D01*
X235573870Y-55384451D01*
X235636960Y-55438145D01*
X235636963Y-55438147D01*
X235641650Y-55442136D01*
X235646305Y-55444738D01*
X235650396Y-55448146D01*
X235651953Y-55448995D01*
X235653325Y-55450130D01*
X235654891Y-55450977D01*
X235656261Y-55452102D01*
X235661432Y-55454875D01*
X235661437Y-55454878D01*
X235734653Y-55494136D01*
X235736523Y-55495159D01*
X235814294Y-55538624D01*
X235819361Y-55540270D01*
X235824041Y-55542822D01*
X235825737Y-55543354D01*
X235827299Y-55544198D01*
X235829003Y-55544725D01*
X235830563Y-55545562D01*
X235841043Y-55548766D01*
X235915624Y-55571568D01*
X235917719Y-55572229D01*
X235992733Y-55596602D01*
X236002392Y-55599740D01*
X236007680Y-55600371D01*
X236012768Y-55601965D01*
X236014536Y-55602157D01*
X236016232Y-55602682D01*
X236018000Y-55602868D01*
X236019698Y-55603387D01*
X236025551Y-55603982D01*
X236025553Y-55603982D01*
X236108213Y-55612379D01*
X236110397Y-55612620D01*
X236192663Y-55622429D01*
X236198777Y-55623158D01*
X236204094Y-55622749D01*
X236209388Y-55623324D01*
X236211157Y-55623169D01*
X236212925Y-55623355D01*
X236214692Y-55623194D01*
X236216462Y-55623374D01*
X236305063Y-55614999D01*
X236307225Y-55614813D01*
X236322336Y-55613651D01*
X236389828Y-55608457D01*
X236389830Y-55608457D01*
X236395972Y-55607984D01*
X236401102Y-55606552D01*
X236406413Y-55606087D01*
X236408121Y-55605591D01*
X236409888Y-55605430D01*
X236411593Y-55604928D01*
X236413362Y-55604761D01*
X236449532Y-55593978D01*
X236498685Y-55579326D01*
X236500796Y-55578717D01*
X236526400Y-55571568D01*
X236586463Y-55554798D01*
X236591219Y-55552396D01*
X236596336Y-55550909D01*
X236597911Y-55550093D01*
X236599619Y-55549590D01*
X236601195Y-55548766D01*
X236602896Y-55548259D01*
X236681607Y-55506759D01*
X236683554Y-55505754D01*
X236757496Y-55468403D01*
X236762996Y-55465625D01*
X236767195Y-55462344D01*
X236771926Y-55459892D01*
X236773314Y-55458784D01*
X236774890Y-55457960D01*
X236776275Y-55456846D01*
X236777846Y-55456018D01*
X236782436Y-55452301D01*
X236784248Y-55451115D01*
X236784812Y-55450704D01*
X236785686Y-55450128D01*
X236853572Y-55429343D01*
X236919789Y-55449294D01*
X236920411Y-55448154D01*
X236920730Y-55448328D01*
X236922303Y-55449285D01*
X236923325Y-55450130D01*
X236924891Y-55450977D01*
X236926261Y-55452102D01*
X236931432Y-55454875D01*
X236931437Y-55454878D01*
X237004653Y-55494136D01*
X237006523Y-55495159D01*
X237084294Y-55538624D01*
X237089361Y-55540270D01*
X237094041Y-55542822D01*
X237095737Y-55543354D01*
X237097299Y-55544198D01*
X237099003Y-55544725D01*
X237100563Y-55545562D01*
X237111043Y-55548766D01*
X237185624Y-55571568D01*
X237187719Y-55572229D01*
X237262733Y-55596602D01*
X237272392Y-55599740D01*
X237277680Y-55600371D01*
X237282768Y-55601965D01*
X237284536Y-55602157D01*
X237286232Y-55602682D01*
X237288000Y-55602868D01*
X237289698Y-55603387D01*
X237295551Y-55603982D01*
X237295553Y-55603982D01*
X237378213Y-55612379D01*
X237380397Y-55612620D01*
X237462663Y-55622429D01*
X237468777Y-55623158D01*
X237474094Y-55622749D01*
X237479388Y-55623324D01*
X237481157Y-55623169D01*
X237482925Y-55623355D01*
X237484692Y-55623194D01*
X237486462Y-55623374D01*
X237575063Y-55614999D01*
X237577225Y-55614813D01*
X237592336Y-55613651D01*
X237659828Y-55608457D01*
X237659830Y-55608457D01*
X237665972Y-55607984D01*
X237671102Y-55606552D01*
X237676413Y-55606087D01*
X237678121Y-55605591D01*
X237679888Y-55605430D01*
X237681593Y-55604928D01*
X237683362Y-55604761D01*
X237719532Y-55593978D01*
X237768685Y-55579326D01*
X237770796Y-55578717D01*
X237796400Y-55571568D01*
X237856463Y-55554798D01*
X237861219Y-55552396D01*
X237866336Y-55550909D01*
X237867911Y-55550093D01*
X237869619Y-55549590D01*
X237871195Y-55548766D01*
X237872896Y-55548259D01*
X237951607Y-55506759D01*
X237953554Y-55505754D01*
X238027496Y-55468403D01*
X238032996Y-55465625D01*
X238037195Y-55462344D01*
X238041926Y-55459892D01*
X238043314Y-55458784D01*
X238044890Y-55457960D01*
X238046275Y-55456846D01*
X238047846Y-55456018D01*
X238052682Y-55452102D01*
X238116980Y-55400034D01*
X238118702Y-55398664D01*
X238171932Y-55357076D01*
X238188847Y-55343861D01*
X238192647Y-55339459D01*
X238192874Y-55339256D01*
X238193907Y-55338238D01*
X238194458Y-55337704D01*
X238199025Y-55334032D01*
X238200168Y-55332669D01*
X238201547Y-55331553D01*
X238213331Y-55317410D01*
X238232175Y-55294792D01*
X238239884Y-55286351D01*
X239423797Y-54102437D01*
X239435309Y-54092251D01*
X239458847Y-54073861D01*
X239496687Y-54030023D01*
X239502959Y-54023275D01*
X239508309Y-54017925D01*
X239530552Y-53990847D01*
X239532487Y-53988548D01*
X239546787Y-53971981D01*
X239588078Y-53924145D01*
X239591121Y-53918787D01*
X239594672Y-53913754D01*
X239594929Y-53913935D01*
X239595024Y-53913798D01*
X239594762Y-53913623D01*
X239598194Y-53908497D01*
X239602102Y-53903739D01*
X239606522Y-53895497D01*
X239642269Y-53828829D01*
X239643757Y-53826133D01*
X239685769Y-53752179D01*
X239687714Y-53746332D01*
X239690221Y-53740701D01*
X239690506Y-53740828D01*
X239690569Y-53740681D01*
X239690280Y-53740561D01*
X239692649Y-53734870D01*
X239695562Y-53729437D01*
X239720419Y-53648133D01*
X239721347Y-53645226D01*
X239727898Y-53625535D01*
X239748197Y-53564513D01*
X239748970Y-53558398D01*
X239750335Y-53552390D01*
X239750638Y-53552459D01*
X239750674Y-53552292D01*
X239750368Y-53552230D01*
X239751584Y-53546200D01*
X239753387Y-53540302D01*
X239756049Y-53514097D01*
X239761978Y-53455732D01*
X239762326Y-53452675D01*
X239768359Y-53404918D01*
X239772985Y-53368295D01*
X239773324Y-53344033D01*
X239773374Y-53343538D01*
X239773336Y-53343138D01*
X239773380Y-53340000D01*
X239771285Y-53318639D01*
X239763920Y-53243517D01*
X239763878Y-53243080D01*
X239755318Y-53152526D01*
X239755317Y-53152522D01*
X239754761Y-53146638D01*
X239754253Y-53144935D01*
X239754080Y-53143167D01*
X239752375Y-53137521D01*
X239752374Y-53137514D01*
X239726154Y-53050669D01*
X239726027Y-53050249D01*
X239699937Y-52962732D01*
X239699936Y-52962730D01*
X239698259Y-52957104D01*
X239697429Y-52955529D01*
X239696916Y-52953831D01*
X239651323Y-52868083D01*
X239606018Y-52782154D01*
X239604901Y-52780775D01*
X239604066Y-52779204D01*
X239542587Y-52703823D01*
X239542431Y-52703630D01*
X239485253Y-52633021D01*
X239485248Y-52633016D01*
X239481553Y-52628453D01*
X239480190Y-52627317D01*
X239479065Y-52625938D01*
X239404080Y-52563905D01*
X239329604Y-52501854D01*
X239328047Y-52501005D01*
X239326675Y-52499870D01*
X239321493Y-52497068D01*
X239321487Y-52497064D01*
X239241269Y-52453691D01*
X239240881Y-52453480D01*
X239161142Y-52410004D01*
X239161135Y-52410001D01*
X239155959Y-52407179D01*
X239154267Y-52406649D01*
X239152701Y-52405802D01*
X239147066Y-52404058D01*
X239147062Y-52404056D01*
X239060035Y-52377117D01*
X239059615Y-52376986D01*
X239023429Y-52365646D01*
X238967232Y-52348035D01*
X238965464Y-52347843D01*
X238963768Y-52347318D01*
X238957917Y-52346703D01*
X238957912Y-52346702D01*
X238890971Y-52339667D01*
X238867219Y-52337170D01*
X238867056Y-52337152D01*
X238770611Y-52326676D01*
X238768842Y-52326831D01*
X238767075Y-52326645D01*
X238761196Y-52327180D01*
X238670824Y-52335404D01*
X238670387Y-52335444D01*
X238579448Y-52343400D01*
X238579446Y-52343400D01*
X238573587Y-52343913D01*
X238571879Y-52344409D01*
X238570112Y-52344570D01*
X238531510Y-52355931D01*
X238477134Y-52371934D01*
X238476713Y-52372057D01*
X238389320Y-52397447D01*
X238389316Y-52397449D01*
X238383663Y-52399091D01*
X238382087Y-52399908D01*
X238380381Y-52400410D01*
X238294252Y-52445437D01*
X238208074Y-52490108D01*
X238206686Y-52491216D01*
X238205110Y-52492040D01*
X238200518Y-52495732D01*
X238198755Y-52496877D01*
X238198174Y-52497297D01*
X238195166Y-52499266D01*
X238193776Y-52497143D01*
X238138422Y-52520014D01*
X238068564Y-52507346D01*
X238060543Y-52502636D01*
X238059604Y-52501854D01*
X238058047Y-52501005D01*
X238056675Y-52499870D01*
X238051496Y-52497070D01*
X238051489Y-52497065D01*
X237971269Y-52453691D01*
X237970881Y-52453480D01*
X237891142Y-52410004D01*
X237891135Y-52410001D01*
X237885959Y-52407179D01*
X237884267Y-52406649D01*
X237882701Y-52405802D01*
X237877066Y-52404058D01*
X237877062Y-52404056D01*
X237790035Y-52377117D01*
X237789615Y-52376986D01*
X237753429Y-52365646D01*
X237697232Y-52348035D01*
X237695464Y-52347843D01*
X237693768Y-52347318D01*
X237687917Y-52346703D01*
X237687912Y-52346702D01*
X237620971Y-52339667D01*
X237597219Y-52337170D01*
X237597056Y-52337152D01*
X237500611Y-52326676D01*
X237498842Y-52326831D01*
X237497075Y-52326645D01*
X237491196Y-52327180D01*
X237400824Y-52335404D01*
X237400387Y-52335443D01*
X237365482Y-52338497D01*
X237295877Y-52324509D01*
X237244885Y-52275110D01*
X237228500Y-52212977D01*
X237228500Y-50777869D01*
X242996689Y-50777869D01*
X243013238Y-51064883D01*
X243014063Y-51069088D01*
X243014064Y-51069096D01*
X243046010Y-51231921D01*
X243068586Y-51346995D01*
X243069973Y-51351045D01*
X243069974Y-51351050D01*
X243147066Y-51576216D01*
X243161710Y-51618986D01*
X243290885Y-51875822D01*
X243453721Y-52112750D01*
X243647206Y-52325388D01*
X243650501Y-52328143D01*
X243650502Y-52328144D01*
X243862759Y-52505617D01*
X243867759Y-52509798D01*
X244111298Y-52662571D01*
X244373318Y-52780877D01*
X244377437Y-52782097D01*
X244644857Y-52861311D01*
X244644862Y-52861312D01*
X244648970Y-52862529D01*
X244653204Y-52863177D01*
X244653209Y-52863178D01*
X244901811Y-52901219D01*
X244933153Y-52906015D01*
X245079485Y-52908314D01*
X245216317Y-52910464D01*
X245216323Y-52910464D01*
X245220608Y-52910531D01*
X245224860Y-52910016D01*
X245224868Y-52910016D01*
X245501756Y-52876508D01*
X245501761Y-52876507D01*
X245506017Y-52875992D01*
X245784097Y-52803039D01*
X246049704Y-52693021D01*
X246270312Y-52564108D01*
X246294219Y-52550138D01*
X246294220Y-52550137D01*
X246297922Y-52547974D01*
X246524159Y-52370582D01*
X246528943Y-52365646D01*
X246721244Y-52167206D01*
X246724227Y-52164128D01*
X246726760Y-52160680D01*
X246726764Y-52160675D01*
X246891887Y-51935886D01*
X246894425Y-51932431D01*
X246905272Y-51912454D01*
X247029554Y-51683555D01*
X247029555Y-51683553D01*
X247031604Y-51679779D01*
X247106760Y-51480886D01*
X247131707Y-51414866D01*
X247131708Y-51414862D01*
X247133225Y-51410848D01*
X247197407Y-51130613D01*
X247201835Y-51081005D01*
X247222743Y-50846726D01*
X247222743Y-50846724D01*
X247222963Y-50844260D01*
X247223427Y-50800000D01*
X247203873Y-50513175D01*
X247199336Y-50491264D01*
X247174724Y-50372417D01*
X247145574Y-50231658D01*
X247049607Y-49960657D01*
X246917750Y-49705188D01*
X246904488Y-49686317D01*
X246754904Y-49473482D01*
X246752441Y-49469977D01*
X246679606Y-49391597D01*
X246559661Y-49262521D01*
X246559658Y-49262519D01*
X246556740Y-49259378D01*
X246334268Y-49077287D01*
X246089142Y-48927073D01*
X246071048Y-48919130D01*
X245829830Y-48813243D01*
X245825898Y-48811517D01*
X245799963Y-48804129D01*
X245687652Y-48772137D01*
X245549406Y-48732756D01*
X245336704Y-48702485D01*
X245269036Y-48692854D01*
X245269034Y-48692854D01*
X245264784Y-48692249D01*
X245260495Y-48692227D01*
X245260488Y-48692226D01*
X244981583Y-48690765D01*
X244981576Y-48690765D01*
X244977297Y-48690743D01*
X244973053Y-48691302D01*
X244973049Y-48691302D01*
X244847660Y-48707810D01*
X244692266Y-48728268D01*
X244688126Y-48729401D01*
X244688124Y-48729401D01*
X244611311Y-48750415D01*
X244414964Y-48804129D01*
X244411016Y-48805813D01*
X244154476Y-48915237D01*
X244154472Y-48915239D01*
X244150524Y-48916923D01*
X244067415Y-48966663D01*
X243907521Y-49062357D01*
X243907517Y-49062360D01*
X243903839Y-49064561D01*
X243679472Y-49244313D01*
X243481577Y-49452851D01*
X243313814Y-49686317D01*
X243179288Y-49940392D01*
X243177814Y-49944420D01*
X243098321Y-50161646D01*
X243080489Y-50210373D01*
X243019245Y-50491264D01*
X242996689Y-50777869D01*
X237228500Y-50777869D01*
X237228500Y-38161850D01*
X237229237Y-38148242D01*
X237232659Y-38116739D01*
X237233325Y-38110612D01*
X237228947Y-38060570D01*
X237228621Y-38055788D01*
X237228500Y-38053310D01*
X237228500Y-38050231D01*
X237228201Y-38047177D01*
X237228200Y-38047166D01*
X237224313Y-38007529D01*
X237224191Y-38006215D01*
X237216623Y-37919718D01*
X237216087Y-37913587D01*
X237214600Y-37908468D01*
X237214080Y-37903167D01*
X237187209Y-37814166D01*
X237186874Y-37813033D01*
X237162630Y-37729586D01*
X237162628Y-37729582D01*
X237160909Y-37723664D01*
X237158456Y-37718932D01*
X237156916Y-37713831D01*
X237132814Y-37668500D01*
X237113269Y-37631740D01*
X237112657Y-37630574D01*
X237072729Y-37553547D01*
X237069892Y-37548074D01*
X237066569Y-37543911D01*
X237064066Y-37539204D01*
X237005261Y-37467102D01*
X237004433Y-37466075D01*
X236975469Y-37429792D01*
X236975464Y-37429787D01*
X236973262Y-37427028D01*
X236970761Y-37424527D01*
X236970119Y-37423809D01*
X236966406Y-37419461D01*
X236956002Y-37406705D01*
X236939065Y-37385938D01*
X236934323Y-37382015D01*
X236934321Y-37382013D01*
X236903727Y-37356703D01*
X236894947Y-37348713D01*
X234544952Y-34998718D01*
X234510926Y-34936406D01*
X234515991Y-34865591D01*
X234523633Y-34848922D01*
X234559977Y-34782813D01*
X234560835Y-34781277D01*
X234602724Y-34707539D01*
X234605769Y-34702179D01*
X234607667Y-34696472D01*
X234607722Y-34696344D01*
X234608418Y-34694750D01*
X234608543Y-34694469D01*
X234611433Y-34689213D01*
X234638947Y-34602478D01*
X234639457Y-34600909D01*
X234668197Y-34514513D01*
X234668950Y-34508559D01*
X234668997Y-34508336D01*
X234669374Y-34506620D01*
X234669420Y-34506416D01*
X234671235Y-34500694D01*
X234681384Y-34410218D01*
X234681587Y-34408518D01*
X234692985Y-34318295D01*
X234693380Y-34290000D01*
X234689101Y-34246360D01*
X234688500Y-34234064D01*
X234688500Y-33091722D01*
X234689492Y-33075944D01*
X234692985Y-33048295D01*
X234693380Y-33020000D01*
X234674080Y-32823167D01*
X234650645Y-32745545D01*
X234618697Y-32639731D01*
X234616916Y-32633831D01*
X234524066Y-32459204D01*
X234453709Y-32372938D01*
X234402960Y-32310713D01*
X234402957Y-32310710D01*
X234399065Y-32305938D01*
X234392724Y-32300692D01*
X234251425Y-32183799D01*
X234251421Y-32183797D01*
X234246675Y-32179870D01*
X234072701Y-32085802D01*
X233883768Y-32027318D01*
X233877643Y-32026674D01*
X233877642Y-32026674D01*
X233693204Y-32007289D01*
X233693202Y-32007289D01*
X233687075Y-32006645D01*
X233604576Y-32014153D01*
X233496251Y-32024011D01*
X233496248Y-32024012D01*
X233490112Y-32024570D01*
X233484206Y-32026308D01*
X233484202Y-32026309D01*
X233379076Y-32057249D01*
X233300381Y-32080410D01*
X233294923Y-32083263D01*
X233294919Y-32083265D01*
X233199135Y-32133340D01*
X233125110Y-32172040D01*
X233120310Y-32175900D01*
X233115153Y-32179274D01*
X233113769Y-32177158D01*
X233058365Y-32200027D01*
X232988512Y-32187334D01*
X232978898Y-32181709D01*
X232976675Y-32179870D01*
X232802701Y-32085802D01*
X232613768Y-32027318D01*
X232607643Y-32026674D01*
X232607642Y-32026674D01*
X232423204Y-32007289D01*
X232423202Y-32007289D01*
X232417075Y-32006645D01*
X232334576Y-32014153D01*
X232226251Y-32024011D01*
X232226248Y-32024012D01*
X232220112Y-32024570D01*
X232214206Y-32026308D01*
X232214202Y-32026309D01*
X232109076Y-32057249D01*
X232030381Y-32080410D01*
X232024923Y-32083263D01*
X232024919Y-32083265D01*
X231929135Y-32133340D01*
X231855110Y-32172040D01*
X231850310Y-32175900D01*
X231845153Y-32179274D01*
X231843769Y-32177158D01*
X231788365Y-32200027D01*
X231718512Y-32187334D01*
X231708898Y-32181709D01*
X231706675Y-32179870D01*
X231532701Y-32085802D01*
X231343768Y-32027318D01*
X231337643Y-32026674D01*
X231337642Y-32026674D01*
X231153204Y-32007289D01*
X231153202Y-32007289D01*
X231147075Y-32006645D01*
X231064576Y-32014153D01*
X230956251Y-32024011D01*
X230956248Y-32024012D01*
X230950112Y-32024570D01*
X230944206Y-32026308D01*
X230944202Y-32026309D01*
X230839076Y-32057249D01*
X230760381Y-32080410D01*
X230754923Y-32083263D01*
X230754919Y-32083265D01*
X230664147Y-32130720D01*
X230585110Y-32172040D01*
X230430975Y-32295968D01*
X230303846Y-32447474D01*
X230300879Y-32452872D01*
X230300875Y-32452877D01*
X230222095Y-32596180D01*
X230208567Y-32620787D01*
X230206706Y-32626654D01*
X230206705Y-32626656D01*
X230168991Y-32745545D01*
X230148765Y-32809306D01*
X230126719Y-33005851D01*
X230127235Y-33011995D01*
X230131058Y-33057524D01*
X230131500Y-33068067D01*
X230131500Y-34226181D01*
X230130715Y-34240225D01*
X230126719Y-34275851D01*
X230126868Y-34277623D01*
X230126676Y-34279388D01*
X199390000Y-34279388D01*
X199390000Y-32061066D01*
X199410002Y-31992945D01*
X199463658Y-31946452D01*
X199533932Y-31936348D01*
X199598512Y-31965842D01*
X199627560Y-32002495D01*
X199639149Y-32024570D01*
X199715075Y-32169187D01*
X199718957Y-32176582D01*
X199720858Y-32179411D01*
X199720864Y-32179421D01*
X199897813Y-32442747D01*
X199918834Y-32474029D01*
X200149665Y-32748150D01*
X200408751Y-32995738D01*
X200693061Y-33213897D01*
X200725056Y-33233350D01*
X200996355Y-33398303D01*
X200996360Y-33398306D01*
X200999270Y-33400075D01*
X201002358Y-33401521D01*
X201002357Y-33401521D01*
X201320710Y-33550649D01*
X201320720Y-33550653D01*
X201323794Y-33552093D01*
X201327012Y-33553195D01*
X201327015Y-33553196D01*
X201659615Y-33667071D01*
X201659623Y-33667073D01*
X201662838Y-33668174D01*
X202012435Y-33746959D01*
X202064728Y-33752917D01*
X202365114Y-33787142D01*
X202365122Y-33787142D01*
X202368497Y-33787527D01*
X202371901Y-33787545D01*
X202371904Y-33787545D01*
X202566227Y-33788562D01*
X202726857Y-33789403D01*
X202730243Y-33789053D01*
X202730245Y-33789053D01*
X203079932Y-33752917D01*
X203079941Y-33752916D01*
X203083324Y-33752566D01*
X203086657Y-33751852D01*
X203086660Y-33751851D01*
X203343164Y-33696861D01*
X203433727Y-33677446D01*
X203773968Y-33564922D01*
X204100066Y-33416311D01*
X204345946Y-33270318D01*
X204405262Y-33235099D01*
X204405267Y-33235096D01*
X204408207Y-33233350D01*
X204428869Y-33217837D01*
X204617869Y-33075931D01*
X204694786Y-33018180D01*
X204956451Y-32773319D01*
X205190140Y-32501630D01*
X205296750Y-32346512D01*
X205391190Y-32209101D01*
X205391195Y-32209094D01*
X205393120Y-32206292D01*
X205394732Y-32203298D01*
X205394737Y-32203290D01*
X205561395Y-31893772D01*
X205563017Y-31890760D01*
X205697842Y-31558724D01*
X205708142Y-31522568D01*
X205728527Y-31451006D01*
X205796020Y-31214070D01*
X205856401Y-30860828D01*
X205858511Y-30826340D01*
X205878168Y-30504928D01*
X205878278Y-30503131D01*
X205878359Y-30480000D01*
X205858979Y-30122159D01*
X205801066Y-29768505D01*
X205705297Y-29423173D01*
X205702243Y-29415497D01*
X205607212Y-29176695D01*
X218982251Y-29176695D01*
X218995110Y-29399715D01*
X218996247Y-29404761D01*
X218996248Y-29404767D01*
X219010606Y-29468475D01*
X219044222Y-29617639D01*
X219128266Y-29824616D01*
X219179942Y-29908944D01*
X219242291Y-30010688D01*
X219244987Y-30015088D01*
X219391250Y-30183938D01*
X219563126Y-30326632D01*
X219756000Y-30439338D01*
X219964692Y-30519030D01*
X219969760Y-30520061D01*
X219969763Y-30520062D01*
X220064862Y-30539410D01*
X220183597Y-30563567D01*
X220188772Y-30563757D01*
X220188774Y-30563757D01*
X220401673Y-30571564D01*
X220401677Y-30571564D01*
X220406837Y-30571753D01*
X220411957Y-30571097D01*
X220411959Y-30571097D01*
X220623288Y-30544025D01*
X220623289Y-30544025D01*
X220628416Y-30543368D01*
X220633366Y-30541883D01*
X220837429Y-30480661D01*
X220837434Y-30480659D01*
X220842384Y-30479174D01*
X221042994Y-30380896D01*
X221224860Y-30251173D01*
X221383096Y-30093489D01*
X221442594Y-30010689D01*
X221513453Y-29912077D01*
X221514776Y-29913028D01*
X221561645Y-29869857D01*
X221631580Y-29857625D01*
X221697026Y-29885144D01*
X221724875Y-29916994D01*
X221784987Y-30015088D01*
X221931250Y-30183938D01*
X222103126Y-30326632D01*
X222296000Y-30439338D01*
X222504692Y-30519030D01*
X222509760Y-30520061D01*
X222509763Y-30520062D01*
X222604862Y-30539410D01*
X222723597Y-30563567D01*
X222728772Y-30563757D01*
X222728774Y-30563757D01*
X222941673Y-30571564D01*
X222941677Y-30571564D01*
X222946837Y-30571753D01*
X222951957Y-30571097D01*
X222951959Y-30571097D01*
X223163288Y-30544025D01*
X223163289Y-30544025D01*
X223168416Y-30543368D01*
X223173366Y-30541883D01*
X223377429Y-30480661D01*
X223377434Y-30480659D01*
X223382384Y-30479174D01*
X223582994Y-30380896D01*
X223764860Y-30251173D01*
X223923096Y-30093489D01*
X223982594Y-30010689D01*
X224053453Y-29912077D01*
X224054776Y-29913028D01*
X224101645Y-29869857D01*
X224171580Y-29857625D01*
X224237026Y-29885144D01*
X224264875Y-29916994D01*
X224324987Y-30015088D01*
X224471250Y-30183938D01*
X224643126Y-30326632D01*
X224836000Y-30439338D01*
X225044692Y-30519030D01*
X225049760Y-30520061D01*
X225049763Y-30520062D01*
X225144862Y-30539410D01*
X225263597Y-30563567D01*
X225268772Y-30563757D01*
X225268774Y-30563757D01*
X225481673Y-30571564D01*
X225481677Y-30571564D01*
X225486837Y-30571753D01*
X225491957Y-30571097D01*
X225491959Y-30571097D01*
X225703288Y-30544025D01*
X225703289Y-30544025D01*
X225708416Y-30543368D01*
X225713366Y-30541883D01*
X225917429Y-30480661D01*
X225917434Y-30480659D01*
X225922384Y-30479174D01*
X226122994Y-30380896D01*
X226304860Y-30251173D01*
X226463096Y-30093489D01*
X226522594Y-30010689D01*
X226593453Y-29912077D01*
X226594640Y-29912930D01*
X226641960Y-29869362D01*
X226711897Y-29857145D01*
X226777338Y-29884678D01*
X226805166Y-29916511D01*
X226862694Y-30010388D01*
X226868777Y-30018699D01*
X227008213Y-30179667D01*
X227015580Y-30186883D01*
X227179434Y-30322916D01*
X227187881Y-30328831D01*
X227371756Y-30436279D01*
X227381042Y-30440729D01*
X227580001Y-30516703D01*
X227589899Y-30519579D01*
X227693250Y-30540606D01*
X227707299Y-30539410D01*
X227711000Y-30529065D01*
X227711000Y-30528517D01*
X228219000Y-30528517D01*
X228223064Y-30542359D01*
X228236478Y-30544393D01*
X228243184Y-30543534D01*
X228253262Y-30541392D01*
X228457255Y-30480191D01*
X228466842Y-30476433D01*
X228658095Y-30382739D01*
X228666945Y-30377464D01*
X228840328Y-30253792D01*
X228848200Y-30247139D01*
X228999052Y-30096812D01*
X229005730Y-30088965D01*
X229133022Y-29911819D01*
X229134147Y-29912627D01*
X229181669Y-29868876D01*
X229251607Y-29856661D01*
X229317046Y-29884197D01*
X229344870Y-29916028D01*
X229402690Y-30010383D01*
X229408777Y-30018699D01*
X229548213Y-30179667D01*
X229555580Y-30186883D01*
X229719434Y-30322916D01*
X229727881Y-30328831D01*
X229911756Y-30436279D01*
X229921042Y-30440729D01*
X230120001Y-30516703D01*
X230129899Y-30519579D01*
X230233250Y-30540606D01*
X230247299Y-30539410D01*
X230251000Y-30529065D01*
X230251000Y-30528517D01*
X230759000Y-30528517D01*
X230763064Y-30542359D01*
X230776478Y-30544393D01*
X230783184Y-30543534D01*
X230793262Y-30541392D01*
X230997255Y-30480191D01*
X231006842Y-30476433D01*
X231198095Y-30382739D01*
X231206945Y-30377464D01*
X231380328Y-30253792D01*
X231388200Y-30247139D01*
X231493286Y-30142418D01*
X231555657Y-30108501D01*
X231626464Y-30113689D01*
X231683226Y-30156335D01*
X231700208Y-30187439D01*
X231741675Y-30298052D01*
X231750214Y-30313649D01*
X231826715Y-30415724D01*
X231839276Y-30428285D01*
X231941351Y-30504786D01*
X231956946Y-30513324D01*
X232077394Y-30558478D01*
X232092649Y-30562105D01*
X232143514Y-30567631D01*
X232150328Y-30568000D01*
X232772885Y-30568000D01*
X232788124Y-30563525D01*
X232789329Y-30562135D01*
X232791000Y-30554452D01*
X232791000Y-30549884D01*
X233299000Y-30549884D01*
X233303475Y-30565123D01*
X233304865Y-30566328D01*
X233312548Y-30567999D01*
X233939669Y-30567999D01*
X233946490Y-30567629D01*
X233997352Y-30562105D01*
X234012604Y-30558479D01*
X234133054Y-30513324D01*
X234148649Y-30504786D01*
X234250724Y-30428285D01*
X234263285Y-30415724D01*
X234339786Y-30313649D01*
X234348324Y-30298054D01*
X234393478Y-30177606D01*
X234397105Y-30162351D01*
X234402631Y-30111486D01*
X234403000Y-30104672D01*
X234403000Y-29482115D01*
X234398525Y-29466876D01*
X234397135Y-29465671D01*
X234389452Y-29464000D01*
X233317115Y-29464000D01*
X233301876Y-29468475D01*
X233300671Y-29469865D01*
X233299000Y-29477548D01*
X233299000Y-30549884D01*
X232791000Y-30549884D01*
X232791000Y-29482115D01*
X232786525Y-29466876D01*
X232785135Y-29465671D01*
X232777452Y-29464000D01*
X230777115Y-29464000D01*
X230761876Y-29468475D01*
X230760671Y-29469865D01*
X230759000Y-29477548D01*
X230759000Y-30528517D01*
X230251000Y-30528517D01*
X230251000Y-29482115D01*
X230246525Y-29466876D01*
X230245135Y-29465671D01*
X230237452Y-29464000D01*
X228237115Y-29464000D01*
X228221876Y-29468475D01*
X228220671Y-29469865D01*
X228219000Y-29477548D01*
X228219000Y-30528517D01*
X227711000Y-30528517D01*
X227711000Y-28937885D01*
X228219000Y-28937885D01*
X228223475Y-28953124D01*
X228224865Y-28954329D01*
X228232548Y-28956000D01*
X230232885Y-28956000D01*
X230248124Y-28951525D01*
X230249329Y-28950135D01*
X230251000Y-28942452D01*
X230251000Y-28937885D01*
X230759000Y-28937885D01*
X230763475Y-28953124D01*
X230764865Y-28954329D01*
X230772548Y-28956000D01*
X232772885Y-28956000D01*
X232788124Y-28951525D01*
X232789329Y-28950135D01*
X232791000Y-28942452D01*
X232791000Y-28937885D01*
X233299000Y-28937885D01*
X233303475Y-28953124D01*
X233304865Y-28954329D01*
X233312548Y-28956000D01*
X234384884Y-28956000D01*
X234400123Y-28951525D01*
X234401328Y-28950135D01*
X234402999Y-28942452D01*
X234402999Y-28315331D01*
X234402629Y-28308510D01*
X234397105Y-28257648D01*
X234393479Y-28242396D01*
X234348324Y-28121946D01*
X234339786Y-28106351D01*
X234263285Y-28004276D01*
X234250724Y-27991715D01*
X234148649Y-27915214D01*
X234133054Y-27906676D01*
X234012606Y-27861522D01*
X233997351Y-27857895D01*
X233946486Y-27852369D01*
X233939672Y-27852000D01*
X233317115Y-27852000D01*
X233301876Y-27856475D01*
X233300671Y-27857865D01*
X233299000Y-27865548D01*
X233299000Y-28937885D01*
X232791000Y-28937885D01*
X232791000Y-27870116D01*
X232786525Y-27854877D01*
X232785135Y-27853672D01*
X232777452Y-27852001D01*
X232150331Y-27852001D01*
X232143510Y-27852371D01*
X232092648Y-27857895D01*
X232077396Y-27861521D01*
X231956946Y-27906676D01*
X231941351Y-27915214D01*
X231839276Y-27991715D01*
X231826715Y-28004276D01*
X231750214Y-28106351D01*
X231741676Y-28121946D01*
X231700100Y-28232849D01*
X231657458Y-28289613D01*
X231590897Y-28314313D01*
X231521548Y-28299105D01*
X231488925Y-28273419D01*
X231437806Y-28217240D01*
X231430273Y-28210215D01*
X231263139Y-28078222D01*
X231254552Y-28072517D01*
X231068117Y-27969599D01*
X231058705Y-27965369D01*
X230857959Y-27894280D01*
X230847988Y-27891646D01*
X230776837Y-27878972D01*
X230763540Y-27880432D01*
X230759000Y-27894989D01*
X230759000Y-28937885D01*
X230251000Y-28937885D01*
X230251000Y-27893102D01*
X230247082Y-27879758D01*
X230232806Y-27877771D01*
X230194324Y-27883660D01*
X230184288Y-27886051D01*
X229981868Y-27952212D01*
X229972359Y-27956209D01*
X229783463Y-28054542D01*
X229774738Y-28060036D01*
X229604433Y-28187905D01*
X229596726Y-28194748D01*
X229449590Y-28348717D01*
X229443104Y-28356727D01*
X229338193Y-28510521D01*
X229283282Y-28555524D01*
X229212757Y-28563695D01*
X229149010Y-28532441D01*
X229128313Y-28507957D01*
X229047427Y-28382926D01*
X229041136Y-28374757D01*
X228897806Y-28217240D01*
X228890273Y-28210215D01*
X228723139Y-28078222D01*
X228714552Y-28072517D01*
X228528117Y-27969599D01*
X228518705Y-27965369D01*
X228317959Y-27894280D01*
X228307988Y-27891646D01*
X228236837Y-27878972D01*
X228223540Y-27880432D01*
X228219000Y-27894989D01*
X228219000Y-28937885D01*
X227711000Y-28937885D01*
X227711000Y-27893102D01*
X227707082Y-27879758D01*
X227692806Y-27877771D01*
X227654324Y-27883660D01*
X227644288Y-27886051D01*
X227441868Y-27952212D01*
X227432359Y-27956209D01*
X227243463Y-28054542D01*
X227234738Y-28060036D01*
X227064433Y-28187905D01*
X227056726Y-28194748D01*
X226909590Y-28348717D01*
X226903109Y-28356722D01*
X226798498Y-28510074D01*
X226743587Y-28555076D01*
X226673062Y-28563247D01*
X226609315Y-28531993D01*
X226588618Y-28507509D01*
X226507822Y-28382617D01*
X226507820Y-28382614D01*
X226505014Y-28378277D01*
X226354670Y-28213051D01*
X226350619Y-28209852D01*
X226350615Y-28209848D01*
X226183414Y-28077800D01*
X226183410Y-28077798D01*
X226179359Y-28074598D01*
X226143028Y-28054542D01*
X226051970Y-28004276D01*
X225983789Y-27966638D01*
X225978920Y-27964914D01*
X225978916Y-27964912D01*
X225778087Y-27893795D01*
X225778083Y-27893794D01*
X225773212Y-27892069D01*
X225768119Y-27891162D01*
X225768116Y-27891161D01*
X225558373Y-27853800D01*
X225558367Y-27853799D01*
X225553284Y-27852894D01*
X225479452Y-27851992D01*
X225335081Y-27850228D01*
X225335079Y-27850228D01*
X225329911Y-27850165D01*
X225109091Y-27883955D01*
X224896756Y-27953357D01*
X224698607Y-28056507D01*
X224694474Y-28059610D01*
X224694471Y-28059612D01*
X224611450Y-28121946D01*
X224519965Y-28190635D01*
X224501605Y-28209848D01*
X224416309Y-28299105D01*
X224365629Y-28352138D01*
X224258201Y-28509621D01*
X224203293Y-28554621D01*
X224132768Y-28562792D01*
X224069021Y-28531538D01*
X224048324Y-28507054D01*
X223967822Y-28382617D01*
X223967820Y-28382614D01*
X223965014Y-28378277D01*
X223814670Y-28213051D01*
X223810619Y-28209852D01*
X223810615Y-28209848D01*
X223643414Y-28077800D01*
X223643410Y-28077798D01*
X223639359Y-28074598D01*
X223603028Y-28054542D01*
X223511970Y-28004276D01*
X223443789Y-27966638D01*
X223438920Y-27964914D01*
X223438916Y-27964912D01*
X223238087Y-27893795D01*
X223238083Y-27893794D01*
X223233212Y-27892069D01*
X223228119Y-27891162D01*
X223228116Y-27891161D01*
X223018373Y-27853800D01*
X223018367Y-27853799D01*
X223013284Y-27852894D01*
X222939452Y-27851992D01*
X222795081Y-27850228D01*
X222795079Y-27850228D01*
X222789911Y-27850165D01*
X222569091Y-27883955D01*
X222356756Y-27953357D01*
X222158607Y-28056507D01*
X222154474Y-28059610D01*
X222154471Y-28059612D01*
X222071450Y-28121946D01*
X221979965Y-28190635D01*
X221961605Y-28209848D01*
X221876309Y-28299105D01*
X221825629Y-28352138D01*
X221718201Y-28509621D01*
X221663293Y-28554621D01*
X221592768Y-28562792D01*
X221529021Y-28531538D01*
X221508324Y-28507054D01*
X221427822Y-28382617D01*
X221427820Y-28382614D01*
X221425014Y-28378277D01*
X221274670Y-28213051D01*
X221270619Y-28209852D01*
X221270615Y-28209848D01*
X221103414Y-28077800D01*
X221103410Y-28077798D01*
X221099359Y-28074598D01*
X221063028Y-28054542D01*
X220971970Y-28004276D01*
X220903789Y-27966638D01*
X220898920Y-27964914D01*
X220898916Y-27964912D01*
X220698087Y-27893795D01*
X220698083Y-27893794D01*
X220693212Y-27892069D01*
X220688119Y-27891162D01*
X220688116Y-27891161D01*
X220478373Y-27853800D01*
X220478367Y-27853799D01*
X220473284Y-27852894D01*
X220399452Y-27851992D01*
X220255081Y-27850228D01*
X220255079Y-27850228D01*
X220249911Y-27850165D01*
X220029091Y-27883955D01*
X219816756Y-27953357D01*
X219618607Y-28056507D01*
X219614474Y-28059610D01*
X219614471Y-28059612D01*
X219531450Y-28121946D01*
X219439965Y-28190635D01*
X219421605Y-28209848D01*
X219336309Y-28299105D01*
X219285629Y-28352138D01*
X219282720Y-28356403D01*
X219282714Y-28356411D01*
X219270404Y-28374457D01*
X219159743Y-28536680D01*
X219065688Y-28739305D01*
X219005989Y-28954570D01*
X218982251Y-29176695D01*
X205607212Y-29176695D01*
X205574052Y-29093369D01*
X205572793Y-29090205D01*
X205503698Y-28959707D01*
X205406702Y-28776513D01*
X205406698Y-28776506D01*
X205405103Y-28773494D01*
X205204190Y-28476746D01*
X204972403Y-28203432D01*
X204712454Y-27956750D01*
X204427384Y-27739585D01*
X204424472Y-27737828D01*
X204424467Y-27737825D01*
X204123443Y-27556236D01*
X204123437Y-27556233D01*
X204120528Y-27554478D01*
X204105790Y-27547637D01*
X204100728Y-27545287D01*
X204047361Y-27498463D01*
X204027781Y-27430220D01*
X204048205Y-27362224D01*
X204102148Y-27316064D01*
X204153779Y-27305000D01*
X244789857Y-27305000D01*
X244857978Y-27325002D01*
G37*
%TD.AperFunction*%
%TD*%
M02*
