M48
; DRILL file {KiCad (6.0.8)} date Sun 23 Oct 2022 12:14:47 AM EEST
; FORMAT={-:-/ absolute / metric / decimal}
; #@! TF.CreationDate,2022-10-23T00:14:47+03:00
; #@! TF.GenerationSoftware,Kicad,Pcbnew,(6.0.8)
; #@! TF.FileFunction,Plated,1,2,PTH
FMAT,2
METRIC
; #@! TA.AperFunction,Plated,PTH,ViaDrill
T1C0.500
; #@! TA.AperFunction,Plated,PTH,ComponentDrill
T2C0.800
; #@! TA.AperFunction,Plated,PTH,ComponentDrill
T3C0.900
; #@! TA.AperFunction,Plated,PTH,ComponentDrill
T4C1.000
; #@! TA.AperFunction,Plated,PTH,ComponentDrill
T5C1.200
; #@! TA.AperFunction,Plated,PTH,ComponentDrill
T6C1.520
; #@! TA.AperFunction,Plated,PTH,ComponentDrill
T7C1.600
; #@! TA.AperFunction,Plated,PTH,ComponentDrill
T8C3.200
%
G90
G05
T1
X215.9Y-32.385
X215.9Y-33.655
X215.9Y-34.925
X215.9Y-36.195
X215.9Y-37.465
X217.17Y-31.75
X217.17Y-38.1
X218.44Y-31.75
X218.44Y-38.1
X226.695Y-34.29
X226.695Y-35.56
X226.695Y-36.83
X227.965Y-34.29
X227.965Y-35.56
X227.965Y-36.83
X231.14Y-33.02
X231.14Y-34.29
X232.41Y-33.02
X232.41Y-34.29
X233.68Y-33.02
X233.68Y-34.29
X234.95Y-53.34
X236.22Y-53.34
X236.22Y-54.61
X237.49Y-53.34
X237.49Y-54.61
X238.76Y-53.34
T2
X232.41Y-63.513
X232.41Y-67.013
T3
X206.37Y-50.165
X206.375Y-40.64
X208.91Y-50.165
X208.915Y-40.64
X242.57Y-57.15
X245.11Y-57.15
T4
X209.555Y-74.405
X210.825Y-79.485
X212.095Y-74.405
X213.365Y-79.485
X214.635Y-74.405
X215.265Y-71.12
X215.905Y-79.485
X217.17Y-65.405
X217.175Y-74.405
X217.805Y-71.12
X218.445Y-79.485
X219.71Y-65.405
X219.715Y-74.405
X220.345Y-29.21
X220.345Y-71.12
X220.985Y-79.485
X222.255Y-74.405
X222.885Y-29.21
X222.885Y-71.12
X223.525Y-79.485
X224.795Y-74.405
X225.425Y-29.21
X226.065Y-79.485
X227.335Y-74.405
X227.965Y-29.21
X230.505Y-29.21
X233.045Y-29.21
T5
X219.71Y-46.017
X219.71Y-53.517
T6
X207.645Y-60.325
X207.645Y-65.405
X233.68Y-78.74
X238.76Y-78.74
X245.11Y-64.77
X245.11Y-69.85
T7
X245.11Y-35.56
X245.11Y-50.8
T8
X202.565Y-30.48
X202.565Y-81.28
X246.38Y-30.48
X246.38Y-81.28
T0
M30
