%TF.GenerationSoftware,KiCad,Pcbnew,(6.0.8)*%
%TF.CreationDate,2022-10-23T00:13:42+03:00*%
%TF.ProjectId,PowerBoard,506f7765-7242-46f6-9172-642e6b696361,rev?*%
%TF.SameCoordinates,Original*%
%TF.FileFunction,Copper,L1,Top*%
%TF.FilePolarity,Positive*%
%FSLAX46Y46*%
G04 Gerber Fmt 4.6, Leading zero omitted, Abs format (unit mm)*
G04 Created by KiCad (PCBNEW (6.0.8)) date 2022-10-23 00:13:42*
%MOMM*%
%LPD*%
G01*
G04 APERTURE LIST*
G04 Aperture macros list*
%AMRoundRect*
0 Rectangle with rounded corners*
0 $1 Rounding radius*
0 $2 $3 $4 $5 $6 $7 $8 $9 X,Y pos of 4 corners*
0 Add a 4 corners polygon primitive as box body*
4,1,4,$2,$3,$4,$5,$6,$7,$8,$9,$2,$3,0*
0 Add four circle primitives for the rounded corners*
1,1,$1+$1,$2,$3*
1,1,$1+$1,$4,$5*
1,1,$1+$1,$6,$7*
1,1,$1+$1,$8,$9*
0 Add four rect primitives between the rounded corners*
20,1,$1+$1,$2,$3,$4,$5,0*
20,1,$1+$1,$4,$5,$6,$7,0*
20,1,$1+$1,$6,$7,$8,$9,0*
20,1,$1+$1,$8,$9,$2,$3,0*%
G04 Aperture macros list end*
%TA.AperFunction,ComponentPad*%
%ADD10R,1.600000X1.600000*%
%TD*%
%TA.AperFunction,ComponentPad*%
%ADD11C,1.600000*%
%TD*%
%TA.AperFunction,ComponentPad*%
%ADD12R,1.700000X1.700000*%
%TD*%
%TA.AperFunction,ComponentPad*%
%ADD13O,1.700000X1.700000*%
%TD*%
%TA.AperFunction,SMDPad,CuDef*%
%ADD14RoundRect,0.237500X-0.237500X0.250000X-0.237500X-0.250000X0.237500X-0.250000X0.237500X0.250000X0*%
%TD*%
%TA.AperFunction,ComponentPad*%
%ADD15R,2.400000X2.400000*%
%TD*%
%TA.AperFunction,ComponentPad*%
%ADD16C,2.400000*%
%TD*%
%TA.AperFunction,ComponentPad*%
%ADD17R,1.800000X1.800000*%
%TD*%
%TA.AperFunction,ComponentPad*%
%ADD18C,1.800000*%
%TD*%
%TA.AperFunction,ComponentPad*%
%ADD19C,3.600000*%
%TD*%
%TA.AperFunction,ConnectorPad*%
%ADD20C,5.600000*%
%TD*%
%TA.AperFunction,ComponentPad*%
%ADD21R,3.000000X3.000000*%
%TD*%
%TA.AperFunction,ComponentPad*%
%ADD22C,3.000000*%
%TD*%
%TA.AperFunction,SMDPad,CuDef*%
%ADD23RoundRect,0.250000X0.450000X-0.350000X0.450000X0.350000X-0.450000X0.350000X-0.450000X-0.350000X0*%
%TD*%
%TA.AperFunction,ComponentPad*%
%ADD24O,1.800000X1.800000*%
%TD*%
%TA.AperFunction,ComponentPad*%
%ADD25R,3.200000X3.200000*%
%TD*%
%TA.AperFunction,ComponentPad*%
%ADD26O,3.200000X3.200000*%
%TD*%
%TA.AperFunction,SMDPad,CuDef*%
%ADD27R,2.000000X1.500000*%
%TD*%
%TA.AperFunction,SMDPad,CuDef*%
%ADD28R,2.000000X3.800000*%
%TD*%
%TA.AperFunction,SMDPad,CuDef*%
%ADD29R,1.100000X4.600000*%
%TD*%
%TA.AperFunction,SMDPad,CuDef*%
%ADD30R,10.800000X9.400000*%
%TD*%
%TA.AperFunction,SMDPad,CuDef*%
%ADD31RoundRect,0.250000X0.400000X1.450000X-0.400000X1.450000X-0.400000X-1.450000X0.400000X-1.450000X0*%
%TD*%
%TA.AperFunction,SMDPad,CuDef*%
%ADD32RoundRect,0.250000X0.412500X0.650000X-0.412500X0.650000X-0.412500X-0.650000X0.412500X-0.650000X0*%
%TD*%
%TA.AperFunction,SMDPad,CuDef*%
%ADD33RoundRect,0.250000X0.650000X-0.412500X0.650000X0.412500X-0.650000X0.412500X-0.650000X-0.412500X0*%
%TD*%
%TA.AperFunction,ViaPad*%
%ADD34C,1.000000*%
%TD*%
%TA.AperFunction,Conductor*%
%ADD35C,1.000000*%
%TD*%
%TA.AperFunction,Conductor*%
%ADD36C,2.000000*%
%TD*%
%TA.AperFunction,Conductor*%
%ADD37C,0.500000*%
%TD*%
G04 APERTURE END LIST*
D10*
%TO.P,C1,1*%
%TO.N,VCC*%
X232410000Y-67012755D03*
D11*
%TO.P,C1,2*%
%TO.N,GND*%
X232410000Y-63512755D03*
%TD*%
D12*
%TO.P,J4,1,Pin_1*%
%TO.N,Net-(J4-Pad1)*%
X217170000Y-65405000D03*
D13*
%TO.P,J4,2,Pin_2*%
%TO.N,Net-(J4-Pad2)*%
X219710000Y-65405000D03*
%TD*%
D14*
%TO.P,R1,1*%
%TO.N,Net-(D4-Pad1)*%
X248285000Y-58420000D03*
%TO.P,R1,2*%
%TO.N,GND*%
X248285000Y-60245000D03*
%TD*%
D15*
%TO.P,C2,1*%
%TO.N,+5F*%
X219710000Y-46017246D03*
D16*
%TO.P,C2,2*%
%TO.N,GND*%
X219710000Y-53517246D03*
%TD*%
D17*
%TO.P,D4,1,K*%
%TO.N,Net-(D4-Pad1)*%
X245110000Y-57150000D03*
D18*
%TO.P,D4,2,A*%
%TO.N,VCC*%
X242570000Y-57150000D03*
%TD*%
D19*
%TO.P,H3,1,1*%
%TO.N,GND*%
X246380000Y-30480000D03*
D20*
X246380000Y-30480000D03*
%TD*%
D12*
%TO.P,J6,1,Pin_1*%
%TO.N,+3V3*%
X233045000Y-29210000D03*
D13*
%TO.P,J6,2,Pin_2*%
X230505000Y-29210000D03*
%TO.P,J6,3,Pin_3*%
X227965000Y-29210000D03*
%TO.P,J6,4,Pin_4*%
%TO.N,GND*%
X225425000Y-29210000D03*
%TO.P,J6,5,Pin_5*%
X222885000Y-29210000D03*
%TO.P,J6,6,Pin_6*%
X220345000Y-29210000D03*
%TD*%
D21*
%TO.P,J3,1,Pin_1*%
%TO.N,Net-(J3-Pad1)*%
X207645000Y-60325000D03*
D22*
%TO.P,J3,2,Pin_2*%
%TO.N,Net-(J3-Pad2)*%
X207645000Y-65405000D03*
%TD*%
D20*
%TO.P,H1,1,1*%
%TO.N,GND*%
X246380000Y-81280000D03*
D19*
X246380000Y-81280000D03*
%TD*%
D23*
%TO.P,R3,1*%
%TO.N,Net-(D2-Pad1)*%
X202565000Y-50800000D03*
%TO.P,R3,2*%
%TO.N,GND*%
X202565000Y-48800000D03*
%TD*%
D17*
%TO.P,D3,1,K*%
%TO.N,Net-(D3-Pad1)*%
X206375000Y-40640000D03*
D18*
%TO.P,D3,2,A*%
%TO.N,+3V3*%
X208915000Y-40640000D03*
%TD*%
D21*
%TO.P,J1,1,Pin_1*%
%TO.N,Net-(J1-Pad1)*%
X233680000Y-78740000D03*
D22*
%TO.P,J1,2,Pin_2*%
%TO.N,Net-(J1-Pad2)*%
X238760000Y-78740000D03*
%TD*%
D12*
%TO.P,J2,1,Pin_1*%
%TO.N,Net-(J2-Pad1)*%
X215265000Y-71120000D03*
D13*
%TO.P,J2,2,Pin_2*%
%TO.N,Net-(J2-Pad2)*%
X217805000Y-71120000D03*
%TO.P,J2,3,Pin_3*%
%TO.N,Net-(J2-Pad3)*%
X220345000Y-71120000D03*
%TO.P,J2,4,Pin_4*%
%TO.N,Net-(J2-Pad4)*%
X222885000Y-71120000D03*
%TD*%
D17*
%TO.P,U1,1,SENSE_A*%
%TO.N,Net-(J4-Pad2)*%
X227335000Y-74405000D03*
D24*
%TO.P,U1,2,OUT1*%
%TO.N,Net-(J1-Pad1)*%
X226065000Y-79485000D03*
%TO.P,U1,3,OUT2*%
%TO.N,Net-(J1-Pad2)*%
X224795000Y-74405000D03*
%TO.P,U1,4,Vs*%
%TO.N,VCC*%
X223525000Y-79485000D03*
%TO.P,U1,5,IN1*%
%TO.N,Net-(J2-Pad4)*%
X222255000Y-74405000D03*
%TO.P,U1,6,EnA*%
%TO.N,+3V3*%
X220985000Y-79485000D03*
%TO.P,U1,7,IN2*%
%TO.N,Net-(J2-Pad3)*%
X219715000Y-74405000D03*
%TO.P,U1,8,GND*%
%TO.N,GND*%
X218445000Y-79485000D03*
%TO.P,U1,9,Vss*%
%TO.N,+3V3*%
X217175000Y-74405000D03*
%TO.P,U1,10,IN3*%
%TO.N,Net-(J2-Pad2)*%
X215905000Y-79485000D03*
%TO.P,U1,11,EnB*%
%TO.N,+3V3*%
X214635000Y-74405000D03*
%TO.P,U1,12,IN4*%
%TO.N,Net-(J2-Pad1)*%
X213365000Y-79485000D03*
%TO.P,U1,13,OUT3*%
%TO.N,Net-(J3-Pad1)*%
X212095000Y-74405000D03*
%TO.P,U1,14,OUT4*%
%TO.N,Net-(J3-Pad2)*%
X210825000Y-79485000D03*
%TO.P,U1,15,SENSE_B*%
%TO.N,Net-(J4-Pad1)*%
X209555000Y-74405000D03*
%TD*%
D25*
%TO.P,D1,1,K*%
%TO.N,Net-(D1-Pad1)*%
X245110000Y-35560000D03*
D26*
%TO.P,D1,2,A*%
%TO.N,GND*%
X245110000Y-50800000D03*
%TD*%
D27*
%TO.P,U3,1,GND*%
%TO.N,GND*%
X224130000Y-37225000D03*
D28*
%TO.P,U3,2,VO*%
%TO.N,+3V3*%
X217830000Y-34925000D03*
D27*
X224130000Y-34925000D03*
%TO.P,U3,3,VI*%
%TO.N,+5F*%
X224130000Y-32625000D03*
%TD*%
D29*
%TO.P,U2,1,VIN*%
%TO.N,VCC*%
X231315000Y-49675000D03*
%TO.P,U2,2,OUT*%
%TO.N,Net-(D1-Pad1)*%
X233015000Y-49675000D03*
D30*
%TO.P,U2,3,GND*%
%TO.N,GND*%
X234715000Y-40525000D03*
D29*
X234715000Y-49675000D03*
%TO.P,U2,4,FB*%
%TO.N,+5F*%
X236415000Y-49675000D03*
%TO.P,U2,5,~{ON}/OFF*%
%TO.N,GND*%
X238115000Y-49675000D03*
%TD*%
D19*
%TO.P,H4,1,1*%
%TO.N,GND*%
X202565000Y-81280000D03*
D20*
X202565000Y-81280000D03*
%TD*%
D19*
%TO.P,H2,1,1*%
%TO.N,GND*%
X202565000Y-30480000D03*
D20*
X202565000Y-30480000D03*
%TD*%
D21*
%TO.P,J5,1,Pin_1*%
%TO.N,VCC*%
X245110000Y-69850000D03*
D22*
%TO.P,J5,2,Pin_2*%
%TO.N,GND*%
X245110000Y-64770000D03*
%TD*%
D31*
%TO.P,L1,1,1*%
%TO.N,Net-(D1-Pad1)*%
X240670000Y-33020000D03*
%TO.P,L1,2,2*%
%TO.N,+5F*%
X236220000Y-33020000D03*
%TD*%
D32*
%TO.P,C3,1*%
%TO.N,+3V3*%
X217755000Y-40005000D03*
%TO.P,C3,2*%
%TO.N,GND*%
X214630000Y-40005000D03*
%TD*%
D33*
%TO.P,C4,1*%
%TO.N,+5F*%
X226695000Y-42545000D03*
%TO.P,C4,2*%
%TO.N,GND*%
X226695000Y-39420000D03*
%TD*%
D14*
%TO.P,R4,1*%
%TO.N,Net-(D3-Pad1)*%
X202565000Y-40362500D03*
%TO.P,R4,2*%
%TO.N,GND*%
X202565000Y-42187500D03*
%TD*%
D17*
%TO.P,D2,1,K*%
%TO.N,Net-(D2-Pad1)*%
X206370000Y-50165000D03*
D18*
%TO.P,D2,2,A*%
%TO.N,+5F*%
X208910000Y-50165000D03*
%TD*%
D34*
%TO.N,+5F*%
X232410000Y-34290000D03*
X234950000Y-53340000D03*
X237490000Y-53340000D03*
X232410000Y-33020000D03*
X236220000Y-53340000D03*
X231140000Y-34290000D03*
X231140000Y-33020000D03*
X233680000Y-34290000D03*
X237490000Y-54610000D03*
X236220000Y-54610000D03*
X233680000Y-33020000D03*
X238760000Y-53340000D03*
%TO.N,+3V3*%
X227965000Y-34290000D03*
X227965000Y-36830000D03*
X226695000Y-36830000D03*
X217170000Y-31750000D03*
X215900000Y-37465000D03*
X217170000Y-38100000D03*
X226695000Y-35560000D03*
X215900000Y-33655000D03*
X218440000Y-31750000D03*
X215900000Y-34925000D03*
X215900000Y-36195000D03*
X226695000Y-34290000D03*
X227965000Y-35560000D03*
X215900000Y-32385000D03*
X218440000Y-38100000D03*
%TD*%
D35*
%TO.N,VCC*%
X231315000Y-49675000D02*
X231315000Y-54785000D01*
X241300000Y-66040000D02*
X245110000Y-69850000D01*
D36*
X224790000Y-82550000D02*
X223525000Y-81285000D01*
D35*
X231315000Y-54785000D02*
X234315000Y-57785000D01*
D36*
X232410000Y-67012755D02*
X236812755Y-67012755D01*
X242380000Y-72580000D02*
X242380000Y-81280000D01*
D35*
X241300000Y-58420000D02*
X242570000Y-57150000D01*
X234315000Y-57785000D02*
X241935000Y-57785000D01*
D36*
X241110000Y-82550000D02*
X224790000Y-82550000D01*
D35*
X241935000Y-57785000D02*
X242570000Y-57150000D01*
D36*
X223525000Y-81285000D02*
X223525000Y-79485000D01*
X236812755Y-67012755D02*
X242380000Y-72580000D01*
D35*
X241300000Y-66040000D02*
X241300000Y-58420000D01*
D36*
X245110000Y-69850000D02*
X242380000Y-72580000D01*
X242380000Y-81280000D02*
X241110000Y-82550000D01*
D35*
%TO.N,+5F*%
X233680000Y-34290000D02*
X234950000Y-34290000D01*
X221615000Y-42545000D02*
X226695000Y-42545000D01*
X237490000Y-54610000D02*
X236220000Y-54610000D01*
X220980000Y-41910000D02*
X220980000Y-34925000D01*
X236415000Y-53145000D02*
X236220000Y-53340000D01*
X234950000Y-34290000D02*
X236220000Y-33020000D01*
X231140000Y-34290000D02*
X232410000Y-34290000D01*
X234950000Y-53340000D02*
X236220000Y-53340000D01*
X232410000Y-33020000D02*
X231140000Y-33020000D01*
X237490000Y-53340000D02*
X238760000Y-53340000D01*
X236415000Y-49675000D02*
X236415000Y-53145000D01*
X219710000Y-46017246D02*
X213057754Y-46017246D01*
X235585000Y-33655000D02*
X236220000Y-33020000D01*
X219710000Y-46017246D02*
X219710000Y-43180000D01*
X229475000Y-32625000D02*
X231140000Y-34290000D01*
X232410000Y-34290000D02*
X233680000Y-34290000D01*
X213057754Y-46017246D02*
X208910000Y-50165000D01*
X219710000Y-43180000D02*
X220980000Y-41910000D01*
X224130000Y-32625000D02*
X229475000Y-32625000D01*
X224130000Y-32625000D02*
X230745000Y-32625000D01*
X220980000Y-34925000D02*
X223280000Y-32625000D01*
X223280000Y-32625000D02*
X224130000Y-32625000D01*
X220980000Y-41910000D02*
X221615000Y-42545000D01*
X233680000Y-33020000D02*
X236220000Y-33020000D01*
X236220000Y-53340000D02*
X237490000Y-53340000D01*
X230745000Y-32625000D02*
X231140000Y-33020000D01*
X233680000Y-33020000D02*
X232410000Y-33020000D01*
D37*
%TO.N,+3V3*%
X215900000Y-32995000D02*
X217830000Y-34925000D01*
X215900000Y-36855000D02*
X217830000Y-34925000D01*
X217170000Y-34265000D02*
X217830000Y-34925000D01*
X226695000Y-35560000D02*
X227965000Y-34290000D01*
X217170000Y-31750000D02*
X217170000Y-34265000D01*
X215900000Y-34925000D02*
X215900000Y-36195000D01*
X215900000Y-32385000D02*
X215900000Y-32995000D01*
X218440000Y-34315000D02*
X217830000Y-34925000D01*
X216535000Y-31750000D02*
X215900000Y-32385000D01*
X226695000Y-35560000D02*
X226695000Y-36830000D01*
X216560000Y-33655000D02*
X217830000Y-34925000D01*
X218440000Y-38100000D02*
X218440000Y-35535000D01*
X227965000Y-35560000D02*
X227965000Y-34290000D01*
X226695000Y-35560000D02*
X227965000Y-36830000D01*
X226695000Y-34290000D02*
X227965000Y-35560000D01*
X218440000Y-35535000D02*
X217830000Y-34925000D01*
X218440000Y-31750000D02*
X218440000Y-34315000D01*
X217170000Y-38100000D02*
X217170000Y-35585000D01*
X215900000Y-37465000D02*
X216535000Y-37465000D01*
X216535000Y-37465000D02*
X217170000Y-38100000D01*
X215900000Y-36195000D02*
X215900000Y-37465000D01*
X226695000Y-34290000D02*
X224765000Y-34290000D01*
X227965000Y-35560000D02*
X227965000Y-36830000D01*
X215900000Y-37465000D02*
X215900000Y-36855000D01*
X226695000Y-34290000D02*
X226695000Y-35560000D01*
X218440000Y-31750000D02*
X217170000Y-31750000D01*
X217170000Y-35585000D02*
X217830000Y-34925000D01*
X227965000Y-34290000D02*
X226695000Y-34290000D01*
X217170000Y-38100000D02*
X218440000Y-38100000D01*
X215900000Y-33655000D02*
X216560000Y-33655000D01*
X226695000Y-36830000D02*
X227965000Y-36830000D01*
X216560000Y-36195000D02*
X217830000Y-34925000D01*
X215900000Y-32385000D02*
X215900000Y-33655000D01*
D35*
X217755000Y-40005000D02*
X217755000Y-38685000D01*
D37*
X224765000Y-34290000D02*
X224130000Y-34925000D01*
X215900000Y-36195000D02*
X216560000Y-36195000D01*
X226695000Y-36830000D02*
X227965000Y-35560000D01*
X215900000Y-34925000D02*
X217830000Y-34925000D01*
D35*
X217755000Y-38685000D02*
X217170000Y-38100000D01*
D37*
X215900000Y-33655000D02*
X215900000Y-34925000D01*
X217170000Y-31750000D02*
X216535000Y-31750000D01*
D35*
%TO.N,Net-(D1-Pad1)*%
X245110000Y-35560000D02*
X241300000Y-39370000D01*
X242570000Y-33020000D02*
X240670000Y-33020000D01*
X238125000Y-56515000D02*
X234742056Y-56515000D01*
X234742056Y-56515000D02*
X233015000Y-54787944D01*
X241300000Y-53340000D02*
X238125000Y-56515000D01*
X233015000Y-54787944D02*
X233015000Y-49675000D01*
X241300000Y-39370000D02*
X241300000Y-53340000D01*
X245110000Y-35560000D02*
X242570000Y-33020000D01*
D37*
%TO.N,Net-(D2-Pad1)*%
X205735000Y-50800000D02*
X206370000Y-50165000D01*
X202565000Y-50800000D02*
X205735000Y-50800000D01*
%TO.N,Net-(D3-Pad1)*%
X202565000Y-40362500D02*
X206097500Y-40362500D01*
X206097500Y-40362500D02*
X206375000Y-40640000D01*
%TO.N,Net-(D4-Pad1)*%
X246380000Y-58420000D02*
X245110000Y-57150000D01*
X248285000Y-58420000D02*
X246380000Y-58420000D01*
D36*
%TO.N,Net-(J1-Pad1)*%
X232935000Y-79485000D02*
X233680000Y-78740000D01*
X226065000Y-79485000D02*
X232935000Y-79485000D01*
%TO.N,Net-(J1-Pad2)*%
X234950000Y-74930000D02*
X238760000Y-78740000D01*
X226015000Y-77285000D02*
X228785000Y-77285000D01*
X228785000Y-77285000D02*
X231140000Y-74930000D01*
X224795000Y-76065000D02*
X226015000Y-77285000D01*
X231140000Y-74930000D02*
X234950000Y-74930000D01*
X224795000Y-74405000D02*
X224795000Y-76065000D01*
D37*
%TO.N,Net-(J2-Pad3)*%
X220345000Y-73775000D02*
X219715000Y-74405000D01*
X220345000Y-71120000D02*
X220345000Y-73775000D01*
%TO.N,Net-(J2-Pad4)*%
X222885000Y-73775000D02*
X222255000Y-74405000D01*
X222885000Y-71120000D02*
X222885000Y-73775000D01*
D36*
%TO.N,Net-(J3-Pad1)*%
X207645000Y-60325000D02*
X212095000Y-64775000D01*
X212095000Y-64775000D02*
X212095000Y-74405000D01*
%TO.N,Net-(J3-Pad2)*%
X206375000Y-78105000D02*
X207755000Y-79485000D01*
X207755000Y-79485000D02*
X210825000Y-79485000D01*
X207645000Y-72390000D02*
X206375000Y-73660000D01*
X206375000Y-73660000D02*
X206375000Y-78105000D01*
X207645000Y-65405000D02*
X207645000Y-72390000D01*
D37*
%TO.N,Net-(J4-Pad2)*%
X227335000Y-73030000D02*
X227335000Y-74405000D01*
X219710000Y-65405000D02*
X227335000Y-73030000D01*
%TD*%
%TA.AperFunction,Conductor*%
%TO.N,GND*%
G36*
X201044172Y-27325002D02*
G01*
X201090665Y-27378658D01*
X201100769Y-27448932D01*
X201071275Y-27513512D01*
X201028702Y-27545472D01*
X201023034Y-27548079D01*
X201016991Y-27551265D01*
X200715401Y-27731763D01*
X200709755Y-27735571D01*
X200429408Y-27947596D01*
X200424211Y-27951987D01*
X200422972Y-27953155D01*
X200414950Y-27966862D01*
X200414986Y-27967704D01*
X200420037Y-27975826D01*
X201654210Y-29210000D01*
X202552190Y-30107980D01*
X202566131Y-30115592D01*
X202567966Y-30115461D01*
X202574580Y-30111210D01*
X203475790Y-29210000D01*
X204707798Y-27977991D01*
X204715412Y-27964047D01*
X204715344Y-27963090D01*
X204710834Y-27956271D01*
X204709418Y-27955065D01*
X204429813Y-27742064D01*
X204424187Y-27738240D01*
X204123214Y-27556681D01*
X204117187Y-27553476D01*
X204099545Y-27545287D01*
X204046178Y-27498463D01*
X204026598Y-27430220D01*
X204047022Y-27362224D01*
X204100964Y-27316064D01*
X204152596Y-27305000D01*
X244791051Y-27305000D01*
X244859172Y-27325002D01*
X244905665Y-27378658D01*
X244915769Y-27448932D01*
X244886275Y-27513512D01*
X244843702Y-27545472D01*
X244838034Y-27548079D01*
X244831991Y-27551265D01*
X244530401Y-27731763D01*
X244524755Y-27735571D01*
X244244408Y-27947596D01*
X244239211Y-27951987D01*
X244237972Y-27953155D01*
X244229950Y-27966862D01*
X244229986Y-27967704D01*
X244235037Y-27975826D01*
X246367190Y-30107980D01*
X246381131Y-30115592D01*
X246382966Y-30115461D01*
X246389580Y-30111210D01*
X247290790Y-29210000D01*
X248522798Y-27977991D01*
X248530412Y-27964047D01*
X248530344Y-27963090D01*
X248525834Y-27956271D01*
X248524418Y-27955065D01*
X248244813Y-27742064D01*
X248239187Y-27738240D01*
X247938214Y-27556681D01*
X247932187Y-27553476D01*
X247914545Y-27545287D01*
X247861178Y-27498463D01*
X247841598Y-27430220D01*
X247862022Y-27362224D01*
X247915964Y-27316064D01*
X247967596Y-27305000D01*
X249429000Y-27305000D01*
X249497121Y-27325002D01*
X249543614Y-27378658D01*
X249555000Y-27431000D01*
X249555000Y-28899828D01*
X249534998Y-28967949D01*
X249481342Y-29014442D01*
X249411068Y-29024546D01*
X249346488Y-28995052D01*
X249317646Y-28958787D01*
X249221269Y-28776763D01*
X249217769Y-28770937D01*
X249020697Y-28479862D01*
X249016590Y-28474453D01*
X248903565Y-28341179D01*
X248890740Y-28332743D01*
X248880416Y-28338795D01*
X246752020Y-30467190D01*
X246744408Y-30481131D01*
X246744539Y-30482966D01*
X246748790Y-30489580D01*
X248879009Y-32619798D01*
X248892605Y-32627223D01*
X248902218Y-32620522D01*
X249002518Y-32503912D01*
X249006676Y-32498514D01*
X249205762Y-32208840D01*
X249209310Y-32203029D01*
X249318060Y-32001058D01*
X249367967Y-31950562D01*
X249437251Y-31935063D01*
X249503916Y-31959483D01*
X249546795Y-32016068D01*
X249555000Y-32060793D01*
X249555000Y-79699828D01*
X249534998Y-79767949D01*
X249481342Y-79814442D01*
X249411068Y-79824546D01*
X249346488Y-79795052D01*
X249317646Y-79758787D01*
X249221266Y-79576758D01*
X249217769Y-79570937D01*
X249020697Y-79279862D01*
X249016590Y-79274453D01*
X248903565Y-79141179D01*
X248890740Y-79132743D01*
X248880416Y-79138795D01*
X246752020Y-81267190D01*
X246744408Y-81281131D01*
X246744539Y-81282966D01*
X246748790Y-81289580D01*
X248879009Y-83419798D01*
X248892605Y-83427223D01*
X248902218Y-83420522D01*
X249002518Y-83303912D01*
X249006676Y-83298514D01*
X249205762Y-83008840D01*
X249209310Y-83003029D01*
X249318060Y-82801058D01*
X249367967Y-82750562D01*
X249437251Y-82735063D01*
X249503916Y-82759483D01*
X249546795Y-82816068D01*
X249555000Y-82860793D01*
X249555000Y-84329000D01*
X249534998Y-84397121D01*
X249481342Y-84443614D01*
X249429000Y-84455000D01*
X247969998Y-84455000D01*
X247901877Y-84434998D01*
X247855384Y-84381342D01*
X247845280Y-84311068D01*
X247874774Y-84246488D01*
X247911626Y-84217337D01*
X247917763Y-84214129D01*
X248219995Y-84034676D01*
X248225659Y-84030884D01*
X248506732Y-83819849D01*
X248511958Y-83815464D01*
X248521613Y-83806428D01*
X248529682Y-83792750D01*
X248529654Y-83792024D01*
X248524512Y-83783723D01*
X246392810Y-81652020D01*
X246378869Y-81644408D01*
X246377034Y-81644539D01*
X246370420Y-81648790D01*
X244236774Y-83782437D01*
X244229160Y-83796381D01*
X244229237Y-83797470D01*
X244231698Y-83801206D01*
X244505632Y-84011404D01*
X244511262Y-84015259D01*
X244811591Y-84197862D01*
X244817593Y-84201080D01*
X244847091Y-84214898D01*
X244900294Y-84261909D01*
X244919636Y-84330220D01*
X244898976Y-84398144D01*
X244844872Y-84444115D01*
X244793642Y-84455000D01*
X204154998Y-84455000D01*
X204086877Y-84434998D01*
X204040384Y-84381342D01*
X204030280Y-84311068D01*
X204059774Y-84246488D01*
X204096626Y-84217337D01*
X204102763Y-84214129D01*
X204404995Y-84034676D01*
X204410659Y-84030884D01*
X204691732Y-83819849D01*
X204696958Y-83815464D01*
X204706613Y-83806428D01*
X204714682Y-83792750D01*
X204714654Y-83792024D01*
X204709512Y-83783723D01*
X202577810Y-81652020D01*
X202563869Y-81644408D01*
X202562034Y-81644539D01*
X202555420Y-81648790D01*
X200421774Y-83782437D01*
X200414160Y-83796381D01*
X200414237Y-83797470D01*
X200416698Y-83801206D01*
X200690632Y-84011404D01*
X200696262Y-84015259D01*
X200996591Y-84197862D01*
X201002593Y-84201080D01*
X201032091Y-84214898D01*
X201085294Y-84261909D01*
X201104636Y-84330220D01*
X201083976Y-84398144D01*
X201029872Y-84444115D01*
X200978642Y-84455000D01*
X199516000Y-84455000D01*
X199447879Y-84434998D01*
X199401386Y-84381342D01*
X199390000Y-84329000D01*
X199390000Y-82859991D01*
X199410002Y-82791870D01*
X199463658Y-82745377D01*
X199533932Y-82735273D01*
X199598512Y-82764767D01*
X199627560Y-82801421D01*
X199717803Y-82973310D01*
X199721286Y-82979152D01*
X199917330Y-83270896D01*
X199921433Y-83276340D01*
X200041425Y-83418836D01*
X200054164Y-83427279D01*
X200064608Y-83421181D01*
X202192980Y-81292810D01*
X202200592Y-81278869D01*
X202200461Y-81277034D01*
X202196210Y-81270420D01*
X200065992Y-79140203D01*
X200052455Y-79132811D01*
X200042753Y-79139599D01*
X199935430Y-79265257D01*
X199931296Y-79270664D01*
X199733215Y-79561041D01*
X199729697Y-79566851D01*
X199627148Y-79758907D01*
X199577418Y-79809576D01*
X199508188Y-79825317D01*
X199441438Y-79801130D01*
X199398362Y-79744695D01*
X199390000Y-79699559D01*
X199390000Y-78766862D01*
X200414950Y-78766862D01*
X200414986Y-78767704D01*
X200420037Y-78775826D01*
X202552190Y-80907980D01*
X202566131Y-80915592D01*
X202567966Y-80915461D01*
X202574580Y-80911210D01*
X203956587Y-79529203D01*
X204018899Y-79495177D01*
X204089714Y-79500242D01*
X204134777Y-79529203D01*
X204315797Y-79710223D01*
X204349823Y-79772535D01*
X204344758Y-79843350D01*
X204315797Y-79888413D01*
X202937022Y-81267188D01*
X202929408Y-81281132D01*
X202929539Y-81282965D01*
X202933790Y-81289580D01*
X205064009Y-83419798D01*
X205077605Y-83427223D01*
X205087218Y-83420522D01*
X205187518Y-83303912D01*
X205191676Y-83298514D01*
X205390762Y-83008840D01*
X205394310Y-83003029D01*
X205560942Y-82693559D01*
X205563849Y-82687381D01*
X205696090Y-82361713D01*
X205698304Y-82355283D01*
X205794598Y-82017237D01*
X205796105Y-82010607D01*
X205855332Y-81664118D01*
X205856112Y-81657378D01*
X205877668Y-81304925D01*
X205877784Y-81301323D01*
X205877853Y-81281819D01*
X205877761Y-81278194D01*
X205858666Y-80925615D01*
X205857931Y-80918849D01*
X205801130Y-80571985D01*
X205799663Y-80565313D01*
X205705736Y-80226627D01*
X205703562Y-80220163D01*
X205573598Y-79893578D01*
X205570742Y-79887398D01*
X205452799Y-79664643D01*
X205438600Y-79595081D01*
X205464263Y-79528885D01*
X205521641Y-79487072D01*
X205592516Y-79482918D01*
X205653248Y-79516589D01*
X206671325Y-80534666D01*
X206673779Y-80537188D01*
X206735985Y-80602969D01*
X206742332Y-80609681D01*
X206790358Y-80646399D01*
X206804757Y-80657408D01*
X206809892Y-80661552D01*
X206856053Y-80700838D01*
X206869720Y-80712470D01*
X206874045Y-80715089D01*
X206874050Y-80715093D01*
X206897824Y-80729491D01*
X206909071Y-80737163D01*
X206935174Y-80757120D01*
X206939632Y-80759510D01*
X206939633Y-80759511D01*
X206959255Y-80770032D01*
X206996255Y-80789871D01*
X207004401Y-80794239D01*
X207010126Y-80797504D01*
X207077358Y-80838221D01*
X207089781Y-80843240D01*
X207107817Y-80850527D01*
X207120158Y-80856307D01*
X207149109Y-80871831D01*
X207153890Y-80873477D01*
X207153894Y-80873479D01*
X207223401Y-80897412D01*
X207229579Y-80899722D01*
X207268535Y-80915461D01*
X207302429Y-80929155D01*
X207307369Y-80930277D01*
X207307368Y-80930277D01*
X207334460Y-80936432D01*
X207347559Y-80940163D01*
X207378631Y-80950862D01*
X207383608Y-80951722D01*
X207383621Y-80951725D01*
X207456071Y-80964239D01*
X207462540Y-80965531D01*
X207521561Y-80978940D01*
X207539145Y-80982935D01*
X207571951Y-80984999D01*
X207585455Y-80986586D01*
X207607683Y-80990425D01*
X207613933Y-80991505D01*
X207613936Y-80991505D01*
X207617836Y-80992179D01*
X207621793Y-80992359D01*
X207621796Y-80992359D01*
X207645506Y-80993436D01*
X207645525Y-80993436D01*
X207646925Y-80993500D01*
X207703108Y-80993500D01*
X207711019Y-80993749D01*
X207781413Y-80998178D01*
X207822993Y-80994101D01*
X207835289Y-80993500D01*
X210886001Y-80993500D01*
X210888509Y-80993298D01*
X210888514Y-80993298D01*
X211061924Y-80979346D01*
X211061929Y-80979345D01*
X211066965Y-80978940D01*
X211071873Y-80977734D01*
X211071876Y-80977734D01*
X211297792Y-80922244D01*
X211302706Y-80921037D01*
X211307358Y-80919062D01*
X211307362Y-80919061D01*
X211492759Y-80840364D01*
X211526156Y-80826188D01*
X211632037Y-80759511D01*
X211727288Y-80699528D01*
X211727291Y-80699526D01*
X211731567Y-80696833D01*
X211824498Y-80614904D01*
X211909858Y-80539650D01*
X211909861Y-80539647D01*
X211913655Y-80536302D01*
X212061457Y-80356364D01*
X212120152Y-80316421D01*
X212191124Y-80314551D01*
X212254060Y-80353843D01*
X212376147Y-80494784D01*
X212554349Y-80642730D01*
X212754322Y-80759584D01*
X212759147Y-80761426D01*
X212759148Y-80761427D01*
X212827830Y-80787654D01*
X212970694Y-80842209D01*
X212975760Y-80843240D01*
X212975761Y-80843240D01*
X213011578Y-80850527D01*
X213197656Y-80888385D01*
X213328324Y-80893176D01*
X213423949Y-80896683D01*
X213423953Y-80896683D01*
X213429113Y-80896872D01*
X213434233Y-80896216D01*
X213434235Y-80896216D01*
X213507270Y-80886860D01*
X213658847Y-80867442D01*
X213663795Y-80865957D01*
X213663802Y-80865956D01*
X213875747Y-80802369D01*
X213880690Y-80800886D01*
X213886287Y-80798144D01*
X214084049Y-80701262D01*
X214084052Y-80701260D01*
X214088684Y-80698991D01*
X214277243Y-80564494D01*
X214441303Y-80401005D01*
X214444319Y-80396808D01*
X214444326Y-80396800D01*
X214531960Y-80274844D01*
X214587954Y-80231196D01*
X214658658Y-80224750D01*
X214721622Y-80257553D01*
X214741715Y-80282536D01*
X214761800Y-80315313D01*
X214761806Y-80315321D01*
X214764501Y-80319719D01*
X214916147Y-80494784D01*
X215094349Y-80642730D01*
X215294322Y-80759584D01*
X215299147Y-80761426D01*
X215299148Y-80761427D01*
X215367830Y-80787654D01*
X215510694Y-80842209D01*
X215515760Y-80843240D01*
X215515761Y-80843240D01*
X215551578Y-80850527D01*
X215737656Y-80888385D01*
X215868324Y-80893176D01*
X215963949Y-80896683D01*
X215963953Y-80896683D01*
X215969113Y-80896872D01*
X215974233Y-80896216D01*
X215974235Y-80896216D01*
X216047270Y-80886860D01*
X216198847Y-80867442D01*
X216203795Y-80865957D01*
X216203802Y-80865956D01*
X216415747Y-80802369D01*
X216420690Y-80800886D01*
X216426287Y-80798144D01*
X216624049Y-80701262D01*
X216624052Y-80701260D01*
X216628684Y-80698991D01*
X216817243Y-80564494D01*
X216981303Y-80401005D01*
X217004512Y-80368707D01*
X217072275Y-80274404D01*
X217128270Y-80230756D01*
X217198973Y-80224310D01*
X217261938Y-80257113D01*
X217282031Y-80282096D01*
X217302205Y-80315017D01*
X217308286Y-80323326D01*
X217453113Y-80490519D01*
X217460475Y-80497728D01*
X217630660Y-80639018D01*
X217639099Y-80644927D01*
X217830077Y-80756525D01*
X217839364Y-80760975D01*
X218046003Y-80839883D01*
X218055901Y-80842759D01*
X218173250Y-80866634D01*
X218187299Y-80865438D01*
X218191000Y-80855093D01*
X218191000Y-78117517D01*
X218187082Y-78104173D01*
X218172806Y-78102186D01*
X218122694Y-78109855D01*
X218112666Y-78112244D01*
X217902426Y-78180961D01*
X217892916Y-78184958D01*
X217696728Y-78287087D01*
X217688003Y-78292581D01*
X217511123Y-78425386D01*
X217503416Y-78432229D01*
X217350600Y-78592143D01*
X217344113Y-78600153D01*
X217279602Y-78694723D01*
X217224691Y-78739726D01*
X217154166Y-78747897D01*
X217090419Y-78716643D01*
X217069722Y-78692159D01*
X217027575Y-78627009D01*
X217027570Y-78627003D01*
X217024764Y-78622665D01*
X217013789Y-78610603D01*
X216918964Y-78506392D01*
X216868887Y-78451358D01*
X216864836Y-78448159D01*
X216864832Y-78448155D01*
X216691177Y-78311011D01*
X216691172Y-78311008D01*
X216687123Y-78307810D01*
X216682607Y-78305317D01*
X216682604Y-78305315D01*
X216488879Y-78198373D01*
X216488875Y-78198371D01*
X216484355Y-78195876D01*
X216479486Y-78194152D01*
X216479482Y-78194150D01*
X216270903Y-78120288D01*
X216270899Y-78120287D01*
X216266028Y-78118562D01*
X216260935Y-78117655D01*
X216260932Y-78117654D01*
X216043095Y-78078851D01*
X216043089Y-78078850D01*
X216038006Y-78077945D01*
X215965096Y-78077054D01*
X215811581Y-78075179D01*
X215811579Y-78075179D01*
X215806411Y-78075116D01*
X215577464Y-78110150D01*
X215357314Y-78182106D01*
X215352726Y-78184494D01*
X215352722Y-78184496D01*
X215156461Y-78286663D01*
X215151872Y-78289052D01*
X215147739Y-78292155D01*
X215147736Y-78292157D01*
X214977724Y-78419806D01*
X214966655Y-78428117D01*
X214806639Y-78595564D01*
X214739306Y-78694271D01*
X214684397Y-78739271D01*
X214613872Y-78747442D01*
X214550125Y-78716188D01*
X214529428Y-78691705D01*
X214512369Y-78665335D01*
X214484764Y-78622665D01*
X214473789Y-78610603D01*
X214378964Y-78506392D01*
X214328887Y-78451358D01*
X214324836Y-78448159D01*
X214324832Y-78448155D01*
X214151177Y-78311011D01*
X214151172Y-78311008D01*
X214147123Y-78307810D01*
X214142607Y-78305317D01*
X214142604Y-78305315D01*
X213948879Y-78198373D01*
X213948875Y-78198371D01*
X213944355Y-78195876D01*
X213939486Y-78194152D01*
X213939482Y-78194150D01*
X213730903Y-78120288D01*
X213730899Y-78120287D01*
X213726028Y-78118562D01*
X213720935Y-78117655D01*
X213720932Y-78117654D01*
X213503095Y-78078851D01*
X213503089Y-78078850D01*
X213498006Y-78077945D01*
X213425096Y-78077054D01*
X213271581Y-78075179D01*
X213271579Y-78075179D01*
X213266411Y-78075116D01*
X213037464Y-78110150D01*
X212817314Y-78182106D01*
X212812726Y-78184494D01*
X212812722Y-78184496D01*
X212616461Y-78286663D01*
X212611872Y-78289052D01*
X212607739Y-78292155D01*
X212607736Y-78292157D01*
X212437724Y-78419806D01*
X212426655Y-78428117D01*
X212266639Y-78595564D01*
X212259626Y-78605845D01*
X212204715Y-78650846D01*
X212134190Y-78659017D01*
X212070443Y-78627762D01*
X212051327Y-78605661D01*
X212007306Y-78540886D01*
X212007303Y-78540883D01*
X212004456Y-78536693D01*
X211837668Y-78360319D01*
X211773176Y-78311011D01*
X211648846Y-78215953D01*
X211648842Y-78215950D01*
X211644826Y-78212880D01*
X211626339Y-78202967D01*
X211435352Y-78100561D01*
X211430891Y-78098169D01*
X211201369Y-78019138D01*
X211089603Y-77999833D01*
X210966074Y-77978496D01*
X210966068Y-77978495D01*
X210962164Y-77977821D01*
X210958203Y-77977641D01*
X210958202Y-77977641D01*
X210934494Y-77976564D01*
X210934475Y-77976564D01*
X210933075Y-77976500D01*
X208432031Y-77976500D01*
X208363910Y-77956498D01*
X208342936Y-77939595D01*
X207920405Y-77517064D01*
X207886379Y-77454752D01*
X207883500Y-77427969D01*
X207883500Y-74337032D01*
X207903502Y-74268911D01*
X207920405Y-74247937D01*
X207930986Y-74237356D01*
X207993298Y-74203330D01*
X208064113Y-74208395D01*
X208120949Y-74250942D01*
X208145760Y-74317462D01*
X208145368Y-74339839D01*
X208142095Y-74370469D01*
X208155427Y-74601697D01*
X208156564Y-74606743D01*
X208156565Y-74606749D01*
X208188741Y-74749523D01*
X208206346Y-74827642D01*
X208208288Y-74832424D01*
X208208289Y-74832428D01*
X208283467Y-75017568D01*
X208293484Y-75042237D01*
X208414501Y-75239719D01*
X208566147Y-75414784D01*
X208744349Y-75562730D01*
X208944322Y-75679584D01*
X209160694Y-75762209D01*
X209165760Y-75763240D01*
X209165761Y-75763240D01*
X209218846Y-75774040D01*
X209387656Y-75808385D01*
X209518324Y-75813176D01*
X209613949Y-75816683D01*
X209613953Y-75816683D01*
X209619113Y-75816872D01*
X209624233Y-75816216D01*
X209624235Y-75816216D01*
X209697270Y-75806860D01*
X209848847Y-75787442D01*
X209853795Y-75785957D01*
X209853802Y-75785956D01*
X210065747Y-75722369D01*
X210070690Y-75720886D01*
X210151236Y-75681427D01*
X210274049Y-75621262D01*
X210274052Y-75621260D01*
X210278684Y-75618991D01*
X210467243Y-75484494D01*
X210631303Y-75321005D01*
X210634317Y-75316811D01*
X210634326Y-75316800D01*
X210659488Y-75281783D01*
X210715482Y-75238135D01*
X210786186Y-75231689D01*
X210849150Y-75264492D01*
X210868429Y-75288165D01*
X210880469Y-75307284D01*
X210880474Y-75307291D01*
X210883167Y-75311567D01*
X210891488Y-75321005D01*
X211040350Y-75489858D01*
X211040353Y-75489861D01*
X211043698Y-75493655D01*
X211047606Y-75496865D01*
X211047607Y-75496866D01*
X211192636Y-75615993D01*
X211231278Y-75647734D01*
X211441078Y-75769841D01*
X211445801Y-75771654D01*
X211662978Y-75855020D01*
X211662982Y-75855021D01*
X211667702Y-75856833D01*
X211672652Y-75857867D01*
X211672655Y-75857868D01*
X211900369Y-75905440D01*
X211900373Y-75905440D01*
X211905320Y-75906474D01*
X212147817Y-75917486D01*
X212152837Y-75916905D01*
X212152841Y-75916905D01*
X212383929Y-75890167D01*
X212383933Y-75890166D01*
X212388956Y-75889585D01*
X212393820Y-75888209D01*
X212393823Y-75888208D01*
X212617669Y-75824866D01*
X212617668Y-75824866D01*
X212622532Y-75823490D01*
X212627108Y-75821356D01*
X212627114Y-75821354D01*
X212837954Y-75723038D01*
X212837958Y-75723036D01*
X212842536Y-75720901D01*
X213043307Y-75584456D01*
X213219681Y-75417668D01*
X213326791Y-75277574D01*
X213384055Y-75235608D01*
X213454918Y-75231263D01*
X213516882Y-75265919D01*
X213522124Y-75271608D01*
X213646147Y-75414784D01*
X213824349Y-75562730D01*
X214024322Y-75679584D01*
X214240694Y-75762209D01*
X214245760Y-75763240D01*
X214245761Y-75763240D01*
X214298846Y-75774040D01*
X214467656Y-75808385D01*
X214598324Y-75813176D01*
X214693949Y-75816683D01*
X214693953Y-75816683D01*
X214699113Y-75816872D01*
X214704233Y-75816216D01*
X214704235Y-75816216D01*
X214777270Y-75806860D01*
X214928847Y-75787442D01*
X214933795Y-75785957D01*
X214933802Y-75785956D01*
X215145747Y-75722369D01*
X215150690Y-75720886D01*
X215231236Y-75681427D01*
X215354049Y-75621262D01*
X215354052Y-75621260D01*
X215358684Y-75618991D01*
X215547243Y-75484494D01*
X215711303Y-75321005D01*
X215714317Y-75316811D01*
X215714326Y-75316800D01*
X215801960Y-75194844D01*
X215857954Y-75151196D01*
X215928658Y-75144750D01*
X215991622Y-75177553D01*
X216011715Y-75202536D01*
X216031800Y-75235313D01*
X216031804Y-75235318D01*
X216034501Y-75239719D01*
X216186147Y-75414784D01*
X216364349Y-75562730D01*
X216564322Y-75679584D01*
X216780694Y-75762209D01*
X216785760Y-75763240D01*
X216785761Y-75763240D01*
X216838846Y-75774040D01*
X217007656Y-75808385D01*
X217138324Y-75813176D01*
X217233949Y-75816683D01*
X217233953Y-75816683D01*
X217239113Y-75816872D01*
X217244233Y-75816216D01*
X217244235Y-75816216D01*
X217317270Y-75806860D01*
X217468847Y-75787442D01*
X217473795Y-75785957D01*
X217473802Y-75785956D01*
X217685747Y-75722369D01*
X217690690Y-75720886D01*
X217771236Y-75681427D01*
X217894049Y-75621262D01*
X217894052Y-75621260D01*
X217898684Y-75618991D01*
X218087243Y-75484494D01*
X218251303Y-75321005D01*
X218254317Y-75316811D01*
X218254326Y-75316800D01*
X218341960Y-75194844D01*
X218397954Y-75151196D01*
X218468658Y-75144750D01*
X218531622Y-75177553D01*
X218551715Y-75202536D01*
X218571800Y-75235313D01*
X218571804Y-75235318D01*
X218574501Y-75239719D01*
X218726147Y-75414784D01*
X218904349Y-75562730D01*
X219104322Y-75679584D01*
X219320694Y-75762209D01*
X219325760Y-75763240D01*
X219325761Y-75763240D01*
X219378846Y-75774040D01*
X219547656Y-75808385D01*
X219678324Y-75813176D01*
X219773949Y-75816683D01*
X219773953Y-75816683D01*
X219779113Y-75816872D01*
X219784233Y-75816216D01*
X219784235Y-75816216D01*
X219857270Y-75806860D01*
X220008847Y-75787442D01*
X220013795Y-75785957D01*
X220013802Y-75785956D01*
X220225747Y-75722369D01*
X220230690Y-75720886D01*
X220311236Y-75681427D01*
X220434049Y-75621262D01*
X220434052Y-75621260D01*
X220438684Y-75618991D01*
X220627243Y-75484494D01*
X220791303Y-75321005D01*
X220794317Y-75316811D01*
X220794326Y-75316800D01*
X220881960Y-75194844D01*
X220937954Y-75151196D01*
X221008658Y-75144750D01*
X221071622Y-75177553D01*
X221091715Y-75202536D01*
X221111800Y-75235313D01*
X221111804Y-75235318D01*
X221114501Y-75239719D01*
X221266147Y-75414784D01*
X221444349Y-75562730D01*
X221644322Y-75679584D01*
X221860694Y-75762209D01*
X221865760Y-75763240D01*
X221865761Y-75763240D01*
X221918846Y-75774040D01*
X222087656Y-75808385D01*
X222218324Y-75813176D01*
X222313949Y-75816683D01*
X222313953Y-75816683D01*
X222319113Y-75816872D01*
X222324233Y-75816216D01*
X222324235Y-75816216D01*
X222397270Y-75806860D01*
X222548847Y-75787442D01*
X222553795Y-75785957D01*
X222553802Y-75785956D01*
X222765747Y-75722369D01*
X222770690Y-75720886D01*
X222851236Y-75681427D01*
X222974049Y-75621262D01*
X222974052Y-75621260D01*
X222978684Y-75618991D01*
X222982882Y-75615996D01*
X222982888Y-75615993D01*
X223087332Y-75541494D01*
X223154405Y-75518220D01*
X223223414Y-75534904D01*
X223272448Y-75586248D01*
X223286500Y-75644073D01*
X223286500Y-76040984D01*
X223286451Y-76044502D01*
X223283666Y-76144205D01*
X223284335Y-76149219D01*
X223294058Y-76222086D01*
X223294758Y-76228639D01*
X223301060Y-76306965D01*
X223308897Y-76338870D01*
X223311426Y-76352258D01*
X223315771Y-76384820D01*
X223317232Y-76389661D01*
X223317233Y-76389663D01*
X223338478Y-76460029D01*
X223340219Y-76466390D01*
X223358963Y-76542706D01*
X223360941Y-76547366D01*
X223371801Y-76572951D01*
X223376438Y-76585761D01*
X223385933Y-76617208D01*
X223388151Y-76621756D01*
X223388154Y-76621763D01*
X223420371Y-76687818D01*
X223423107Y-76693820D01*
X223439258Y-76731869D01*
X223453812Y-76766156D01*
X223469123Y-76790468D01*
X223471319Y-76793956D01*
X223477945Y-76805860D01*
X223492346Y-76835388D01*
X223495265Y-76839525D01*
X223495265Y-76839526D01*
X223537641Y-76899597D01*
X223541301Y-76905086D01*
X223574715Y-76958145D01*
X223583167Y-76971567D01*
X223586508Y-76975356D01*
X223586512Y-76975362D01*
X223604898Y-76996217D01*
X223613344Y-77006912D01*
X223632274Y-77033747D01*
X223651909Y-77055250D01*
X223691625Y-77094966D01*
X223697044Y-77100736D01*
X223740350Y-77149858D01*
X223740353Y-77149861D01*
X223743698Y-77153655D01*
X223747606Y-77156865D01*
X223747607Y-77156866D01*
X223775989Y-77180179D01*
X223785108Y-77188449D01*
X224919916Y-78323257D01*
X224953942Y-78385569D01*
X224948877Y-78456384D01*
X224928186Y-78492328D01*
X224893250Y-78534860D01*
X224834555Y-78574803D01*
X224763583Y-78576673D01*
X224701371Y-78538209D01*
X224700035Y-78536693D01*
X224660922Y-78492328D01*
X224579650Y-78400142D01*
X224579647Y-78400139D01*
X224576302Y-78396345D01*
X224563094Y-78385496D01*
X224392628Y-78245474D01*
X224392625Y-78245472D01*
X224388722Y-78242266D01*
X224178922Y-78120159D01*
X224157034Y-78111757D01*
X223957022Y-78034980D01*
X223957018Y-78034979D01*
X223952298Y-78033167D01*
X223947348Y-78032133D01*
X223947345Y-78032132D01*
X223719631Y-77984560D01*
X223719627Y-77984560D01*
X223714680Y-77983526D01*
X223472183Y-77972514D01*
X223467163Y-77973095D01*
X223467159Y-77973095D01*
X223236071Y-77999833D01*
X223236067Y-77999834D01*
X223231044Y-78000415D01*
X223226180Y-78001791D01*
X223226177Y-78001792D01*
X223118958Y-78032132D01*
X222997468Y-78066510D01*
X222992892Y-78068644D01*
X222992886Y-78068646D01*
X222782046Y-78166962D01*
X222782042Y-78166964D01*
X222777464Y-78169099D01*
X222773283Y-78171940D01*
X222773282Y-78171941D01*
X222740603Y-78194150D01*
X222576693Y-78305544D01*
X222400319Y-78472332D01*
X222298242Y-78605844D01*
X222294603Y-78610603D01*
X222237339Y-78652571D01*
X222166475Y-78656916D01*
X222101314Y-78618874D01*
X221962918Y-78466778D01*
X221952365Y-78455180D01*
X221952363Y-78455178D01*
X221948887Y-78451358D01*
X221944836Y-78448159D01*
X221944832Y-78448155D01*
X221771177Y-78311011D01*
X221771172Y-78311008D01*
X221767123Y-78307810D01*
X221762607Y-78305317D01*
X221762604Y-78305315D01*
X221568879Y-78198373D01*
X221568875Y-78198371D01*
X221564355Y-78195876D01*
X221559486Y-78194152D01*
X221559482Y-78194150D01*
X221350903Y-78120288D01*
X221350899Y-78120287D01*
X221346028Y-78118562D01*
X221340935Y-78117655D01*
X221340932Y-78117654D01*
X221123095Y-78078851D01*
X221123089Y-78078850D01*
X221118006Y-78077945D01*
X221045096Y-78077054D01*
X220891581Y-78075179D01*
X220891579Y-78075179D01*
X220886411Y-78075116D01*
X220657464Y-78110150D01*
X220437314Y-78182106D01*
X220432726Y-78184494D01*
X220432722Y-78184496D01*
X220236461Y-78286663D01*
X220231872Y-78289052D01*
X220227739Y-78292155D01*
X220227736Y-78292157D01*
X220057724Y-78419806D01*
X220046655Y-78428117D01*
X219886639Y-78595564D01*
X219883730Y-78599829D01*
X219883724Y-78599837D01*
X219819002Y-78694716D01*
X219764091Y-78739719D01*
X219693566Y-78747890D01*
X219629819Y-78716636D01*
X219609122Y-78692152D01*
X219567177Y-78627315D01*
X219560885Y-78619144D01*
X219412023Y-78455547D01*
X219404490Y-78448521D01*
X219230901Y-78311429D01*
X219222323Y-78305730D01*
X219028678Y-78198833D01*
X219019272Y-78194606D01*
X218810772Y-78120772D01*
X218800809Y-78118140D01*
X218716836Y-78103182D01*
X218703541Y-78104641D01*
X218699000Y-78119199D01*
X218699000Y-80853928D01*
X218703064Y-80867770D01*
X218716479Y-80869804D01*
X218733613Y-80867609D01*
X218743698Y-80865466D01*
X218955557Y-80801905D01*
X218965152Y-80798144D01*
X219163778Y-80700838D01*
X219172636Y-80695559D01*
X219352716Y-80567109D01*
X219360578Y-80560465D01*
X219517260Y-80404329D01*
X219523937Y-80396484D01*
X219611676Y-80274382D01*
X219667671Y-80230734D01*
X219738374Y-80224288D01*
X219801339Y-80257091D01*
X219821432Y-80282074D01*
X219841800Y-80315313D01*
X219841806Y-80315321D01*
X219844501Y-80319719D01*
X219996147Y-80494784D01*
X220174349Y-80642730D01*
X220374322Y-80759584D01*
X220379147Y-80761426D01*
X220379148Y-80761427D01*
X220447830Y-80787654D01*
X220590694Y-80842209D01*
X220595760Y-80843240D01*
X220595761Y-80843240D01*
X220631578Y-80850527D01*
X220817656Y-80888385D01*
X220948324Y-80893176D01*
X221043949Y-80896683D01*
X221043953Y-80896683D01*
X221049113Y-80896872D01*
X221054233Y-80896216D01*
X221054235Y-80896216D01*
X221127270Y-80886860D01*
X221278847Y-80867442D01*
X221283795Y-80865957D01*
X221283802Y-80865956D01*
X221495747Y-80802369D01*
X221500690Y-80800886D01*
X221506287Y-80798144D01*
X221704049Y-80701262D01*
X221704052Y-80701260D01*
X221708684Y-80698991D01*
X221712882Y-80695996D01*
X221712888Y-80695993D01*
X221817332Y-80621494D01*
X221884405Y-80598220D01*
X221953414Y-80614904D01*
X222002448Y-80666248D01*
X222016500Y-80724073D01*
X222016500Y-81260984D01*
X222016451Y-81264502D01*
X222015751Y-81289580D01*
X222013666Y-81364205D01*
X222020733Y-81417164D01*
X222024058Y-81442086D01*
X222024758Y-81448639D01*
X222031060Y-81526965D01*
X222038897Y-81558870D01*
X222041426Y-81572258D01*
X222045771Y-81604820D01*
X222047232Y-81609661D01*
X222047233Y-81609663D01*
X222068478Y-81680029D01*
X222070219Y-81686390D01*
X222088963Y-81762706D01*
X222090941Y-81767366D01*
X222101801Y-81792951D01*
X222106438Y-81805761D01*
X222115933Y-81837208D01*
X222118151Y-81841756D01*
X222118154Y-81841763D01*
X222150371Y-81907818D01*
X222153107Y-81913820D01*
X222183812Y-81986156D01*
X222186504Y-81990430D01*
X222201319Y-82013956D01*
X222207945Y-82025860D01*
X222222346Y-82055388D01*
X222225265Y-82059525D01*
X222225265Y-82059526D01*
X222267641Y-82119597D01*
X222271301Y-82125086D01*
X222313167Y-82191567D01*
X222316508Y-82195356D01*
X222316512Y-82195362D01*
X222334898Y-82216217D01*
X222343344Y-82226912D01*
X222362274Y-82253747D01*
X222381909Y-82275250D01*
X222421625Y-82314966D01*
X222427044Y-82320736D01*
X222470350Y-82369858D01*
X222470353Y-82369861D01*
X222473698Y-82373655D01*
X222477606Y-82376865D01*
X222477607Y-82376866D01*
X222505989Y-82400179D01*
X222515108Y-82408449D01*
X223706325Y-83599666D01*
X223708779Y-83602188D01*
X223752060Y-83647956D01*
X223777332Y-83674681D01*
X223823601Y-83710056D01*
X223839757Y-83722408D01*
X223844892Y-83726552D01*
X223904720Y-83777470D01*
X223909045Y-83780089D01*
X223909050Y-83780093D01*
X223932824Y-83794491D01*
X223944071Y-83802163D01*
X223970174Y-83822120D01*
X224031255Y-83854871D01*
X224039401Y-83859239D01*
X224045126Y-83862504D01*
X224112358Y-83903221D01*
X224142817Y-83915527D01*
X224155158Y-83921307D01*
X224184109Y-83936831D01*
X224188890Y-83938477D01*
X224188894Y-83938479D01*
X224258401Y-83962412D01*
X224264579Y-83964722D01*
X224278962Y-83970533D01*
X224337429Y-83994155D01*
X224342369Y-83995277D01*
X224342368Y-83995277D01*
X224369460Y-84001432D01*
X224382559Y-84005163D01*
X224413631Y-84015862D01*
X224491100Y-84029243D01*
X224497504Y-84030523D01*
X224574144Y-84047935D01*
X224606953Y-84049999D01*
X224620453Y-84051585D01*
X224652836Y-84057179D01*
X224656793Y-84057359D01*
X224656796Y-84057359D01*
X224680506Y-84058436D01*
X224680525Y-84058436D01*
X224681925Y-84058500D01*
X224738107Y-84058500D01*
X224746018Y-84058749D01*
X224816412Y-84063178D01*
X224857991Y-84059101D01*
X224870287Y-84058500D01*
X241085984Y-84058500D01*
X241089502Y-84058549D01*
X241184150Y-84061193D01*
X241184153Y-84061193D01*
X241189205Y-84061334D01*
X241267098Y-84050941D01*
X241273639Y-84050242D01*
X241302332Y-84047933D01*
X241346923Y-84044346D01*
X241346927Y-84044345D01*
X241351965Y-84043940D01*
X241383878Y-84036101D01*
X241397258Y-84033574D01*
X241429820Y-84029229D01*
X241434661Y-84027768D01*
X241434663Y-84027767D01*
X241505029Y-84006522D01*
X241511392Y-84004781D01*
X241525027Y-84001432D01*
X241587706Y-83986037D01*
X241617952Y-83973199D01*
X241630763Y-83968561D01*
X241657362Y-83960530D01*
X241662208Y-83959067D01*
X241666756Y-83956849D01*
X241666763Y-83956846D01*
X241732818Y-83924629D01*
X241738820Y-83921893D01*
X241788978Y-83900602D01*
X241811156Y-83891188D01*
X241838956Y-83873681D01*
X241850860Y-83867055D01*
X241880388Y-83852654D01*
X241944600Y-83807357D01*
X241950086Y-83803699D01*
X242012286Y-83764529D01*
X242012287Y-83764528D01*
X242016567Y-83761833D01*
X242020356Y-83758492D01*
X242020362Y-83758488D01*
X242041217Y-83740102D01*
X242051912Y-83731656D01*
X242065022Y-83722408D01*
X242078747Y-83712726D01*
X242100250Y-83693091D01*
X242139966Y-83653375D01*
X242145736Y-83647956D01*
X242194858Y-83604650D01*
X242194861Y-83604647D01*
X242198655Y-83601302D01*
X242201871Y-83597387D01*
X242225178Y-83569013D01*
X242233438Y-83559903D01*
X243166426Y-82626916D01*
X243228736Y-82592892D01*
X243299552Y-82597957D01*
X243356387Y-82640504D01*
X243367521Y-82659242D01*
X243367829Y-82659080D01*
X243532803Y-82973310D01*
X243536286Y-82979152D01*
X243732330Y-83270896D01*
X243736433Y-83276340D01*
X243856425Y-83418836D01*
X243869164Y-83427279D01*
X243879608Y-83421181D01*
X246007980Y-81292810D01*
X246015592Y-81278869D01*
X246015461Y-81277034D01*
X246011210Y-81270420D01*
X243925405Y-79184616D01*
X243891380Y-79122304D01*
X243888500Y-79095521D01*
X243888500Y-78766862D01*
X244229950Y-78766862D01*
X244229986Y-78767704D01*
X244235037Y-78775826D01*
X245498641Y-80039431D01*
X246367190Y-80907980D01*
X246381131Y-80915592D01*
X246382966Y-80915461D01*
X246389580Y-80911210D01*
X248522798Y-78777991D01*
X248530412Y-78764047D01*
X248530344Y-78763089D01*
X248525836Y-78756272D01*
X248524418Y-78755065D01*
X248244813Y-78542064D01*
X248239187Y-78538240D01*
X247938214Y-78356681D01*
X247932202Y-78353484D01*
X247613370Y-78205487D01*
X247607070Y-78202967D01*
X247274129Y-78090273D01*
X247267551Y-78088437D01*
X246924417Y-78012367D01*
X246917678Y-78011251D01*
X246568310Y-77972680D01*
X246561529Y-77972301D01*
X246210015Y-77971687D01*
X246203242Y-77972042D01*
X245853720Y-78009395D01*
X245847010Y-78010482D01*
X245503586Y-78085361D01*
X245497011Y-78087172D01*
X245163683Y-78198702D01*
X245157361Y-78201205D01*
X244838034Y-78348079D01*
X244831991Y-78351265D01*
X244530401Y-78531763D01*
X244524755Y-78535571D01*
X244244408Y-78747596D01*
X244239211Y-78751987D01*
X244237972Y-78753155D01*
X244229950Y-78766862D01*
X243888500Y-78766862D01*
X243888500Y-73257031D01*
X243908502Y-73188910D01*
X243925405Y-73167936D01*
X245197936Y-71895405D01*
X245260248Y-71861379D01*
X245287031Y-71858500D01*
X246658134Y-71858500D01*
X246720316Y-71851745D01*
X246856705Y-71800615D01*
X246973261Y-71713261D01*
X247060615Y-71596705D01*
X247111745Y-71460316D01*
X247118500Y-71398134D01*
X247118500Y-68301866D01*
X247111745Y-68239684D01*
X247060615Y-68103295D01*
X246973261Y-67986739D01*
X246856705Y-67899385D01*
X246720316Y-67848255D01*
X246658134Y-67841500D01*
X244579924Y-67841500D01*
X244511803Y-67821498D01*
X244490829Y-67804595D01*
X243045888Y-66359654D01*
X243885618Y-66359654D01*
X243892673Y-66369627D01*
X243923679Y-66395551D01*
X243930598Y-66400579D01*
X244155272Y-66541515D01*
X244162807Y-66545556D01*
X244404520Y-66654694D01*
X244412551Y-66657680D01*
X244666832Y-66733002D01*
X244675184Y-66734869D01*
X244937340Y-66774984D01*
X244945874Y-66775700D01*
X245211045Y-66779867D01*
X245219596Y-66779418D01*
X245482883Y-66747557D01*
X245491284Y-66745955D01*
X245747824Y-66678653D01*
X245755926Y-66675926D01*
X246000949Y-66574434D01*
X246008617Y-66570628D01*
X246237598Y-66436822D01*
X246244679Y-66432009D01*
X246324655Y-66369301D01*
X246333125Y-66357442D01*
X246326608Y-66345818D01*
X245122812Y-65142022D01*
X245108868Y-65134408D01*
X245107035Y-65134539D01*
X245100420Y-65138790D01*
X243892910Y-66346300D01*
X243885618Y-66359654D01*
X243045888Y-66359654D01*
X242345405Y-65659171D01*
X242311379Y-65596859D01*
X242308500Y-65570076D01*
X242308500Y-64753204D01*
X243097665Y-64753204D01*
X243112932Y-65017969D01*
X243114005Y-65026470D01*
X243165065Y-65286722D01*
X243167276Y-65294974D01*
X243253184Y-65545894D01*
X243256499Y-65553779D01*
X243375664Y-65790713D01*
X243380020Y-65798079D01*
X243509347Y-65986250D01*
X243519601Y-65994594D01*
X243533342Y-65987448D01*
X244737978Y-64782812D01*
X244744356Y-64771132D01*
X245474408Y-64771132D01*
X245474539Y-64772965D01*
X245478790Y-64779580D01*
X246685730Y-65986520D01*
X246697939Y-65993187D01*
X246709439Y-65984497D01*
X246806831Y-65851913D01*
X246811418Y-65844685D01*
X246937962Y-65611621D01*
X246941530Y-65603827D01*
X247035271Y-65355750D01*
X247037748Y-65347544D01*
X247096954Y-65089038D01*
X247098294Y-65080577D01*
X247122031Y-64814616D01*
X247122277Y-64809677D01*
X247122666Y-64772485D01*
X247122523Y-64767519D01*
X247104362Y-64501123D01*
X247103201Y-64492649D01*
X247049419Y-64232944D01*
X247047120Y-64224709D01*
X246958588Y-63974705D01*
X246955191Y-63966854D01*
X246833550Y-63731178D01*
X246829122Y-63723866D01*
X246710031Y-63554417D01*
X246699509Y-63546037D01*
X246686121Y-63553089D01*
X245482022Y-64757188D01*
X245474408Y-64771132D01*
X244744356Y-64771132D01*
X244745592Y-64768868D01*
X244745461Y-64767035D01*
X244741210Y-64760420D01*
X243533814Y-63553024D01*
X243521804Y-63546466D01*
X243510064Y-63555434D01*
X243401935Y-63705911D01*
X243397418Y-63713196D01*
X243273325Y-63947567D01*
X243269839Y-63955395D01*
X243178700Y-64204446D01*
X243176311Y-64212670D01*
X243119812Y-64471795D01*
X243118563Y-64480250D01*
X243097754Y-64744653D01*
X243097665Y-64753204D01*
X242308500Y-64753204D01*
X242308500Y-63182500D01*
X243886584Y-63182500D01*
X243892980Y-63193770D01*
X245097188Y-64397978D01*
X245111132Y-64405592D01*
X245112965Y-64405461D01*
X245119580Y-64401210D01*
X246326604Y-63194186D01*
X246333795Y-63181017D01*
X246326473Y-63170780D01*
X246279233Y-63132115D01*
X246272261Y-63127160D01*
X246046122Y-62988582D01*
X246038552Y-62984624D01*
X245795704Y-62878022D01*
X245787644Y-62875120D01*
X245532592Y-62802467D01*
X245524214Y-62800685D01*
X245261656Y-62763318D01*
X245253111Y-62762691D01*
X244987908Y-62761302D01*
X244979374Y-62761839D01*
X244716433Y-62796456D01*
X244708035Y-62798149D01*
X244452238Y-62868127D01*
X244444143Y-62870946D01*
X244200199Y-62974997D01*
X244192577Y-62978881D01*
X243965013Y-63115075D01*
X243957981Y-63119962D01*
X243895053Y-63170377D01*
X243886584Y-63182500D01*
X242308500Y-63182500D01*
X242308500Y-60541266D01*
X247302000Y-60541266D01*
X247302337Y-60547782D01*
X247312075Y-60641632D01*
X247314968Y-60655028D01*
X247365488Y-60806453D01*
X247371653Y-60819615D01*
X247455426Y-60954992D01*
X247464460Y-60966390D01*
X247577129Y-61078863D01*
X247588540Y-61087875D01*
X247724063Y-61171412D01*
X247737241Y-61177556D01*
X247888766Y-61227815D01*
X247902132Y-61230681D01*
X247994770Y-61240172D01*
X248001185Y-61240500D01*
X248012885Y-61240500D01*
X248028124Y-61236025D01*
X248029329Y-61234635D01*
X248031000Y-61226952D01*
X248031000Y-61222385D01*
X248539000Y-61222385D01*
X248543475Y-61237624D01*
X248544865Y-61238829D01*
X248552548Y-61240500D01*
X248568766Y-61240500D01*
X248575282Y-61240163D01*
X248669132Y-61230425D01*
X248682528Y-61227532D01*
X248833953Y-61177012D01*
X248847115Y-61170847D01*
X248982492Y-61087074D01*
X248993890Y-61078040D01*
X249106363Y-60965371D01*
X249115375Y-60953960D01*
X249198912Y-60818437D01*
X249205056Y-60805259D01*
X249255315Y-60653734D01*
X249258181Y-60640368D01*
X249267672Y-60547730D01*
X249268000Y-60541315D01*
X249268000Y-60517115D01*
X249263525Y-60501876D01*
X249262135Y-60500671D01*
X249254452Y-60499000D01*
X248557115Y-60499000D01*
X248541876Y-60503475D01*
X248540671Y-60504865D01*
X248539000Y-60512548D01*
X248539000Y-61222385D01*
X248031000Y-61222385D01*
X248031000Y-60517115D01*
X248026525Y-60501876D01*
X248025135Y-60500671D01*
X248017452Y-60499000D01*
X247320115Y-60499000D01*
X247304876Y-60503475D01*
X247303671Y-60504865D01*
X247302000Y-60512548D01*
X247302000Y-60541266D01*
X242308500Y-60541266D01*
X242308500Y-58889926D01*
X242328502Y-58821805D01*
X242345404Y-58800831D01*
X242547882Y-58598352D01*
X242610194Y-58564327D01*
X242630124Y-58561726D01*
X242634113Y-58561872D01*
X242863847Y-58532442D01*
X242868795Y-58530957D01*
X242868802Y-58530956D01*
X243080747Y-58467369D01*
X243085690Y-58465886D01*
X243094155Y-58461739D01*
X243289049Y-58366262D01*
X243289052Y-58366260D01*
X243293684Y-58363991D01*
X243482243Y-58229494D01*
X243527309Y-58184585D01*
X243589681Y-58150669D01*
X243660487Y-58155857D01*
X243717249Y-58198503D01*
X243734231Y-58229607D01*
X243759385Y-58296705D01*
X243846739Y-58413261D01*
X243963295Y-58500615D01*
X244099684Y-58551745D01*
X244161866Y-58558500D01*
X245393629Y-58558500D01*
X245461750Y-58578502D01*
X245482724Y-58595405D01*
X245796230Y-58908911D01*
X245808616Y-58923323D01*
X245817149Y-58934918D01*
X245817154Y-58934923D01*
X245821492Y-58940818D01*
X245827070Y-58945557D01*
X245827073Y-58945560D01*
X245861768Y-58975035D01*
X245869284Y-58981965D01*
X245874979Y-58987660D01*
X245877861Y-58989940D01*
X245897251Y-59005281D01*
X245900655Y-59008072D01*
X245950703Y-59050591D01*
X245956285Y-59055333D01*
X245962801Y-59058661D01*
X245967850Y-59062028D01*
X245972979Y-59065195D01*
X245978716Y-59069734D01*
X246044875Y-59100655D01*
X246048769Y-59102558D01*
X246113808Y-59135769D01*
X246120916Y-59137508D01*
X246126559Y-59139607D01*
X246132322Y-59141524D01*
X246138950Y-59144622D01*
X246146112Y-59146112D01*
X246146113Y-59146112D01*
X246210412Y-59159486D01*
X246214696Y-59160456D01*
X246285610Y-59177808D01*
X246291212Y-59178156D01*
X246291215Y-59178156D01*
X246296764Y-59178500D01*
X246296762Y-59178536D01*
X246300755Y-59178775D01*
X246304947Y-59179149D01*
X246312115Y-59180640D01*
X246389520Y-59178546D01*
X246392928Y-59178500D01*
X247448800Y-59178500D01*
X247516921Y-59198502D01*
X247537815Y-59215324D01*
X247566141Y-59243601D01*
X247600220Y-59305881D01*
X247595218Y-59376701D01*
X247566296Y-59421791D01*
X247463637Y-59524629D01*
X247454625Y-59536040D01*
X247371088Y-59671563D01*
X247364944Y-59684741D01*
X247314685Y-59836266D01*
X247311819Y-59849632D01*
X247302328Y-59942270D01*
X247302000Y-59948685D01*
X247302000Y-59972885D01*
X247306475Y-59988124D01*
X247307865Y-59989329D01*
X247315548Y-59991000D01*
X249249885Y-59991000D01*
X249265124Y-59986525D01*
X249266329Y-59985135D01*
X249268000Y-59977452D01*
X249268000Y-59948734D01*
X249267663Y-59942218D01*
X249257925Y-59848368D01*
X249255032Y-59834972D01*
X249204512Y-59683547D01*
X249198347Y-59670385D01*
X249114574Y-59535008D01*
X249105540Y-59523610D01*
X249003860Y-59422107D01*
X248969781Y-59359824D01*
X248974784Y-59289004D01*
X249003705Y-59243916D01*
X249004022Y-59243599D01*
X249111929Y-59135503D01*
X249190479Y-59008072D01*
X249199369Y-58993650D01*
X249199370Y-58993648D01*
X249203209Y-58987420D01*
X249257974Y-58822309D01*
X249258877Y-58813502D01*
X249268172Y-58722771D01*
X249268500Y-58719572D01*
X249268500Y-58120428D01*
X249266187Y-58098134D01*
X249258419Y-58023265D01*
X249258418Y-58023261D01*
X249257707Y-58016407D01*
X249202654Y-57851393D01*
X249111116Y-57703469D01*
X249049037Y-57641498D01*
X248993184Y-57585742D01*
X248993179Y-57585738D01*
X248988003Y-57580571D01*
X248839920Y-57489291D01*
X248674809Y-57434526D01*
X248667973Y-57433826D01*
X248667970Y-57433825D01*
X248616474Y-57428549D01*
X248572072Y-57424000D01*
X247997928Y-57424000D01*
X247994682Y-57424337D01*
X247994678Y-57424337D01*
X247900765Y-57434081D01*
X247900761Y-57434082D01*
X247893907Y-57434793D01*
X247887371Y-57436974D01*
X247887369Y-57436974D01*
X247817117Y-57460412D01*
X247728893Y-57489846D01*
X247580969Y-57581384D01*
X247575796Y-57586566D01*
X247537910Y-57624518D01*
X247475627Y-57658597D01*
X247448737Y-57661500D01*
X246746371Y-57661500D01*
X246678250Y-57641498D01*
X246657276Y-57624595D01*
X246555405Y-57522724D01*
X246521379Y-57460412D01*
X246518500Y-57433629D01*
X246518500Y-56201866D01*
X246511745Y-56139684D01*
X246460615Y-56003295D01*
X246373261Y-55886739D01*
X246256705Y-55799385D01*
X246120316Y-55748255D01*
X246058134Y-55741500D01*
X244161866Y-55741500D01*
X244099684Y-55748255D01*
X243963295Y-55799385D01*
X243846739Y-55886739D01*
X243759385Y-56003295D01*
X243756233Y-56011703D01*
X243756232Y-56011705D01*
X243735538Y-56066906D01*
X243692897Y-56123671D01*
X243626335Y-56148371D01*
X243556986Y-56133164D01*
X243534167Y-56116666D01*
X243533887Y-56116358D01*
X243401373Y-56011705D01*
X243356177Y-55976011D01*
X243356172Y-55976008D01*
X243352123Y-55972810D01*
X243347607Y-55970317D01*
X243347604Y-55970315D01*
X243153879Y-55863373D01*
X243153875Y-55863371D01*
X243149355Y-55860876D01*
X243144486Y-55859152D01*
X243144482Y-55859150D01*
X242935903Y-55785288D01*
X242935899Y-55785287D01*
X242931028Y-55783562D01*
X242925935Y-55782655D01*
X242925932Y-55782654D01*
X242708095Y-55743851D01*
X242708089Y-55743850D01*
X242703006Y-55742945D01*
X242630096Y-55742054D01*
X242476581Y-55740179D01*
X242476579Y-55740179D01*
X242471411Y-55740116D01*
X242242464Y-55775150D01*
X242022314Y-55847106D01*
X242017726Y-55849494D01*
X242017722Y-55849496D01*
X241821461Y-55951663D01*
X241816872Y-55954052D01*
X241812739Y-55957155D01*
X241812736Y-55957157D01*
X241635790Y-56090012D01*
X241631655Y-56093117D01*
X241471639Y-56260564D01*
X241341119Y-56451899D01*
X241243602Y-56661981D01*
X241237447Y-56684173D01*
X241199970Y-56744470D01*
X241135841Y-56774933D01*
X241116031Y-56776500D01*
X239593925Y-56776500D01*
X239525804Y-56756498D01*
X239479311Y-56702842D01*
X239469207Y-56632568D01*
X239498701Y-56567988D01*
X239504830Y-56561405D01*
X241969379Y-54096855D01*
X241979522Y-54087753D01*
X242004218Y-54067897D01*
X242009025Y-54064032D01*
X242041292Y-54025578D01*
X242044472Y-54021931D01*
X242046115Y-54020119D01*
X242048309Y-54017925D01*
X242075642Y-53984651D01*
X242076348Y-53983800D01*
X242080071Y-53979364D01*
X242136154Y-53912526D01*
X242138722Y-53907856D01*
X242142103Y-53903739D01*
X242185977Y-53821914D01*
X242186606Y-53820755D01*
X242228462Y-53744619D01*
X242228465Y-53744611D01*
X242231433Y-53739213D01*
X242233045Y-53734131D01*
X242235562Y-53729437D01*
X242262762Y-53640469D01*
X242263108Y-53639358D01*
X242272417Y-53610016D01*
X242291235Y-53550694D01*
X242291829Y-53545398D01*
X242293387Y-53540302D01*
X242302790Y-53447743D01*
X242302911Y-53446607D01*
X242308500Y-53396773D01*
X242308500Y-53393246D01*
X242308555Y-53392261D01*
X242309002Y-53386581D01*
X242313374Y-53343538D01*
X242309059Y-53297891D01*
X242308500Y-53286033D01*
X242308500Y-51067429D01*
X243014359Y-51067429D01*
X243014562Y-51069034D01*
X243068246Y-51342664D01*
X243070457Y-51350916D01*
X243160782Y-51614736D01*
X243164097Y-51622621D01*
X243289389Y-51871736D01*
X243293745Y-51879102D01*
X243451687Y-52108907D01*
X243456995Y-52115605D01*
X243644670Y-52321858D01*
X243650841Y-52327775D01*
X243864761Y-52506641D01*
X243871693Y-52511676D01*
X244107895Y-52659846D01*
X244115446Y-52663895D01*
X244369581Y-52778640D01*
X244377612Y-52781627D01*
X244644967Y-52860822D01*
X244653318Y-52862689D01*
X244838090Y-52890962D01*
X244851877Y-52889107D01*
X244856000Y-52875298D01*
X244856000Y-52874560D01*
X245364000Y-52874560D01*
X245368105Y-52888542D01*
X245381271Y-52890585D01*
X245501658Y-52876016D01*
X245510075Y-52874411D01*
X245779786Y-52803654D01*
X245787902Y-52800923D01*
X246045521Y-52694213D01*
X246053183Y-52690410D01*
X246293943Y-52549721D01*
X246301008Y-52544920D01*
X246520451Y-52372854D01*
X246526807Y-52367131D01*
X246720861Y-52166882D01*
X246726381Y-52160351D01*
X246891464Y-51935617D01*
X246896048Y-51928393D01*
X247029099Y-51683346D01*
X247032667Y-51675553D01*
X247131227Y-51414721D01*
X247133704Y-51406515D01*
X247195953Y-51134720D01*
X247197294Y-51126257D01*
X247202132Y-51072044D01*
X247199161Y-51057125D01*
X247187354Y-51054000D01*
X245382115Y-51054000D01*
X245366876Y-51058475D01*
X245365671Y-51059865D01*
X245364000Y-51067548D01*
X245364000Y-52874560D01*
X244856000Y-52874560D01*
X244856000Y-51072115D01*
X244851525Y-51056876D01*
X244850135Y-51055671D01*
X244842452Y-51054000D01*
X243031226Y-51054000D01*
X243016041Y-51058459D01*
X243014359Y-51067429D01*
X242308500Y-51067429D01*
X242308500Y-50527942D01*
X243016860Y-50527942D01*
X243020030Y-50543031D01*
X243031493Y-50546000D01*
X244837885Y-50546000D01*
X244853124Y-50541525D01*
X244854329Y-50540135D01*
X244856000Y-50532452D01*
X244856000Y-50527885D01*
X245364000Y-50527885D01*
X245368475Y-50543124D01*
X245369865Y-50544329D01*
X245377548Y-50546000D01*
X247187495Y-50546000D01*
X247202486Y-50541598D01*
X247204541Y-50530315D01*
X247203669Y-50517519D01*
X247202508Y-50509047D01*
X247145962Y-50235998D01*
X247143658Y-50227744D01*
X247050579Y-49964897D01*
X247047183Y-49957049D01*
X246919286Y-49709254D01*
X246914858Y-49701942D01*
X246754515Y-49473798D01*
X246749133Y-49467152D01*
X246559318Y-49262886D01*
X246553078Y-49257027D01*
X246337296Y-49080411D01*
X246330324Y-49075456D01*
X246092560Y-48929754D01*
X246084990Y-48925796D01*
X245829657Y-48813714D01*
X245821597Y-48810812D01*
X245553432Y-48734424D01*
X245545054Y-48732642D01*
X245381935Y-48709427D01*
X245367949Y-48711458D01*
X245364000Y-48724943D01*
X245364000Y-50527885D01*
X244856000Y-50527885D01*
X244856000Y-48725332D01*
X244851956Y-48711561D01*
X244838417Y-48709532D01*
X244696621Y-48728200D01*
X244688223Y-48729893D01*
X244419274Y-48803469D01*
X244411179Y-48806288D01*
X244154694Y-48915688D01*
X244147071Y-48919572D01*
X243907806Y-49062768D01*
X243900777Y-49067653D01*
X243683153Y-49242004D01*
X243676864Y-49247787D01*
X243484913Y-49450061D01*
X243479460Y-49456654D01*
X243316747Y-49683092D01*
X243312230Y-49690377D01*
X243181757Y-49936799D01*
X243178271Y-49944627D01*
X243082446Y-50206481D01*
X243080057Y-50214704D01*
X243020654Y-50487151D01*
X243019405Y-50495607D01*
X243016860Y-50527942D01*
X242308500Y-50527942D01*
X242308500Y-39839925D01*
X242328502Y-39771804D01*
X242345405Y-39750830D01*
X244390829Y-37705405D01*
X244453141Y-37671380D01*
X244479924Y-37668500D01*
X246758134Y-37668500D01*
X246820316Y-37661745D01*
X246956705Y-37610615D01*
X247073261Y-37523261D01*
X247160615Y-37406705D01*
X247211745Y-37270316D01*
X247218500Y-37208134D01*
X247218500Y-33911866D01*
X247211745Y-33849684D01*
X247204204Y-33829568D01*
X247199021Y-33758763D01*
X247232941Y-33696393D01*
X247282623Y-33665711D01*
X247585549Y-33565527D01*
X247591891Y-33563041D01*
X247911718Y-33417288D01*
X247917777Y-33414121D01*
X248219995Y-33234676D01*
X248225659Y-33230884D01*
X248506732Y-33019849D01*
X248511958Y-33015464D01*
X248521613Y-33006428D01*
X248529682Y-32992750D01*
X248529654Y-32992024D01*
X248524512Y-32983723D01*
X246392810Y-30852020D01*
X246378869Y-30844408D01*
X246377034Y-30844539D01*
X246370420Y-30848790D01*
X244988413Y-32230797D01*
X244926101Y-32264823D01*
X244855286Y-32259758D01*
X244810223Y-32230797D01*
X244629203Y-32049777D01*
X244595177Y-31987465D01*
X244600242Y-31916650D01*
X244629203Y-31871587D01*
X246007978Y-30492812D01*
X246015592Y-30478868D01*
X246015461Y-30477035D01*
X246011210Y-30470420D01*
X243880992Y-28340203D01*
X243867455Y-28332811D01*
X243857753Y-28339599D01*
X243750430Y-28465257D01*
X243746296Y-28470664D01*
X243548215Y-28761041D01*
X243544697Y-28766851D01*
X243379134Y-29076922D01*
X243376259Y-29083087D01*
X243245155Y-29409218D01*
X243242962Y-29415658D01*
X243147846Y-29754044D01*
X243146363Y-29760679D01*
X243088350Y-30107354D01*
X243087591Y-30114126D01*
X243067357Y-30465037D01*
X243067333Y-30471832D01*
X243085117Y-30822893D01*
X243085827Y-30829649D01*
X243141420Y-31176723D01*
X243142859Y-31183378D01*
X243235608Y-31522410D01*
X243237757Y-31528871D01*
X243366581Y-31855912D01*
X243369412Y-31862095D01*
X243532803Y-32173310D01*
X243536294Y-32179166D01*
X243593341Y-32264060D01*
X243614734Y-32331757D01*
X243596130Y-32400273D01*
X243543437Y-32447854D01*
X243473385Y-32459394D01*
X243408214Y-32431229D01*
X243399665Y-32423431D01*
X243326855Y-32350621D01*
X243317753Y-32340478D01*
X243297897Y-32315782D01*
X243294032Y-32310975D01*
X243255578Y-32278708D01*
X243251931Y-32275528D01*
X243250119Y-32273885D01*
X243247925Y-32271691D01*
X243214651Y-32244358D01*
X243213853Y-32243696D01*
X243142526Y-32183846D01*
X243137856Y-32181278D01*
X243133739Y-32177897D01*
X243051914Y-32134023D01*
X243050755Y-32133394D01*
X242974619Y-32091538D01*
X242974611Y-32091535D01*
X242969213Y-32088567D01*
X242964131Y-32086955D01*
X242959437Y-32084438D01*
X242870469Y-32057238D01*
X242869441Y-32056918D01*
X242780694Y-32028765D01*
X242775398Y-32028171D01*
X242770302Y-32026613D01*
X242677743Y-32017210D01*
X242676607Y-32017089D01*
X242642992Y-32013319D01*
X242630270Y-32011892D01*
X242630266Y-32011892D01*
X242626773Y-32011500D01*
X242623246Y-32011500D01*
X242622261Y-32011445D01*
X242616581Y-32010998D01*
X242587175Y-32008011D01*
X242579663Y-32007248D01*
X242579661Y-32007248D01*
X242573538Y-32006626D01*
X242531259Y-32010623D01*
X242527891Y-32010941D01*
X242516033Y-32011500D01*
X241954500Y-32011500D01*
X241886379Y-31991498D01*
X241839886Y-31937842D01*
X241828500Y-31885500D01*
X241828500Y-31519600D01*
X241828163Y-31516350D01*
X241818238Y-31420692D01*
X241818237Y-31420688D01*
X241817526Y-31413834D01*
X241809245Y-31389011D01*
X241763868Y-31253002D01*
X241761550Y-31246054D01*
X241668478Y-31095652D01*
X241543303Y-30970695D01*
X241443527Y-30909192D01*
X241398968Y-30881725D01*
X241398966Y-30881724D01*
X241392738Y-30877885D01*
X241305019Y-30848790D01*
X241231389Y-30824368D01*
X241231387Y-30824368D01*
X241224861Y-30822203D01*
X241218025Y-30821503D01*
X241218022Y-30821502D01*
X241162387Y-30815802D01*
X241120400Y-30811500D01*
X240219600Y-30811500D01*
X240216354Y-30811837D01*
X240216350Y-30811837D01*
X240120692Y-30821762D01*
X240120688Y-30821763D01*
X240113834Y-30822474D01*
X240107298Y-30824655D01*
X240107296Y-30824655D01*
X240025274Y-30852020D01*
X239946054Y-30878450D01*
X239795652Y-30971522D01*
X239670695Y-31096697D01*
X239666855Y-31102927D01*
X239666854Y-31102928D01*
X239593705Y-31221598D01*
X239577885Y-31247262D01*
X239522203Y-31415139D01*
X239521503Y-31421975D01*
X239521502Y-31421978D01*
X239520704Y-31429771D01*
X239511500Y-31519600D01*
X239511500Y-34520400D01*
X239511837Y-34523646D01*
X239511837Y-34523650D01*
X239513685Y-34541456D01*
X239522474Y-34626166D01*
X239524655Y-34632702D01*
X239524655Y-34632704D01*
X239549922Y-34708437D01*
X239578450Y-34793946D01*
X239671522Y-34944348D01*
X239796697Y-35069305D01*
X239802927Y-35073145D01*
X239802928Y-35073146D01*
X239820115Y-35083740D01*
X239867608Y-35136512D01*
X239879032Y-35206584D01*
X239850758Y-35271707D01*
X239791764Y-35311207D01*
X239753999Y-35317000D01*
X237135800Y-35317000D01*
X237067679Y-35296998D01*
X237021186Y-35243342D01*
X237011082Y-35173068D01*
X237040576Y-35108488D01*
X237069495Y-35083858D01*
X237094348Y-35068478D01*
X237099801Y-35063016D01*
X237214134Y-34948483D01*
X237219305Y-34943303D01*
X237261935Y-34874145D01*
X237308275Y-34798968D01*
X237308276Y-34798966D01*
X237312115Y-34792738D01*
X237367797Y-34624861D01*
X237378500Y-34520400D01*
X237378500Y-31519600D01*
X237378163Y-31516350D01*
X237368238Y-31420692D01*
X237368237Y-31420688D01*
X237367526Y-31413834D01*
X237359245Y-31389011D01*
X237313868Y-31253002D01*
X237311550Y-31246054D01*
X237218478Y-31095652D01*
X237093303Y-30970695D01*
X236993527Y-30909192D01*
X236948968Y-30881725D01*
X236948966Y-30881724D01*
X236942738Y-30877885D01*
X236855019Y-30848790D01*
X236781389Y-30824368D01*
X236781387Y-30824368D01*
X236774861Y-30822203D01*
X236768025Y-30821503D01*
X236768022Y-30821502D01*
X236712387Y-30815802D01*
X236670400Y-30811500D01*
X235769600Y-30811500D01*
X235766354Y-30811837D01*
X235766350Y-30811837D01*
X235670692Y-30821762D01*
X235670688Y-30821763D01*
X235663834Y-30822474D01*
X235657298Y-30824655D01*
X235657296Y-30824655D01*
X235575274Y-30852020D01*
X235496054Y-30878450D01*
X235345652Y-30971522D01*
X235220695Y-31096697D01*
X235216855Y-31102927D01*
X235216854Y-31102928D01*
X235143705Y-31221598D01*
X235127885Y-31247262D01*
X235072203Y-31415139D01*
X235071503Y-31421975D01*
X235071502Y-31421978D01*
X235070704Y-31429771D01*
X235061500Y-31519600D01*
X235061500Y-31885500D01*
X235041498Y-31953621D01*
X234987842Y-32000114D01*
X234935500Y-32011500D01*
X233739873Y-32011500D01*
X233726703Y-32010810D01*
X233693204Y-32007289D01*
X233693202Y-32007289D01*
X233687075Y-32006645D01*
X233639430Y-32010981D01*
X233628010Y-32011500D01*
X232469873Y-32011500D01*
X232456703Y-32010810D01*
X232423204Y-32007289D01*
X232423202Y-32007289D01*
X232417075Y-32006645D01*
X232369430Y-32010981D01*
X232358010Y-32011500D01*
X231609926Y-32011500D01*
X231541805Y-31991498D01*
X231520831Y-31974595D01*
X231501845Y-31955609D01*
X231492752Y-31945475D01*
X231469032Y-31915975D01*
X231462727Y-31910684D01*
X231430579Y-31883709D01*
X231426931Y-31880528D01*
X231425119Y-31878885D01*
X231422925Y-31876691D01*
X231389651Y-31849358D01*
X231388853Y-31848696D01*
X231317526Y-31788846D01*
X231312856Y-31786278D01*
X231308739Y-31782897D01*
X231226914Y-31739023D01*
X231225755Y-31738394D01*
X231149619Y-31696538D01*
X231149611Y-31696535D01*
X231144213Y-31693567D01*
X231139131Y-31691955D01*
X231134437Y-31689438D01*
X231045469Y-31662238D01*
X231044441Y-31661918D01*
X230955694Y-31633765D01*
X230950398Y-31633171D01*
X230945302Y-31631613D01*
X230852743Y-31622210D01*
X230851607Y-31622089D01*
X230817992Y-31618319D01*
X230805270Y-31616892D01*
X230805266Y-31616892D01*
X230801773Y-31616500D01*
X230798246Y-31616500D01*
X230797261Y-31616445D01*
X230791581Y-31615998D01*
X230762175Y-31613011D01*
X230754663Y-31612248D01*
X230754661Y-31612248D01*
X230748538Y-31611626D01*
X230706259Y-31615623D01*
X230702891Y-31615941D01*
X230691033Y-31616500D01*
X229532904Y-31616500D01*
X229520171Y-31615855D01*
X229484666Y-31612248D01*
X229484661Y-31612248D01*
X229478538Y-31611626D01*
X229436259Y-31615623D01*
X229432891Y-31615941D01*
X229421033Y-31616500D01*
X225634802Y-31616500D01*
X225566681Y-31596498D01*
X225533976Y-31566065D01*
X225525895Y-31555283D01*
X225493261Y-31511739D01*
X225376705Y-31424385D01*
X225240316Y-31373255D01*
X225178134Y-31366500D01*
X223081866Y-31366500D01*
X223019684Y-31373255D01*
X222883295Y-31424385D01*
X222766739Y-31511739D01*
X222679385Y-31628295D01*
X222628255Y-31764684D01*
X222623058Y-31812526D01*
X222595817Y-31878088D01*
X222577428Y-31896564D01*
X222565938Y-31905935D01*
X222562011Y-31910682D01*
X222562009Y-31910684D01*
X222536713Y-31941262D01*
X222528723Y-31950042D01*
X220310621Y-34168145D01*
X220300478Y-34177247D01*
X220270975Y-34200968D01*
X220259919Y-34214144D01*
X220238709Y-34239421D01*
X220235528Y-34243069D01*
X220233885Y-34244881D01*
X220231691Y-34247075D01*
X220204358Y-34280349D01*
X220203696Y-34281147D01*
X220143846Y-34352474D01*
X220141278Y-34357144D01*
X220137897Y-34361261D01*
X220106860Y-34419145D01*
X220094023Y-34443086D01*
X220093394Y-34444245D01*
X220051538Y-34520381D01*
X220051535Y-34520389D01*
X220048567Y-34525787D01*
X220046955Y-34530869D01*
X220044438Y-34535563D01*
X220017238Y-34624531D01*
X220016918Y-34625559D01*
X219988765Y-34714306D01*
X219988171Y-34719602D01*
X219986613Y-34724698D01*
X219979069Y-34798968D01*
X219977218Y-34817187D01*
X219977089Y-34818393D01*
X219974573Y-34840830D01*
X219972224Y-34861775D01*
X219971500Y-34868227D01*
X219971500Y-34871754D01*
X219971445Y-34872739D01*
X219970998Y-34878419D01*
X219966626Y-34921462D01*
X219969946Y-34956586D01*
X219970941Y-34967109D01*
X219971500Y-34978967D01*
X219971500Y-41440074D01*
X219951498Y-41508195D01*
X219934596Y-41529169D01*
X219040617Y-42423149D01*
X219030473Y-42432251D01*
X219015393Y-42444376D01*
X219000975Y-42455968D01*
X218972226Y-42490230D01*
X218968709Y-42494421D01*
X218965528Y-42498069D01*
X218963885Y-42499881D01*
X218961691Y-42502075D01*
X218934358Y-42535349D01*
X218933696Y-42536147D01*
X218873846Y-42607474D01*
X218871278Y-42612144D01*
X218867897Y-42616261D01*
X218836860Y-42674145D01*
X218824023Y-42698086D01*
X218823394Y-42699245D01*
X218781538Y-42775381D01*
X218781535Y-42775389D01*
X218778567Y-42780787D01*
X218776955Y-42785869D01*
X218774438Y-42790563D01*
X218747238Y-42879531D01*
X218746918Y-42880559D01*
X218718765Y-42969306D01*
X218718171Y-42974602D01*
X218716613Y-42979698D01*
X218711547Y-43029574D01*
X218707218Y-43072187D01*
X218707089Y-43073393D01*
X218703486Y-43105522D01*
X218701917Y-43119512D01*
X218701500Y-43123227D01*
X218701500Y-43126754D01*
X218701445Y-43127739D01*
X218700998Y-43133419D01*
X218696626Y-43176462D01*
X218697213Y-43182672D01*
X218700941Y-43222109D01*
X218701500Y-43233967D01*
X218701500Y-44182746D01*
X218681498Y-44250867D01*
X218627842Y-44297360D01*
X218575500Y-44308746D01*
X218461866Y-44308746D01*
X218399684Y-44315501D01*
X218263295Y-44366631D01*
X218146739Y-44453985D01*
X218059385Y-44570541D01*
X218008255Y-44706930D01*
X218001500Y-44769112D01*
X218001500Y-44882746D01*
X217981498Y-44950867D01*
X217927842Y-44997360D01*
X217875500Y-45008746D01*
X213119597Y-45008746D01*
X213105990Y-45008009D01*
X213074492Y-45004587D01*
X213074487Y-45004587D01*
X213068366Y-45003922D01*
X213042116Y-45006219D01*
X213018366Y-45008296D01*
X213013540Y-45008625D01*
X213011068Y-45008746D01*
X213007985Y-45008746D01*
X212996016Y-45009920D01*
X212965248Y-45012936D01*
X212963935Y-45013058D01*
X212919670Y-45016931D01*
X212871341Y-45021159D01*
X212866222Y-45022646D01*
X212860921Y-45023166D01*
X212771920Y-45050037D01*
X212770787Y-45050372D01*
X212687340Y-45074616D01*
X212687336Y-45074618D01*
X212681418Y-45076337D01*
X212676686Y-45078790D01*
X212671585Y-45080330D01*
X212666142Y-45083224D01*
X212589494Y-45123977D01*
X212588328Y-45124589D01*
X212511301Y-45164517D01*
X212505828Y-45167354D01*
X212501665Y-45170677D01*
X212496958Y-45173180D01*
X212424836Y-45232001D01*
X212423980Y-45232692D01*
X212384781Y-45263984D01*
X212382277Y-45266488D01*
X212381559Y-45267130D01*
X212377226Y-45270831D01*
X212343692Y-45298181D01*
X212339765Y-45302928D01*
X212339763Y-45302930D01*
X212314467Y-45333508D01*
X212306477Y-45342288D01*
X208930201Y-48718564D01*
X208867889Y-48752590D01*
X208839569Y-48755460D01*
X208824903Y-48755281D01*
X208816581Y-48755179D01*
X208816579Y-48755179D01*
X208811411Y-48755116D01*
X208582464Y-48790150D01*
X208362314Y-48862106D01*
X208357726Y-48864494D01*
X208357722Y-48864496D01*
X208251922Y-48919572D01*
X208156872Y-48969052D01*
X208152739Y-48972155D01*
X208152736Y-48972157D01*
X208004319Y-49083592D01*
X207971655Y-49108117D01*
X207954170Y-49126414D01*
X207892646Y-49161844D01*
X207821733Y-49158387D01*
X207763947Y-49117141D01*
X207745094Y-49083592D01*
X207723768Y-49026705D01*
X207723767Y-49026703D01*
X207720615Y-49018295D01*
X207633261Y-48901739D01*
X207516705Y-48814385D01*
X207380316Y-48763255D01*
X207318134Y-48756500D01*
X205421866Y-48756500D01*
X205359684Y-48763255D01*
X205223295Y-48814385D01*
X205106739Y-48901739D01*
X205019385Y-49018295D01*
X204968255Y-49154684D01*
X204961500Y-49216866D01*
X204961500Y-49915500D01*
X204941498Y-49983621D01*
X204887842Y-50030114D01*
X204835500Y-50041500D01*
X203724428Y-50041500D01*
X203656307Y-50021498D01*
X203622505Y-49987112D01*
X203621875Y-49987612D01*
X203617332Y-49981880D01*
X203613478Y-49975652D01*
X203526537Y-49888862D01*
X203492458Y-49826579D01*
X203497461Y-49755759D01*
X203526382Y-49710671D01*
X203608739Y-49628171D01*
X203617751Y-49616760D01*
X203702816Y-49478757D01*
X203708963Y-49465576D01*
X203760138Y-49311290D01*
X203763005Y-49297914D01*
X203772672Y-49203562D01*
X203773000Y-49197146D01*
X203773000Y-49072115D01*
X203768525Y-49056876D01*
X203767135Y-49055671D01*
X203759452Y-49054000D01*
X201375116Y-49054000D01*
X201359877Y-49058475D01*
X201358672Y-49059865D01*
X201357001Y-49067548D01*
X201357001Y-49197095D01*
X201357338Y-49203614D01*
X201367257Y-49299206D01*
X201370149Y-49312600D01*
X201421588Y-49466784D01*
X201427761Y-49479962D01*
X201513063Y-49617807D01*
X201522099Y-49629208D01*
X201603462Y-49710430D01*
X201637541Y-49772713D01*
X201632538Y-49843533D01*
X201603617Y-49888620D01*
X201520870Y-49971512D01*
X201520866Y-49971517D01*
X201515695Y-49976697D01*
X201422885Y-50127262D01*
X201396609Y-50206481D01*
X201389684Y-50227362D01*
X201367203Y-50295139D01*
X201356500Y-50399600D01*
X201356500Y-51200400D01*
X201356837Y-51203646D01*
X201356837Y-51203650D01*
X201361250Y-51246178D01*
X201367474Y-51306166D01*
X201369655Y-51312702D01*
X201369655Y-51312704D01*
X201373000Y-51322730D01*
X201423450Y-51473946D01*
X201516522Y-51624348D01*
X201641697Y-51749305D01*
X201647927Y-51753145D01*
X201647928Y-51753146D01*
X201785090Y-51837694D01*
X201792262Y-51842115D01*
X201872005Y-51868564D01*
X201953611Y-51895632D01*
X201953613Y-51895632D01*
X201960139Y-51897797D01*
X201966975Y-51898497D01*
X201966978Y-51898498D01*
X202010031Y-51902909D01*
X202064600Y-51908500D01*
X203065400Y-51908500D01*
X203068646Y-51908163D01*
X203068650Y-51908163D01*
X203164308Y-51898238D01*
X203164312Y-51898237D01*
X203171166Y-51897526D01*
X203177702Y-51895345D01*
X203177704Y-51895345D01*
X203310528Y-51851031D01*
X203338946Y-51841550D01*
X203489348Y-51748478D01*
X203614305Y-51623303D01*
X203618146Y-51617072D01*
X203622683Y-51611327D01*
X203624013Y-51612377D01*
X203670107Y-51570892D01*
X203724597Y-51558500D01*
X205314848Y-51558500D01*
X205344202Y-51563818D01*
X205344600Y-51562144D01*
X205352285Y-51563971D01*
X205359684Y-51566745D01*
X205421866Y-51573500D01*
X207318134Y-51573500D01*
X207380316Y-51566745D01*
X207516705Y-51515615D01*
X207633261Y-51428261D01*
X207720615Y-51311705D01*
X207745180Y-51246178D01*
X207787822Y-51189414D01*
X207854383Y-51164714D01*
X207923732Y-51179921D01*
X207943647Y-51193464D01*
X208086069Y-51311705D01*
X208099349Y-51322730D01*
X208299322Y-51439584D01*
X208515694Y-51522209D01*
X208520760Y-51523240D01*
X208520761Y-51523240D01*
X208573846Y-51534040D01*
X208742656Y-51568385D01*
X208872089Y-51573131D01*
X208968949Y-51576683D01*
X208968953Y-51576683D01*
X208974113Y-51576872D01*
X208979233Y-51576216D01*
X208979235Y-51576216D01*
X209053166Y-51566745D01*
X209203847Y-51547442D01*
X209208795Y-51545957D01*
X209208802Y-51545956D01*
X209420747Y-51482369D01*
X209425690Y-51480886D01*
X209430324Y-51478616D01*
X209629049Y-51381262D01*
X209629052Y-51381260D01*
X209633684Y-51378991D01*
X209822243Y-51244494D01*
X209986303Y-51081005D01*
X210002493Y-51058475D01*
X210037248Y-51010108D01*
X210121458Y-50892917D01*
X210224078Y-50685280D01*
X210291408Y-50463671D01*
X210321640Y-50234041D01*
X210321773Y-50228605D01*
X210321920Y-50228147D01*
X210321982Y-50227347D01*
X210322171Y-50227362D01*
X210343437Y-50160994D01*
X210358640Y-50142595D01*
X213438583Y-47062651D01*
X213500895Y-47028625D01*
X213527678Y-47025746D01*
X217875500Y-47025746D01*
X217943621Y-47045748D01*
X217990114Y-47099404D01*
X218001500Y-47151746D01*
X218001500Y-47265380D01*
X218008255Y-47327562D01*
X218059385Y-47463951D01*
X218146739Y-47580507D01*
X218263295Y-47667861D01*
X218399684Y-47718991D01*
X218461866Y-47725746D01*
X220958134Y-47725746D01*
X221020316Y-47718991D01*
X221156705Y-47667861D01*
X221273261Y-47580507D01*
X221360615Y-47463951D01*
X221411745Y-47327562D01*
X221418500Y-47265380D01*
X221418500Y-45269669D01*
X228807001Y-45269669D01*
X228807371Y-45276490D01*
X228812895Y-45327352D01*
X228816521Y-45342604D01*
X228861676Y-45463054D01*
X228870214Y-45478649D01*
X228946715Y-45580724D01*
X228959276Y-45593285D01*
X229061351Y-45669786D01*
X229076946Y-45678324D01*
X229197394Y-45723478D01*
X229212649Y-45727105D01*
X229263514Y-45732631D01*
X229270328Y-45733000D01*
X234442885Y-45733000D01*
X234458124Y-45728525D01*
X234459329Y-45727135D01*
X234461000Y-45719452D01*
X234461000Y-40797115D01*
X234456525Y-40781876D01*
X234455135Y-40780671D01*
X234447452Y-40779000D01*
X228825116Y-40779000D01*
X228809877Y-40783475D01*
X228808672Y-40784865D01*
X228807001Y-40792548D01*
X228807001Y-45269669D01*
X221418500Y-45269669D01*
X221418500Y-44769112D01*
X221411745Y-44706930D01*
X221360615Y-44570541D01*
X221273261Y-44453985D01*
X221156705Y-44366631D01*
X221020316Y-44315501D01*
X220958134Y-44308746D01*
X220844500Y-44308746D01*
X220776379Y-44288744D01*
X220729886Y-44235088D01*
X220718500Y-44182746D01*
X220718500Y-43649926D01*
X220738502Y-43581805D01*
X220755404Y-43560831D01*
X220905592Y-43410643D01*
X220967903Y-43376618D01*
X221038719Y-43381682D01*
X221054229Y-43388694D01*
X221133180Y-43431028D01*
X221134338Y-43431657D01*
X221210388Y-43473465D01*
X221215787Y-43476433D01*
X221220865Y-43478044D01*
X221225563Y-43480563D01*
X221314498Y-43507753D01*
X221315702Y-43508128D01*
X221404306Y-43536235D01*
X221409597Y-43536828D01*
X221414698Y-43538388D01*
X221507311Y-43547795D01*
X221508431Y-43547915D01*
X221558227Y-43553500D01*
X221561756Y-43553500D01*
X221562739Y-43553555D01*
X221568426Y-43554003D01*
X221587874Y-43555978D01*
X221605336Y-43557752D01*
X221605339Y-43557752D01*
X221611463Y-43558374D01*
X221657112Y-43554059D01*
X221668969Y-43553500D01*
X225530621Y-43553500D01*
X225596737Y-43572240D01*
X225715090Y-43645194D01*
X225722262Y-43649615D01*
X225802005Y-43676064D01*
X225883611Y-43703132D01*
X225883613Y-43703132D01*
X225890139Y-43705297D01*
X225896975Y-43705997D01*
X225896978Y-43705998D01*
X225940031Y-43710409D01*
X225994600Y-43716000D01*
X227395400Y-43716000D01*
X227398646Y-43715663D01*
X227398650Y-43715663D01*
X227494308Y-43705738D01*
X227494312Y-43705737D01*
X227501166Y-43705026D01*
X227507702Y-43702845D01*
X227507704Y-43702845D01*
X227639806Y-43658772D01*
X227668946Y-43649050D01*
X227819348Y-43555978D01*
X227944305Y-43430803D01*
X227956732Y-43410643D01*
X228033275Y-43286468D01*
X228033276Y-43286466D01*
X228037115Y-43280238D01*
X228069502Y-43182593D01*
X228090632Y-43118889D01*
X228090632Y-43118887D01*
X228092797Y-43112361D01*
X228103500Y-43007900D01*
X228103500Y-42082100D01*
X228100014Y-42048500D01*
X228093238Y-41983192D01*
X228093237Y-41983188D01*
X228092526Y-41976334D01*
X228078236Y-41933500D01*
X228038868Y-41815502D01*
X228036550Y-41808554D01*
X227943478Y-41658152D01*
X227818303Y-41533195D01*
X227729637Y-41478540D01*
X227673968Y-41444225D01*
X227673966Y-41444224D01*
X227667738Y-41440385D01*
X227567492Y-41407135D01*
X227506389Y-41386868D01*
X227506387Y-41386868D01*
X227499861Y-41384703D01*
X227493025Y-41384003D01*
X227493022Y-41384002D01*
X227449969Y-41379591D01*
X227395400Y-41374000D01*
X225994600Y-41374000D01*
X225991354Y-41374337D01*
X225991350Y-41374337D01*
X225895692Y-41384262D01*
X225895688Y-41384263D01*
X225888834Y-41384974D01*
X225882298Y-41387155D01*
X225882296Y-41387155D01*
X225803331Y-41413500D01*
X225721054Y-41440950D01*
X225714822Y-41444806D01*
X225714823Y-41444806D01*
X225597118Y-41517644D01*
X225530815Y-41536500D01*
X222114500Y-41536500D01*
X222046379Y-41516498D01*
X221999886Y-41462842D01*
X221988500Y-41410500D01*
X221988500Y-39879595D01*
X225287001Y-39879595D01*
X225287338Y-39886114D01*
X225297257Y-39981706D01*
X225300149Y-39995100D01*
X225351588Y-40149284D01*
X225357761Y-40162462D01*
X225443063Y-40300307D01*
X225452099Y-40311708D01*
X225566829Y-40426239D01*
X225578240Y-40435251D01*
X225716243Y-40520316D01*
X225729424Y-40526463D01*
X225883710Y-40577638D01*
X225897086Y-40580505D01*
X225991438Y-40590172D01*
X225997854Y-40590500D01*
X226422885Y-40590500D01*
X226438124Y-40586025D01*
X226439329Y-40584635D01*
X226441000Y-40576952D01*
X226441000Y-40572384D01*
X226949000Y-40572384D01*
X226953475Y-40587623D01*
X226954865Y-40588828D01*
X226962548Y-40590499D01*
X227392095Y-40590499D01*
X227398614Y-40590162D01*
X227494206Y-40580243D01*
X227507600Y-40577351D01*
X227661784Y-40525912D01*
X227674962Y-40519739D01*
X227812807Y-40434437D01*
X227824208Y-40425401D01*
X227938739Y-40310671D01*
X227947751Y-40299260D01*
X228032816Y-40161257D01*
X228038963Y-40148076D01*
X228090138Y-39993790D01*
X228093005Y-39980414D01*
X228102672Y-39886062D01*
X228103000Y-39879646D01*
X228103000Y-39692115D01*
X228098525Y-39676876D01*
X228097135Y-39675671D01*
X228089452Y-39674000D01*
X226967115Y-39674000D01*
X226951876Y-39678475D01*
X226950671Y-39679865D01*
X226949000Y-39687548D01*
X226949000Y-40572384D01*
X226441000Y-40572384D01*
X226441000Y-39692115D01*
X226436525Y-39676876D01*
X226435135Y-39675671D01*
X226427452Y-39674000D01*
X225305116Y-39674000D01*
X225289877Y-39678475D01*
X225288672Y-39679865D01*
X225287001Y-39687548D01*
X225287001Y-39879595D01*
X221988500Y-39879595D01*
X221988500Y-38019669D01*
X222622001Y-38019669D01*
X222622371Y-38026490D01*
X222627895Y-38077352D01*
X222631521Y-38092604D01*
X222676676Y-38213054D01*
X222685214Y-38228649D01*
X222761715Y-38330724D01*
X222774276Y-38343285D01*
X222876351Y-38419786D01*
X222891946Y-38428324D01*
X223012394Y-38473478D01*
X223027649Y-38477105D01*
X223078514Y-38482631D01*
X223085328Y-38483000D01*
X223857885Y-38483000D01*
X223873124Y-38478525D01*
X223874329Y-38477135D01*
X223876000Y-38469452D01*
X223876000Y-37497115D01*
X223871525Y-37481876D01*
X223870135Y-37480671D01*
X223862452Y-37479000D01*
X222640116Y-37479000D01*
X222624877Y-37483475D01*
X222623672Y-37484865D01*
X222622001Y-37492548D01*
X222622001Y-38019669D01*
X221988500Y-38019669D01*
X221988500Y-35394925D01*
X222008502Y-35326804D01*
X222025405Y-35305830D01*
X222406405Y-34924830D01*
X222468717Y-34890804D01*
X222539532Y-34895869D01*
X222596368Y-34938416D01*
X222621179Y-35004936D01*
X222621500Y-35013925D01*
X222621500Y-35723134D01*
X222628255Y-35785316D01*
X222679385Y-35921705D01*
X222714991Y-35969214D01*
X222737953Y-35999852D01*
X222762801Y-36066358D01*
X222747748Y-36135741D01*
X222737953Y-36150982D01*
X222685214Y-36221352D01*
X222676676Y-36236946D01*
X222631522Y-36357394D01*
X222627895Y-36372649D01*
X222622369Y-36423514D01*
X222622000Y-36430328D01*
X222622000Y-36952885D01*
X222626475Y-36968124D01*
X222627865Y-36969329D01*
X222635548Y-36971000D01*
X224258000Y-36971000D01*
X224326121Y-36991002D01*
X224372614Y-37044658D01*
X224384000Y-37097000D01*
X224384000Y-38464884D01*
X224388475Y-38480123D01*
X224389865Y-38481328D01*
X224397548Y-38482999D01*
X225174669Y-38482999D01*
X225181490Y-38482629D01*
X225240207Y-38476252D01*
X225240479Y-38478753D01*
X225299029Y-38481807D01*
X225356674Y-38523250D01*
X225382763Y-38589280D01*
X225369012Y-38658932D01*
X225364542Y-38666804D01*
X225357185Y-38678740D01*
X225351037Y-38691924D01*
X225299862Y-38846210D01*
X225296995Y-38859586D01*
X225287328Y-38953938D01*
X225287000Y-38960355D01*
X225287000Y-39147885D01*
X225291475Y-39163124D01*
X225292865Y-39164329D01*
X225300548Y-39166000D01*
X226422885Y-39166000D01*
X226438124Y-39161525D01*
X226439329Y-39160135D01*
X226441000Y-39152452D01*
X226441000Y-39147885D01*
X226949000Y-39147885D01*
X226953475Y-39163124D01*
X226954865Y-39164329D01*
X226962548Y-39166000D01*
X228084884Y-39166000D01*
X228100123Y-39161525D01*
X228101328Y-39160135D01*
X228102999Y-39152452D01*
X228102999Y-38960405D01*
X228102662Y-38953886D01*
X228092743Y-38858294D01*
X228089851Y-38844900D01*
X228038412Y-38690716D01*
X228032239Y-38677538D01*
X227946937Y-38539693D01*
X227937901Y-38528292D01*
X227823171Y-38413761D01*
X227811760Y-38404749D01*
X227673757Y-38319684D01*
X227660576Y-38313537D01*
X227506290Y-38262362D01*
X227492914Y-38259495D01*
X227398562Y-38249828D01*
X227392145Y-38249500D01*
X226967115Y-38249500D01*
X226951876Y-38253975D01*
X226950671Y-38255365D01*
X226949000Y-38263048D01*
X226949000Y-39147885D01*
X226441000Y-39147885D01*
X226441000Y-38267616D01*
X226436525Y-38252377D01*
X226435135Y-38251172D01*
X226427452Y-38249501D01*
X225997905Y-38249501D01*
X225991386Y-38249838D01*
X225895794Y-38259757D01*
X225882397Y-38262650D01*
X225769908Y-38300178D01*
X225698959Y-38302762D01*
X225637875Y-38266578D01*
X225606051Y-38203114D01*
X225612051Y-38136423D01*
X225628479Y-38092602D01*
X225632105Y-38077351D01*
X225637631Y-38026486D01*
X225638000Y-38019672D01*
X225638000Y-37481897D01*
X225658002Y-37413776D01*
X225711658Y-37367283D01*
X225781932Y-37357179D01*
X225846512Y-37386673D01*
X225862744Y-37403630D01*
X225966035Y-37533953D01*
X225970728Y-37537947D01*
X225970729Y-37537948D01*
X226101051Y-37648860D01*
X226116650Y-37662136D01*
X226289294Y-37758624D01*
X226477392Y-37819740D01*
X226673777Y-37843158D01*
X226679912Y-37842686D01*
X226679914Y-37842686D01*
X226864830Y-37828457D01*
X226864834Y-37828456D01*
X226870972Y-37827984D01*
X227061463Y-37774798D01*
X227066967Y-37772018D01*
X227066969Y-37772017D01*
X227232493Y-37688405D01*
X227232495Y-37688404D01*
X227237996Y-37685625D01*
X227242850Y-37681833D01*
X227242859Y-37681827D01*
X227251548Y-37675038D01*
X227317542Y-37648860D01*
X227390592Y-37664339D01*
X227559294Y-37758624D01*
X227747392Y-37819740D01*
X227943777Y-37843158D01*
X227949912Y-37842686D01*
X227949914Y-37842686D01*
X228134830Y-37828457D01*
X228134834Y-37828456D01*
X228140972Y-37827984D01*
X228331463Y-37774798D01*
X228336967Y-37772018D01*
X228336969Y-37772017D01*
X228502495Y-37688404D01*
X228502497Y-37688403D01*
X228507996Y-37685625D01*
X228603428Y-37611066D01*
X228669421Y-37584888D01*
X228739092Y-37598545D01*
X228790319Y-37647701D01*
X228807000Y-37710355D01*
X228807000Y-40252885D01*
X228811475Y-40268124D01*
X228812865Y-40269329D01*
X228820548Y-40271000D01*
X234843000Y-40271000D01*
X234911121Y-40291002D01*
X234957614Y-40344658D01*
X234969000Y-40397000D01*
X234969000Y-45714884D01*
X234973475Y-45730123D01*
X234974865Y-45731328D01*
X234982548Y-45732999D01*
X240163088Y-45732999D01*
X240163088Y-45734094D01*
X240227772Y-45749332D01*
X240277106Y-45800387D01*
X240291500Y-45858868D01*
X240291500Y-52870075D01*
X240271498Y-52938196D01*
X240254595Y-52959170D01*
X239971338Y-53242427D01*
X239909026Y-53276453D01*
X239838211Y-53271388D01*
X239781375Y-53228841D01*
X239756762Y-53164753D01*
X239755430Y-53150112D01*
X239754427Y-53146703D01*
X239754080Y-53143167D01*
X239726639Y-53052279D01*
X239726414Y-53051525D01*
X239701329Y-52966291D01*
X239699590Y-52960381D01*
X239697942Y-52957228D01*
X239696916Y-52953831D01*
X239652289Y-52869899D01*
X239651922Y-52869201D01*
X239610814Y-52790569D01*
X239607960Y-52785110D01*
X239605735Y-52782342D01*
X239604066Y-52779204D01*
X239568548Y-52735655D01*
X239544059Y-52705628D01*
X239543506Y-52704944D01*
X239487898Y-52635782D01*
X239487892Y-52635776D01*
X239484032Y-52630975D01*
X239481311Y-52628692D01*
X239479065Y-52625938D01*
X239473018Y-52620935D01*
X239446051Y-52598627D01*
X239405864Y-52565381D01*
X239405329Y-52564935D01*
X239359666Y-52526619D01*
X239337247Y-52507807D01*
X239337244Y-52507805D01*
X239332526Y-52503846D01*
X239329411Y-52502134D01*
X239326675Y-52499870D01*
X239243101Y-52454682D01*
X239242363Y-52454279D01*
X239230642Y-52447835D01*
X239159213Y-52408567D01*
X239160078Y-52406993D01*
X239111880Y-52367179D01*
X239090278Y-52299549D01*
X239105724Y-52236068D01*
X239118323Y-52213056D01*
X239163478Y-52092606D01*
X239167105Y-52077351D01*
X239172631Y-52026486D01*
X239173000Y-52019672D01*
X239173000Y-49947115D01*
X239168525Y-49931876D01*
X239167135Y-49930671D01*
X239159452Y-49929000D01*
X237987000Y-49929000D01*
X237918879Y-49908998D01*
X237872386Y-49855342D01*
X237861000Y-49803000D01*
X237861000Y-49402885D01*
X238369000Y-49402885D01*
X238373475Y-49418124D01*
X238374865Y-49419329D01*
X238382548Y-49421000D01*
X239154884Y-49421000D01*
X239170123Y-49416525D01*
X239171328Y-49415135D01*
X239172999Y-49407452D01*
X239172999Y-47330331D01*
X239172629Y-47323510D01*
X239167105Y-47272648D01*
X239163479Y-47257396D01*
X239118324Y-47136946D01*
X239109786Y-47121351D01*
X239033285Y-47019276D01*
X239020724Y-47006715D01*
X238918649Y-46930214D01*
X238903054Y-46921676D01*
X238782606Y-46876522D01*
X238767351Y-46872895D01*
X238716486Y-46867369D01*
X238709672Y-46867000D01*
X238387115Y-46867000D01*
X238371876Y-46871475D01*
X238370671Y-46872865D01*
X238369000Y-46880548D01*
X238369000Y-49402885D01*
X237861000Y-49402885D01*
X237861000Y-46885116D01*
X237856525Y-46869877D01*
X237855135Y-46868672D01*
X237847452Y-46867001D01*
X237520331Y-46867001D01*
X237513510Y-46867371D01*
X237462648Y-46872895D01*
X237447396Y-46876521D01*
X237326939Y-46921679D01*
X237326034Y-46922174D01*
X237325034Y-46922393D01*
X237318538Y-46924828D01*
X237318186Y-46923890D01*
X237256677Y-46937343D01*
X237211788Y-46924162D01*
X237211705Y-46924385D01*
X237208663Y-46923244D01*
X237208656Y-46923242D01*
X237203304Y-46921236D01*
X237203301Y-46921234D01*
X237094770Y-46880548D01*
X237075316Y-46873255D01*
X237013134Y-46866500D01*
X235816866Y-46866500D01*
X235754684Y-46873255D01*
X235735230Y-46880548D01*
X235626699Y-46921234D01*
X235626696Y-46921236D01*
X235618295Y-46924385D01*
X235618036Y-46923693D01*
X235555626Y-46937343D01*
X235511615Y-46924420D01*
X235511462Y-46924828D01*
X235505888Y-46922738D01*
X235503966Y-46922174D01*
X235503061Y-46921679D01*
X235382606Y-46876522D01*
X235367351Y-46872895D01*
X235316486Y-46867369D01*
X235309672Y-46867000D01*
X234987115Y-46867000D01*
X234971876Y-46871475D01*
X234970671Y-46872865D01*
X234969000Y-46880548D01*
X234969000Y-49803000D01*
X234948998Y-49871121D01*
X234895342Y-49917614D01*
X234843000Y-49929000D01*
X234587000Y-49929000D01*
X234518879Y-49908998D01*
X234472386Y-49855342D01*
X234461000Y-49803000D01*
X234461000Y-46885116D01*
X234456525Y-46869877D01*
X234455135Y-46868672D01*
X234447452Y-46867001D01*
X234120331Y-46867001D01*
X234113510Y-46867371D01*
X234062648Y-46872895D01*
X234047396Y-46876521D01*
X233926939Y-46921679D01*
X233926034Y-46922174D01*
X233925034Y-46922393D01*
X233918538Y-46924828D01*
X233918186Y-46923890D01*
X233856677Y-46937343D01*
X233811788Y-46924162D01*
X233811705Y-46924385D01*
X233808663Y-46923244D01*
X233808656Y-46923242D01*
X233803304Y-46921236D01*
X233803301Y-46921234D01*
X233694770Y-46880548D01*
X233675316Y-46873255D01*
X233613134Y-46866500D01*
X232416866Y-46866500D01*
X232354684Y-46873255D01*
X232335230Y-46880548D01*
X232226699Y-46921234D01*
X232226696Y-46921236D01*
X232218295Y-46924385D01*
X232217976Y-46923534D01*
X232156151Y-46937055D01*
X232111834Y-46924042D01*
X232111705Y-46924385D01*
X232107019Y-46922628D01*
X232107015Y-46922627D01*
X232103304Y-46921236D01*
X232103301Y-46921234D01*
X231994770Y-46880548D01*
X231975316Y-46873255D01*
X231913134Y-46866500D01*
X230716866Y-46866500D01*
X230654684Y-46873255D01*
X230518295Y-46924385D01*
X230401739Y-47011739D01*
X230314385Y-47128295D01*
X230263255Y-47264684D01*
X230256500Y-47326866D01*
X230256500Y-52023134D01*
X230263255Y-52085316D01*
X230266027Y-52092709D01*
X230266027Y-52092711D01*
X230298482Y-52179284D01*
X230306500Y-52223513D01*
X230306500Y-54723157D01*
X230305763Y-54736764D01*
X230301676Y-54774388D01*
X230302213Y-54780523D01*
X230306050Y-54824388D01*
X230306379Y-54829214D01*
X230306500Y-54831686D01*
X230306500Y-54834769D01*
X230306801Y-54837837D01*
X230310690Y-54877506D01*
X230310812Y-54878819D01*
X230311945Y-54891771D01*
X230318913Y-54971413D01*
X230320400Y-54976532D01*
X230320920Y-54981833D01*
X230347791Y-55070834D01*
X230348126Y-55071967D01*
X230371807Y-55153473D01*
X230374091Y-55161336D01*
X230376544Y-55166068D01*
X230378084Y-55171169D01*
X230380978Y-55176612D01*
X230421731Y-55253260D01*
X230422343Y-55254426D01*
X230455829Y-55319025D01*
X230465108Y-55336926D01*
X230468431Y-55341089D01*
X230470934Y-55345796D01*
X230529755Y-55417918D01*
X230530446Y-55418774D01*
X230561738Y-55457973D01*
X230564242Y-55460477D01*
X230564884Y-55461195D01*
X230568585Y-55465528D01*
X230595935Y-55499062D01*
X230600682Y-55502989D01*
X230600684Y-55502991D01*
X230631262Y-55528287D01*
X230640042Y-55536277D01*
X233558145Y-58454379D01*
X233567247Y-58464522D01*
X233590968Y-58494025D01*
X233595696Y-58497992D01*
X233629421Y-58526291D01*
X233633069Y-58529472D01*
X233634881Y-58531115D01*
X233637075Y-58533309D01*
X233670349Y-58560642D01*
X233671147Y-58561304D01*
X233742474Y-58621154D01*
X233747144Y-58623722D01*
X233751261Y-58627103D01*
X233833120Y-58670995D01*
X233834280Y-58671624D01*
X233910389Y-58713466D01*
X233910394Y-58713468D01*
X233915787Y-58716433D01*
X233920865Y-58718044D01*
X233925563Y-58720563D01*
X234014498Y-58747753D01*
X234015702Y-58748128D01*
X234104306Y-58776235D01*
X234109597Y-58776828D01*
X234114698Y-58778388D01*
X234207311Y-58787795D01*
X234208431Y-58787915D01*
X234258227Y-58793500D01*
X234261756Y-58793500D01*
X234262739Y-58793555D01*
X234268426Y-58794003D01*
X234288683Y-58796060D01*
X234305336Y-58797752D01*
X234305339Y-58797752D01*
X234311463Y-58798374D01*
X234357112Y-58794059D01*
X234368969Y-58793500D01*
X240165500Y-58793500D01*
X240233621Y-58813502D01*
X240280114Y-58867158D01*
X240291500Y-58919500D01*
X240291500Y-65978157D01*
X240290763Y-65991764D01*
X240290609Y-65993187D01*
X240286676Y-66029388D01*
X240287213Y-66035523D01*
X240291050Y-66079388D01*
X240291379Y-66084214D01*
X240291500Y-66086686D01*
X240291500Y-66089769D01*
X240291801Y-66092837D01*
X240295690Y-66132506D01*
X240295812Y-66133819D01*
X240303913Y-66226413D01*
X240305400Y-66231532D01*
X240305920Y-66236833D01*
X240332791Y-66325834D01*
X240333126Y-66326967D01*
X240348226Y-66378938D01*
X240359091Y-66416336D01*
X240361544Y-66421068D01*
X240363084Y-66426169D01*
X240365978Y-66431612D01*
X240406731Y-66508260D01*
X240407343Y-66509426D01*
X240439068Y-66570628D01*
X240450108Y-66591926D01*
X240453431Y-66596089D01*
X240455934Y-66600796D01*
X240514755Y-66672918D01*
X240515446Y-66673774D01*
X240546738Y-66712973D01*
X240549242Y-66715477D01*
X240549884Y-66716195D01*
X240553585Y-66720528D01*
X240580935Y-66754062D01*
X240585682Y-66757989D01*
X240585684Y-66757991D01*
X240616262Y-66783287D01*
X240625042Y-66791277D01*
X243064595Y-69230829D01*
X243098620Y-69293141D01*
X243101500Y-69319924D01*
X243101500Y-69672969D01*
X243081498Y-69741090D01*
X243064595Y-69762064D01*
X242469095Y-70357564D01*
X242406783Y-70391590D01*
X242335968Y-70386525D01*
X242290905Y-70357564D01*
X237896430Y-65963089D01*
X237893976Y-65960567D01*
X237828893Y-65891743D01*
X237828890Y-65891741D01*
X237825423Y-65888074D01*
X237762994Y-65840344D01*
X237757863Y-65836203D01*
X237701888Y-65788564D01*
X237701887Y-65788563D01*
X237698035Y-65785285D01*
X237693710Y-65782666D01*
X237693705Y-65782662D01*
X237669931Y-65768264D01*
X237658684Y-65760592D01*
X237632581Y-65740635D01*
X237563347Y-65703512D01*
X237557623Y-65700248D01*
X237514722Y-65674266D01*
X237490397Y-65659534D01*
X237459936Y-65647227D01*
X237447596Y-65641447D01*
X237423105Y-65628315D01*
X237423106Y-65628315D01*
X237418646Y-65625924D01*
X237413865Y-65624278D01*
X237413861Y-65624276D01*
X237344354Y-65600343D01*
X237338176Y-65598033D01*
X237270021Y-65570497D01*
X237270022Y-65570497D01*
X237265326Y-65568600D01*
X237233294Y-65561323D01*
X237220196Y-65557592D01*
X237189124Y-65546893D01*
X237111655Y-65533512D01*
X237105251Y-65532232D01*
X237028611Y-65514820D01*
X236995802Y-65512756D01*
X236982302Y-65511170D01*
X236949919Y-65505576D01*
X236945962Y-65505396D01*
X236945959Y-65505396D01*
X236922249Y-65504319D01*
X236922230Y-65504319D01*
X236920830Y-65504255D01*
X236864647Y-65504255D01*
X236856735Y-65504006D01*
X236851141Y-65503654D01*
X236786342Y-65499577D01*
X236747300Y-65503405D01*
X236744763Y-65503654D01*
X236732467Y-65504255D01*
X232348999Y-65504255D01*
X232346491Y-65504457D01*
X232346486Y-65504457D01*
X232173076Y-65518409D01*
X232173071Y-65518410D01*
X232168035Y-65518815D01*
X232163127Y-65520021D01*
X232163124Y-65520021D01*
X231937208Y-65575511D01*
X231932294Y-65576718D01*
X231927642Y-65578693D01*
X231927638Y-65578694D01*
X231824990Y-65622266D01*
X231708844Y-65671567D01*
X231704564Y-65674263D01*
X231704557Y-65674266D01*
X231687713Y-65684874D01*
X231620569Y-65704255D01*
X231561866Y-65704255D01*
X231499684Y-65711010D01*
X231363295Y-65762140D01*
X231246739Y-65849494D01*
X231159385Y-65966050D01*
X231108255Y-66102439D01*
X231101500Y-66164621D01*
X231101500Y-66228033D01*
X231084398Y-66291414D01*
X231045159Y-66358833D01*
X231043345Y-66363559D01*
X231043343Y-66363563D01*
X230975035Y-66541515D01*
X230958167Y-66585457D01*
X230957133Y-66590407D01*
X230957132Y-66590410D01*
X230916048Y-66787071D01*
X230908526Y-66823075D01*
X230897514Y-67065572D01*
X230925415Y-67306711D01*
X230991510Y-67540287D01*
X230993644Y-67544863D01*
X230993646Y-67544869D01*
X231089695Y-67750847D01*
X231101500Y-67804097D01*
X231101500Y-67860889D01*
X231108255Y-67923071D01*
X231159385Y-68059460D01*
X231246739Y-68176016D01*
X231363295Y-68263370D01*
X231499684Y-68314500D01*
X231561866Y-68321255D01*
X231626374Y-68321255D01*
X231685915Y-68336211D01*
X231804109Y-68399586D01*
X232033631Y-68478617D01*
X232132978Y-68495777D01*
X232268926Y-68519259D01*
X232268932Y-68519260D01*
X232272836Y-68519934D01*
X232276797Y-68520114D01*
X232276798Y-68520114D01*
X232300506Y-68521191D01*
X232300525Y-68521191D01*
X232301925Y-68521255D01*
X236135724Y-68521255D01*
X236203845Y-68541257D01*
X236224819Y-68558160D01*
X240834595Y-73167937D01*
X240868621Y-73230249D01*
X240871500Y-73257032D01*
X240871500Y-77952370D01*
X240851498Y-78020491D01*
X240797842Y-78066984D01*
X240727568Y-78077088D01*
X240662988Y-78047594D01*
X240626727Y-77994430D01*
X240621085Y-77978496D01*
X240607617Y-77940465D01*
X240482013Y-77697112D01*
X240324545Y-77473057D01*
X240138125Y-77272445D01*
X240134810Y-77269731D01*
X240134806Y-77269728D01*
X239973304Y-77137540D01*
X239926205Y-77098990D01*
X239692704Y-76955901D01*
X239570580Y-76902292D01*
X239445873Y-76847549D01*
X239445869Y-76847548D01*
X239441945Y-76845825D01*
X239178566Y-76770800D01*
X239174324Y-76770196D01*
X239174318Y-76770195D01*
X239031851Y-76749919D01*
X238923537Y-76734504D01*
X238858916Y-76705103D01*
X238852197Y-76698856D01*
X236033675Y-73880334D01*
X236031221Y-73877812D01*
X235966138Y-73808988D01*
X235966135Y-73808986D01*
X235962668Y-73805319D01*
X235900239Y-73757589D01*
X235895108Y-73753448D01*
X235839133Y-73705809D01*
X235839132Y-73705808D01*
X235835280Y-73702530D01*
X235830955Y-73699911D01*
X235830950Y-73699907D01*
X235807176Y-73685509D01*
X235795929Y-73677837D01*
X235769826Y-73657880D01*
X235700592Y-73620757D01*
X235694868Y-73617493D01*
X235689543Y-73614268D01*
X235627642Y-73576779D01*
X235597181Y-73564472D01*
X235584841Y-73558692D01*
X235581350Y-73556820D01*
X235555891Y-73543169D01*
X235551110Y-73541523D01*
X235551106Y-73541521D01*
X235481599Y-73517588D01*
X235475421Y-73515278D01*
X235407266Y-73487742D01*
X235407267Y-73487742D01*
X235402571Y-73485845D01*
X235370539Y-73478568D01*
X235357441Y-73474837D01*
X235326369Y-73464138D01*
X235248900Y-73450757D01*
X235242496Y-73449477D01*
X235165856Y-73432065D01*
X235133047Y-73430001D01*
X235119547Y-73428415D01*
X235087164Y-73422821D01*
X235083207Y-73422641D01*
X235083204Y-73422641D01*
X235059494Y-73421564D01*
X235059475Y-73421564D01*
X235058075Y-73421500D01*
X235001892Y-73421500D01*
X234993980Y-73421251D01*
X234988386Y-73420899D01*
X234923587Y-73416822D01*
X234884545Y-73420650D01*
X234882008Y-73420899D01*
X234869712Y-73421500D01*
X231164016Y-73421500D01*
X231160498Y-73421451D01*
X231065850Y-73418807D01*
X231065847Y-73418807D01*
X231060795Y-73418666D01*
X230982902Y-73429059D01*
X230976361Y-73429758D01*
X230951617Y-73431749D01*
X230903077Y-73435654D01*
X230903073Y-73435655D01*
X230898035Y-73436060D01*
X230866122Y-73443899D01*
X230852742Y-73446426D01*
X230820180Y-73450771D01*
X230815339Y-73452232D01*
X230815337Y-73452233D01*
X230744971Y-73473478D01*
X230738610Y-73475219D01*
X230662294Y-73493963D01*
X230657634Y-73495941D01*
X230632049Y-73506801D01*
X230619239Y-73511438D01*
X230587792Y-73520933D01*
X230583244Y-73523151D01*
X230583237Y-73523154D01*
X230517182Y-73555371D01*
X230511180Y-73558107D01*
X230467192Y-73576779D01*
X230438844Y-73588812D01*
X230431459Y-73593463D01*
X230411044Y-73606319D01*
X230399140Y-73612945D01*
X230369612Y-73627346D01*
X230365475Y-73630265D01*
X230365474Y-73630265D01*
X230305403Y-73672641D01*
X230299914Y-73676301D01*
X230262429Y-73699907D01*
X230233433Y-73718167D01*
X230229644Y-73721508D01*
X230229638Y-73721512D01*
X230208783Y-73739898D01*
X230198088Y-73748344D01*
X230171253Y-73767274D01*
X230149750Y-73786909D01*
X230110034Y-73826625D01*
X230104264Y-73832044D01*
X230055142Y-73875350D01*
X230055139Y-73875353D01*
X230051345Y-73878698D01*
X230048135Y-73882606D01*
X230048134Y-73882607D01*
X230024821Y-73910989D01*
X230016551Y-73920108D01*
X228958595Y-74978064D01*
X228896283Y-75012090D01*
X228825468Y-75007025D01*
X228768632Y-74964478D01*
X228743821Y-74897958D01*
X228743500Y-74888969D01*
X228743500Y-73456866D01*
X228736745Y-73394684D01*
X228685615Y-73258295D01*
X228598261Y-73141739D01*
X228481705Y-73054385D01*
X228345316Y-73003255D01*
X228283134Y-72996500D01*
X228209474Y-72996500D01*
X228141353Y-72976498D01*
X228094860Y-72922842D01*
X228087468Y-72894519D01*
X228085887Y-72894835D01*
X228084454Y-72887662D01*
X228083860Y-72880363D01*
X228081603Y-72873397D01*
X228080413Y-72867440D01*
X228079029Y-72861585D01*
X228078182Y-72854319D01*
X228053265Y-72785673D01*
X228051848Y-72781545D01*
X228031607Y-72719064D01*
X228031606Y-72719062D01*
X228029351Y-72712101D01*
X228025555Y-72705846D01*
X228023049Y-72700372D01*
X228020330Y-72694942D01*
X228017833Y-72688063D01*
X227977809Y-72627016D01*
X227975472Y-72623312D01*
X227940509Y-72565693D01*
X227940505Y-72565688D01*
X227937595Y-72560892D01*
X227930197Y-72552516D01*
X227930223Y-72552493D01*
X227927574Y-72549503D01*
X227924866Y-72546264D01*
X227920856Y-72540148D01*
X227915549Y-72535121D01*
X227915546Y-72535117D01*
X227864617Y-72486872D01*
X227862175Y-72484494D01*
X221089609Y-65711928D01*
X221055583Y-65649616D01*
X221053782Y-65606389D01*
X221071529Y-65471590D01*
X221073156Y-65405000D01*
X221054852Y-65182361D01*
X221000431Y-64965702D01*
X220911354Y-64760840D01*
X220866031Y-64690781D01*
X220806537Y-64598817D01*
X231688493Y-64598817D01*
X231697789Y-64610832D01*
X231748994Y-64646686D01*
X231758489Y-64652169D01*
X231955947Y-64744245D01*
X231966239Y-64747991D01*
X232176688Y-64804380D01*
X232187481Y-64806283D01*
X232404525Y-64825272D01*
X232415475Y-64825272D01*
X232632519Y-64806283D01*
X232643312Y-64804380D01*
X232853761Y-64747991D01*
X232864053Y-64744245D01*
X233061511Y-64652169D01*
X233071006Y-64646686D01*
X233123048Y-64610246D01*
X233131424Y-64599767D01*
X233124356Y-64586321D01*
X232422812Y-63884777D01*
X232408868Y-63877163D01*
X232407035Y-63877294D01*
X232400420Y-63881545D01*
X231694923Y-64587042D01*
X231688493Y-64598817D01*
X220806537Y-64598817D01*
X220792822Y-64577617D01*
X220792820Y-64577614D01*
X220790014Y-64573277D01*
X220639670Y-64408051D01*
X220635619Y-64404852D01*
X220635615Y-64404848D01*
X220468414Y-64272800D01*
X220468410Y-64272798D01*
X220464359Y-64269598D01*
X220459742Y-64267049D01*
X220388348Y-64227638D01*
X220268789Y-64161638D01*
X220263920Y-64159914D01*
X220263916Y-64159912D01*
X220063087Y-64088795D01*
X220063083Y-64088794D01*
X220058212Y-64087069D01*
X220053119Y-64086162D01*
X220053116Y-64086161D01*
X219843373Y-64048800D01*
X219843367Y-64048799D01*
X219838284Y-64047894D01*
X219764452Y-64046992D01*
X219620081Y-64045228D01*
X219620079Y-64045228D01*
X219614911Y-64045165D01*
X219394091Y-64078955D01*
X219181756Y-64148357D01*
X218983607Y-64251507D01*
X218979474Y-64254610D01*
X218979471Y-64254612D01*
X218809100Y-64382530D01*
X218804965Y-64385635D01*
X218743135Y-64450337D01*
X218724283Y-64470064D01*
X218662759Y-64505494D01*
X218591846Y-64502037D01*
X218534060Y-64460791D01*
X218515207Y-64427243D01*
X218473767Y-64316703D01*
X218470615Y-64308295D01*
X218383261Y-64191739D01*
X218266705Y-64104385D01*
X218130316Y-64053255D01*
X218068134Y-64046500D01*
X216271866Y-64046500D01*
X216209684Y-64053255D01*
X216073295Y-64104385D01*
X215956739Y-64191739D01*
X215869385Y-64308295D01*
X215818255Y-64444684D01*
X215811500Y-64506866D01*
X215811500Y-66303134D01*
X215818255Y-66365316D01*
X215869385Y-66501705D01*
X215956739Y-66618261D01*
X216073295Y-66705615D01*
X216209684Y-66756745D01*
X216271866Y-66763500D01*
X218068134Y-66763500D01*
X218130316Y-66756745D01*
X218266705Y-66705615D01*
X218383261Y-66618261D01*
X218470615Y-66501705D01*
X218496892Y-66431612D01*
X218514598Y-66384382D01*
X218557240Y-66327618D01*
X218623802Y-66302918D01*
X218693150Y-66318126D01*
X218727817Y-66346114D01*
X218756250Y-66378938D01*
X218928126Y-66521632D01*
X219121000Y-66634338D01*
X219329692Y-66714030D01*
X219334760Y-66715061D01*
X219334763Y-66715062D01*
X219415898Y-66731569D01*
X219548597Y-66758567D01*
X219553772Y-66758757D01*
X219553774Y-66758757D01*
X219766673Y-66766564D01*
X219766677Y-66766564D01*
X219771837Y-66766753D01*
X219911908Y-66748809D01*
X219982017Y-66759993D01*
X220017012Y-66784693D01*
X222789603Y-69557284D01*
X222823629Y-69619596D01*
X222818564Y-69690411D01*
X222776017Y-69747247D01*
X222719567Y-69770929D01*
X222718914Y-69771029D01*
X222569091Y-69793955D01*
X222356756Y-69863357D01*
X222158607Y-69966507D01*
X222154474Y-69969610D01*
X222154471Y-69969612D01*
X221984100Y-70097530D01*
X221979965Y-70100635D01*
X221976393Y-70104373D01*
X221868729Y-70217037D01*
X221825629Y-70262138D01*
X221718201Y-70419621D01*
X221663293Y-70464621D01*
X221592768Y-70472792D01*
X221529021Y-70441538D01*
X221508324Y-70417054D01*
X221427822Y-70292617D01*
X221427820Y-70292614D01*
X221425014Y-70288277D01*
X221274670Y-70123051D01*
X221270619Y-70119852D01*
X221270615Y-70119848D01*
X221103414Y-69987800D01*
X221103410Y-69987798D01*
X221099359Y-69984598D01*
X220903789Y-69876638D01*
X220898920Y-69874914D01*
X220898916Y-69874912D01*
X220698087Y-69803795D01*
X220698083Y-69803794D01*
X220693212Y-69802069D01*
X220688119Y-69801162D01*
X220688116Y-69801161D01*
X220478373Y-69763800D01*
X220478367Y-69763799D01*
X220473284Y-69762894D01*
X220399452Y-69761992D01*
X220255081Y-69760228D01*
X220255079Y-69760228D01*
X220249911Y-69760165D01*
X220029091Y-69793955D01*
X219816756Y-69863357D01*
X219618607Y-69966507D01*
X219614474Y-69969610D01*
X219614471Y-69969612D01*
X219444100Y-70097530D01*
X219439965Y-70100635D01*
X219436393Y-70104373D01*
X219328729Y-70217037D01*
X219285629Y-70262138D01*
X219178201Y-70419621D01*
X219123293Y-70464621D01*
X219052768Y-70472792D01*
X218989021Y-70441538D01*
X218968324Y-70417054D01*
X218887822Y-70292617D01*
X218887820Y-70292614D01*
X218885014Y-70288277D01*
X218734670Y-70123051D01*
X218730619Y-70119852D01*
X218730615Y-70119848D01*
X218563414Y-69987800D01*
X218563410Y-69987798D01*
X218559359Y-69984598D01*
X218363789Y-69876638D01*
X218358920Y-69874914D01*
X218358916Y-69874912D01*
X218158087Y-69803795D01*
X218158083Y-69803794D01*
X218153212Y-69802069D01*
X218148119Y-69801162D01*
X218148116Y-69801161D01*
X217938373Y-69763800D01*
X217938367Y-69763799D01*
X217933284Y-69762894D01*
X217859452Y-69761992D01*
X217715081Y-69760228D01*
X217715079Y-69760228D01*
X217709911Y-69760165D01*
X217489091Y-69793955D01*
X217276756Y-69863357D01*
X217078607Y-69966507D01*
X217074474Y-69969610D01*
X217074471Y-69969612D01*
X216904100Y-70097530D01*
X216899965Y-70100635D01*
X216843537Y-70159684D01*
X216819283Y-70185064D01*
X216757759Y-70220494D01*
X216686846Y-70217037D01*
X216629060Y-70175791D01*
X216610207Y-70142243D01*
X216568767Y-70031703D01*
X216565615Y-70023295D01*
X216478261Y-69906739D01*
X216361705Y-69819385D01*
X216225316Y-69768255D01*
X216163134Y-69761500D01*
X214366866Y-69761500D01*
X214304684Y-69768255D01*
X214168295Y-69819385D01*
X214051739Y-69906739D01*
X213964385Y-70023295D01*
X213913255Y-70159684D01*
X213906500Y-70221866D01*
X213906500Y-72018134D01*
X213913255Y-72080316D01*
X213964385Y-72216705D01*
X214051739Y-72333261D01*
X214168295Y-72420615D01*
X214304684Y-72471745D01*
X214366866Y-72478500D01*
X216163134Y-72478500D01*
X216225316Y-72471745D01*
X216361705Y-72420615D01*
X216478261Y-72333261D01*
X216565615Y-72216705D01*
X216587799Y-72157529D01*
X216609598Y-72099382D01*
X216652240Y-72042618D01*
X216718802Y-72017918D01*
X216788150Y-72033126D01*
X216822817Y-72061114D01*
X216851250Y-72093938D01*
X217023126Y-72236632D01*
X217216000Y-72349338D01*
X217220825Y-72351180D01*
X217220826Y-72351181D01*
X217253317Y-72363588D01*
X217424692Y-72429030D01*
X217429760Y-72430061D01*
X217429763Y-72430062D01*
X217487915Y-72441893D01*
X217643597Y-72473567D01*
X217648772Y-72473757D01*
X217648774Y-72473757D01*
X217861673Y-72481564D01*
X217861677Y-72481564D01*
X217866837Y-72481753D01*
X217871957Y-72481097D01*
X217871959Y-72481097D01*
X218083288Y-72454025D01*
X218083289Y-72454025D01*
X218088416Y-72453368D01*
X218126664Y-72441893D01*
X218297429Y-72390661D01*
X218297434Y-72390659D01*
X218302384Y-72389174D01*
X218502994Y-72290896D01*
X218684860Y-72161173D01*
X218843096Y-72003489D01*
X218973453Y-71822077D01*
X218974776Y-71823028D01*
X219021645Y-71779857D01*
X219091580Y-71767625D01*
X219157026Y-71795144D01*
X219184875Y-71826994D01*
X219200565Y-71852598D01*
X219244987Y-71925088D01*
X219391250Y-72093938D01*
X219539124Y-72216705D01*
X219540985Y-72218250D01*
X219580620Y-72277152D01*
X219586500Y-72315194D01*
X219586500Y-72891507D01*
X219566498Y-72959628D01*
X219512842Y-73006121D01*
X219479560Y-73016057D01*
X219420080Y-73025159D01*
X219387464Y-73030150D01*
X219167314Y-73102106D01*
X219162726Y-73104494D01*
X219162722Y-73104496D01*
X218974009Y-73202734D01*
X218961872Y-73209052D01*
X218957739Y-73212155D01*
X218957736Y-73212157D01*
X218818971Y-73316345D01*
X218776655Y-73348117D01*
X218773083Y-73351855D01*
X218655194Y-73475219D01*
X218616639Y-73515564D01*
X218549306Y-73614271D01*
X218494397Y-73659271D01*
X218423872Y-73667442D01*
X218360125Y-73636188D01*
X218339428Y-73611705D01*
X218297571Y-73547004D01*
X218294764Y-73542665D01*
X218280325Y-73526796D01*
X218236440Y-73478568D01*
X218138887Y-73371358D01*
X218134836Y-73368159D01*
X218134832Y-73368155D01*
X217961177Y-73231011D01*
X217961172Y-73231008D01*
X217957123Y-73227810D01*
X217952607Y-73225317D01*
X217952604Y-73225315D01*
X217758879Y-73118373D01*
X217758875Y-73118371D01*
X217754355Y-73115876D01*
X217749486Y-73114152D01*
X217749482Y-73114150D01*
X217540903Y-73040288D01*
X217540899Y-73040287D01*
X217536028Y-73038562D01*
X217530935Y-73037655D01*
X217530932Y-73037654D01*
X217313095Y-72998851D01*
X217313089Y-72998850D01*
X217308006Y-72997945D01*
X217235096Y-72997054D01*
X217081581Y-72995179D01*
X217081579Y-72995179D01*
X217076411Y-72995116D01*
X216847464Y-73030150D01*
X216627314Y-73102106D01*
X216622726Y-73104494D01*
X216622722Y-73104496D01*
X216434009Y-73202734D01*
X216421872Y-73209052D01*
X216417739Y-73212155D01*
X216417736Y-73212157D01*
X216278971Y-73316345D01*
X216236655Y-73348117D01*
X216233083Y-73351855D01*
X216115194Y-73475219D01*
X216076639Y-73515564D01*
X216009306Y-73614271D01*
X215954397Y-73659271D01*
X215883872Y-73667442D01*
X215820125Y-73636188D01*
X215799428Y-73611705D01*
X215757571Y-73547004D01*
X215754764Y-73542665D01*
X215740325Y-73526796D01*
X215696440Y-73478568D01*
X215598887Y-73371358D01*
X215594836Y-73368159D01*
X215594832Y-73368155D01*
X215421177Y-73231011D01*
X215421172Y-73231008D01*
X215417123Y-73227810D01*
X215412607Y-73225317D01*
X215412604Y-73225315D01*
X215218879Y-73118373D01*
X215218875Y-73118371D01*
X215214355Y-73115876D01*
X215209486Y-73114152D01*
X215209482Y-73114150D01*
X215000903Y-73040288D01*
X215000899Y-73040287D01*
X214996028Y-73038562D01*
X214990935Y-73037655D01*
X214990932Y-73037654D01*
X214773095Y-72998851D01*
X214773089Y-72998850D01*
X214768006Y-72997945D01*
X214695096Y-72997054D01*
X214541581Y-72995179D01*
X214541579Y-72995179D01*
X214536411Y-72995116D01*
X214307464Y-73030150D01*
X214087314Y-73102106D01*
X214082726Y-73104494D01*
X214082722Y-73104496D01*
X213894009Y-73202734D01*
X213881872Y-73209052D01*
X213877739Y-73212155D01*
X213877736Y-73212157D01*
X213805153Y-73266654D01*
X213738668Y-73291560D01*
X213669272Y-73276568D01*
X213618999Y-73226437D01*
X213603500Y-73165894D01*
X213603500Y-64799002D01*
X213603549Y-64795483D01*
X213606193Y-64700850D01*
X213606193Y-64700847D01*
X213606334Y-64695795D01*
X213595941Y-64617902D01*
X213595241Y-64611353D01*
X213594233Y-64598817D01*
X213588940Y-64533035D01*
X213581101Y-64501122D01*
X213578573Y-64487738D01*
X213574898Y-64460194D01*
X213574229Y-64455180D01*
X213560000Y-64408051D01*
X213551522Y-64379971D01*
X213549781Y-64373608D01*
X213532244Y-64302209D01*
X213531037Y-64297294D01*
X213518199Y-64267048D01*
X213513561Y-64254237D01*
X213512737Y-64251507D01*
X213504067Y-64222792D01*
X213501849Y-64218244D01*
X213501846Y-64218237D01*
X213469629Y-64152182D01*
X213466893Y-64146180D01*
X213441416Y-64086161D01*
X213436188Y-64073844D01*
X213419806Y-64047831D01*
X213418681Y-64046044D01*
X213412052Y-64034134D01*
X213397654Y-64004612D01*
X213352357Y-63940400D01*
X213348699Y-63934914D01*
X213309529Y-63872714D01*
X213309528Y-63872713D01*
X213306833Y-63868433D01*
X213303492Y-63864644D01*
X213303488Y-63864638D01*
X213285102Y-63843783D01*
X213276656Y-63833088D01*
X213260009Y-63809490D01*
X213257726Y-63806253D01*
X213238091Y-63784750D01*
X213198375Y-63745034D01*
X213192956Y-63739264D01*
X213149650Y-63690142D01*
X213149647Y-63690139D01*
X213146302Y-63686345D01*
X213114011Y-63659821D01*
X213104892Y-63651551D01*
X212971571Y-63518230D01*
X231097483Y-63518230D01*
X231116472Y-63735274D01*
X231118375Y-63746067D01*
X231174764Y-63956516D01*
X231178510Y-63966808D01*
X231270586Y-64164266D01*
X231276069Y-64173761D01*
X231312509Y-64225803D01*
X231322988Y-64234179D01*
X231336434Y-64227111D01*
X232037978Y-63525567D01*
X232044356Y-63513887D01*
X232774408Y-63513887D01*
X232774539Y-63515720D01*
X232778790Y-63522335D01*
X233484287Y-64227832D01*
X233496062Y-64234262D01*
X233508077Y-64224966D01*
X233543931Y-64173761D01*
X233549414Y-64164266D01*
X233641490Y-63966808D01*
X233645236Y-63956516D01*
X233701625Y-63746067D01*
X233703528Y-63735274D01*
X233722517Y-63518230D01*
X233722517Y-63507280D01*
X233703528Y-63290236D01*
X233701625Y-63279443D01*
X233645236Y-63068994D01*
X233641490Y-63058702D01*
X233549414Y-62861244D01*
X233543931Y-62851749D01*
X233507491Y-62799707D01*
X233497012Y-62791331D01*
X233483566Y-62798399D01*
X232782022Y-63499943D01*
X232774408Y-63513887D01*
X232044356Y-63513887D01*
X232045592Y-63511623D01*
X232045461Y-63509790D01*
X232041210Y-63503175D01*
X231335713Y-62797678D01*
X231323938Y-62791248D01*
X231311923Y-62800544D01*
X231276069Y-62851749D01*
X231270586Y-62861244D01*
X231178510Y-63058702D01*
X231174764Y-63068994D01*
X231118375Y-63279443D01*
X231116472Y-63290236D01*
X231097483Y-63507280D01*
X231097483Y-63518230D01*
X212971571Y-63518230D01*
X211879084Y-62425743D01*
X231688576Y-62425743D01*
X231695644Y-62439189D01*
X232397188Y-63140733D01*
X232411132Y-63148347D01*
X232412965Y-63148216D01*
X232419580Y-63143965D01*
X233125077Y-62438468D01*
X233131507Y-62426693D01*
X233122211Y-62414678D01*
X233071006Y-62378824D01*
X233061511Y-62373341D01*
X232864053Y-62281265D01*
X232853761Y-62277519D01*
X232643312Y-62221130D01*
X232632519Y-62219227D01*
X232415475Y-62200238D01*
X232404525Y-62200238D01*
X232187481Y-62219227D01*
X232176688Y-62221130D01*
X231966239Y-62277519D01*
X231955947Y-62281265D01*
X231758489Y-62373341D01*
X231748994Y-62378824D01*
X231696952Y-62415264D01*
X231688576Y-62425743D01*
X211879084Y-62425743D01*
X209690405Y-60237064D01*
X209656379Y-60174752D01*
X209653500Y-60147969D01*
X209653500Y-58776866D01*
X209646745Y-58714684D01*
X209595615Y-58578295D01*
X209508261Y-58461739D01*
X209391705Y-58374385D01*
X209255316Y-58323255D01*
X209193134Y-58316500D01*
X206096866Y-58316500D01*
X206034684Y-58323255D01*
X205898295Y-58374385D01*
X205781739Y-58461739D01*
X205694385Y-58578295D01*
X205643255Y-58714684D01*
X205636500Y-58776866D01*
X205636500Y-61873134D01*
X205643255Y-61935316D01*
X205694385Y-62071705D01*
X205781739Y-62188261D01*
X205898295Y-62275615D01*
X206034684Y-62326745D01*
X206096866Y-62333500D01*
X207467969Y-62333500D01*
X207536090Y-62353502D01*
X207557064Y-62370405D01*
X208513617Y-63326958D01*
X208547643Y-63389270D01*
X208542578Y-63460085D01*
X208500031Y-63516921D01*
X208433511Y-63541732D01*
X208373877Y-63531427D01*
X208326945Y-63510825D01*
X208063566Y-63435800D01*
X208059324Y-63435196D01*
X208059318Y-63435195D01*
X207858834Y-63406662D01*
X207792443Y-63397213D01*
X207648589Y-63396460D01*
X207522877Y-63395802D01*
X207522871Y-63395802D01*
X207518591Y-63395780D01*
X207514347Y-63396339D01*
X207514343Y-63396339D01*
X207395302Y-63412011D01*
X207247078Y-63431525D01*
X207242938Y-63432658D01*
X207242936Y-63432658D01*
X207170008Y-63452609D01*
X206982928Y-63503788D01*
X206978980Y-63505472D01*
X206734982Y-63609546D01*
X206734978Y-63609548D01*
X206731030Y-63611232D01*
X206656368Y-63655916D01*
X206499725Y-63749664D01*
X206499721Y-63749667D01*
X206496043Y-63751868D01*
X206282318Y-63923094D01*
X206233341Y-63974705D01*
X206125074Y-64088795D01*
X206093808Y-64121742D01*
X205934002Y-64344136D01*
X205805857Y-64586161D01*
X205804385Y-64590184D01*
X205804383Y-64590188D01*
X205737671Y-64772485D01*
X205711743Y-64843337D01*
X205653404Y-65110907D01*
X205631917Y-65383918D01*
X205647682Y-65657320D01*
X205648507Y-65661525D01*
X205648508Y-65661533D01*
X205675298Y-65798079D01*
X205700405Y-65926053D01*
X205701792Y-65930103D01*
X205701793Y-65930108D01*
X205763485Y-66110295D01*
X205789112Y-66185144D01*
X205842560Y-66291414D01*
X205879729Y-66365316D01*
X205912160Y-66429799D01*
X205914586Y-66433328D01*
X205914589Y-66433334D01*
X206054003Y-66636181D01*
X206067274Y-66655490D01*
X206070163Y-66658665D01*
X206103693Y-66695514D01*
X206134745Y-66759360D01*
X206136500Y-66780314D01*
X206136500Y-71712969D01*
X206116498Y-71781090D01*
X206099595Y-71802064D01*
X205325334Y-72576325D01*
X205322812Y-72578779D01*
X205271786Y-72627032D01*
X205250319Y-72647332D01*
X205247252Y-72651344D01*
X205202592Y-72709757D01*
X205198448Y-72714892D01*
X205147530Y-72774720D01*
X205144911Y-72779045D01*
X205144907Y-72779050D01*
X205130509Y-72802824D01*
X205122837Y-72814071D01*
X205102880Y-72840174D01*
X205100490Y-72844632D01*
X205100489Y-72844633D01*
X205091860Y-72860726D01*
X205068357Y-72904560D01*
X205065761Y-72909401D01*
X205062496Y-72915126D01*
X205021779Y-72982358D01*
X205012178Y-73006121D01*
X205009473Y-73012817D01*
X205003693Y-73025158D01*
X204988169Y-73054109D01*
X204986523Y-73058890D01*
X204986521Y-73058894D01*
X204962588Y-73128401D01*
X204960278Y-73134579D01*
X204950119Y-73159724D01*
X204930845Y-73207429D01*
X204925078Y-73232813D01*
X204923568Y-73239460D01*
X204919837Y-73252559D01*
X204909138Y-73283631D01*
X204895757Y-73361100D01*
X204894477Y-73367504D01*
X204877065Y-73444144D01*
X204875001Y-73476953D01*
X204873415Y-73490453D01*
X204867821Y-73522836D01*
X204867641Y-73526793D01*
X204867641Y-73526796D01*
X204866898Y-73543169D01*
X204866500Y-73551925D01*
X204866500Y-73608108D01*
X204866251Y-73616019D01*
X204861822Y-73686413D01*
X204863724Y-73705809D01*
X204865899Y-73727992D01*
X204866500Y-73740288D01*
X204866500Y-78080984D01*
X204866451Y-78084502D01*
X204864009Y-78171941D01*
X204863666Y-78184205D01*
X204864335Y-78189219D01*
X204874058Y-78262086D01*
X204874759Y-78268647D01*
X204880173Y-78335937D01*
X204881060Y-78346965D01*
X204888897Y-78378870D01*
X204891426Y-78392258D01*
X204895771Y-78424820D01*
X204897232Y-78429661D01*
X204897233Y-78429663D01*
X204918478Y-78500029D01*
X204920219Y-78506390D01*
X204938963Y-78582706D01*
X204940941Y-78587366D01*
X204951801Y-78612951D01*
X204956438Y-78625761D01*
X204965933Y-78657208D01*
X204968152Y-78661757D01*
X204969897Y-78665335D01*
X204981783Y-78735329D01*
X204953940Y-78800639D01*
X204895208Y-78840527D01*
X204824235Y-78842331D01*
X204769917Y-78811969D01*
X204714605Y-78759480D01*
X204709415Y-78755062D01*
X204429813Y-78542064D01*
X204424187Y-78538240D01*
X204123214Y-78356681D01*
X204117202Y-78353484D01*
X203798370Y-78205487D01*
X203792070Y-78202967D01*
X203459129Y-78090273D01*
X203452551Y-78088437D01*
X203109417Y-78012367D01*
X203102678Y-78011251D01*
X202753310Y-77972680D01*
X202746529Y-77972301D01*
X202395015Y-77971687D01*
X202388242Y-77972042D01*
X202038720Y-78009395D01*
X202032010Y-78010482D01*
X201688586Y-78085361D01*
X201682011Y-78087172D01*
X201348683Y-78198702D01*
X201342361Y-78201205D01*
X201023034Y-78348079D01*
X201016991Y-78351265D01*
X200715401Y-78531763D01*
X200709755Y-78535571D01*
X200429408Y-78747596D01*
X200424211Y-78751987D01*
X200422972Y-78753155D01*
X200414950Y-78766862D01*
X199390000Y-78766862D01*
X199390000Y-54890605D01*
X218701386Y-54890605D01*
X218710099Y-54902125D01*
X218798586Y-54967006D01*
X218806505Y-54971954D01*
X219022877Y-55085793D01*
X219031451Y-55089521D01*
X219262282Y-55170131D01*
X219271291Y-55172545D01*
X219511518Y-55218154D01*
X219520775Y-55219208D01*
X219765107Y-55228809D01*
X219774420Y-55228483D01*
X220017478Y-55201864D01*
X220026655Y-55200163D01*
X220263107Y-55137911D01*
X220271926Y-55134874D01*
X220496584Y-55038353D01*
X220504856Y-55034046D01*
X220712777Y-54905381D01*
X220714620Y-54904042D01*
X220722038Y-54892787D01*
X220715974Y-54882430D01*
X219722812Y-53889268D01*
X219708868Y-53881654D01*
X219707035Y-53881785D01*
X219700420Y-53886036D01*
X218708044Y-54878412D01*
X218701386Y-54890605D01*
X199390000Y-54890605D01*
X199390000Y-53477081D01*
X217998022Y-53477081D01*
X218009754Y-53721310D01*
X218010891Y-53730570D01*
X218058593Y-53970389D01*
X218061082Y-53979364D01*
X218143708Y-54209496D01*
X218147505Y-54218024D01*
X218263234Y-54433406D01*
X218268245Y-54441273D01*
X218325173Y-54517509D01*
X218336431Y-54525958D01*
X218348850Y-54519186D01*
X219337978Y-53530058D01*
X219344356Y-53518378D01*
X220074408Y-53518378D01*
X220074539Y-53520211D01*
X220078790Y-53526826D01*
X221073732Y-54521768D01*
X221086112Y-54528528D01*
X221094453Y-54522284D01*
X221212700Y-54338448D01*
X221217147Y-54330257D01*
X221317572Y-54107322D01*
X221320767Y-54098544D01*
X221387135Y-53863219D01*
X221388993Y-53854090D01*
X221420044Y-53610016D01*
X221420525Y-53603729D01*
X221422706Y-53520406D01*
X221422555Y-53514097D01*
X221404321Y-53268732D01*
X221402944Y-53259526D01*
X221348979Y-53021032D01*
X221346255Y-53012121D01*
X221257633Y-52784229D01*
X221253619Y-52775813D01*
X221132284Y-52563522D01*
X221127074Y-52555799D01*
X221095787Y-52516111D01*
X221083863Y-52507641D01*
X221072328Y-52514128D01*
X220082022Y-53504434D01*
X220074408Y-53518378D01*
X219344356Y-53518378D01*
X219345592Y-53516114D01*
X219345461Y-53514281D01*
X219341210Y-53507666D01*
X218346828Y-52513284D01*
X218333520Y-52506017D01*
X218323481Y-52513139D01*
X218318581Y-52519030D01*
X218313168Y-52526619D01*
X218186322Y-52735655D01*
X218182084Y-52743972D01*
X218087529Y-52969460D01*
X218084572Y-52978298D01*
X218024384Y-53215288D01*
X218022763Y-53224478D01*
X217998267Y-53467756D01*
X217998022Y-53477081D01*
X199390000Y-53477081D01*
X199390000Y-52142163D01*
X218699330Y-52142163D01*
X218703903Y-52151939D01*
X219697188Y-53145224D01*
X219711132Y-53152838D01*
X219712965Y-53152707D01*
X219719580Y-53148456D01*
X220712488Y-52155548D01*
X220718872Y-52143858D01*
X220709460Y-52131748D01*
X220583144Y-52044119D01*
X220575116Y-52039391D01*
X220355810Y-51931241D01*
X220347177Y-51927753D01*
X220114288Y-51853204D01*
X220105238Y-51851031D01*
X219863891Y-51811726D01*
X219854602Y-51810914D01*
X219610114Y-51807713D01*
X219600803Y-51808283D01*
X219358522Y-51841256D01*
X219349403Y-51843194D01*
X219114668Y-51911613D01*
X219105915Y-51914885D01*
X218883869Y-52017250D01*
X218875714Y-52021770D01*
X218708468Y-52131421D01*
X218699330Y-52142163D01*
X199390000Y-52142163D01*
X199390000Y-48527885D01*
X201357000Y-48527885D01*
X201361475Y-48543124D01*
X201362865Y-48544329D01*
X201370548Y-48546000D01*
X202292885Y-48546000D01*
X202308124Y-48541525D01*
X202309329Y-48540135D01*
X202311000Y-48532452D01*
X202311000Y-48527885D01*
X202819000Y-48527885D01*
X202823475Y-48543124D01*
X202824865Y-48544329D01*
X202832548Y-48546000D01*
X203754884Y-48546000D01*
X203770123Y-48541525D01*
X203771328Y-48540135D01*
X203772999Y-48532452D01*
X203772999Y-48402905D01*
X203772662Y-48396386D01*
X203762743Y-48300794D01*
X203759851Y-48287400D01*
X203708412Y-48133216D01*
X203702239Y-48120038D01*
X203616937Y-47982193D01*
X203607901Y-47970792D01*
X203493171Y-47856261D01*
X203481760Y-47847249D01*
X203343757Y-47762184D01*
X203330576Y-47756037D01*
X203176290Y-47704862D01*
X203162914Y-47701995D01*
X203068562Y-47692328D01*
X203062145Y-47692000D01*
X202837115Y-47692000D01*
X202821876Y-47696475D01*
X202820671Y-47697865D01*
X202819000Y-47705548D01*
X202819000Y-48527885D01*
X202311000Y-48527885D01*
X202311000Y-47710116D01*
X202306525Y-47694877D01*
X202305135Y-47693672D01*
X202297452Y-47692001D01*
X202067905Y-47692001D01*
X202061386Y-47692338D01*
X201965794Y-47702257D01*
X201952400Y-47705149D01*
X201798216Y-47756588D01*
X201785038Y-47762761D01*
X201647193Y-47848063D01*
X201635792Y-47857099D01*
X201521261Y-47971829D01*
X201512249Y-47983240D01*
X201427184Y-48121243D01*
X201421037Y-48134424D01*
X201369862Y-48288710D01*
X201366995Y-48302086D01*
X201357328Y-48396438D01*
X201357000Y-48402855D01*
X201357000Y-48527885D01*
X199390000Y-48527885D01*
X199390000Y-42483766D01*
X201582000Y-42483766D01*
X201582337Y-42490282D01*
X201592075Y-42584132D01*
X201594968Y-42597528D01*
X201645488Y-42748953D01*
X201651653Y-42762115D01*
X201735426Y-42897492D01*
X201744460Y-42908890D01*
X201857129Y-43021363D01*
X201868540Y-43030375D01*
X202004063Y-43113912D01*
X202017241Y-43120056D01*
X202168766Y-43170315D01*
X202182132Y-43173181D01*
X202274770Y-43182672D01*
X202281185Y-43183000D01*
X202292885Y-43183000D01*
X202308124Y-43178525D01*
X202309329Y-43177135D01*
X202311000Y-43169452D01*
X202311000Y-43164885D01*
X202819000Y-43164885D01*
X202823475Y-43180124D01*
X202824865Y-43181329D01*
X202832548Y-43183000D01*
X202848766Y-43183000D01*
X202855282Y-43182663D01*
X202949132Y-43172925D01*
X202962528Y-43170032D01*
X203113953Y-43119512D01*
X203127115Y-43113347D01*
X203262492Y-43029574D01*
X203273890Y-43020540D01*
X203386363Y-42907871D01*
X203395375Y-42896460D01*
X203478912Y-42760937D01*
X203485056Y-42747759D01*
X203535315Y-42596234D01*
X203538181Y-42582868D01*
X203547672Y-42490230D01*
X203548000Y-42483815D01*
X203548000Y-42459615D01*
X203543525Y-42444376D01*
X203542135Y-42443171D01*
X203534452Y-42441500D01*
X202837115Y-42441500D01*
X202821876Y-42445975D01*
X202820671Y-42447365D01*
X202819000Y-42455048D01*
X202819000Y-43164885D01*
X202311000Y-43164885D01*
X202311000Y-42459615D01*
X202306525Y-42444376D01*
X202305135Y-42443171D01*
X202297452Y-42441500D01*
X201600115Y-42441500D01*
X201584876Y-42445975D01*
X201583671Y-42447365D01*
X201582000Y-42455048D01*
X201582000Y-42483766D01*
X199390000Y-42483766D01*
X199390000Y-40662072D01*
X201581500Y-40662072D01*
X201581837Y-40665318D01*
X201581837Y-40665322D01*
X201586718Y-40712359D01*
X201592293Y-40766093D01*
X201594474Y-40772629D01*
X201594474Y-40772631D01*
X201609040Y-40816290D01*
X201647346Y-40931107D01*
X201738884Y-41079031D01*
X201846141Y-41186101D01*
X201880220Y-41248382D01*
X201875217Y-41319202D01*
X201846296Y-41364291D01*
X201743637Y-41467129D01*
X201734625Y-41478540D01*
X201651088Y-41614063D01*
X201644944Y-41627241D01*
X201594685Y-41778766D01*
X201591819Y-41792132D01*
X201582328Y-41884770D01*
X201582000Y-41891185D01*
X201582000Y-41915385D01*
X201586475Y-41930624D01*
X201587865Y-41931829D01*
X201595548Y-41933500D01*
X203529885Y-41933500D01*
X203545124Y-41929025D01*
X203546329Y-41927635D01*
X203548000Y-41919952D01*
X203548000Y-41891234D01*
X203547663Y-41884718D01*
X203537925Y-41790868D01*
X203535032Y-41777472D01*
X203484512Y-41626047D01*
X203478347Y-41612885D01*
X203394574Y-41477508D01*
X203385540Y-41466110D01*
X203283860Y-41364607D01*
X203249781Y-41302324D01*
X203254784Y-41231504D01*
X203283706Y-41186415D01*
X203284022Y-41186099D01*
X203312090Y-41157981D01*
X203374374Y-41123903D01*
X203401263Y-41121000D01*
X204840500Y-41121000D01*
X204908621Y-41141002D01*
X204955114Y-41194658D01*
X204966500Y-41247000D01*
X204966500Y-41588134D01*
X204973255Y-41650316D01*
X205024385Y-41786705D01*
X205111739Y-41903261D01*
X205228295Y-41990615D01*
X205364684Y-42041745D01*
X205426866Y-42048500D01*
X207323134Y-42048500D01*
X207385316Y-42041745D01*
X207521705Y-41990615D01*
X207638261Y-41903261D01*
X207725615Y-41786705D01*
X207750180Y-41721178D01*
X207792822Y-41664414D01*
X207859383Y-41639714D01*
X207928732Y-41654921D01*
X207948647Y-41668464D01*
X208013724Y-41722492D01*
X208104349Y-41797730D01*
X208304322Y-41914584D01*
X208520694Y-41997209D01*
X208525760Y-41998240D01*
X208525761Y-41998240D01*
X208578846Y-42009040D01*
X208747656Y-42043385D01*
X208877089Y-42048131D01*
X208973949Y-42051683D01*
X208973953Y-42051683D01*
X208979113Y-42051872D01*
X208984233Y-42051216D01*
X208984235Y-42051216D01*
X209058166Y-42041745D01*
X209208847Y-42022442D01*
X209213795Y-42020957D01*
X209213802Y-42020956D01*
X209425747Y-41957369D01*
X209430690Y-41955886D01*
X209479797Y-41931829D01*
X209634049Y-41856262D01*
X209634052Y-41856260D01*
X209638684Y-41853991D01*
X209827243Y-41719494D01*
X209991303Y-41556005D01*
X210126458Y-41367917D01*
X210136315Y-41347974D01*
X210226784Y-41164922D01*
X210226785Y-41164920D01*
X210229078Y-41160280D01*
X210296408Y-40938671D01*
X210326640Y-40709041D01*
X210326808Y-40702183D01*
X210326810Y-40702095D01*
X213459501Y-40702095D01*
X213459838Y-40708614D01*
X213469757Y-40804206D01*
X213472649Y-40817600D01*
X213524088Y-40971784D01*
X213530261Y-40984962D01*
X213615563Y-41122807D01*
X213624599Y-41134208D01*
X213739329Y-41248739D01*
X213750740Y-41257751D01*
X213888743Y-41342816D01*
X213901924Y-41348963D01*
X214056210Y-41400138D01*
X214069586Y-41403005D01*
X214163938Y-41412672D01*
X214170354Y-41413000D01*
X214357885Y-41413000D01*
X214373124Y-41408525D01*
X214374329Y-41407135D01*
X214376000Y-41399452D01*
X214376000Y-41394884D01*
X214884000Y-41394884D01*
X214888475Y-41410123D01*
X214889865Y-41411328D01*
X214897548Y-41412999D01*
X215089595Y-41412999D01*
X215096114Y-41412662D01*
X215191706Y-41402743D01*
X215205100Y-41399851D01*
X215359284Y-41348412D01*
X215372462Y-41342239D01*
X215510307Y-41256937D01*
X215521708Y-41247901D01*
X215636239Y-41133171D01*
X215645251Y-41121760D01*
X215730316Y-40983757D01*
X215736463Y-40970576D01*
X215787638Y-40816290D01*
X215790505Y-40802914D01*
X215800172Y-40708562D01*
X215800500Y-40702146D01*
X215800500Y-40277115D01*
X215796025Y-40261876D01*
X215794635Y-40260671D01*
X215786952Y-40259000D01*
X214902115Y-40259000D01*
X214886876Y-40263475D01*
X214885671Y-40264865D01*
X214884000Y-40272548D01*
X214884000Y-41394884D01*
X214376000Y-41394884D01*
X214376000Y-40277115D01*
X214371525Y-40261876D01*
X214370135Y-40260671D01*
X214362452Y-40259000D01*
X213477616Y-40259000D01*
X213462377Y-40263475D01*
X213461172Y-40264865D01*
X213459501Y-40272548D01*
X213459501Y-40702095D01*
X210326810Y-40702095D01*
X210328245Y-40643365D01*
X210328245Y-40643361D01*
X210328327Y-40640000D01*
X210310684Y-40425401D01*
X210309773Y-40414318D01*
X210309772Y-40414312D01*
X210309349Y-40409167D01*
X210272352Y-40261876D01*
X210254184Y-40189544D01*
X210254183Y-40189540D01*
X210252925Y-40184533D01*
X210250866Y-40179797D01*
X210162630Y-39976868D01*
X210162628Y-39976865D01*
X210160570Y-39972131D01*
X210034764Y-39777665D01*
X209994017Y-39732885D01*
X213459500Y-39732885D01*
X213463975Y-39748124D01*
X213465365Y-39749329D01*
X213473048Y-39751000D01*
X214357885Y-39751000D01*
X214373124Y-39746525D01*
X214374329Y-39745135D01*
X214376000Y-39737452D01*
X214376000Y-39732885D01*
X214884000Y-39732885D01*
X214888475Y-39748124D01*
X214889865Y-39749329D01*
X214897548Y-39751000D01*
X215782384Y-39751000D01*
X215797623Y-39746525D01*
X215798828Y-39745135D01*
X215800499Y-39737452D01*
X215800499Y-39307905D01*
X215800162Y-39301386D01*
X215790243Y-39205794D01*
X215787351Y-39192400D01*
X215735912Y-39038216D01*
X215729739Y-39025038D01*
X215644437Y-38887193D01*
X215635401Y-38875792D01*
X215520671Y-38761261D01*
X215509260Y-38752249D01*
X215371257Y-38667184D01*
X215358076Y-38661037D01*
X215203790Y-38609862D01*
X215190414Y-38606995D01*
X215096062Y-38597328D01*
X215089645Y-38597000D01*
X214902115Y-38597000D01*
X214886876Y-38601475D01*
X214885671Y-38602865D01*
X214884000Y-38610548D01*
X214884000Y-39732885D01*
X214376000Y-39732885D01*
X214376000Y-38615116D01*
X214371525Y-38599877D01*
X214370135Y-38598672D01*
X214362452Y-38597001D01*
X214170405Y-38597001D01*
X214163886Y-38597338D01*
X214068294Y-38607257D01*
X214054900Y-38610149D01*
X213900716Y-38661588D01*
X213887538Y-38667761D01*
X213749693Y-38753063D01*
X213738292Y-38762099D01*
X213623761Y-38876829D01*
X213614749Y-38888240D01*
X213529684Y-39026243D01*
X213523537Y-39039424D01*
X213472362Y-39193710D01*
X213469495Y-39207086D01*
X213459828Y-39301438D01*
X213459500Y-39307855D01*
X213459500Y-39732885D01*
X209994017Y-39732885D01*
X209878887Y-39606358D01*
X209874836Y-39603159D01*
X209874832Y-39603155D01*
X209701177Y-39466011D01*
X209701172Y-39466008D01*
X209697123Y-39462810D01*
X209692607Y-39460317D01*
X209692604Y-39460315D01*
X209498879Y-39353373D01*
X209498875Y-39353371D01*
X209494355Y-39350876D01*
X209489486Y-39349152D01*
X209489482Y-39349150D01*
X209280903Y-39275288D01*
X209280899Y-39275287D01*
X209276028Y-39273562D01*
X209270935Y-39272655D01*
X209270932Y-39272654D01*
X209053095Y-39233851D01*
X209053089Y-39233850D01*
X209048006Y-39232945D01*
X208975096Y-39232054D01*
X208821581Y-39230179D01*
X208821579Y-39230179D01*
X208816411Y-39230116D01*
X208587464Y-39265150D01*
X208367314Y-39337106D01*
X208362726Y-39339494D01*
X208362722Y-39339496D01*
X208166461Y-39441663D01*
X208161872Y-39444052D01*
X208157739Y-39447155D01*
X208157736Y-39447157D01*
X208048644Y-39529066D01*
X207976655Y-39583117D01*
X207959170Y-39601414D01*
X207897646Y-39636844D01*
X207826733Y-39633387D01*
X207768947Y-39592141D01*
X207750094Y-39558592D01*
X207728768Y-39501705D01*
X207728767Y-39501704D01*
X207725615Y-39493295D01*
X207638261Y-39376739D01*
X207521705Y-39289385D01*
X207385316Y-39238255D01*
X207323134Y-39231500D01*
X205426866Y-39231500D01*
X205364684Y-39238255D01*
X205228295Y-39289385D01*
X205111739Y-39376739D01*
X205106358Y-39383919D01*
X205029767Y-39486113D01*
X205029765Y-39486116D01*
X205024385Y-39493295D01*
X205014663Y-39519230D01*
X205013538Y-39522230D01*
X204970896Y-39578994D01*
X204904334Y-39603694D01*
X204895556Y-39604000D01*
X203401200Y-39604000D01*
X203333079Y-39583998D01*
X203312182Y-39567173D01*
X203274009Y-39529066D01*
X203268003Y-39523071D01*
X203219698Y-39493295D01*
X203126150Y-39435631D01*
X203126148Y-39435630D01*
X203119920Y-39431791D01*
X202954809Y-39377026D01*
X202947973Y-39376326D01*
X202947970Y-39376325D01*
X202896474Y-39371049D01*
X202852072Y-39366500D01*
X202277928Y-39366500D01*
X202274682Y-39366837D01*
X202274678Y-39366837D01*
X202180765Y-39376581D01*
X202180761Y-39376582D01*
X202173907Y-39377293D01*
X202167371Y-39379474D01*
X202167369Y-39379474D01*
X202154046Y-39383919D01*
X202008893Y-39432346D01*
X201860969Y-39523884D01*
X201855796Y-39529066D01*
X201743242Y-39641816D01*
X201743238Y-39641821D01*
X201738071Y-39646997D01*
X201734231Y-39653227D01*
X201734230Y-39653228D01*
X201651319Y-39787735D01*
X201646791Y-39795080D01*
X201592026Y-39960191D01*
X201591326Y-39967027D01*
X201591325Y-39967030D01*
X201588449Y-39995100D01*
X201581500Y-40062928D01*
X201581500Y-40662072D01*
X199390000Y-40662072D01*
X199390000Y-37450851D01*
X214886719Y-37450851D01*
X214887235Y-37456995D01*
X214894033Y-37537948D01*
X214903268Y-37647934D01*
X214909165Y-37668500D01*
X214954897Y-37827984D01*
X214957783Y-37838050D01*
X215048187Y-38013956D01*
X215171035Y-38168953D01*
X215175728Y-38172947D01*
X215175729Y-38172948D01*
X215281597Y-38263048D01*
X215321650Y-38297136D01*
X215494294Y-38393624D01*
X215682392Y-38454740D01*
X215878777Y-38478158D01*
X215884912Y-38477686D01*
X215884914Y-38477686D01*
X216069831Y-38463457D01*
X216069836Y-38463456D01*
X216075972Y-38462984D01*
X216081901Y-38461329D01*
X216081910Y-38461327D01*
X216105060Y-38454863D01*
X216176051Y-38455808D01*
X216235260Y-38494984D01*
X216250810Y-38518236D01*
X216273788Y-38562565D01*
X216318187Y-38648956D01*
X216319290Y-38650347D01*
X216320108Y-38651926D01*
X216380726Y-38727861D01*
X216441035Y-38803953D01*
X216445728Y-38807947D01*
X216445729Y-38807948D01*
X216482053Y-38838862D01*
X216489485Y-38845720D01*
X216601799Y-38958033D01*
X216635824Y-39020345D01*
X216632297Y-39086796D01*
X216606581Y-39164329D01*
X216594703Y-39200139D01*
X216594003Y-39206975D01*
X216594002Y-39206978D01*
X216591625Y-39230179D01*
X216584000Y-39304600D01*
X216584000Y-40705400D01*
X216584337Y-40708646D01*
X216584337Y-40708650D01*
X216594252Y-40804206D01*
X216594974Y-40811166D01*
X216650950Y-40978946D01*
X216744022Y-41129348D01*
X216869197Y-41254305D01*
X216875427Y-41258145D01*
X216875428Y-41258146D01*
X217012788Y-41342816D01*
X217019762Y-41347115D01*
X217095138Y-41372116D01*
X217181111Y-41400632D01*
X217181113Y-41400632D01*
X217187639Y-41402797D01*
X217194475Y-41403497D01*
X217194478Y-41403498D01*
X217237531Y-41407909D01*
X217292100Y-41413500D01*
X218217900Y-41413500D01*
X218221146Y-41413163D01*
X218221150Y-41413163D01*
X218316808Y-41403238D01*
X218316812Y-41403237D01*
X218323666Y-41402526D01*
X218330202Y-41400345D01*
X218330204Y-41400345D01*
X218462306Y-41356272D01*
X218491446Y-41346550D01*
X218641848Y-41253478D01*
X218766805Y-41128303D01*
X218859615Y-40977738D01*
X218915297Y-40809861D01*
X218918001Y-40783475D01*
X218925667Y-40708650D01*
X218926000Y-40705400D01*
X218926000Y-39304600D01*
X218924980Y-39294771D01*
X218915738Y-39205692D01*
X218915737Y-39205688D01*
X218915026Y-39198834D01*
X218912846Y-39192301D01*
X218912844Y-39192290D01*
X218889841Y-39123345D01*
X218887255Y-39052395D01*
X218923439Y-38991311D01*
X218952554Y-38971002D01*
X218977495Y-38958404D01*
X218977497Y-38958403D01*
X218982996Y-38955625D01*
X219138847Y-38833861D01*
X219261233Y-38692075D01*
X219264049Y-38688813D01*
X219264050Y-38688811D01*
X219268078Y-38684145D01*
X219365769Y-38512179D01*
X219428197Y-38324513D01*
X219452985Y-38128295D01*
X219453380Y-38100000D01*
X219434080Y-37903167D01*
X219376916Y-37713831D01*
X219284066Y-37539204D01*
X219226857Y-37469059D01*
X219199303Y-37403627D01*
X219198500Y-37389423D01*
X219198500Y-37223246D01*
X219218502Y-37155125D01*
X219223674Y-37147681D01*
X219275229Y-37078891D01*
X219280615Y-37071705D01*
X219331745Y-36935316D01*
X219338500Y-36873134D01*
X219338500Y-32976866D01*
X219331745Y-32914684D01*
X219280615Y-32778295D01*
X219223674Y-32702318D01*
X219198826Y-32635813D01*
X219198500Y-32626754D01*
X219198500Y-32461610D01*
X219218502Y-32393489D01*
X219229119Y-32379279D01*
X219268078Y-32334145D01*
X219365769Y-32162179D01*
X219428197Y-31974513D01*
X219452985Y-31778295D01*
X219453380Y-31750000D01*
X219434080Y-31553167D01*
X219376916Y-31363831D01*
X219284066Y-31189204D01*
X219203548Y-31090479D01*
X219162960Y-31040713D01*
X219162957Y-31040710D01*
X219159065Y-31035938D01*
X219154316Y-31032009D01*
X219011425Y-30913799D01*
X219011421Y-30913797D01*
X219006675Y-30909870D01*
X218832701Y-30815802D01*
X218643768Y-30757318D01*
X218637643Y-30756674D01*
X218637642Y-30756674D01*
X218453204Y-30737289D01*
X218453202Y-30737289D01*
X218447075Y-30736645D01*
X218364576Y-30744153D01*
X218256251Y-30754011D01*
X218256248Y-30754012D01*
X218250112Y-30754570D01*
X218244206Y-30756308D01*
X218244202Y-30756309D01*
X218139076Y-30787249D01*
X218060381Y-30810410D01*
X218054923Y-30813263D01*
X218054919Y-30813265D01*
X217986967Y-30848790D01*
X217885110Y-30902040D01*
X217880310Y-30905900D01*
X217875153Y-30909274D01*
X217873769Y-30907158D01*
X217818365Y-30930027D01*
X217748512Y-30917334D01*
X217738898Y-30911709D01*
X217736675Y-30909870D01*
X217562701Y-30815802D01*
X217373768Y-30757318D01*
X217367643Y-30756674D01*
X217367642Y-30756674D01*
X217183204Y-30737289D01*
X217183202Y-30737289D01*
X217177075Y-30736645D01*
X217094576Y-30744153D01*
X216986251Y-30754011D01*
X216986248Y-30754012D01*
X216980112Y-30754570D01*
X216974206Y-30756308D01*
X216974202Y-30756309D01*
X216869076Y-30787249D01*
X216790381Y-30810410D01*
X216784923Y-30813263D01*
X216784919Y-30813265D01*
X216716967Y-30848790D01*
X216615110Y-30902040D01*
X216610312Y-30905898D01*
X216610310Y-30905899D01*
X216534368Y-30966958D01*
X216470014Y-30993912D01*
X216464396Y-30994567D01*
X216462497Y-30994789D01*
X216458132Y-30995221D01*
X216436059Y-30997016D01*
X216392662Y-31000546D01*
X216392659Y-31000547D01*
X216385364Y-31001140D01*
X216378400Y-31003396D01*
X216372461Y-31004583D01*
X216366590Y-31005970D01*
X216359319Y-31006818D01*
X216352443Y-31009314D01*
X216352434Y-31009316D01*
X216290702Y-31031725D01*
X216286598Y-31033135D01*
X216217101Y-31055648D01*
X216210846Y-31059444D01*
X216205387Y-31061943D01*
X216199939Y-31064671D01*
X216193063Y-31067167D01*
X216132010Y-31107195D01*
X216128337Y-31109513D01*
X216065893Y-31147405D01*
X216057517Y-31154802D01*
X216057493Y-31154775D01*
X216054499Y-31157430D01*
X216051268Y-31160132D01*
X216045148Y-31164144D01*
X216040116Y-31169456D01*
X215991872Y-31220383D01*
X215989494Y-31222825D01*
X215866278Y-31346041D01*
X215803966Y-31380067D01*
X215788604Y-31382427D01*
X215763952Y-31384670D01*
X215716252Y-31389011D01*
X215716250Y-31389011D01*
X215710112Y-31389570D01*
X215704206Y-31391308D01*
X215704202Y-31391309D01*
X215604367Y-31420692D01*
X215520381Y-31445410D01*
X215514923Y-31448263D01*
X215514919Y-31448265D01*
X215424147Y-31495720D01*
X215345110Y-31537040D01*
X215190975Y-31660968D01*
X215063846Y-31812474D01*
X215060879Y-31817872D01*
X215060875Y-31817877D01*
X214996337Y-31935273D01*
X214968567Y-31985787D01*
X214966706Y-31991654D01*
X214966705Y-31991656D01*
X214914469Y-32156326D01*
X214908765Y-32174306D01*
X214886719Y-32370851D01*
X214903268Y-32567934D01*
X214918536Y-32621181D01*
X214932171Y-32668729D01*
X214957783Y-32758050D01*
X215048187Y-32933956D01*
X215052016Y-32938787D01*
X215053839Y-32941088D01*
X215054414Y-32942509D01*
X215055353Y-32943966D01*
X215055076Y-32944144D01*
X215080474Y-33006898D01*
X215067301Y-33076662D01*
X215063846Y-33082474D01*
X214968567Y-33255787D01*
X214908765Y-33444306D01*
X214886719Y-33640851D01*
X214888880Y-33666587D01*
X214902566Y-33829570D01*
X214903268Y-33837934D01*
X214957783Y-34028050D01*
X214960602Y-34033535D01*
X215029783Y-34168145D01*
X215048187Y-34203956D01*
X215052016Y-34208787D01*
X215053839Y-34211088D01*
X215054414Y-34212509D01*
X215055353Y-34213966D01*
X215055076Y-34214144D01*
X215080474Y-34276898D01*
X215067301Y-34346662D01*
X215063846Y-34352474D01*
X214968567Y-34525787D01*
X214966706Y-34531654D01*
X214966705Y-34531656D01*
X214965059Y-34536846D01*
X214908765Y-34714306D01*
X214886719Y-34910851D01*
X214887235Y-34916995D01*
X214900279Y-35072332D01*
X214903268Y-35107934D01*
X214918423Y-35160787D01*
X214954353Y-35286087D01*
X214957783Y-35298050D01*
X214980748Y-35342735D01*
X215035832Y-35449915D01*
X215048187Y-35473956D01*
X215052016Y-35478787D01*
X215053839Y-35481088D01*
X215054414Y-35482509D01*
X215055353Y-35483966D01*
X215055076Y-35484144D01*
X215080474Y-35546898D01*
X215067301Y-35616662D01*
X215063846Y-35622474D01*
X214968567Y-35795787D01*
X214966706Y-35801654D01*
X214966705Y-35801656D01*
X214931290Y-35913297D01*
X214908765Y-35984306D01*
X214886719Y-36180851D01*
X214903268Y-36377934D01*
X214957783Y-36568050D01*
X215048187Y-36743956D01*
X215052016Y-36748787D01*
X215053839Y-36751088D01*
X215054414Y-36752509D01*
X215055353Y-36753966D01*
X215055076Y-36754144D01*
X215080474Y-36816898D01*
X215067301Y-36886662D01*
X215063846Y-36892474D01*
X214968567Y-37065787D01*
X214966706Y-37071654D01*
X214966705Y-37071656D01*
X214940227Y-37155125D01*
X214908765Y-37254306D01*
X214886719Y-37450851D01*
X199390000Y-37450851D01*
X199390000Y-32996381D01*
X200414160Y-32996381D01*
X200414237Y-32997470D01*
X200416698Y-33001206D01*
X200690632Y-33211404D01*
X200696262Y-33215259D01*
X200996591Y-33397862D01*
X201002593Y-33401080D01*
X201320897Y-33550184D01*
X201327202Y-33552732D01*
X201659743Y-33666587D01*
X201666313Y-33668446D01*
X202009183Y-33745714D01*
X202015912Y-33746853D01*
X202365143Y-33786643D01*
X202371933Y-33787046D01*
X202723419Y-33788886D01*
X202730220Y-33788554D01*
X203079853Y-33752423D01*
X203086581Y-33751357D01*
X203430274Y-33677676D01*
X203436822Y-33675897D01*
X203770549Y-33565527D01*
X203776891Y-33563041D01*
X204096718Y-33417288D01*
X204102777Y-33414121D01*
X204404995Y-33234676D01*
X204410659Y-33230884D01*
X204691732Y-33019849D01*
X204696958Y-33015464D01*
X204706613Y-33006428D01*
X204714682Y-32992750D01*
X204714654Y-32992024D01*
X204709512Y-32983723D01*
X202577810Y-30852020D01*
X202563869Y-30844408D01*
X202562034Y-30844539D01*
X202555420Y-30848790D01*
X200421774Y-32982437D01*
X200414160Y-32996381D01*
X199390000Y-32996381D01*
X199390000Y-32059991D01*
X199410002Y-31991870D01*
X199463658Y-31945377D01*
X199533932Y-31935273D01*
X199598512Y-31964767D01*
X199627560Y-32001421D01*
X199717803Y-32173310D01*
X199721286Y-32179152D01*
X199917330Y-32470896D01*
X199921433Y-32476340D01*
X200041425Y-32618836D01*
X200054164Y-32627279D01*
X200064608Y-32621181D01*
X202192980Y-30492810D01*
X202199357Y-30481131D01*
X202929408Y-30481131D01*
X202929539Y-30482966D01*
X202933790Y-30489580D01*
X205064009Y-32619798D01*
X205077605Y-32627223D01*
X205087218Y-32620522D01*
X205187518Y-32503912D01*
X205191676Y-32498514D01*
X205390762Y-32208840D01*
X205394310Y-32203029D01*
X205560942Y-31893559D01*
X205563849Y-31887381D01*
X205696090Y-31561713D01*
X205698304Y-31555283D01*
X205794598Y-31217237D01*
X205796105Y-31210607D01*
X205855332Y-30864118D01*
X205856112Y-30857378D01*
X205877668Y-30504925D01*
X205877784Y-30501323D01*
X205877853Y-30481819D01*
X205877761Y-30478194D01*
X205858666Y-30125615D01*
X205857931Y-30118849D01*
X205801130Y-29771985D01*
X205799663Y-29765313D01*
X205719974Y-29477966D01*
X219013257Y-29477966D01*
X219043565Y-29612446D01*
X219046645Y-29622275D01*
X219126770Y-29819603D01*
X219131413Y-29828794D01*
X219242694Y-30010388D01*
X219248777Y-30018699D01*
X219388213Y-30179667D01*
X219395580Y-30186883D01*
X219559434Y-30322916D01*
X219567881Y-30328831D01*
X219751756Y-30436279D01*
X219761042Y-30440729D01*
X219960001Y-30516703D01*
X219969899Y-30519579D01*
X220073250Y-30540606D01*
X220087299Y-30539410D01*
X220091000Y-30529065D01*
X220091000Y-30528517D01*
X220599000Y-30528517D01*
X220603064Y-30542359D01*
X220616478Y-30544393D01*
X220623184Y-30543534D01*
X220633262Y-30541392D01*
X220837255Y-30480191D01*
X220846842Y-30476433D01*
X221038095Y-30382739D01*
X221046945Y-30377464D01*
X221220328Y-30253792D01*
X221228200Y-30247139D01*
X221379052Y-30096812D01*
X221385730Y-30088965D01*
X221513022Y-29911819D01*
X221514147Y-29912627D01*
X221561669Y-29868876D01*
X221631607Y-29856661D01*
X221697046Y-29884197D01*
X221724870Y-29916028D01*
X221782690Y-30010383D01*
X221788777Y-30018699D01*
X221928213Y-30179667D01*
X221935580Y-30186883D01*
X222099434Y-30322916D01*
X222107881Y-30328831D01*
X222291756Y-30436279D01*
X222301042Y-30440729D01*
X222500001Y-30516703D01*
X222509899Y-30519579D01*
X222613250Y-30540606D01*
X222627299Y-30539410D01*
X222631000Y-30529065D01*
X222631000Y-30528517D01*
X223139000Y-30528517D01*
X223143064Y-30542359D01*
X223156478Y-30544393D01*
X223163184Y-30543534D01*
X223173262Y-30541392D01*
X223377255Y-30480191D01*
X223386842Y-30476433D01*
X223578095Y-30382739D01*
X223586945Y-30377464D01*
X223760328Y-30253792D01*
X223768200Y-30247139D01*
X223919052Y-30096812D01*
X223925730Y-30088965D01*
X224053022Y-29911819D01*
X224054147Y-29912627D01*
X224101669Y-29868876D01*
X224171607Y-29856661D01*
X224237046Y-29884197D01*
X224264870Y-29916028D01*
X224322690Y-30010383D01*
X224328777Y-30018699D01*
X224468213Y-30179667D01*
X224475580Y-30186883D01*
X224639434Y-30322916D01*
X224647881Y-30328831D01*
X224831756Y-30436279D01*
X224841042Y-30440729D01*
X225040001Y-30516703D01*
X225049899Y-30519579D01*
X225153250Y-30540606D01*
X225167299Y-30539410D01*
X225171000Y-30529065D01*
X225171000Y-30528517D01*
X225679000Y-30528517D01*
X225683064Y-30542359D01*
X225696478Y-30544393D01*
X225703184Y-30543534D01*
X225713262Y-30541392D01*
X225917255Y-30480191D01*
X225926842Y-30476433D01*
X226118095Y-30382739D01*
X226126945Y-30377464D01*
X226300328Y-30253792D01*
X226308200Y-30247139D01*
X226459052Y-30096812D01*
X226465730Y-30088965D01*
X226593022Y-29911819D01*
X226594279Y-29912722D01*
X226641373Y-29869362D01*
X226711311Y-29857145D01*
X226776751Y-29884678D01*
X226804579Y-29916511D01*
X226864987Y-30015088D01*
X227011250Y-30183938D01*
X227183126Y-30326632D01*
X227376000Y-30439338D01*
X227584692Y-30519030D01*
X227589760Y-30520061D01*
X227589763Y-30520062D01*
X227684862Y-30539410D01*
X227803597Y-30563567D01*
X227808772Y-30563757D01*
X227808774Y-30563757D01*
X228021673Y-30571564D01*
X228021677Y-30571564D01*
X228026837Y-30571753D01*
X228031957Y-30571097D01*
X228031959Y-30571097D01*
X228243288Y-30544025D01*
X228243289Y-30544025D01*
X228248416Y-30543368D01*
X228253366Y-30541883D01*
X228457429Y-30480661D01*
X228457434Y-30480659D01*
X228462384Y-30479174D01*
X228662994Y-30380896D01*
X228844860Y-30251173D01*
X229003096Y-30093489D01*
X229133453Y-29912077D01*
X229134776Y-29913028D01*
X229181645Y-29869857D01*
X229251580Y-29857625D01*
X229317026Y-29885144D01*
X229344875Y-29916994D01*
X229404987Y-30015088D01*
X229551250Y-30183938D01*
X229723126Y-30326632D01*
X229916000Y-30439338D01*
X230124692Y-30519030D01*
X230129760Y-30520061D01*
X230129763Y-30520062D01*
X230224862Y-30539410D01*
X230343597Y-30563567D01*
X230348772Y-30563757D01*
X230348774Y-30563757D01*
X230561673Y-30571564D01*
X230561677Y-30571564D01*
X230566837Y-30571753D01*
X230571957Y-30571097D01*
X230571959Y-30571097D01*
X230783288Y-30544025D01*
X230783289Y-30544025D01*
X230788416Y-30543368D01*
X230793366Y-30541883D01*
X230997429Y-30480661D01*
X230997434Y-30480659D01*
X231002384Y-30479174D01*
X231202994Y-30380896D01*
X231384860Y-30251173D01*
X231493091Y-30143319D01*
X231555462Y-30109404D01*
X231626268Y-30114592D01*
X231683030Y-30157238D01*
X231700012Y-30188341D01*
X231744385Y-30306705D01*
X231831739Y-30423261D01*
X231948295Y-30510615D01*
X232084684Y-30561745D01*
X232146866Y-30568500D01*
X233943134Y-30568500D01*
X234005316Y-30561745D01*
X234141705Y-30510615D01*
X234258261Y-30423261D01*
X234345615Y-30306705D01*
X234396745Y-30170316D01*
X234403500Y-30108134D01*
X234403500Y-28311866D01*
X234396745Y-28249684D01*
X234345615Y-28113295D01*
X234258261Y-27996739D01*
X234141705Y-27909385D01*
X234005316Y-27858255D01*
X233943134Y-27851500D01*
X232146866Y-27851500D01*
X232084684Y-27858255D01*
X231948295Y-27909385D01*
X231831739Y-27996739D01*
X231744385Y-28113295D01*
X231741233Y-28121703D01*
X231699919Y-28231907D01*
X231657277Y-28288671D01*
X231590716Y-28313371D01*
X231521367Y-28298163D01*
X231488743Y-28272476D01*
X231438151Y-28216875D01*
X231438142Y-28216866D01*
X231434670Y-28213051D01*
X231430619Y-28209852D01*
X231430615Y-28209848D01*
X231263414Y-28077800D01*
X231263410Y-28077798D01*
X231259359Y-28074598D01*
X231223028Y-28054542D01*
X231207136Y-28045769D01*
X231063789Y-27966638D01*
X231058920Y-27964914D01*
X231058916Y-27964912D01*
X230858087Y-27893795D01*
X230858083Y-27893794D01*
X230853212Y-27892069D01*
X230848119Y-27891162D01*
X230848116Y-27891161D01*
X230638373Y-27853800D01*
X230638367Y-27853799D01*
X230633284Y-27852894D01*
X230559452Y-27851992D01*
X230415081Y-27850228D01*
X230415079Y-27850228D01*
X230409911Y-27850165D01*
X230189091Y-27883955D01*
X229976756Y-27953357D01*
X229778607Y-28056507D01*
X229774474Y-28059610D01*
X229774471Y-28059612D01*
X229604100Y-28187530D01*
X229599965Y-28190635D01*
X229574541Y-28217240D01*
X229457612Y-28339599D01*
X229445629Y-28352138D01*
X229338201Y-28509621D01*
X229283293Y-28554621D01*
X229212768Y-28562792D01*
X229149021Y-28531538D01*
X229128324Y-28507054D01*
X229047822Y-28382617D01*
X229047820Y-28382614D01*
X229045014Y-28378277D01*
X228894670Y-28213051D01*
X228890619Y-28209852D01*
X228890615Y-28209848D01*
X228723414Y-28077800D01*
X228723410Y-28077798D01*
X228719359Y-28074598D01*
X228683028Y-28054542D01*
X228667136Y-28045769D01*
X228523789Y-27966638D01*
X228518920Y-27964914D01*
X228518916Y-27964912D01*
X228318087Y-27893795D01*
X228318083Y-27893794D01*
X228313212Y-27892069D01*
X228308119Y-27891162D01*
X228308116Y-27891161D01*
X228098373Y-27853800D01*
X228098367Y-27853799D01*
X228093284Y-27852894D01*
X228019452Y-27851992D01*
X227875081Y-27850228D01*
X227875079Y-27850228D01*
X227869911Y-27850165D01*
X227649091Y-27883955D01*
X227436756Y-27953357D01*
X227238607Y-28056507D01*
X227234474Y-28059610D01*
X227234471Y-28059612D01*
X227064100Y-28187530D01*
X227059965Y-28190635D01*
X227034541Y-28217240D01*
X226917612Y-28339599D01*
X226905629Y-28352138D01*
X226902720Y-28356403D01*
X226902714Y-28356411D01*
X226890404Y-28374457D01*
X226798204Y-28509618D01*
X226797898Y-28510066D01*
X226742987Y-28555069D01*
X226672462Y-28563240D01*
X226608715Y-28531986D01*
X226588018Y-28507502D01*
X226507426Y-28382926D01*
X226501136Y-28374757D01*
X226357806Y-28217240D01*
X226350273Y-28210215D01*
X226183139Y-28078222D01*
X226174552Y-28072517D01*
X225988117Y-27969599D01*
X225978705Y-27965369D01*
X225777959Y-27894280D01*
X225767988Y-27891646D01*
X225696837Y-27878972D01*
X225683540Y-27880432D01*
X225679000Y-27894989D01*
X225679000Y-30528517D01*
X225171000Y-30528517D01*
X225171000Y-29482115D01*
X225166525Y-29466876D01*
X225165135Y-29465671D01*
X225157452Y-29464000D01*
X223157115Y-29464000D01*
X223141876Y-29468475D01*
X223140671Y-29469865D01*
X223139000Y-29477548D01*
X223139000Y-30528517D01*
X222631000Y-30528517D01*
X222631000Y-29482115D01*
X222626525Y-29466876D01*
X222625135Y-29465671D01*
X222617452Y-29464000D01*
X220617115Y-29464000D01*
X220601876Y-29468475D01*
X220600671Y-29469865D01*
X220599000Y-29477548D01*
X220599000Y-30528517D01*
X220091000Y-30528517D01*
X220091000Y-29482115D01*
X220086525Y-29466876D01*
X220085135Y-29465671D01*
X220077452Y-29464000D01*
X219028225Y-29464000D01*
X219014694Y-29467973D01*
X219013257Y-29477966D01*
X205719974Y-29477966D01*
X205705736Y-29426627D01*
X205703562Y-29420163D01*
X205573598Y-29093578D01*
X205570742Y-29087398D01*
X205494913Y-28944183D01*
X219009389Y-28944183D01*
X219010912Y-28952607D01*
X219023292Y-28956000D01*
X220072885Y-28956000D01*
X220088124Y-28951525D01*
X220089329Y-28950135D01*
X220091000Y-28942452D01*
X220091000Y-28937885D01*
X220599000Y-28937885D01*
X220603475Y-28953124D01*
X220604865Y-28954329D01*
X220612548Y-28956000D01*
X222612885Y-28956000D01*
X222628124Y-28951525D01*
X222629329Y-28950135D01*
X222631000Y-28942452D01*
X222631000Y-28937885D01*
X223139000Y-28937885D01*
X223143475Y-28953124D01*
X223144865Y-28954329D01*
X223152548Y-28956000D01*
X225152885Y-28956000D01*
X225168124Y-28951525D01*
X225169329Y-28950135D01*
X225171000Y-28942452D01*
X225171000Y-27893102D01*
X225167082Y-27879758D01*
X225152806Y-27877771D01*
X225114324Y-27883660D01*
X225104288Y-27886051D01*
X224901868Y-27952212D01*
X224892359Y-27956209D01*
X224703463Y-28054542D01*
X224694738Y-28060036D01*
X224524433Y-28187905D01*
X224516726Y-28194748D01*
X224369590Y-28348717D01*
X224363104Y-28356727D01*
X224258193Y-28510521D01*
X224203282Y-28555524D01*
X224132757Y-28563695D01*
X224069010Y-28532441D01*
X224048313Y-28507957D01*
X223967427Y-28382926D01*
X223961136Y-28374757D01*
X223817806Y-28217240D01*
X223810273Y-28210215D01*
X223643139Y-28078222D01*
X223634552Y-28072517D01*
X223448117Y-27969599D01*
X223438705Y-27965369D01*
X223237959Y-27894280D01*
X223227988Y-27891646D01*
X223156837Y-27878972D01*
X223143540Y-27880432D01*
X223139000Y-27894989D01*
X223139000Y-28937885D01*
X222631000Y-28937885D01*
X222631000Y-27893102D01*
X222627082Y-27879758D01*
X222612806Y-27877771D01*
X222574324Y-27883660D01*
X222564288Y-27886051D01*
X222361868Y-27952212D01*
X222352359Y-27956209D01*
X222163463Y-28054542D01*
X222154738Y-28060036D01*
X221984433Y-28187905D01*
X221976726Y-28194748D01*
X221829590Y-28348717D01*
X221823104Y-28356727D01*
X221718193Y-28510521D01*
X221663282Y-28555524D01*
X221592757Y-28563695D01*
X221529010Y-28532441D01*
X221508313Y-28507957D01*
X221427427Y-28382926D01*
X221421136Y-28374757D01*
X221277806Y-28217240D01*
X221270273Y-28210215D01*
X221103139Y-28078222D01*
X221094552Y-28072517D01*
X220908117Y-27969599D01*
X220898705Y-27965369D01*
X220697959Y-27894280D01*
X220687988Y-27891646D01*
X220616837Y-27878972D01*
X220603540Y-27880432D01*
X220599000Y-27894989D01*
X220599000Y-28937885D01*
X220091000Y-28937885D01*
X220091000Y-27893102D01*
X220087082Y-27879758D01*
X220072806Y-27877771D01*
X220034324Y-27883660D01*
X220024288Y-27886051D01*
X219821868Y-27952212D01*
X219812359Y-27956209D01*
X219623463Y-28054542D01*
X219614738Y-28060036D01*
X219444433Y-28187905D01*
X219436726Y-28194748D01*
X219289590Y-28348717D01*
X219283104Y-28356727D01*
X219163098Y-28532649D01*
X219158000Y-28541623D01*
X219068338Y-28734783D01*
X219064775Y-28744470D01*
X219009389Y-28944183D01*
X205494913Y-28944183D01*
X205406269Y-28776763D01*
X205402769Y-28770937D01*
X205205697Y-28479862D01*
X205201590Y-28474453D01*
X205088565Y-28341179D01*
X205075740Y-28332743D01*
X205065416Y-28338795D01*
X202937020Y-30467190D01*
X202929408Y-30481131D01*
X202199357Y-30481131D01*
X202200592Y-30478869D01*
X202200461Y-30477034D01*
X202196210Y-30470420D01*
X200065992Y-28340203D01*
X200052455Y-28332811D01*
X200042753Y-28339599D01*
X199935430Y-28465257D01*
X199931296Y-28470664D01*
X199733215Y-28761041D01*
X199729697Y-28766851D01*
X199627148Y-28958907D01*
X199577418Y-29009576D01*
X199508188Y-29025317D01*
X199441438Y-29001130D01*
X199398362Y-28944695D01*
X199390000Y-28899559D01*
X199390000Y-27431000D01*
X199410002Y-27362879D01*
X199463658Y-27316386D01*
X199516000Y-27305000D01*
X200976051Y-27305000D01*
X201044172Y-27325002D01*
G37*
%TD.AperFunction*%
%TD*%
M02*
