%TF.GenerationSoftware,KiCad,Pcbnew,(6.0.8)*%
%TF.CreationDate,2022-10-23T00:13:42+03:00*%
%TF.ProjectId,PowerBoard,506f7765-7242-46f6-9172-642e6b696361,rev?*%
%TF.SameCoordinates,Original*%
%TF.FileFunction,Soldermask,Top*%
%TF.FilePolarity,Negative*%
%FSLAX46Y46*%
G04 Gerber Fmt 4.6, Leading zero omitted, Abs format (unit mm)*
G04 Created by KiCad (PCBNEW (6.0.8)) date 2022-10-23 00:13:42*
%MOMM*%
%LPD*%
G01*
G04 APERTURE LIST*
G04 Aperture macros list*
%AMRoundRect*
0 Rectangle with rounded corners*
0 $1 Rounding radius*
0 $2 $3 $4 $5 $6 $7 $8 $9 X,Y pos of 4 corners*
0 Add a 4 corners polygon primitive as box body*
4,1,4,$2,$3,$4,$5,$6,$7,$8,$9,$2,$3,0*
0 Add four circle primitives for the rounded corners*
1,1,$1+$1,$2,$3*
1,1,$1+$1,$4,$5*
1,1,$1+$1,$6,$7*
1,1,$1+$1,$8,$9*
0 Add four rect primitives between the rounded corners*
20,1,$1+$1,$2,$3,$4,$5,0*
20,1,$1+$1,$4,$5,$6,$7,0*
20,1,$1+$1,$6,$7,$8,$9,0*
20,1,$1+$1,$8,$9,$2,$3,0*%
G04 Aperture macros list end*
%ADD10R,1.600000X1.600000*%
%ADD11C,1.600000*%
%ADD12R,1.700000X1.700000*%
%ADD13O,1.700000X1.700000*%
%ADD14RoundRect,0.237500X-0.237500X0.250000X-0.237500X-0.250000X0.237500X-0.250000X0.237500X0.250000X0*%
%ADD15R,2.400000X2.400000*%
%ADD16C,2.400000*%
%ADD17R,1.800000X1.800000*%
%ADD18C,1.800000*%
%ADD19C,3.600000*%
%ADD20C,5.600000*%
%ADD21R,3.000000X3.000000*%
%ADD22C,3.000000*%
%ADD23RoundRect,0.250000X0.450000X-0.350000X0.450000X0.350000X-0.450000X0.350000X-0.450000X-0.350000X0*%
%ADD24O,1.800000X1.800000*%
%ADD25R,3.200000X3.200000*%
%ADD26O,3.200000X3.200000*%
%ADD27R,2.000000X1.500000*%
%ADD28R,2.000000X3.800000*%
%ADD29R,1.100000X4.600000*%
%ADD30R,10.800000X9.400000*%
%ADD31RoundRect,0.250000X0.400000X1.450000X-0.400000X1.450000X-0.400000X-1.450000X0.400000X-1.450000X0*%
%ADD32RoundRect,0.250000X0.412500X0.650000X-0.412500X0.650000X-0.412500X-0.650000X0.412500X-0.650000X0*%
%ADD33RoundRect,0.250000X0.650000X-0.412500X0.650000X0.412500X-0.650000X0.412500X-0.650000X-0.412500X0*%
G04 APERTURE END LIST*
D10*
%TO.C,C1*%
X232410000Y-67012755D03*
D11*
X232410000Y-63512755D03*
%TD*%
D12*
%TO.C,J4*%
X217170000Y-65405000D03*
D13*
X219710000Y-65405000D03*
%TD*%
D14*
%TO.C,R1*%
X248285000Y-58420000D03*
X248285000Y-60245000D03*
%TD*%
D15*
%TO.C,C2*%
X219710000Y-46017246D03*
D16*
X219710000Y-53517246D03*
%TD*%
D17*
%TO.C,D4*%
X245110000Y-57150000D03*
D18*
X242570000Y-57150000D03*
%TD*%
D19*
%TO.C,H3*%
X246380000Y-30480000D03*
D20*
X246380000Y-30480000D03*
%TD*%
D12*
%TO.C,J6*%
X233045000Y-29210000D03*
D13*
X230505000Y-29210000D03*
X227965000Y-29210000D03*
X225425000Y-29210000D03*
X222885000Y-29210000D03*
X220345000Y-29210000D03*
%TD*%
D21*
%TO.C,J3*%
X207645000Y-60325000D03*
D22*
X207645000Y-65405000D03*
%TD*%
D20*
%TO.C,H1*%
X246380000Y-81280000D03*
D19*
X246380000Y-81280000D03*
%TD*%
D23*
%TO.C,R3*%
X202565000Y-50800000D03*
X202565000Y-48800000D03*
%TD*%
D17*
%TO.C,D3*%
X206375000Y-40640000D03*
D18*
X208915000Y-40640000D03*
%TD*%
D21*
%TO.C,J1*%
X233680000Y-78740000D03*
D22*
X238760000Y-78740000D03*
%TD*%
D12*
%TO.C,J2*%
X215265000Y-71120000D03*
D13*
X217805000Y-71120000D03*
X220345000Y-71120000D03*
X222885000Y-71120000D03*
%TD*%
D17*
%TO.C,U1*%
X227335000Y-74405000D03*
D24*
X226065000Y-79485000D03*
X224795000Y-74405000D03*
X223525000Y-79485000D03*
X222255000Y-74405000D03*
X220985000Y-79485000D03*
X219715000Y-74405000D03*
X218445000Y-79485000D03*
X217175000Y-74405000D03*
X215905000Y-79485000D03*
X214635000Y-74405000D03*
X213365000Y-79485000D03*
X212095000Y-74405000D03*
X210825000Y-79485000D03*
X209555000Y-74405000D03*
%TD*%
D25*
%TO.C,D1*%
X245110000Y-35560000D03*
D26*
X245110000Y-50800000D03*
%TD*%
D27*
%TO.C,U3*%
X224130000Y-37225000D03*
D28*
X217830000Y-34925000D03*
D27*
X224130000Y-34925000D03*
X224130000Y-32625000D03*
%TD*%
D29*
%TO.C,U2*%
X231315000Y-49675000D03*
X233015000Y-49675000D03*
D30*
X234715000Y-40525000D03*
D29*
X234715000Y-49675000D03*
X236415000Y-49675000D03*
X238115000Y-49675000D03*
%TD*%
D19*
%TO.C,H4*%
X202565000Y-81280000D03*
D20*
X202565000Y-81280000D03*
%TD*%
D19*
%TO.C,H2*%
X202565000Y-30480000D03*
D20*
X202565000Y-30480000D03*
%TD*%
D21*
%TO.C,J5*%
X245110000Y-69850000D03*
D22*
X245110000Y-64770000D03*
%TD*%
D31*
%TO.C,L1*%
X240670000Y-33020000D03*
X236220000Y-33020000D03*
%TD*%
D32*
%TO.C,C3*%
X217755000Y-40005000D03*
X214630000Y-40005000D03*
%TD*%
D33*
%TO.C,C4*%
X226695000Y-42545000D03*
X226695000Y-39420000D03*
%TD*%
D14*
%TO.C,R4*%
X202565000Y-40362500D03*
X202565000Y-42187500D03*
%TD*%
D17*
%TO.C,D2*%
X206370000Y-50165000D03*
D18*
X208910000Y-50165000D03*
%TD*%
M02*
