%TF.GenerationSoftware,KiCad,Pcbnew,(6.0.8)*%
%TF.CreationDate,2022-10-23T00:13:42+03:00*%
%TF.ProjectId,PowerBoard,506f7765-7242-46f6-9172-642e6b696361,rev?*%
%TF.SameCoordinates,Original*%
%TF.FileFunction,Legend,Bot*%
%TF.FilePolarity,Positive*%
%FSLAX46Y46*%
G04 Gerber Fmt 4.6, Leading zero omitted, Abs format (unit mm)*
G04 Created by KiCad (PCBNEW (6.0.8)) date 2022-10-23 00:13:42*
%MOMM*%
%LPD*%
G01*
G04 APERTURE LIST*
%ADD10R,1.600000X1.600000*%
%ADD11C,1.600000*%
%ADD12R,1.700000X1.700000*%
%ADD13O,1.700000X1.700000*%
%ADD14R,2.400000X2.400000*%
%ADD15C,2.400000*%
%ADD16R,1.800000X1.800000*%
%ADD17C,1.800000*%
%ADD18C,3.600000*%
%ADD19C,5.600000*%
%ADD20R,3.000000X3.000000*%
%ADD21C,3.000000*%
%ADD22O,1.800000X1.800000*%
%ADD23R,3.200000X3.200000*%
%ADD24O,3.200000X3.200000*%
G04 APERTURE END LIST*
%LPC*%
D10*
%TO.C,C1*%
X232410000Y-67012755D03*
D11*
X232410000Y-63512755D03*
%TD*%
D12*
%TO.C,J4*%
X217170000Y-65405000D03*
D13*
X219710000Y-65405000D03*
%TD*%
D14*
%TO.C,C2*%
X219710000Y-46017246D03*
D15*
X219710000Y-53517246D03*
%TD*%
D16*
%TO.C,D4*%
X245110000Y-57150000D03*
D17*
X242570000Y-57150000D03*
%TD*%
D18*
%TO.C,H3*%
X246380000Y-30480000D03*
D19*
X246380000Y-30480000D03*
%TD*%
D12*
%TO.C,J6*%
X233045000Y-29210000D03*
D13*
X230505000Y-29210000D03*
X227965000Y-29210000D03*
X225425000Y-29210000D03*
X222885000Y-29210000D03*
X220345000Y-29210000D03*
%TD*%
D20*
%TO.C,J3*%
X207645000Y-60325000D03*
D21*
X207645000Y-65405000D03*
%TD*%
D19*
%TO.C,H1*%
X246380000Y-81280000D03*
D18*
X246380000Y-81280000D03*
%TD*%
D16*
%TO.C,D3*%
X206375000Y-40640000D03*
D17*
X208915000Y-40640000D03*
%TD*%
D20*
%TO.C,J1*%
X233680000Y-78740000D03*
D21*
X238760000Y-78740000D03*
%TD*%
D12*
%TO.C,J2*%
X215265000Y-71120000D03*
D13*
X217805000Y-71120000D03*
X220345000Y-71120000D03*
X222885000Y-71120000D03*
%TD*%
D16*
%TO.C,U1*%
X227335000Y-74405000D03*
D22*
X226065000Y-79485000D03*
X224795000Y-74405000D03*
X223525000Y-79485000D03*
X222255000Y-74405000D03*
X220985000Y-79485000D03*
X219715000Y-74405000D03*
X218445000Y-79485000D03*
X217175000Y-74405000D03*
X215905000Y-79485000D03*
X214635000Y-74405000D03*
X213365000Y-79485000D03*
X212095000Y-74405000D03*
X210825000Y-79485000D03*
X209555000Y-74405000D03*
%TD*%
D23*
%TO.C,D1*%
X245110000Y-35560000D03*
D24*
X245110000Y-50800000D03*
%TD*%
D19*
%TO.C,H4*%
X202565000Y-81280000D03*
D18*
X202565000Y-81280000D03*
%TD*%
%TO.C,H2*%
X202565000Y-30480000D03*
D19*
X202565000Y-30480000D03*
%TD*%
D20*
%TO.C,J5*%
X245110000Y-69850000D03*
D21*
X245110000Y-64770000D03*
%TD*%
D16*
%TO.C,D2*%
X206370000Y-50165000D03*
D17*
X208910000Y-50165000D03*
%TD*%
M02*
