M48
; DRILL file {KiCad (6.0.9)} date Sat Dec 24 19:37:13 2022
; FORMAT={-:-/ absolute / metric / decimal}
; #@! TF.CreationDate,2022-12-24T19:37:13+02:00
; #@! TF.GenerationSoftware,Kicad,Pcbnew,(6.0.9)
; #@! TF.FileFunction,Plated,1,2,PTH
FMAT,2
METRIC
; #@! TA.AperFunction,Plated,PTH,ViaDrill
T1C0.300
; #@! TA.AperFunction,Plated,PTH,ViaDrill
T2C0.500
; #@! TA.AperFunction,Plated,PTH,ComponentDrill
T3C1.000
; #@! TA.AperFunction,Plated,PTH,ComponentDrill
T4C2.200
%
G90
G05
T1
X73.541Y-70.62
X73.66Y-69.85
X73.66Y-71.247
X74.041Y-71.882
X74.168Y-69.342
X74.549Y-72.263
X74.676Y-68.961
X75.057Y-72.644
X75.184Y-68.453
X75.557Y-70.62
X75.692Y-69.977
X75.692Y-72.771
X75.819Y-68.072
X76.073Y-65.278
X76.073Y-66.167
X76.2Y-73.406
X76.327Y-64.135
X76.327Y-67.691
X76.581Y-63.5
X76.708Y-66.421
X76.708Y-67.183
X76.835Y-62.865
X76.835Y-73.406
X77.089Y-67.691
X77.47Y-73.406
X77.597Y-62.738
X77.978Y-67.945
X77.978Y-70.485
X78.105Y-64.897
X78.105Y-65.659
X78.105Y-73.406
X78.232Y-68.58
X78.232Y-69.215
X78.232Y-69.85
X78.359Y-62.738
X78.359Y-71.12
X78.359Y-71.882
X78.359Y-72.644
X78.613Y-67.945
X78.613Y-70.485
X78.867Y-64.897
X78.867Y-65.659
X78.867Y-71.501
X78.867Y-72.263
X78.867Y-73.025
X78.994Y-68.58
X78.994Y-69.215
X78.994Y-69.85
X79.121Y-62.738
X79.248Y-67.945
X79.248Y-70.485
X79.502Y-73.406
X80.01Y-67.691
X80.137Y-62.865
X80.137Y-73.406
X80.264Y-63.5
X80.645Y-66.675
X80.772Y-63.881
X80.772Y-67.437
X80.772Y-73.406
X80.899Y-63.119
X81.28Y-70.612
X81.28Y-73.025
X81.534Y-69.215
X81.534Y-73.66
X81.661Y-62.992
X81.788Y-72.517
X81.915Y-68.707
X82.042Y-73.152
X82.296Y-72.136
X82.296Y-73.914
X82.423Y-63.119
X82.55Y-63.881
X82.55Y-66.675
X82.55Y-67.437
X82.55Y-68.199
X82.677Y-71.628
X82.677Y-72.644
X82.677Y-73.279
X83.058Y-73.914
X83.185Y-63.119
X83.693Y-73.914
X83.82Y-63.119
X84.328Y-73.914
X84.455Y-63.119
X84.963Y-73.914
X85.09Y-63.119
X85.598Y-73.914
X85.725Y-63.119
X85.725Y-63.754
X85.725Y-64.389
X85.725Y-65.024
X85.725Y-65.659
X85.725Y-66.294
X85.725Y-66.929
X85.725Y-67.564
X85.725Y-68.199
X85.725Y-68.834
X85.725Y-69.469
X85.725Y-70.104
X85.725Y-70.739
X85.725Y-71.374
X85.725Y-72.009
X85.725Y-72.644
X85.725Y-73.279
X86.233Y-73.914
X86.36Y-63.119
X86.36Y-64.389
X86.36Y-65.659
X86.36Y-66.929
X86.36Y-68.199
X86.36Y-69.469
X86.36Y-70.739
X86.36Y-72.009
X86.36Y-72.644
X86.36Y-73.279
X86.741Y-63.754
X86.741Y-65.024
X86.741Y-66.294
X86.741Y-67.564
X86.741Y-68.834
X86.741Y-70.104
X86.741Y-71.374
X86.868Y-73.914
X86.995Y-63.119
X87.249Y-64.389
X87.249Y-65.659
X87.249Y-66.929
X87.249Y-68.199
X87.249Y-69.469
X87.249Y-70.739
X87.249Y-72.009
X87.249Y-72.644
X87.249Y-73.279
X87.503Y-73.914
X87.63Y-63.119
X87.884Y-63.754
X87.884Y-64.389
X87.884Y-65.024
X87.884Y-65.659
X87.884Y-66.294
X87.884Y-66.929
X87.884Y-67.564
X87.884Y-68.199
X87.884Y-68.834
X87.884Y-69.469
X87.884Y-70.104
X87.884Y-70.739
X87.884Y-71.374
X87.884Y-72.009
X87.884Y-72.644
X87.884Y-73.279
X88.138Y-73.914
X88.265Y-63.119
X88.519Y-64.389
X88.519Y-65.659
X88.519Y-66.929
X88.519Y-68.199
X88.519Y-69.469
X88.519Y-70.739
X88.519Y-72.009
X88.519Y-72.644
X88.519Y-73.279
X88.773Y-73.914
X88.9Y-63.119
X89.027Y-63.754
X89.027Y-65.024
X89.027Y-66.294
X89.027Y-67.564
X89.027Y-68.834
X89.027Y-70.104
X89.027Y-71.374
X89.408Y-73.914
X89.535Y-63.119
X89.535Y-64.389
X89.535Y-65.659
X89.535Y-66.929
X89.535Y-68.199
X89.535Y-69.469
X89.535Y-70.739
X89.535Y-72.009
X89.535Y-72.644
X89.535Y-73.279
X90.043Y-73.914
X90.17Y-63.119
X90.17Y-63.754
X90.17Y-64.389
X90.17Y-65.024
X90.17Y-65.659
X90.17Y-66.294
X90.17Y-66.929
X90.17Y-67.564
X90.17Y-68.199
X90.17Y-68.834
X90.17Y-69.469
X90.17Y-70.104
X90.17Y-70.739
X90.17Y-71.374
X90.17Y-72.009
X90.17Y-72.644
X90.17Y-73.279
X90.678Y-73.914
X90.805Y-63.119
X90.805Y-64.389
X90.805Y-65.659
X90.805Y-66.929
X90.805Y-68.199
X90.805Y-69.469
X90.805Y-70.739
X90.805Y-72.009
X90.805Y-72.644
X90.805Y-73.279
X91.186Y-63.754
X91.186Y-65.024
X91.186Y-66.294
X91.186Y-67.564
X91.186Y-68.834
X91.186Y-70.104
X91.186Y-71.374
X91.313Y-73.914
X91.44Y-63.119
X91.567Y-64.389
X91.567Y-65.659
X91.567Y-66.929
X91.567Y-68.199
X91.567Y-69.469
X91.567Y-70.739
X91.567Y-72.009
X91.567Y-72.644
X91.567Y-73.279
X91.948Y-73.914
X92.075Y-63.119
X92.202Y-63.754
X92.202Y-64.389
X92.202Y-65.024
X92.202Y-65.659
X92.202Y-66.294
X92.202Y-66.929
X92.202Y-67.564
X92.202Y-68.199
X92.202Y-68.834
X92.202Y-69.469
X92.202Y-70.104
X92.202Y-70.739
X92.202Y-71.374
X92.202Y-72.009
X92.202Y-72.644
X92.202Y-73.279
X92.583Y-73.914
X92.71Y-63.119
X93.218Y-73.914
X93.345Y-63.119
X93.853Y-73.914
X93.98Y-63.119
X94.488Y-73.914
X94.615Y-63.119
X95.123Y-73.279
X95.123Y-73.914
X95.25Y-63.119
X95.25Y-63.754
X95.25Y-64.389
X95.25Y-67.31
X95.25Y-68.326
X95.25Y-69.215
X95.504Y-72.771
X95.758Y-70.993
T2
X71.628Y-67.691
X71.628Y-68.834
X71.628Y-72.771
X71.628Y-74.041
X72.771Y-68.072
X72.898Y-72.771
X72.898Y-74.041
X74.168Y-74.041
X75.438Y-74.041
X75.565Y-62.992
X96.393Y-74.168
X96.901Y-71.247
X99.441Y-65.024
X100.33Y-71.247
X103.251Y-73.533
X103.632Y-67.183
X105.41Y-67.183
X106.934Y-65.024
X106.934Y-66.548
X108.585Y-65.024
X108.585Y-66.548
X108.712Y-70.993
X108.839Y-68.199
X110.744Y-74.168
T3
X110.363Y-64.516
X110.363Y-67.056
X110.363Y-69.596
X110.363Y-72.136
T4
X73.406Y-65.151
X105.664Y-71.628
T0
M30
