%TF.GenerationSoftware,KiCad,Pcbnew,(6.0.9)*%
%TF.CreationDate,2022-12-24T19:37:36+02:00*%
%TF.ProjectId,GPSBoard,47505342-6f61-4726-942e-6b696361645f,rev?*%
%TF.SameCoordinates,Original*%
%TF.FileFunction,Copper,L1,Top*%
%TF.FilePolarity,Positive*%
%FSLAX46Y46*%
G04 Gerber Fmt 4.6, Leading zero omitted, Abs format (unit mm)*
G04 Created by KiCad (PCBNEW (6.0.9)) date 2022-12-24 19:37:36*
%MOMM*%
%LPD*%
G01*
G04 APERTURE LIST*
G04 Aperture macros list*
%AMRoundRect*
0 Rectangle with rounded corners*
0 $1 Rounding radius*
0 $2 $3 $4 $5 $6 $7 $8 $9 X,Y pos of 4 corners*
0 Add a 4 corners polygon primitive as box body*
4,1,4,$2,$3,$4,$5,$6,$7,$8,$9,$2,$3,0*
0 Add four circle primitives for the rounded corners*
1,1,$1+$1,$2,$3*
1,1,$1+$1,$4,$5*
1,1,$1+$1,$6,$7*
1,1,$1+$1,$8,$9*
0 Add four rect primitives between the rounded corners*
20,1,$1+$1,$2,$3,$4,$5,0*
20,1,$1+$1,$4,$5,$6,$7,0*
20,1,$1+$1,$6,$7,$8,$9,0*
20,1,$1+$1,$8,$9,$2,$3,0*%
G04 Aperture macros list end*
%TA.AperFunction,Profile*%
%ADD10C,0.050000*%
%TD*%
%TA.AperFunction,SMDPad,CuDef*%
%ADD11RoundRect,0.237500X0.237500X-0.287500X0.237500X0.287500X-0.237500X0.287500X-0.237500X-0.287500X0*%
%TD*%
%TA.AperFunction,SMDPad,CuDef*%
%ADD12RoundRect,0.237500X-0.250000X-0.237500X0.250000X-0.237500X0.250000X0.237500X-0.250000X0.237500X0*%
%TD*%
%TA.AperFunction,SMDPad,CuDef*%
%ADD13RoundRect,0.250000X0.362500X0.700000X-0.362500X0.700000X-0.362500X-0.700000X0.362500X-0.700000X0*%
%TD*%
%TA.AperFunction,SMDPad,CuDef*%
%ADD14R,1.000000X1.000000*%
%TD*%
%TA.AperFunction,SMDPad,CuDef*%
%ADD15R,2.200000X1.050000*%
%TD*%
%TA.AperFunction,SMDPad,CuDef*%
%ADD16RoundRect,0.250000X-0.650000X0.412500X-0.650000X-0.412500X0.650000X-0.412500X0.650000X0.412500X0*%
%TD*%
%TA.AperFunction,SMDPad,CuDef*%
%ADD17R,0.250000X0.360000*%
%TD*%
%TA.AperFunction,SMDPad,CuDef*%
%ADD18RoundRect,0.237500X0.287500X0.237500X-0.287500X0.237500X-0.287500X-0.237500X0.287500X-0.237500X0*%
%TD*%
%TA.AperFunction,SMDPad,CuDef*%
%ADD19RoundRect,0.250000X-0.400000X-0.625000X0.400000X-0.625000X0.400000X0.625000X-0.400000X0.625000X0*%
%TD*%
%TA.AperFunction,ComponentPad*%
%ADD20C,2.600000*%
%TD*%
%TA.AperFunction,ConnectorPad*%
%ADD21C,4.400000*%
%TD*%
%TA.AperFunction,SMDPad,CuDef*%
%ADD22R,0.600000X0.300000*%
%TD*%
%TA.AperFunction,SMDPad,CuDef*%
%ADD23R,0.250000X0.190000*%
%TD*%
%TA.AperFunction,SMDPad,CuDef*%
%ADD24RoundRect,0.250000X-0.700000X0.362500X-0.700000X-0.362500X0.700000X-0.362500X0.700000X0.362500X0*%
%TD*%
%TA.AperFunction,ComponentPad*%
%ADD25R,1.700000X1.700000*%
%TD*%
%TA.AperFunction,ComponentPad*%
%ADD26O,1.700000X1.700000*%
%TD*%
%TA.AperFunction,SMDPad,CuDef*%
%ADD27R,1.800000X0.700000*%
%TD*%
%TA.AperFunction,SMDPad,CuDef*%
%ADD28R,1.800000X0.800000*%
%TD*%
%TA.AperFunction,ViaPad*%
%ADD29C,0.600000*%
%TD*%
%TA.AperFunction,ViaPad*%
%ADD30C,1.000000*%
%TD*%
%TA.AperFunction,Conductor*%
%ADD31C,0.250000*%
%TD*%
%TA.AperFunction,Conductor*%
%ADD32C,0.500000*%
%TD*%
%TA.AperFunction,Conductor*%
%ADD33C,0.293370*%
%TD*%
%TA.AperFunction,Conductor*%
%ADD34C,1.000000*%
%TD*%
G04 APERTURE END LIST*
D10*
X70739000Y-62230000D02*
X113157000Y-62230000D01*
X113157000Y-62230000D02*
X113157000Y-74930000D01*
X113157000Y-74930000D02*
X70739000Y-74930000D01*
X70739000Y-74930000D02*
X70739000Y-62230000D01*
D11*
%TO.P,D4,1,K*%
%TO.N,Net-(D4-Pad1)*%
X101854000Y-65151000D03*
%TO.P,D4,2,A*%
%TO.N,VCC*%
X101854000Y-63401000D03*
%TD*%
D12*
%TO.P,R3,1*%
%TO.N,Net-(D3-Pad1)*%
X100203000Y-72644000D03*
%TO.P,R3,2*%
%TO.N,GND*%
X102028000Y-72644000D03*
%TD*%
D13*
%TO.P,L2,1,1*%
%TO.N,Net-(D1-Pad2)*%
X80264000Y-69215000D03*
%TO.P,L2,2,2*%
%TO.N,Net-(FL1-Pad1)*%
X76939000Y-69215000D03*
%TD*%
D14*
%TO.P,J2,1,In*%
%TO.N,Net-(D1-Pad2)*%
X80010000Y-65278000D03*
D15*
%TO.P,J2,2,Ext*%
%TO.N,GND*%
X78510000Y-66753000D03*
D14*
X77010000Y-65278000D03*
D15*
X78510000Y-63803000D03*
%TD*%
D16*
%TO.P,C1,1*%
%TO.N,VCC*%
X99441000Y-63500000D03*
%TO.P,C1,2*%
%TO.N,GND*%
X99441000Y-66625000D03*
%TD*%
D17*
%TO.P,D1,1,A1*%
%TO.N,GND*%
X81661000Y-63930000D03*
%TO.P,D1,2,A2*%
%TO.N,Net-(D1-Pad2)*%
X81661000Y-64770000D03*
%TD*%
D12*
%TO.P,R2,1*%
%TO.N,Net-(D2-Pad1)*%
X99949000Y-68580000D03*
%TO.P,R2,2*%
%TO.N,GND*%
X101774000Y-68580000D03*
%TD*%
D18*
%TO.P,D2,1,K*%
%TO.N,Net-(D2-Pad1)*%
X98284000Y-68580000D03*
%TO.P,D2,2,A*%
%TO.N,RX_GPS*%
X96534000Y-68580000D03*
%TD*%
D19*
%TO.P,R1,1*%
%TO.N,Net-(FL1-Pad3)*%
X77089000Y-71882000D03*
%TO.P,R1,2*%
%TO.N,Net-(IC1-Pad14)*%
X80189000Y-71882000D03*
%TD*%
D20*
%TO.P,H2,1,1*%
%TO.N,GND*%
X105664000Y-71628000D03*
D21*
X105664000Y-71628000D03*
%TD*%
D18*
%TO.P,D3,1,K*%
%TO.N,Net-(D3-Pad1)*%
X98397000Y-72644000D03*
%TO.P,D3,2,A*%
%TO.N,TX_GPS*%
X96647000Y-72644000D03*
%TD*%
D22*
%TO.P,FL1,1,IN/OUT*%
%TO.N,Net-(FL1-Pad1)*%
X74549000Y-70120000D03*
D23*
%TO.P,FL1,2,GND_1*%
%TO.N,GND*%
X74299000Y-70620000D03*
D22*
%TO.P,FL1,3,OUT/IN*%
%TO.N,Net-(FL1-Pad3)*%
X74549000Y-71120000D03*
D23*
%TO.P,FL1,4,GND_2*%
%TO.N,GND*%
X74799000Y-70620000D03*
%TD*%
D21*
%TO.P,H1,1,1*%
%TO.N,GND*%
X73406000Y-65151000D03*
D20*
X73406000Y-65151000D03*
%TD*%
D12*
%TO.P,R4,1*%
%TO.N,Net-(D4-Pad1)*%
X103505000Y-65278000D03*
%TO.P,R4,2*%
%TO.N,GND*%
X105330000Y-65278000D03*
%TD*%
D24*
%TO.P,L1,1,1*%
%TO.N,VCC*%
X96901000Y-63373000D03*
%TO.P,L1,2,2*%
%TO.N,+3V3*%
X96901000Y-66698000D03*
%TD*%
D25*
%TO.P,J1,1,Pin_1*%
%TO.N,VCC*%
X110363000Y-64516000D03*
D26*
%TO.P,J1,2,Pin_2*%
%TO.N,GND*%
X110363000Y-67056000D03*
%TO.P,J1,3,Pin_3*%
%TO.N,RX_GPS*%
X110363000Y-69596000D03*
%TO.P,J1,4,Pin_4*%
%TO.N,TX_GPS*%
X110363000Y-72136000D03*
%TD*%
D27*
%TO.P,IC1,1,GND_1*%
%TO.N,GND*%
X93650000Y-72980000D03*
D28*
%TO.P,IC1,2,TXD*%
%TO.N,TX_GPS*%
X93650000Y-71880000D03*
%TO.P,IC1,3,RXD*%
%TO.N,RX_GPS*%
X93650000Y-70780000D03*
%TO.P,IC1,4,TIMEPULSE*%
%TO.N,unconnected-(IC1-Pad4)*%
X93650000Y-69680000D03*
%TO.P,IC1,5,EXTINT*%
%TO.N,unconnected-(IC1-Pad5)*%
X93650000Y-68580000D03*
%TO.P,IC1,6,V_BCKP*%
%TO.N,unconnected-(IC1-Pad6)*%
X93650000Y-67480000D03*
%TO.P,IC1,7,V_IO*%
%TO.N,+3V3*%
X93650000Y-66380000D03*
%TO.P,IC1,8,VCC*%
X93650000Y-65280000D03*
D27*
%TO.P,IC1,9,RESET_N*%
%TO.N,unconnected-(IC1-Pad9)*%
X93650000Y-64180000D03*
%TO.P,IC1,10,GND_2*%
%TO.N,GND*%
X84150000Y-64180000D03*
D28*
%TO.P,IC1,11,RF_IN*%
%TO.N,Net-(D1-Pad2)*%
X84150000Y-65280000D03*
%TO.P,IC1,12,GND_3*%
%TO.N,GND*%
X84150000Y-66380000D03*
%TO.P,IC1,13,LNA_EN*%
%TO.N,unconnected-(IC1-Pad13)*%
X84150000Y-67480000D03*
%TO.P,IC1,14,VCC_RF*%
%TO.N,Net-(IC1-Pad14)*%
X84150000Y-68580000D03*
%TO.P,IC1,15,RESERVED*%
%TO.N,unconnected-(IC1-Pad15)*%
X84150000Y-69680000D03*
%TO.P,IC1,16,SDA*%
%TO.N,unconnected-(IC1-Pad16)*%
X84150000Y-70780000D03*
%TO.P,IC1,17,SCL*%
%TO.N,unconnected-(IC1-Pad17)*%
X84150000Y-71880000D03*
D27*
%TO.P,IC1,18,SAFEBOOT_N*%
%TO.N,unconnected-(IC1-Pad18)*%
X84150000Y-72980000D03*
%TD*%
D29*
%TO.N,GND*%
X77597000Y-62738000D03*
X75057000Y-72644000D03*
X90170000Y-66929000D03*
X89535000Y-63119000D03*
X83820000Y-63119000D03*
X78994000Y-69215000D03*
D30*
X71628000Y-72771000D03*
D29*
X80772000Y-73406000D03*
X86360000Y-72644000D03*
X85725000Y-71374000D03*
X88773000Y-73914000D03*
X92202000Y-64389000D03*
X92202000Y-66929000D03*
X85725000Y-65024000D03*
X85090000Y-63119000D03*
X78613000Y-67945000D03*
X90805000Y-64389000D03*
X89027000Y-67564000D03*
X85725000Y-66929000D03*
X88900000Y-63119000D03*
X92202000Y-73279000D03*
X88519000Y-70739000D03*
D30*
X75565000Y-62992000D03*
D29*
X80772000Y-67437000D03*
X90170000Y-72644000D03*
X91567000Y-68199000D03*
X76327000Y-67691000D03*
D30*
X110744000Y-74168000D03*
D29*
X85725000Y-66294000D03*
X86360000Y-70739000D03*
X82296000Y-73914000D03*
X92075000Y-63119000D03*
X76327000Y-64135000D03*
X79121000Y-62738000D03*
X89027000Y-68834000D03*
X92202000Y-67564000D03*
X89535000Y-66929000D03*
X85725000Y-68834000D03*
X91567000Y-72644000D03*
X78867000Y-65659000D03*
X92202000Y-72009000D03*
X89535000Y-68199000D03*
X84963000Y-73914000D03*
X88519000Y-72644000D03*
X85725000Y-69469000D03*
X89027000Y-63754000D03*
X83693000Y-73914000D03*
X73660000Y-71247000D03*
X90805000Y-68199000D03*
X92202000Y-69469000D03*
X87884000Y-72009000D03*
X88265000Y-63119000D03*
X87884000Y-65024000D03*
X92202000Y-71374000D03*
X86741000Y-71374000D03*
X75692000Y-69977000D03*
X87249000Y-64389000D03*
X81788000Y-72517000D03*
X79502000Y-73406000D03*
X88519000Y-68199000D03*
X86741000Y-68834000D03*
X92202000Y-70739000D03*
X90170000Y-65659000D03*
X79248000Y-70485000D03*
X87884000Y-63754000D03*
X78359000Y-72644000D03*
X77089000Y-67691000D03*
X95250000Y-68326000D03*
X91186000Y-66294000D03*
X90805000Y-69469000D03*
X90043000Y-73914000D03*
X86360000Y-68199000D03*
X88519000Y-72009000D03*
X82296000Y-72136000D03*
X77978000Y-67945000D03*
X88519000Y-65659000D03*
X95123000Y-73914000D03*
X86360000Y-69469000D03*
X86741000Y-70104000D03*
X85598000Y-73914000D03*
X86741000Y-63754000D03*
X93345000Y-63119000D03*
X76073000Y-66167000D03*
X87884000Y-66294000D03*
X90170000Y-70104000D03*
X86360000Y-65659000D03*
X75692000Y-72771000D03*
X76835000Y-73406000D03*
X88519000Y-64389000D03*
X95504000Y-72771000D03*
X88519000Y-73279000D03*
X87884000Y-71374000D03*
D30*
X71628000Y-67691000D03*
D29*
X76581000Y-63500000D03*
D30*
X108839000Y-68199000D03*
D29*
X92202000Y-65659000D03*
X92202000Y-63754000D03*
X91567000Y-64389000D03*
X87884000Y-69469000D03*
X87249000Y-72644000D03*
X78232000Y-69850000D03*
X81661000Y-62992000D03*
X84328000Y-73914000D03*
X95758000Y-70993000D03*
X76200000Y-73406000D03*
X95250000Y-63119000D03*
X85725000Y-64389000D03*
X91186000Y-63754000D03*
X86741000Y-65024000D03*
X90170000Y-71374000D03*
X92710000Y-63119000D03*
X81915000Y-68707000D03*
X75557000Y-70620000D03*
X85725000Y-70739000D03*
X90170000Y-69469000D03*
X91186000Y-71374000D03*
X78994000Y-69850000D03*
X87884000Y-70104000D03*
X86868000Y-73914000D03*
X78867000Y-72263000D03*
X78867000Y-73025000D03*
X87884000Y-68199000D03*
X90170000Y-72009000D03*
D30*
X105410000Y-67183000D03*
X108712000Y-70993000D03*
D29*
X91186000Y-70104000D03*
X86360000Y-66929000D03*
X78867000Y-64897000D03*
X76708000Y-67183000D03*
X89408000Y-73914000D03*
X95250000Y-69215000D03*
X92202000Y-65024000D03*
X89535000Y-72644000D03*
X76073000Y-65278000D03*
X90805000Y-66929000D03*
X89535000Y-65659000D03*
D30*
X106934000Y-65024000D03*
D29*
X87249000Y-69469000D03*
X87884000Y-72644000D03*
X95250000Y-64389000D03*
X89027000Y-65024000D03*
X83185000Y-63119000D03*
X90170000Y-64389000D03*
X89535000Y-73279000D03*
X91186000Y-68834000D03*
X95250000Y-63754000D03*
X90170000Y-67564000D03*
X91567000Y-73279000D03*
X82423000Y-63119000D03*
X85725000Y-72644000D03*
X85725000Y-68199000D03*
X87249000Y-65659000D03*
X75819000Y-68072000D03*
X77978000Y-70485000D03*
X80772000Y-63881000D03*
X78232000Y-69215000D03*
X87884000Y-68834000D03*
X87249000Y-70739000D03*
X80137000Y-62865000D03*
X82550000Y-66675000D03*
X87249000Y-73279000D03*
X95123000Y-73279000D03*
X90170000Y-63754000D03*
D30*
X103251000Y-73533000D03*
D29*
X80264000Y-63500000D03*
X76708000Y-66421000D03*
D30*
X71628000Y-74041000D03*
D29*
X74549000Y-72263000D03*
X89027000Y-71374000D03*
X90170000Y-68834000D03*
X87884000Y-65659000D03*
X90170000Y-63119000D03*
X87503000Y-73914000D03*
X82550000Y-63881000D03*
X78359000Y-71882000D03*
X88519000Y-66929000D03*
X93980000Y-63119000D03*
X86360000Y-64389000D03*
X92202000Y-70104000D03*
X89535000Y-69469000D03*
X89535000Y-64389000D03*
D30*
X74168000Y-74041000D03*
D29*
X87249000Y-66929000D03*
X85725000Y-70104000D03*
X85725000Y-73279000D03*
X88138000Y-73914000D03*
D30*
X103632000Y-67183000D03*
D29*
X77470000Y-73406000D03*
X86360000Y-72009000D03*
X87884000Y-70739000D03*
X89027000Y-70104000D03*
X92583000Y-73914000D03*
X90805000Y-65659000D03*
X90678000Y-73914000D03*
X74676000Y-68961000D03*
X91567000Y-65659000D03*
X78867000Y-71501000D03*
X78105000Y-65659000D03*
X86995000Y-63119000D03*
X76835000Y-62865000D03*
X82550000Y-67437000D03*
X86233000Y-73914000D03*
D30*
X108585000Y-65024000D03*
X72771000Y-68072000D03*
D29*
X85725000Y-72009000D03*
X78105000Y-64897000D03*
X90170000Y-68199000D03*
X86741000Y-66294000D03*
X89535000Y-72009000D03*
X81280000Y-70612000D03*
X91313000Y-73914000D03*
D30*
X106934000Y-66548000D03*
D29*
X82677000Y-71628000D03*
X88519000Y-69469000D03*
X86741000Y-67564000D03*
X92202000Y-68199000D03*
D30*
X71628000Y-68834000D03*
D29*
X73660000Y-69850000D03*
X91186000Y-67564000D03*
X93853000Y-73914000D03*
X78359000Y-71120000D03*
X80645000Y-66675000D03*
X91186000Y-65024000D03*
X78613000Y-70485000D03*
X73541000Y-70620000D03*
X87884000Y-73279000D03*
X75184000Y-68453000D03*
X94488000Y-73914000D03*
X86360000Y-73279000D03*
X82677000Y-73279000D03*
X90170000Y-73279000D03*
X95250000Y-67310000D03*
X81534000Y-73660000D03*
X82550000Y-68199000D03*
X92202000Y-72644000D03*
X80137000Y-73406000D03*
X91948000Y-73914000D03*
X90805000Y-63119000D03*
X87884000Y-66929000D03*
X90170000Y-65024000D03*
D30*
X72898000Y-72771000D03*
D29*
X85725000Y-67564000D03*
X89535000Y-70739000D03*
X92202000Y-66294000D03*
X90170000Y-66294000D03*
X85725000Y-65659000D03*
D30*
X108585000Y-66548000D03*
D29*
X78232000Y-68580000D03*
X82042000Y-73152000D03*
X91567000Y-70739000D03*
X92202000Y-68834000D03*
X82677000Y-72644000D03*
X90805000Y-73279000D03*
X85725000Y-63119000D03*
X81534000Y-69215000D03*
X91567000Y-69469000D03*
X80010000Y-67691000D03*
X89027000Y-66294000D03*
X87249000Y-72009000D03*
X78359000Y-62738000D03*
X85725000Y-63754000D03*
D30*
X100330000Y-71247000D03*
X99441000Y-65024000D03*
D29*
X94615000Y-63119000D03*
X80899000Y-63119000D03*
X93218000Y-73914000D03*
X90805000Y-70739000D03*
X84455000Y-63119000D03*
X81280000Y-73025000D03*
X79248000Y-67945000D03*
X78105000Y-73406000D03*
X83058000Y-73914000D03*
X91440000Y-63119000D03*
X91567000Y-66929000D03*
D30*
X72898000Y-74041000D03*
D29*
X86360000Y-63119000D03*
X87884000Y-67564000D03*
D30*
X96901000Y-71247000D03*
X75438000Y-74041000D03*
D29*
X90805000Y-72009000D03*
X87884000Y-64389000D03*
X74041000Y-71882000D03*
X90805000Y-72644000D03*
X90170000Y-70739000D03*
X74168000Y-69342000D03*
X87249000Y-68199000D03*
X91567000Y-72009000D03*
D30*
X96393000Y-74168000D03*
D29*
X87630000Y-63119000D03*
X78994000Y-68580000D03*
%TD*%
D31*
%TO.N,GND*%
X81661000Y-63930000D02*
X81661000Y-62992000D01*
X74799000Y-70620000D02*
X75557000Y-70620000D01*
X74299000Y-70620000D02*
X73541000Y-70620000D01*
D32*
%TO.N,TX_GPS*%
X110363000Y-72136000D02*
X110363000Y-72263000D01*
X110363000Y-72263000D02*
X108077000Y-74549000D01*
X108077000Y-74549000D02*
X98552000Y-74549000D01*
X98552000Y-74549000D02*
X96647000Y-72644000D01*
X96647000Y-72644000D02*
X95883000Y-71880000D01*
X95883000Y-71880000D02*
X93650000Y-71880000D01*
%TO.N,RX_GPS*%
X96534000Y-68580000D02*
X96534000Y-69991000D01*
X108331000Y-69596000D02*
X107442000Y-68707000D01*
X96534000Y-69991000D02*
X96647000Y-70104000D01*
X95250000Y-70104000D02*
X94574000Y-70780000D01*
X110363000Y-69596000D02*
X108331000Y-69596000D01*
X107442000Y-68707000D02*
X104013000Y-68707000D01*
X94574000Y-70780000D02*
X93650000Y-70780000D01*
X104013000Y-68707000D02*
X102616000Y-70104000D01*
X96647000Y-70104000D02*
X95250000Y-70104000D01*
X102616000Y-70104000D02*
X96647000Y-70104000D01*
D33*
%TO.N,Net-(D1-Pad2)*%
X81661000Y-64770000D02*
X81661000Y-65151000D01*
X84148000Y-65278000D02*
X84150000Y-65280000D01*
X81788000Y-65278000D02*
X84148000Y-65278000D01*
X80010000Y-65278000D02*
X81788000Y-65278000D01*
X81661000Y-67818000D02*
X81661000Y-65151000D01*
X81661000Y-65151000D02*
X81788000Y-65278000D01*
X80264000Y-69215000D02*
X81661000Y-67818000D01*
D32*
%TO.N,+3V3*%
X96583000Y-66380000D02*
X93650000Y-66380000D01*
X95483000Y-65280000D02*
X96901000Y-66698000D01*
X96901000Y-66698000D02*
X96583000Y-66380000D01*
X93650000Y-65280000D02*
X95483000Y-65280000D01*
X93650000Y-66380000D02*
X93650000Y-65280000D01*
D33*
%TO.N,Net-(IC1-Pad14)*%
X80189000Y-71882000D02*
X81280000Y-71882000D01*
X82042000Y-71120000D02*
X82042000Y-69850000D01*
X81280000Y-71882000D02*
X82042000Y-71120000D01*
X82042000Y-69850000D02*
X83312000Y-68580000D01*
X83312000Y-68580000D02*
X84150000Y-68580000D01*
D34*
%TO.N,VCC*%
X99540000Y-63401000D02*
X99441000Y-63500000D01*
X97028000Y-63500000D02*
X96901000Y-63373000D01*
X109248000Y-63401000D02*
X101854000Y-63401000D01*
X101854000Y-63401000D02*
X99540000Y-63401000D01*
X99441000Y-63500000D02*
X97028000Y-63500000D01*
X110363000Y-64516000D02*
X109248000Y-63401000D01*
D32*
%TO.N,Net-(D2-Pad1)*%
X98284000Y-68580000D02*
X99949000Y-68580000D01*
%TO.N,Net-(D3-Pad1)*%
X98425000Y-72644000D02*
X98552000Y-72771000D01*
X98397000Y-72644000D02*
X98425000Y-72644000D01*
X98397000Y-72644000D02*
X100203000Y-72644000D01*
%TO.N,Net-(D4-Pad1)*%
X101981000Y-65278000D02*
X101854000Y-65151000D01*
X103505000Y-65278000D02*
X101981000Y-65278000D01*
D33*
%TO.N,Net-(FL1-Pad3)*%
X75311000Y-71882000D02*
X74549000Y-71120000D01*
X77089000Y-71882000D02*
X75311000Y-71882000D01*
%TO.N,Net-(FL1-Pad1)*%
X76939000Y-69215000D02*
X75454000Y-69215000D01*
X75454000Y-69215000D02*
X74549000Y-70120000D01*
%TD*%
%TA.AperFunction,Conductor*%
%TO.N,GND*%
G36*
X72999130Y-62504502D02*
G01*
X73045623Y-62558158D01*
X73055727Y-62628432D01*
X73026233Y-62693012D01*
X72966507Y-62731396D01*
X72953026Y-62734208D01*
X72953075Y-62734463D01*
X72941418Y-62736687D01*
X72650015Y-62811506D01*
X72642490Y-62813951D01*
X72362745Y-62924710D01*
X72355610Y-62928067D01*
X72091953Y-63073014D01*
X72085273Y-63077254D01*
X71871837Y-63232324D01*
X71863414Y-63243248D01*
X71870317Y-63256107D01*
X73393188Y-64778978D01*
X73407132Y-64786592D01*
X73408965Y-64786461D01*
X73415580Y-64782210D01*
X74666905Y-63530885D01*
X77156000Y-63530885D01*
X77160475Y-63546124D01*
X77161865Y-63547329D01*
X77169548Y-63549000D01*
X78237885Y-63549000D01*
X78253124Y-63544525D01*
X78254329Y-63543135D01*
X78256000Y-63535452D01*
X78256000Y-63530885D01*
X78764000Y-63530885D01*
X78768475Y-63546124D01*
X78769865Y-63547329D01*
X78777548Y-63549000D01*
X79845884Y-63549000D01*
X79861123Y-63544525D01*
X79862328Y-63543135D01*
X79863999Y-63535452D01*
X79863999Y-63259172D01*
X79862791Y-63246912D01*
X79851685Y-63191069D01*
X79842367Y-63168573D01*
X79800017Y-63105192D01*
X79782808Y-63087983D01*
X79719425Y-63045632D01*
X79696934Y-63036316D01*
X79641085Y-63025207D01*
X79628830Y-63024000D01*
X78782115Y-63024000D01*
X78766876Y-63028475D01*
X78765671Y-63029865D01*
X78764000Y-63037548D01*
X78764000Y-63530885D01*
X78256000Y-63530885D01*
X78256000Y-63042116D01*
X78251525Y-63026877D01*
X78250135Y-63025672D01*
X78242452Y-63024001D01*
X77391172Y-63024001D01*
X77378912Y-63025209D01*
X77323069Y-63036315D01*
X77300573Y-63045633D01*
X77237192Y-63087983D01*
X77219983Y-63105192D01*
X77177632Y-63168575D01*
X77168316Y-63191066D01*
X77157207Y-63246915D01*
X77156000Y-63259170D01*
X77156000Y-63530885D01*
X74666905Y-63530885D01*
X74942006Y-63255784D01*
X74948619Y-63243673D01*
X74939792Y-63232055D01*
X74726727Y-63077254D01*
X74720047Y-63073014D01*
X74456390Y-62928067D01*
X74449255Y-62924710D01*
X74169510Y-62813951D01*
X74161985Y-62811506D01*
X73870582Y-62736687D01*
X73858925Y-62734463D01*
X73859223Y-62732899D01*
X73800126Y-62707127D01*
X73760722Y-62648069D01*
X73759503Y-62577083D01*
X73796856Y-62516706D01*
X73860921Y-62486109D01*
X73880991Y-62484500D01*
X95712813Y-62484500D01*
X95780934Y-62504502D01*
X95827427Y-62558158D01*
X95837531Y-62628432D01*
X95813639Y-62686065D01*
X95802335Y-62701147D01*
X95759311Y-62758554D01*
X95759309Y-62758557D01*
X95753929Y-62765736D01*
X95703202Y-62901052D01*
X95696500Y-62962744D01*
X95696500Y-63783256D01*
X95703202Y-63844948D01*
X95753929Y-63980264D01*
X95759309Y-63987443D01*
X95759311Y-63987446D01*
X95813595Y-64059876D01*
X95840596Y-64095904D01*
X95847776Y-64101285D01*
X95949054Y-64177189D01*
X95949057Y-64177191D01*
X95956236Y-64182571D01*
X96045954Y-64216204D01*
X96084157Y-64230526D01*
X96084159Y-64230526D01*
X96091552Y-64233298D01*
X96099402Y-64234151D01*
X96099403Y-64234151D01*
X96149847Y-64239631D01*
X96153244Y-64240000D01*
X96862476Y-64240000D01*
X96892424Y-64243611D01*
X96934108Y-64253811D01*
X96939710Y-64254159D01*
X96939713Y-64254159D01*
X96945214Y-64254500D01*
X96945212Y-64254534D01*
X96949271Y-64254777D01*
X96953305Y-64255137D01*
X96960473Y-64256628D01*
X96967790Y-64256430D01*
X97037415Y-64254546D01*
X97040823Y-64254500D01*
X98364064Y-64254500D01*
X98432185Y-64274502D01*
X98439629Y-64279674D01*
X98539054Y-64354189D01*
X98539057Y-64354191D01*
X98546236Y-64359571D01*
X98635954Y-64393204D01*
X98674157Y-64407526D01*
X98674159Y-64407526D01*
X98681552Y-64410298D01*
X98689402Y-64411151D01*
X98689403Y-64411151D01*
X98724217Y-64414933D01*
X98743244Y-64417000D01*
X100138756Y-64417000D01*
X100157783Y-64414933D01*
X100192597Y-64411151D01*
X100192598Y-64411151D01*
X100200448Y-64410298D01*
X100207841Y-64407526D01*
X100207843Y-64407526D01*
X100246046Y-64393204D01*
X100335764Y-64359571D01*
X100342943Y-64354191D01*
X100342946Y-64354189D01*
X100444224Y-64278285D01*
X100451404Y-64272904D01*
X100501596Y-64205933D01*
X100558453Y-64163420D01*
X100602420Y-64155500D01*
X101408327Y-64155500D01*
X101476448Y-64175502D01*
X101522941Y-64229158D01*
X101533045Y-64299432D01*
X101503551Y-64364012D01*
X101452557Y-64399482D01*
X101386205Y-64424356D01*
X101386202Y-64424357D01*
X101377801Y-64427507D01*
X101265026Y-64512026D01*
X101180507Y-64624801D01*
X101177357Y-64633202D01*
X101177356Y-64633205D01*
X101166613Y-64661863D01*
X101131036Y-64756764D01*
X101124500Y-64816930D01*
X101124500Y-65485070D01*
X101131036Y-65545236D01*
X101180507Y-65677199D01*
X101265026Y-65789974D01*
X101377801Y-65874493D01*
X101386202Y-65877643D01*
X101386205Y-65877644D01*
X101446755Y-65900343D01*
X101509764Y-65923964D01*
X101569930Y-65930500D01*
X102138070Y-65930500D01*
X102198236Y-65923964D01*
X102261245Y-65900343D01*
X102321795Y-65877644D01*
X102321798Y-65877643D01*
X102330199Y-65874493D01*
X102419358Y-65807673D01*
X102485864Y-65782826D01*
X102494922Y-65782500D01*
X102777189Y-65782500D01*
X102845310Y-65802502D01*
X102878015Y-65832935D01*
X102888610Y-65847072D01*
X102903526Y-65866974D01*
X103016301Y-65951493D01*
X103024702Y-65954643D01*
X103024705Y-65954644D01*
X103080798Y-65975672D01*
X103148264Y-66000964D01*
X103208430Y-66007500D01*
X103801570Y-66007500D01*
X103861736Y-66000964D01*
X103929202Y-65975672D01*
X103985295Y-65954644D01*
X103985298Y-65954643D01*
X103993699Y-65951493D01*
X104106474Y-65866974D01*
X104190993Y-65754199D01*
X104194235Y-65745553D01*
X104237690Y-65629635D01*
X104240464Y-65622236D01*
X104247000Y-65562070D01*
X104247000Y-65558605D01*
X104588501Y-65558605D01*
X104588871Y-65565426D01*
X104594176Y-65614273D01*
X104597802Y-65629524D01*
X104641299Y-65745553D01*
X104649833Y-65761139D01*
X104723502Y-65859437D01*
X104736063Y-65871998D01*
X104834361Y-65945667D01*
X104849947Y-65954201D01*
X104965973Y-65997697D01*
X104981229Y-66001325D01*
X105030076Y-66006631D01*
X105036893Y-66007000D01*
X105057885Y-66007000D01*
X105073124Y-66002525D01*
X105074329Y-66001135D01*
X105076000Y-65993452D01*
X105076000Y-65988884D01*
X105584000Y-65988884D01*
X105588475Y-66004123D01*
X105589865Y-66005328D01*
X105597548Y-66006999D01*
X105623105Y-66006999D01*
X105629926Y-66006629D01*
X105678773Y-66001324D01*
X105694024Y-65997698D01*
X105810053Y-65954201D01*
X105825639Y-65945667D01*
X105923937Y-65871998D01*
X105936498Y-65859437D01*
X106010167Y-65761139D01*
X106018701Y-65745553D01*
X106062197Y-65629527D01*
X106065825Y-65614271D01*
X106071131Y-65565424D01*
X106071500Y-65558607D01*
X106071500Y-65550115D01*
X106067025Y-65534876D01*
X106065635Y-65533671D01*
X106057952Y-65532000D01*
X105602115Y-65532000D01*
X105586876Y-65536475D01*
X105585671Y-65537865D01*
X105584000Y-65545548D01*
X105584000Y-65988884D01*
X105076000Y-65988884D01*
X105076000Y-65550115D01*
X105071525Y-65534876D01*
X105070135Y-65533671D01*
X105062452Y-65532000D01*
X104606616Y-65532000D01*
X104591377Y-65536475D01*
X104590172Y-65537865D01*
X104588501Y-65545548D01*
X104588501Y-65558605D01*
X104247000Y-65558605D01*
X104247000Y-65005885D01*
X104588500Y-65005885D01*
X104592975Y-65021124D01*
X104594365Y-65022329D01*
X104602048Y-65024000D01*
X105057885Y-65024000D01*
X105073124Y-65019525D01*
X105074329Y-65018135D01*
X105076000Y-65010452D01*
X105076000Y-65005885D01*
X105584000Y-65005885D01*
X105588475Y-65021124D01*
X105589865Y-65022329D01*
X105597548Y-65024000D01*
X106053384Y-65024000D01*
X106068623Y-65019525D01*
X106069828Y-65018135D01*
X106071499Y-65010452D01*
X106071499Y-64997395D01*
X106071129Y-64990574D01*
X106065824Y-64941727D01*
X106062198Y-64926476D01*
X106018701Y-64810447D01*
X106010167Y-64794861D01*
X105936498Y-64696563D01*
X105923937Y-64684002D01*
X105825639Y-64610333D01*
X105810053Y-64601799D01*
X105694027Y-64558303D01*
X105678771Y-64554675D01*
X105629924Y-64549369D01*
X105623107Y-64549000D01*
X105602115Y-64549000D01*
X105586876Y-64553475D01*
X105585671Y-64554865D01*
X105584000Y-64562548D01*
X105584000Y-65005885D01*
X105076000Y-65005885D01*
X105076000Y-64567116D01*
X105071525Y-64551877D01*
X105070135Y-64550672D01*
X105062452Y-64549001D01*
X105036895Y-64549001D01*
X105030074Y-64549371D01*
X104981227Y-64554676D01*
X104965976Y-64558302D01*
X104849947Y-64601799D01*
X104834361Y-64610333D01*
X104736063Y-64684002D01*
X104723502Y-64696563D01*
X104649833Y-64794861D01*
X104641299Y-64810447D01*
X104597803Y-64926473D01*
X104594175Y-64941729D01*
X104588869Y-64990576D01*
X104588500Y-64997393D01*
X104588500Y-65005885D01*
X104247000Y-65005885D01*
X104247000Y-64993930D01*
X104240464Y-64933764D01*
X104213231Y-64861120D01*
X104194144Y-64810205D01*
X104194143Y-64810202D01*
X104190993Y-64801801D01*
X104106474Y-64689026D01*
X103993699Y-64604507D01*
X103985298Y-64601357D01*
X103985295Y-64601356D01*
X103893959Y-64567116D01*
X103861736Y-64555036D01*
X103805068Y-64548880D01*
X103804967Y-64548869D01*
X103801570Y-64548500D01*
X103208430Y-64548500D01*
X103205033Y-64548869D01*
X103204932Y-64548880D01*
X103148264Y-64555036D01*
X103116041Y-64567116D01*
X103024705Y-64601356D01*
X103024702Y-64601357D01*
X103016301Y-64604507D01*
X102903526Y-64689026D01*
X102898145Y-64696206D01*
X102898144Y-64696207D01*
X102878015Y-64723065D01*
X102821156Y-64765580D01*
X102777189Y-64773500D01*
X102670566Y-64773500D01*
X102602445Y-64753498D01*
X102555952Y-64699842D01*
X102552584Y-64691730D01*
X102530644Y-64633205D01*
X102530643Y-64633202D01*
X102527493Y-64624801D01*
X102442974Y-64512026D01*
X102330199Y-64427507D01*
X102321798Y-64424357D01*
X102321795Y-64424356D01*
X102255443Y-64399482D01*
X102198679Y-64356840D01*
X102173979Y-64290279D01*
X102189187Y-64220930D01*
X102239473Y-64170812D01*
X102299673Y-64155500D01*
X108883285Y-64155500D01*
X108951406Y-64175502D01*
X108972380Y-64192405D01*
X109221595Y-64441620D01*
X109255621Y-64503932D01*
X109258500Y-64530715D01*
X109258501Y-64963250D01*
X109258501Y-65391066D01*
X109273266Y-65465301D01*
X109329516Y-65549484D01*
X109413699Y-65605734D01*
X109487933Y-65620500D01*
X110362858Y-65620500D01*
X111238066Y-65620499D01*
X111273818Y-65613388D01*
X111300126Y-65608156D01*
X111300128Y-65608155D01*
X111312301Y-65605734D01*
X111322621Y-65598839D01*
X111322622Y-65598838D01*
X111386168Y-65556377D01*
X111396484Y-65549484D01*
X111452734Y-65465301D01*
X111467500Y-65391067D01*
X111467499Y-63640934D01*
X111458887Y-63597633D01*
X111455156Y-63578874D01*
X111455155Y-63578872D01*
X111452734Y-63566699D01*
X111439792Y-63547329D01*
X111403377Y-63492832D01*
X111396484Y-63482516D01*
X111312301Y-63426266D01*
X111238067Y-63411500D01*
X111141353Y-63411500D01*
X110377715Y-63411501D01*
X110309594Y-63391499D01*
X110288620Y-63374596D01*
X109828723Y-62914699D01*
X109816335Y-62900285D01*
X109811458Y-62893657D01*
X109803563Y-62882929D01*
X109763521Y-62848911D01*
X109756005Y-62841981D01*
X109750362Y-62836338D01*
X109728202Y-62818806D01*
X109724816Y-62816030D01*
X109675058Y-62773757D01*
X109675059Y-62773757D01*
X109669480Y-62769018D01*
X109662960Y-62765689D01*
X109657982Y-62762369D01*
X109652909Y-62759236D01*
X109647167Y-62754693D01*
X109603337Y-62734208D01*
X109582883Y-62724648D01*
X109529639Y-62677684D01*
X109510238Y-62609390D01*
X109530840Y-62541448D01*
X109584903Y-62495430D01*
X109636233Y-62484500D01*
X112776500Y-62484500D01*
X112844621Y-62504502D01*
X112891114Y-62558158D01*
X112902500Y-62610500D01*
X112902500Y-74549500D01*
X112882498Y-74617621D01*
X112828842Y-74664114D01*
X112776500Y-74675500D01*
X108968161Y-74675500D01*
X108900040Y-74655498D01*
X108853547Y-74601842D01*
X108843443Y-74531568D01*
X108872937Y-74466988D01*
X108879066Y-74460405D01*
X110075722Y-73263749D01*
X110138034Y-73229723D01*
X110192623Y-73229951D01*
X110218216Y-73235742D01*
X110223990Y-73235969D01*
X110223991Y-73235969D01*
X110247076Y-73236876D01*
X110421053Y-73243712D01*
X110521499Y-73229148D01*
X110616231Y-73215413D01*
X110616236Y-73215412D01*
X110621945Y-73214584D01*
X110627409Y-73212729D01*
X110627414Y-73212728D01*
X110808693Y-73151192D01*
X110808698Y-73151190D01*
X110814165Y-73149334D01*
X110991276Y-73050147D01*
X111038188Y-73011131D01*
X111142165Y-72924653D01*
X111147345Y-72920345D01*
X111171172Y-72891696D01*
X111273453Y-72768718D01*
X111273455Y-72768715D01*
X111277147Y-72764276D01*
X111352255Y-72630161D01*
X111373510Y-72592208D01*
X111373511Y-72592206D01*
X111376334Y-72587165D01*
X111378190Y-72581698D01*
X111378192Y-72581693D01*
X111439728Y-72400414D01*
X111439729Y-72400409D01*
X111441584Y-72394945D01*
X111442412Y-72389236D01*
X111442413Y-72389231D01*
X111470179Y-72197727D01*
X111470712Y-72194053D01*
X111472232Y-72136000D01*
X111460797Y-72011551D01*
X111454187Y-71939613D01*
X111454186Y-71939610D01*
X111453658Y-71933859D01*
X111398557Y-71738487D01*
X111387978Y-71717033D01*
X111311331Y-71561609D01*
X111308776Y-71556428D01*
X111299871Y-71544502D01*
X111236725Y-71459940D01*
X111187320Y-71393779D01*
X111038258Y-71255987D01*
X111033375Y-71252906D01*
X111033371Y-71252903D01*
X110871464Y-71150748D01*
X110866581Y-71147667D01*
X110678039Y-71072446D01*
X110672379Y-71071320D01*
X110672375Y-71071319D01*
X110484613Y-71033971D01*
X110484610Y-71033971D01*
X110478946Y-71032844D01*
X110473171Y-71032768D01*
X110473167Y-71032768D01*
X110371793Y-71031441D01*
X110275971Y-71030187D01*
X110270274Y-71031166D01*
X110270273Y-71031166D01*
X110131877Y-71054947D01*
X110075910Y-71064564D01*
X109885463Y-71134824D01*
X109711010Y-71238612D01*
X109706670Y-71242418D01*
X109706666Y-71242421D01*
X109584095Y-71349914D01*
X109558392Y-71372455D01*
X109554817Y-71376990D01*
X109554816Y-71376991D01*
X109541581Y-71393779D01*
X109432720Y-71531869D01*
X109430031Y-71536980D01*
X109430029Y-71536983D01*
X109415938Y-71563766D01*
X109338203Y-71711515D01*
X109278007Y-71905378D01*
X109254148Y-72106964D01*
X109260941Y-72210611D01*
X109266727Y-72298880D01*
X109267424Y-72309522D01*
X109268845Y-72315118D01*
X109268846Y-72315123D01*
X109317392Y-72506269D01*
X109315069Y-72506859D01*
X109318399Y-72567411D01*
X109284831Y-72627698D01*
X107904934Y-74007595D01*
X107842622Y-74041621D01*
X107815839Y-74044500D01*
X106853031Y-74044500D01*
X106784910Y-74024498D01*
X106738417Y-73970842D01*
X106728313Y-73900568D01*
X106757807Y-73835988D01*
X106792330Y-73808085D01*
X106978046Y-73705986D01*
X106984727Y-73701746D01*
X107198163Y-73546676D01*
X107206586Y-73535752D01*
X107199683Y-73522893D01*
X105676812Y-72000022D01*
X105662868Y-71992408D01*
X105661035Y-71992539D01*
X105654420Y-71996790D01*
X104127994Y-73523216D01*
X104121381Y-73535327D01*
X104130208Y-73546945D01*
X104343273Y-73701746D01*
X104349954Y-73705986D01*
X104535670Y-73808085D01*
X104585729Y-73858431D01*
X104600622Y-73927848D01*
X104575621Y-73994297D01*
X104518664Y-74036681D01*
X104474969Y-74044500D01*
X98813161Y-74044500D01*
X98745040Y-74024498D01*
X98724066Y-74007595D01*
X98305066Y-73588595D01*
X98271040Y-73526283D01*
X98276105Y-73455468D01*
X98318652Y-73398632D01*
X98385172Y-73373821D01*
X98394161Y-73373500D01*
X98731070Y-73373500D01*
X98791236Y-73366964D01*
X98839608Y-73348830D01*
X98914795Y-73320644D01*
X98914798Y-73320643D01*
X98923199Y-73317493D01*
X99035974Y-73232974D01*
X99049732Y-73214617D01*
X99061485Y-73198935D01*
X99118344Y-73156420D01*
X99162311Y-73148500D01*
X99475189Y-73148500D01*
X99543310Y-73168502D01*
X99576015Y-73198935D01*
X99587768Y-73214617D01*
X99601526Y-73232974D01*
X99714301Y-73317493D01*
X99722702Y-73320643D01*
X99722705Y-73320644D01*
X99797892Y-73348830D01*
X99846264Y-73366964D01*
X99906430Y-73373500D01*
X100499570Y-73373500D01*
X100559736Y-73366964D01*
X100608108Y-73348830D01*
X100683295Y-73320644D01*
X100683298Y-73320643D01*
X100691699Y-73317493D01*
X100804474Y-73232974D01*
X100888993Y-73120199D01*
X100892235Y-73111553D01*
X100935690Y-72995635D01*
X100938464Y-72988236D01*
X100945000Y-72928070D01*
X100945000Y-72924605D01*
X101286501Y-72924605D01*
X101286871Y-72931426D01*
X101292176Y-72980273D01*
X101295802Y-72995524D01*
X101339299Y-73111553D01*
X101347833Y-73127139D01*
X101421502Y-73225437D01*
X101434063Y-73237998D01*
X101532361Y-73311667D01*
X101547947Y-73320201D01*
X101663973Y-73363697D01*
X101679229Y-73367325D01*
X101728076Y-73372631D01*
X101734893Y-73373000D01*
X101755885Y-73373000D01*
X101771124Y-73368525D01*
X101772329Y-73367135D01*
X101774000Y-73359452D01*
X101774000Y-73354884D01*
X102282000Y-73354884D01*
X102286475Y-73370123D01*
X102287865Y-73371328D01*
X102295548Y-73372999D01*
X102321105Y-73372999D01*
X102327926Y-73372629D01*
X102376773Y-73367324D01*
X102392024Y-73363698D01*
X102508053Y-73320201D01*
X102523639Y-73311667D01*
X102621937Y-73237998D01*
X102634498Y-73225437D01*
X102708167Y-73127139D01*
X102716701Y-73111553D01*
X102760197Y-72995527D01*
X102763825Y-72980271D01*
X102769131Y-72931424D01*
X102769500Y-72924607D01*
X102769500Y-72916115D01*
X102765025Y-72900876D01*
X102763635Y-72899671D01*
X102755952Y-72898000D01*
X102300115Y-72898000D01*
X102284876Y-72902475D01*
X102283671Y-72903865D01*
X102282000Y-72911548D01*
X102282000Y-73354884D01*
X101774000Y-73354884D01*
X101774000Y-72916115D01*
X101769525Y-72900876D01*
X101768135Y-72899671D01*
X101760452Y-72898000D01*
X101304616Y-72898000D01*
X101289377Y-72902475D01*
X101288172Y-72903865D01*
X101286501Y-72911548D01*
X101286501Y-72924605D01*
X100945000Y-72924605D01*
X100945000Y-72371885D01*
X101286500Y-72371885D01*
X101290975Y-72387124D01*
X101292365Y-72388329D01*
X101300048Y-72390000D01*
X101755885Y-72390000D01*
X101771124Y-72385525D01*
X101772329Y-72384135D01*
X101774000Y-72376452D01*
X101774000Y-72371885D01*
X102282000Y-72371885D01*
X102286475Y-72387124D01*
X102287865Y-72388329D01*
X102295548Y-72390000D01*
X102751384Y-72390000D01*
X102766623Y-72385525D01*
X102767828Y-72384135D01*
X102769499Y-72376452D01*
X102769499Y-72363395D01*
X102769129Y-72356574D01*
X102763824Y-72307727D01*
X102760198Y-72292476D01*
X102716701Y-72176447D01*
X102708167Y-72160861D01*
X102634498Y-72062563D01*
X102621937Y-72050002D01*
X102523639Y-71976333D01*
X102508053Y-71967799D01*
X102392027Y-71924303D01*
X102376771Y-71920675D01*
X102327924Y-71915369D01*
X102321107Y-71915000D01*
X102300115Y-71915000D01*
X102284876Y-71919475D01*
X102283671Y-71920865D01*
X102282000Y-71928548D01*
X102282000Y-72371885D01*
X101774000Y-72371885D01*
X101774000Y-71933116D01*
X101769525Y-71917877D01*
X101768135Y-71916672D01*
X101760452Y-71915001D01*
X101734895Y-71915001D01*
X101728074Y-71915371D01*
X101679227Y-71920676D01*
X101663976Y-71924302D01*
X101547947Y-71967799D01*
X101532361Y-71976333D01*
X101434063Y-72050002D01*
X101421502Y-72062563D01*
X101347833Y-72160861D01*
X101339299Y-72176447D01*
X101295803Y-72292473D01*
X101292175Y-72307729D01*
X101286869Y-72356576D01*
X101286500Y-72363393D01*
X101286500Y-72371885D01*
X100945000Y-72371885D01*
X100945000Y-72359930D01*
X100938464Y-72299764D01*
X100917527Y-72243914D01*
X100892144Y-72176205D01*
X100892143Y-72176202D01*
X100888993Y-72167801D01*
X100804474Y-72055026D01*
X100691699Y-71970507D01*
X100683298Y-71967357D01*
X100683295Y-71967356D01*
X100579774Y-71928548D01*
X100559736Y-71921036D01*
X100499570Y-71914500D01*
X99906430Y-71914500D01*
X99846264Y-71921036D01*
X99826226Y-71928548D01*
X99722705Y-71967356D01*
X99722702Y-71967357D01*
X99714301Y-71970507D01*
X99601526Y-72055026D01*
X99596145Y-72062206D01*
X99596144Y-72062207D01*
X99576015Y-72089065D01*
X99519156Y-72131580D01*
X99475189Y-72139500D01*
X99162311Y-72139500D01*
X99094190Y-72119498D01*
X99061485Y-72089065D01*
X99041356Y-72062207D01*
X99041355Y-72062206D01*
X99035974Y-72055026D01*
X98923199Y-71970507D01*
X98914798Y-71967357D01*
X98914795Y-71967356D01*
X98811274Y-71928548D01*
X98791236Y-71921036D01*
X98731070Y-71914500D01*
X98062930Y-71914500D01*
X98002764Y-71921036D01*
X97982726Y-71928548D01*
X97879205Y-71967356D01*
X97879202Y-71967357D01*
X97870801Y-71970507D01*
X97758026Y-72055026D01*
X97673507Y-72167801D01*
X97670357Y-72176202D01*
X97670356Y-72176205D01*
X97639982Y-72257228D01*
X97597340Y-72313992D01*
X97530779Y-72338692D01*
X97461430Y-72323484D01*
X97411312Y-72273198D01*
X97404018Y-72257228D01*
X97373644Y-72176205D01*
X97373643Y-72176202D01*
X97370493Y-72167801D01*
X97285974Y-72055026D01*
X97173199Y-71970507D01*
X97164798Y-71967357D01*
X97164795Y-71967356D01*
X97061274Y-71928548D01*
X97041236Y-71921036D01*
X96981070Y-71914500D01*
X96683161Y-71914500D01*
X96615040Y-71894498D01*
X96594066Y-71877595D01*
X96348429Y-71631958D01*
X103205397Y-71631958D01*
X103224288Y-71932213D01*
X103225281Y-71940076D01*
X103281653Y-72235591D01*
X103283624Y-72243268D01*
X103376591Y-72529391D01*
X103379506Y-72536754D01*
X103507604Y-72808975D01*
X103511416Y-72815908D01*
X103672625Y-73069933D01*
X103677270Y-73076326D01*
X103746850Y-73160435D01*
X103759369Y-73168890D01*
X103770106Y-73162684D01*
X105291978Y-71640812D01*
X105298356Y-71629132D01*
X106028408Y-71629132D01*
X106028539Y-71630965D01*
X106032790Y-71637580D01*
X107556791Y-73161581D01*
X107570053Y-73168823D01*
X107580158Y-73161634D01*
X107650730Y-73076326D01*
X107655375Y-73069933D01*
X107816584Y-72815908D01*
X107820396Y-72808975D01*
X107948494Y-72536754D01*
X107951409Y-72529391D01*
X108044376Y-72243268D01*
X108046347Y-72235591D01*
X108102719Y-71940076D01*
X108103712Y-71932213D01*
X108122603Y-71631958D01*
X108122603Y-71624042D01*
X108103712Y-71323787D01*
X108102719Y-71315924D01*
X108046347Y-71020409D01*
X108044376Y-71012732D01*
X107951409Y-70726609D01*
X107948494Y-70719246D01*
X107820396Y-70447025D01*
X107816584Y-70440092D01*
X107655375Y-70186067D01*
X107650730Y-70179674D01*
X107581150Y-70095565D01*
X107568631Y-70087110D01*
X107557894Y-70093316D01*
X106036022Y-71615188D01*
X106028408Y-71629132D01*
X105298356Y-71629132D01*
X105299592Y-71626868D01*
X105299461Y-71625035D01*
X105295210Y-71618420D01*
X103771209Y-70094419D01*
X103757947Y-70087177D01*
X103747842Y-70094366D01*
X103677270Y-70179674D01*
X103672625Y-70186067D01*
X103511416Y-70440092D01*
X103507604Y-70447025D01*
X103379506Y-70719246D01*
X103376591Y-70726609D01*
X103283624Y-71012732D01*
X103281653Y-71020409D01*
X103225281Y-71315924D01*
X103224288Y-71323787D01*
X103205397Y-71624042D01*
X103205397Y-71631958D01*
X96348429Y-71631958D01*
X96289677Y-71573206D01*
X96282135Y-71563766D01*
X96281755Y-71564089D01*
X96275937Y-71557253D01*
X96271147Y-71549661D01*
X96231140Y-71514328D01*
X96225454Y-71508983D01*
X96214120Y-71497649D01*
X96205845Y-71491447D01*
X96198000Y-71485060D01*
X96193194Y-71480815D01*
X96162830Y-71453999D01*
X96154708Y-71450186D01*
X96151907Y-71448346D01*
X96137912Y-71439937D01*
X96134949Y-71438315D01*
X96127764Y-71432930D01*
X96119354Y-71429777D01*
X96119352Y-71429776D01*
X96083818Y-71416454D01*
X96074502Y-71412529D01*
X96032018Y-71392583D01*
X96023144Y-71391201D01*
X96019917Y-71390215D01*
X96004134Y-71386075D01*
X96000856Y-71385354D01*
X95992448Y-71382202D01*
X95978691Y-71381180D01*
X95945643Y-71378724D01*
X95935596Y-71377570D01*
X95927114Y-71376249D01*
X95927111Y-71376249D01*
X95922303Y-71375500D01*
X95906938Y-71375500D01*
X95897601Y-71375154D01*
X95881519Y-71373959D01*
X95848333Y-71371493D01*
X95839558Y-71373366D01*
X95830862Y-71373959D01*
X95816262Y-71375500D01*
X94996161Y-71375500D01*
X94928040Y-71355498D01*
X94881547Y-71301842D01*
X94871443Y-71231568D01*
X94900937Y-71166988D01*
X94907066Y-71160405D01*
X94913806Y-71153665D01*
X94920653Y-71147307D01*
X94951282Y-71120915D01*
X94958082Y-71115056D01*
X94962966Y-71107521D01*
X94968699Y-71100949D01*
X94977926Y-71089545D01*
X95422066Y-70645405D01*
X95484378Y-70611379D01*
X95511161Y-70608500D01*
X96623062Y-70608500D01*
X96632399Y-70608846D01*
X96639115Y-70609345D01*
X96681667Y-70612507D01*
X96690442Y-70610634D01*
X96699138Y-70610041D01*
X96713738Y-70608500D01*
X102545376Y-70608500D01*
X102557381Y-70609841D01*
X102557421Y-70609345D01*
X102566368Y-70610065D01*
X102575124Y-70612046D01*
X102628382Y-70608742D01*
X102636184Y-70608500D01*
X102652226Y-70608500D01*
X102656657Y-70607865D01*
X102656662Y-70607865D01*
X102660687Y-70607288D01*
X102662457Y-70607035D01*
X102672514Y-70606004D01*
X102694976Y-70604611D01*
X102710400Y-70603654D01*
X102710402Y-70603654D01*
X102719359Y-70603098D01*
X102727799Y-70600051D01*
X102731089Y-70599370D01*
X102746938Y-70595418D01*
X102750168Y-70594473D01*
X102759052Y-70593201D01*
X102801763Y-70573782D01*
X102811128Y-70569970D01*
X102846837Y-70557078D01*
X102846840Y-70557076D01*
X102855284Y-70554028D01*
X102862533Y-70548732D01*
X102865490Y-70547160D01*
X102879614Y-70538907D01*
X102882437Y-70537102D01*
X102890605Y-70533388D01*
X102897402Y-70527531D01*
X102897404Y-70527530D01*
X102922189Y-70506173D01*
X102926158Y-70502753D01*
X102934064Y-70496475D01*
X102944944Y-70488527D01*
X102955806Y-70477665D01*
X102962653Y-70471307D01*
X103000082Y-70439056D01*
X103004966Y-70431521D01*
X103010699Y-70424949D01*
X103019926Y-70413545D01*
X104185066Y-69248405D01*
X104247378Y-69214379D01*
X104274161Y-69211500D01*
X104474969Y-69211500D01*
X104543090Y-69231502D01*
X104589583Y-69285158D01*
X104599687Y-69355432D01*
X104570193Y-69420012D01*
X104535670Y-69447915D01*
X104349954Y-69550014D01*
X104343273Y-69554254D01*
X104129837Y-69709324D01*
X104121414Y-69720248D01*
X104128317Y-69733107D01*
X105651188Y-71255978D01*
X105665132Y-71263592D01*
X105666965Y-71263461D01*
X105673580Y-71259210D01*
X107200006Y-69732784D01*
X107206619Y-69720673D01*
X107197792Y-69709055D01*
X106984727Y-69554254D01*
X106978046Y-69550014D01*
X106792330Y-69447915D01*
X106742271Y-69397569D01*
X106727378Y-69328152D01*
X106752379Y-69261703D01*
X106809336Y-69219319D01*
X106853031Y-69211500D01*
X107180839Y-69211500D01*
X107248960Y-69231502D01*
X107269934Y-69248405D01*
X107924323Y-69902794D01*
X107931865Y-69912234D01*
X107932245Y-69911911D01*
X107938063Y-69918747D01*
X107942853Y-69926339D01*
X107949581Y-69932281D01*
X107982859Y-69961671D01*
X107988546Y-69967017D01*
X107999880Y-69978351D01*
X108003463Y-69981036D01*
X108003465Y-69981038D01*
X108008155Y-69984553D01*
X108015998Y-69990938D01*
X108051170Y-70022001D01*
X108059292Y-70025814D01*
X108062093Y-70027654D01*
X108076088Y-70036063D01*
X108079051Y-70037685D01*
X108086236Y-70043070D01*
X108094646Y-70046223D01*
X108094648Y-70046224D01*
X108130182Y-70059546D01*
X108139495Y-70063470D01*
X108181982Y-70083417D01*
X108190856Y-70084799D01*
X108194083Y-70085785D01*
X108209866Y-70089925D01*
X108213144Y-70090646D01*
X108221552Y-70093798D01*
X108235309Y-70094820D01*
X108268357Y-70097276D01*
X108278404Y-70098430D01*
X108286886Y-70099751D01*
X108286889Y-70099751D01*
X108291697Y-70100500D01*
X108307062Y-70100500D01*
X108316400Y-70100846D01*
X108365667Y-70104507D01*
X108374442Y-70102634D01*
X108383138Y-70102041D01*
X108397738Y-70100500D01*
X109301716Y-70100500D01*
X109369837Y-70120502D01*
X109404613Y-70153780D01*
X109485494Y-70268224D01*
X109519533Y-70316389D01*
X109523675Y-70320424D01*
X109619267Y-70413545D01*
X109664938Y-70458035D01*
X109669742Y-70461245D01*
X109694316Y-70477665D01*
X109833720Y-70570812D01*
X109839023Y-70573090D01*
X109839026Y-70573092D01*
X110007340Y-70645405D01*
X110020228Y-70650942D01*
X110093244Y-70667464D01*
X110212579Y-70694467D01*
X110212584Y-70694468D01*
X110218216Y-70695742D01*
X110223987Y-70695969D01*
X110223989Y-70695969D01*
X110283756Y-70698317D01*
X110421053Y-70703712D01*
X110521499Y-70689148D01*
X110616231Y-70675413D01*
X110616236Y-70675412D01*
X110621945Y-70674584D01*
X110627409Y-70672729D01*
X110627414Y-70672728D01*
X110808693Y-70611192D01*
X110808698Y-70611190D01*
X110814165Y-70609334D01*
X110819553Y-70606317D01*
X110912921Y-70554028D01*
X110991276Y-70510147D01*
X110996055Y-70506173D01*
X111142913Y-70384031D01*
X111147345Y-70380345D01*
X111214107Y-70300073D01*
X111273453Y-70228718D01*
X111273455Y-70228715D01*
X111277147Y-70224276D01*
X111348061Y-70097650D01*
X111373510Y-70052208D01*
X111373511Y-70052206D01*
X111376334Y-70047165D01*
X111378190Y-70041698D01*
X111378192Y-70041693D01*
X111439728Y-69860414D01*
X111439729Y-69860409D01*
X111441584Y-69854945D01*
X111442412Y-69849236D01*
X111442413Y-69849231D01*
X111470179Y-69657727D01*
X111470712Y-69654053D01*
X111472232Y-69596000D01*
X111453658Y-69393859D01*
X111429621Y-69308631D01*
X111400125Y-69204046D01*
X111400124Y-69204044D01*
X111398557Y-69198487D01*
X111388563Y-69178220D01*
X111311331Y-69021609D01*
X111308776Y-69016428D01*
X111294260Y-68996988D01*
X111234066Y-68916380D01*
X111187320Y-68853779D01*
X111038258Y-68715987D01*
X111033375Y-68712906D01*
X111033371Y-68712903D01*
X110871464Y-68610748D01*
X110866581Y-68607667D01*
X110678039Y-68532446D01*
X110672379Y-68531320D01*
X110672375Y-68531319D01*
X110484613Y-68493971D01*
X110484610Y-68493971D01*
X110478946Y-68492844D01*
X110473171Y-68492768D01*
X110473167Y-68492768D01*
X110371793Y-68491441D01*
X110275971Y-68490187D01*
X110270274Y-68491166D01*
X110270273Y-68491166D01*
X110081607Y-68523585D01*
X110075910Y-68524564D01*
X109885463Y-68594824D01*
X109711010Y-68698612D01*
X109706670Y-68702418D01*
X109706666Y-68702421D01*
X109564450Y-68827142D01*
X109558392Y-68832455D01*
X109432720Y-68991869D01*
X109430030Y-68996982D01*
X109430026Y-68996988D01*
X109415725Y-69024169D01*
X109366305Y-69075141D01*
X109304218Y-69091500D01*
X108592161Y-69091500D01*
X108524040Y-69071498D01*
X108503066Y-69054595D01*
X107848677Y-68400206D01*
X107841135Y-68390766D01*
X107840755Y-68391089D01*
X107834937Y-68384253D01*
X107830147Y-68376661D01*
X107790140Y-68341328D01*
X107784454Y-68335983D01*
X107773120Y-68324649D01*
X107764845Y-68318447D01*
X107757000Y-68312060D01*
X107756422Y-68311549D01*
X107721830Y-68280999D01*
X107713708Y-68277186D01*
X107710907Y-68275346D01*
X107696912Y-68266937D01*
X107693949Y-68265315D01*
X107686764Y-68259930D01*
X107678354Y-68256777D01*
X107678352Y-68256776D01*
X107642818Y-68243454D01*
X107633502Y-68239529D01*
X107633055Y-68239319D01*
X107591018Y-68219583D01*
X107582144Y-68218201D01*
X107578917Y-68217215D01*
X107563134Y-68213075D01*
X107559856Y-68212354D01*
X107551448Y-68209202D01*
X107537691Y-68208180D01*
X107504643Y-68205724D01*
X107494596Y-68204570D01*
X107486114Y-68203249D01*
X107486111Y-68203249D01*
X107481303Y-68202500D01*
X107465938Y-68202500D01*
X107456601Y-68202154D01*
X107449048Y-68201593D01*
X107407333Y-68198493D01*
X107398558Y-68200366D01*
X107389862Y-68200959D01*
X107375262Y-68202500D01*
X104083624Y-68202500D01*
X104071619Y-68201159D01*
X104071579Y-68201655D01*
X104062632Y-68200935D01*
X104053876Y-68198954D01*
X104010338Y-68201655D01*
X104000618Y-68202258D01*
X103992816Y-68202500D01*
X103976774Y-68202500D01*
X103972343Y-68203135D01*
X103972338Y-68203135D01*
X103968313Y-68203712D01*
X103966543Y-68203965D01*
X103956486Y-68204996D01*
X103934024Y-68206389D01*
X103918600Y-68207346D01*
X103918598Y-68207346D01*
X103909641Y-68207902D01*
X103901201Y-68210949D01*
X103897911Y-68211630D01*
X103882062Y-68215582D01*
X103878832Y-68216527D01*
X103869948Y-68217799D01*
X103846465Y-68228476D01*
X103827222Y-68237225D01*
X103817860Y-68241036D01*
X103782158Y-68253925D01*
X103782157Y-68253926D01*
X103773716Y-68256973D01*
X103766467Y-68262269D01*
X103763486Y-68263854D01*
X103749408Y-68272080D01*
X103746569Y-68273896D01*
X103738395Y-68277612D01*
X103713115Y-68299395D01*
X103702848Y-68308242D01*
X103694930Y-68314530D01*
X103684056Y-68322473D01*
X103673194Y-68333335D01*
X103666348Y-68339693D01*
X103628918Y-68371944D01*
X103624034Y-68379479D01*
X103618301Y-68386051D01*
X103609074Y-68397455D01*
X102443934Y-69562595D01*
X102381622Y-69596621D01*
X102354839Y-69599500D01*
X97164500Y-69599500D01*
X97096379Y-69579498D01*
X97049886Y-69525842D01*
X97038500Y-69473500D01*
X97038500Y-69332783D01*
X97058502Y-69264662D01*
X97088936Y-69231956D01*
X97141087Y-69192872D01*
X97172974Y-69168974D01*
X97257493Y-69056199D01*
X97260735Y-69047553D01*
X97291018Y-68966772D01*
X97333660Y-68910008D01*
X97400221Y-68885308D01*
X97469570Y-68900516D01*
X97519688Y-68950802D01*
X97526982Y-68966772D01*
X97557266Y-69047553D01*
X97560507Y-69056199D01*
X97645026Y-69168974D01*
X97757801Y-69253493D01*
X97766202Y-69256643D01*
X97766205Y-69256644D01*
X97842267Y-69285158D01*
X97889764Y-69302964D01*
X97949930Y-69309500D01*
X98618070Y-69309500D01*
X98678236Y-69302964D01*
X98725733Y-69285158D01*
X98801795Y-69256644D01*
X98801798Y-69256643D01*
X98810199Y-69253493D01*
X98922974Y-69168974D01*
X98948485Y-69134935D01*
X99005344Y-69092420D01*
X99049311Y-69084500D01*
X99221189Y-69084500D01*
X99289310Y-69104502D01*
X99322015Y-69134935D01*
X99347526Y-69168974D01*
X99460301Y-69253493D01*
X99468702Y-69256643D01*
X99468705Y-69256644D01*
X99544767Y-69285158D01*
X99592264Y-69302964D01*
X99652430Y-69309500D01*
X100245570Y-69309500D01*
X100305736Y-69302964D01*
X100353233Y-69285158D01*
X100429295Y-69256644D01*
X100429298Y-69256643D01*
X100437699Y-69253493D01*
X100550474Y-69168974D01*
X100634993Y-69056199D01*
X100638235Y-69047553D01*
X100681690Y-68931635D01*
X100684464Y-68924236D01*
X100691000Y-68864070D01*
X100691000Y-68860605D01*
X101032501Y-68860605D01*
X101032871Y-68867426D01*
X101038176Y-68916273D01*
X101041802Y-68931524D01*
X101085299Y-69047553D01*
X101093833Y-69063139D01*
X101167502Y-69161437D01*
X101180063Y-69173998D01*
X101278361Y-69247667D01*
X101293947Y-69256201D01*
X101409973Y-69299697D01*
X101425229Y-69303325D01*
X101474076Y-69308631D01*
X101480893Y-69309000D01*
X101501885Y-69309000D01*
X101517124Y-69304525D01*
X101518329Y-69303135D01*
X101520000Y-69295452D01*
X101520000Y-69290884D01*
X102028000Y-69290884D01*
X102032475Y-69306123D01*
X102033865Y-69307328D01*
X102041548Y-69308999D01*
X102067105Y-69308999D01*
X102073926Y-69308629D01*
X102122773Y-69303324D01*
X102138024Y-69299698D01*
X102254053Y-69256201D01*
X102269639Y-69247667D01*
X102367937Y-69173998D01*
X102380498Y-69161437D01*
X102454167Y-69063139D01*
X102462701Y-69047553D01*
X102506197Y-68931527D01*
X102509825Y-68916271D01*
X102515131Y-68867424D01*
X102515500Y-68860607D01*
X102515500Y-68852115D01*
X102511025Y-68836876D01*
X102509635Y-68835671D01*
X102501952Y-68834000D01*
X102046115Y-68834000D01*
X102030876Y-68838475D01*
X102029671Y-68839865D01*
X102028000Y-68847548D01*
X102028000Y-69290884D01*
X101520000Y-69290884D01*
X101520000Y-68852115D01*
X101515525Y-68836876D01*
X101514135Y-68835671D01*
X101506452Y-68834000D01*
X101050616Y-68834000D01*
X101035377Y-68838475D01*
X101034172Y-68839865D01*
X101032501Y-68847548D01*
X101032501Y-68860605D01*
X100691000Y-68860605D01*
X100691000Y-68307885D01*
X101032500Y-68307885D01*
X101036975Y-68323124D01*
X101038365Y-68324329D01*
X101046048Y-68326000D01*
X101501885Y-68326000D01*
X101517124Y-68321525D01*
X101518329Y-68320135D01*
X101520000Y-68312452D01*
X101520000Y-68307885D01*
X102028000Y-68307885D01*
X102032475Y-68323124D01*
X102033865Y-68324329D01*
X102041548Y-68326000D01*
X102497384Y-68326000D01*
X102512623Y-68321525D01*
X102513828Y-68320135D01*
X102515499Y-68312452D01*
X102515499Y-68299395D01*
X102515129Y-68292574D01*
X102509824Y-68243727D01*
X102506198Y-68228476D01*
X102462701Y-68112447D01*
X102454167Y-68096861D01*
X102380498Y-67998563D01*
X102367937Y-67986002D01*
X102269639Y-67912333D01*
X102254053Y-67903799D01*
X102138027Y-67860303D01*
X102122771Y-67856675D01*
X102073924Y-67851369D01*
X102067107Y-67851000D01*
X102046115Y-67851000D01*
X102030876Y-67855475D01*
X102029671Y-67856865D01*
X102028000Y-67864548D01*
X102028000Y-68307885D01*
X101520000Y-68307885D01*
X101520000Y-67869116D01*
X101515525Y-67853877D01*
X101514135Y-67852672D01*
X101506452Y-67851001D01*
X101480895Y-67851001D01*
X101474074Y-67851371D01*
X101425227Y-67856676D01*
X101409976Y-67860302D01*
X101293947Y-67903799D01*
X101278361Y-67912333D01*
X101180063Y-67986002D01*
X101167502Y-67998563D01*
X101093833Y-68096861D01*
X101085299Y-68112447D01*
X101041803Y-68228473D01*
X101038175Y-68243729D01*
X101032869Y-68292576D01*
X101032500Y-68299393D01*
X101032500Y-68307885D01*
X100691000Y-68307885D01*
X100691000Y-68295930D01*
X100684464Y-68235764D01*
X100654162Y-68154933D01*
X100638144Y-68112205D01*
X100638143Y-68112202D01*
X100634993Y-68103801D01*
X100550474Y-67991026D01*
X100437699Y-67906507D01*
X100429298Y-67903357D01*
X100429295Y-67903356D01*
X100325774Y-67864548D01*
X100305736Y-67857036D01*
X100245570Y-67850500D01*
X99652430Y-67850500D01*
X99592264Y-67857036D01*
X99572226Y-67864548D01*
X99468705Y-67903356D01*
X99468702Y-67903357D01*
X99460301Y-67906507D01*
X99347526Y-67991026D01*
X99342145Y-67998206D01*
X99342144Y-67998207D01*
X99322015Y-68025065D01*
X99265156Y-68067580D01*
X99221189Y-68075500D01*
X99049311Y-68075500D01*
X98981190Y-68055498D01*
X98948485Y-68025065D01*
X98928356Y-67998207D01*
X98928355Y-67998206D01*
X98922974Y-67991026D01*
X98810199Y-67906507D01*
X98801798Y-67903357D01*
X98801795Y-67903356D01*
X98698274Y-67864548D01*
X98678236Y-67857036D01*
X98618070Y-67850500D01*
X97949930Y-67850500D01*
X97889764Y-67857036D01*
X97869726Y-67864548D01*
X97766205Y-67903356D01*
X97766202Y-67903357D01*
X97757801Y-67906507D01*
X97645026Y-67991026D01*
X97560507Y-68103801D01*
X97557357Y-68112202D01*
X97557356Y-68112205D01*
X97526982Y-68193228D01*
X97484340Y-68249992D01*
X97417779Y-68274692D01*
X97348430Y-68259484D01*
X97298312Y-68209198D01*
X97291018Y-68193228D01*
X97260644Y-68112205D01*
X97260643Y-68112202D01*
X97257493Y-68103801D01*
X97172974Y-67991026D01*
X97060199Y-67906507D01*
X97051798Y-67903357D01*
X97051795Y-67903356D01*
X96948274Y-67864548D01*
X96928236Y-67857036D01*
X96868070Y-67850500D01*
X96199930Y-67850500D01*
X96139764Y-67857036D01*
X96119726Y-67864548D01*
X96016205Y-67903356D01*
X96016202Y-67903357D01*
X96007801Y-67906507D01*
X95895026Y-67991026D01*
X95810507Y-68103801D01*
X95807357Y-68112202D01*
X95807356Y-68112205D01*
X95791338Y-68154933D01*
X95761036Y-68235764D01*
X95754500Y-68295930D01*
X95754500Y-68864070D01*
X95761036Y-68924236D01*
X95763810Y-68931635D01*
X95807266Y-69047553D01*
X95810507Y-69056199D01*
X95895026Y-69168974D01*
X95926914Y-69192872D01*
X95979064Y-69231956D01*
X96021580Y-69288815D01*
X96029500Y-69332783D01*
X96029500Y-69473500D01*
X96009498Y-69541621D01*
X95955842Y-69588114D01*
X95903500Y-69599500D01*
X95320624Y-69599500D01*
X95308619Y-69598159D01*
X95308579Y-69598655D01*
X95299632Y-69597935D01*
X95290876Y-69595954D01*
X95247338Y-69598655D01*
X95237618Y-69599258D01*
X95229816Y-69599500D01*
X95213774Y-69599500D01*
X95209343Y-69600135D01*
X95209338Y-69600135D01*
X95205313Y-69600712D01*
X95203543Y-69600965D01*
X95193486Y-69601996D01*
X95171024Y-69603389D01*
X95155600Y-69604346D01*
X95155598Y-69604346D01*
X95146641Y-69604902D01*
X95138201Y-69607949D01*
X95134911Y-69608630D01*
X95119062Y-69612582D01*
X95115832Y-69613527D01*
X95106948Y-69614799D01*
X95095320Y-69620086D01*
X95064222Y-69634225D01*
X95054860Y-69638036D01*
X95019158Y-69650925D01*
X95019157Y-69650926D01*
X95010716Y-69653973D01*
X95003467Y-69659269D01*
X94995544Y-69663482D01*
X94994710Y-69661914D01*
X94938030Y-69682309D01*
X94868835Y-69666413D01*
X94819219Y-69615632D01*
X94804500Y-69556534D01*
X94804499Y-69261123D01*
X94804499Y-69254934D01*
X94789734Y-69180699D01*
X94785703Y-69174667D01*
X94778496Y-69107627D01*
X94784524Y-69087098D01*
X94789734Y-69079301D01*
X94804500Y-69005067D01*
X94804499Y-68154934D01*
X94789734Y-68080699D01*
X94785703Y-68074667D01*
X94778496Y-68007627D01*
X94784524Y-67987098D01*
X94789734Y-67979301D01*
X94804500Y-67905067D01*
X94804499Y-67054934D01*
X94800550Y-67035079D01*
X94806879Y-66964365D01*
X94850434Y-66908299D01*
X94924129Y-66884500D01*
X95570500Y-66884500D01*
X95638621Y-66904502D01*
X95685114Y-66958158D01*
X95696500Y-67010500D01*
X95696500Y-67108256D01*
X95696869Y-67111652D01*
X95696869Y-67111653D01*
X95701731Y-67156403D01*
X95703202Y-67169948D01*
X95753929Y-67305264D01*
X95759309Y-67312443D01*
X95759311Y-67312446D01*
X95798647Y-67364931D01*
X95840596Y-67420904D01*
X95861023Y-67436213D01*
X95949054Y-67502189D01*
X95949057Y-67502191D01*
X95956236Y-67507571D01*
X96031098Y-67535635D01*
X96084157Y-67555526D01*
X96084159Y-67555526D01*
X96091552Y-67558298D01*
X96099402Y-67559151D01*
X96099403Y-67559151D01*
X96149847Y-67564631D01*
X96153244Y-67565000D01*
X97648756Y-67565000D01*
X97652153Y-67564631D01*
X97702597Y-67559151D01*
X97702598Y-67559151D01*
X97710448Y-67558298D01*
X97717841Y-67555526D01*
X97717843Y-67555526D01*
X97770902Y-67535635D01*
X97845764Y-67507571D01*
X97852943Y-67502191D01*
X97852946Y-67502189D01*
X97940977Y-67436213D01*
X97961404Y-67420904D01*
X98003353Y-67364931D01*
X98042689Y-67312446D01*
X98042691Y-67312443D01*
X98048071Y-67305264D01*
X98076666Y-67228986D01*
X98082596Y-67213168D01*
X98125237Y-67156403D01*
X98191799Y-67131703D01*
X98261148Y-67146910D01*
X98311266Y-67197196D01*
X98318560Y-67213168D01*
X98341222Y-67273618D01*
X98349754Y-67289204D01*
X98425572Y-67390367D01*
X98438133Y-67402928D01*
X98539296Y-67478746D01*
X98554882Y-67487278D01*
X98674265Y-67532033D01*
X98689510Y-67535658D01*
X98739892Y-67541131D01*
X98746706Y-67541500D01*
X99168885Y-67541500D01*
X99184124Y-67537025D01*
X99185329Y-67535635D01*
X99187000Y-67527952D01*
X99187000Y-67523384D01*
X99695000Y-67523384D01*
X99699475Y-67538623D01*
X99700865Y-67539828D01*
X99708548Y-67541499D01*
X100135292Y-67541499D01*
X100142110Y-67541130D01*
X100192482Y-67535659D01*
X100207741Y-67532030D01*
X100327118Y-67487278D01*
X100342704Y-67478746D01*
X100443867Y-67402928D01*
X100456428Y-67390367D01*
X100506946Y-67322962D01*
X109291671Y-67322962D01*
X109316443Y-67420502D01*
X109320284Y-67431348D01*
X109400394Y-67605120D01*
X109406145Y-67615081D01*
X109516579Y-67771343D01*
X109524057Y-67780098D01*
X109661114Y-67913612D01*
X109670058Y-67920855D01*
X109829156Y-68027161D01*
X109839266Y-68032651D01*
X110015077Y-68108185D01*
X110026020Y-68111740D01*
X110091332Y-68126519D01*
X110105405Y-68125630D01*
X110108828Y-68116681D01*
X110617000Y-68116681D01*
X110620966Y-68130187D01*
X110629672Y-68131433D01*
X110808497Y-68070730D01*
X110818994Y-68066056D01*
X110985958Y-67972552D01*
X110995430Y-67966042D01*
X111142553Y-67843682D01*
X111150682Y-67835553D01*
X111273042Y-67688430D01*
X111279552Y-67678958D01*
X111373056Y-67511994D01*
X111377730Y-67501497D01*
X111438443Y-67322644D01*
X111437210Y-67313993D01*
X111423642Y-67310000D01*
X110635115Y-67310000D01*
X110619876Y-67314475D01*
X110618671Y-67315865D01*
X110617000Y-67323548D01*
X110617000Y-68116681D01*
X110108828Y-68116681D01*
X110109000Y-68116232D01*
X110109000Y-67328115D01*
X110104525Y-67312876D01*
X110103135Y-67311671D01*
X110095452Y-67310000D01*
X109306494Y-67310000D01*
X109292963Y-67313973D01*
X109291671Y-67322962D01*
X100506946Y-67322962D01*
X100532246Y-67289204D01*
X100540778Y-67273618D01*
X100585533Y-67154235D01*
X100589158Y-67138990D01*
X100594631Y-67088608D01*
X100595000Y-67081794D01*
X100595000Y-66897115D01*
X100590525Y-66881876D01*
X100589135Y-66880671D01*
X100581452Y-66879000D01*
X99713115Y-66879000D01*
X99697876Y-66883475D01*
X99696671Y-66884865D01*
X99695000Y-66892548D01*
X99695000Y-67523384D01*
X99187000Y-67523384D01*
X99187000Y-66798799D01*
X109290943Y-66798799D01*
X109297675Y-66802000D01*
X110090885Y-66802000D01*
X110106124Y-66797525D01*
X110107329Y-66796135D01*
X110109000Y-66788452D01*
X110109000Y-66783885D01*
X110617000Y-66783885D01*
X110621475Y-66799124D01*
X110622865Y-66800329D01*
X110630548Y-66802000D01*
X111420398Y-66802000D01*
X111433929Y-66798027D01*
X111435098Y-66789892D01*
X111399658Y-66664231D01*
X111395533Y-66653484D01*
X111310903Y-66481871D01*
X111304893Y-66472063D01*
X111190400Y-66318739D01*
X111182710Y-66310199D01*
X111042192Y-66180304D01*
X111033067Y-66173303D01*
X110871236Y-66071195D01*
X110860989Y-66065974D01*
X110683260Y-65995068D01*
X110672232Y-65991801D01*
X110634769Y-65984350D01*
X110621894Y-65985502D01*
X110617000Y-66000658D01*
X110617000Y-66783885D01*
X110109000Y-66783885D01*
X110109000Y-65997500D01*
X110105194Y-65984538D01*
X110090279Y-65982602D01*
X110081732Y-65984071D01*
X110070620Y-65987048D01*
X109891095Y-66053279D01*
X109880717Y-66058229D01*
X109716273Y-66156063D01*
X109706961Y-66162829D01*
X109563097Y-66288994D01*
X109555180Y-66297337D01*
X109436718Y-66447605D01*
X109430450Y-66457256D01*
X109341358Y-66626592D01*
X109336953Y-66637227D01*
X109291162Y-66784698D01*
X109290943Y-66798799D01*
X99187000Y-66798799D01*
X99187000Y-66352885D01*
X99695000Y-66352885D01*
X99699475Y-66368124D01*
X99700865Y-66369329D01*
X99708548Y-66371000D01*
X100576884Y-66371000D01*
X100592123Y-66366525D01*
X100593328Y-66365135D01*
X100594999Y-66357452D01*
X100594999Y-66168208D01*
X100594630Y-66161390D01*
X100589159Y-66111018D01*
X100585530Y-66095759D01*
X100540778Y-65976382D01*
X100532246Y-65960796D01*
X100456428Y-65859633D01*
X100443867Y-65847072D01*
X100342704Y-65771254D01*
X100327118Y-65762722D01*
X100207735Y-65717967D01*
X100192490Y-65714342D01*
X100142108Y-65708869D01*
X100135294Y-65708500D01*
X99713115Y-65708500D01*
X99697876Y-65712975D01*
X99696671Y-65714365D01*
X99695000Y-65722048D01*
X99695000Y-66352885D01*
X99187000Y-66352885D01*
X99187000Y-65726616D01*
X99182525Y-65711377D01*
X99181135Y-65710172D01*
X99173452Y-65708501D01*
X98746708Y-65708501D01*
X98739890Y-65708870D01*
X98689518Y-65714341D01*
X98674259Y-65717970D01*
X98554882Y-65762722D01*
X98539296Y-65771254D01*
X98438133Y-65847072D01*
X98425572Y-65859633D01*
X98349754Y-65960796D01*
X98341222Y-65976382D01*
X98296468Y-66095762D01*
X98296352Y-66096251D01*
X98296157Y-66096592D01*
X98293695Y-66103160D01*
X98292632Y-66102762D01*
X98261130Y-66157895D01*
X98198172Y-66190711D01*
X98127468Y-66184280D01*
X98071464Y-66140644D01*
X98055790Y-66111327D01*
X98048071Y-66090736D01*
X98042691Y-66083557D01*
X98042689Y-66083554D01*
X97966785Y-65982276D01*
X97961404Y-65975096D01*
X97940977Y-65959787D01*
X97852946Y-65893811D01*
X97852943Y-65893809D01*
X97845764Y-65888429D01*
X97735443Y-65847072D01*
X97717843Y-65840474D01*
X97717841Y-65840474D01*
X97710448Y-65837702D01*
X97702598Y-65836849D01*
X97702597Y-65836849D01*
X97652153Y-65831369D01*
X97652152Y-65831369D01*
X97648756Y-65831000D01*
X96799661Y-65831000D01*
X96731540Y-65810998D01*
X96710566Y-65794095D01*
X95889677Y-64973206D01*
X95882135Y-64963766D01*
X95881755Y-64964089D01*
X95875937Y-64957253D01*
X95871147Y-64949661D01*
X95831140Y-64914328D01*
X95825454Y-64908983D01*
X95814120Y-64897649D01*
X95805845Y-64891447D01*
X95798000Y-64885060D01*
X95769557Y-64859940D01*
X95762830Y-64853999D01*
X95754708Y-64850186D01*
X95751907Y-64848346D01*
X95737912Y-64839937D01*
X95734949Y-64838315D01*
X95727764Y-64832930D01*
X95719354Y-64829777D01*
X95719352Y-64829776D01*
X95683818Y-64816454D01*
X95674502Y-64812529D01*
X95632018Y-64792583D01*
X95623144Y-64791201D01*
X95619917Y-64790215D01*
X95604134Y-64786075D01*
X95600856Y-64785354D01*
X95592448Y-64782202D01*
X95578691Y-64781180D01*
X95545643Y-64778724D01*
X95535596Y-64777570D01*
X95527114Y-64776249D01*
X95527111Y-64776249D01*
X95522303Y-64775500D01*
X95506938Y-64775500D01*
X95497601Y-64775154D01*
X95475342Y-64773500D01*
X95448333Y-64771493D01*
X95439558Y-64773366D01*
X95430862Y-64773959D01*
X95416262Y-64775500D01*
X94914185Y-64775500D01*
X94846064Y-64755498D01*
X94799571Y-64701842D01*
X94790606Y-64624919D01*
X94803293Y-64561135D01*
X94804500Y-64555067D01*
X94804499Y-63804934D01*
X94797388Y-63769182D01*
X94792156Y-63742874D01*
X94792155Y-63742872D01*
X94789734Y-63730699D01*
X94744543Y-63663066D01*
X94740377Y-63656832D01*
X94733484Y-63646516D01*
X94689938Y-63617419D01*
X94659620Y-63597161D01*
X94649301Y-63590266D01*
X94575067Y-63575500D01*
X93650150Y-63575500D01*
X92724934Y-63575501D01*
X92689182Y-63582612D01*
X92662874Y-63587844D01*
X92662872Y-63587845D01*
X92650699Y-63590266D01*
X92640379Y-63597161D01*
X92640378Y-63597162D01*
X92610062Y-63617419D01*
X92566516Y-63646516D01*
X92510266Y-63730699D01*
X92495500Y-63804933D01*
X92495501Y-64555066D01*
X92500858Y-64581999D01*
X92507807Y-64616936D01*
X92510266Y-64629301D01*
X92517162Y-64639621D01*
X92521911Y-64651087D01*
X92519432Y-64652114D01*
X92535288Y-64702745D01*
X92519133Y-64757765D01*
X92521910Y-64758915D01*
X92517161Y-64770379D01*
X92510266Y-64780699D01*
X92495500Y-64854933D01*
X92495501Y-65705066D01*
X92510266Y-65779301D01*
X92514297Y-65785333D01*
X92521504Y-65852373D01*
X92515476Y-65872902D01*
X92510266Y-65880699D01*
X92495500Y-65954933D01*
X92495501Y-66805066D01*
X92510266Y-66879301D01*
X92514297Y-66885333D01*
X92521504Y-66952373D01*
X92515476Y-66972902D01*
X92510266Y-66980699D01*
X92495500Y-67054933D01*
X92495501Y-67905066D01*
X92510266Y-67979301D01*
X92514297Y-67985333D01*
X92521504Y-68052373D01*
X92515476Y-68072902D01*
X92510266Y-68080699D01*
X92495500Y-68154933D01*
X92495501Y-69005066D01*
X92510266Y-69079301D01*
X92514297Y-69085333D01*
X92521504Y-69152373D01*
X92515476Y-69172902D01*
X92510266Y-69180699D01*
X92495500Y-69254933D01*
X92495501Y-70105066D01*
X92510266Y-70179301D01*
X92514297Y-70185333D01*
X92521504Y-70252373D01*
X92515476Y-70272902D01*
X92510266Y-70280699D01*
X92495500Y-70354933D01*
X92495501Y-71205066D01*
X92510266Y-71279301D01*
X92514297Y-71285333D01*
X92521504Y-71352373D01*
X92515476Y-71372902D01*
X92510266Y-71380699D01*
X92495500Y-71454933D01*
X92495501Y-72305066D01*
X92502189Y-72338692D01*
X92507093Y-72363347D01*
X92510266Y-72379301D01*
X92517162Y-72389621D01*
X92521911Y-72401087D01*
X92519573Y-72402055D01*
X92535588Y-72453205D01*
X92519519Y-72507925D01*
X92522380Y-72509110D01*
X92508316Y-72543064D01*
X92497207Y-72598915D01*
X92496000Y-72611170D01*
X92496000Y-72707885D01*
X92500475Y-72723124D01*
X92501865Y-72724329D01*
X92509548Y-72726000D01*
X94785884Y-72726000D01*
X94801123Y-72721525D01*
X94802328Y-72720135D01*
X94803999Y-72712452D01*
X94803999Y-72611172D01*
X94802792Y-72598915D01*
X94790095Y-72535080D01*
X94796424Y-72464366D01*
X94839979Y-72408299D01*
X94913674Y-72384500D01*
X95621839Y-72384500D01*
X95689960Y-72404502D01*
X95710934Y-72421405D01*
X95830595Y-72541066D01*
X95864621Y-72603378D01*
X95867500Y-72630161D01*
X95867500Y-72928070D01*
X95874036Y-72988236D01*
X95876810Y-72995635D01*
X95920266Y-73111553D01*
X95923507Y-73120199D01*
X96008026Y-73232974D01*
X96120801Y-73317493D01*
X96129202Y-73320643D01*
X96129205Y-73320644D01*
X96204392Y-73348830D01*
X96252764Y-73366964D01*
X96312930Y-73373500D01*
X96610839Y-73373500D01*
X96678960Y-73393502D01*
X96699934Y-73410405D01*
X97749934Y-74460405D01*
X97783960Y-74522717D01*
X97778895Y-74593532D01*
X97736348Y-74650368D01*
X97669828Y-74675179D01*
X97660839Y-74675500D01*
X71119500Y-74675500D01*
X71051379Y-74655498D01*
X71004886Y-74601842D01*
X70993500Y-74549500D01*
X70993500Y-70506170D01*
X73920000Y-70506170D01*
X73920001Y-70733827D01*
X73921209Y-70746088D01*
X73932315Y-70801931D01*
X73941633Y-70824427D01*
X73973537Y-70872174D01*
X73994752Y-70939927D01*
X73994563Y-70944616D01*
X73994500Y-70944933D01*
X73994501Y-71295066D01*
X74001449Y-71330000D01*
X74006521Y-71355498D01*
X74009266Y-71369301D01*
X74016161Y-71379621D01*
X74016162Y-71379622D01*
X74038150Y-71412529D01*
X74065516Y-71453484D01*
X74149699Y-71509734D01*
X74223933Y-71524500D01*
X74333948Y-71524500D01*
X74402069Y-71544502D01*
X74423043Y-71561405D01*
X75049646Y-72188008D01*
X75049650Y-72188011D01*
X75072250Y-72210611D01*
X75091898Y-72220622D01*
X75108750Y-72230949D01*
X75118571Y-72238085D01*
X75118574Y-72238087D01*
X75126595Y-72243914D01*
X75136024Y-72246978D01*
X75136025Y-72246978D01*
X75141401Y-72248725D01*
X75147567Y-72250728D01*
X75165834Y-72258295D01*
X75176643Y-72263803D01*
X75176648Y-72263805D01*
X75185482Y-72268306D01*
X75206408Y-72271620D01*
X75207265Y-72271756D01*
X75226488Y-72276371D01*
X75247459Y-72283185D01*
X76058500Y-72283185D01*
X76126621Y-72303187D01*
X76173114Y-72356843D01*
X76184500Y-72409185D01*
X76184500Y-72554756D01*
X76191202Y-72616448D01*
X76241929Y-72751764D01*
X76247309Y-72758943D01*
X76247311Y-72758946D01*
X76247525Y-72759231D01*
X76328596Y-72867404D01*
X76335776Y-72872785D01*
X76437054Y-72948689D01*
X76437057Y-72948691D01*
X76444236Y-72954071D01*
X76514131Y-72980273D01*
X76572157Y-73002026D01*
X76572159Y-73002026D01*
X76579552Y-73004798D01*
X76587402Y-73005651D01*
X76587403Y-73005651D01*
X76637847Y-73011131D01*
X76641244Y-73011500D01*
X77536756Y-73011500D01*
X77540153Y-73011131D01*
X77590597Y-73005651D01*
X77590598Y-73005651D01*
X77598448Y-73004798D01*
X77605841Y-73002026D01*
X77605843Y-73002026D01*
X77663869Y-72980273D01*
X77733764Y-72954071D01*
X77740943Y-72948691D01*
X77740946Y-72948689D01*
X77842224Y-72872785D01*
X77849404Y-72867404D01*
X77930475Y-72759231D01*
X77930689Y-72758946D01*
X77930691Y-72758943D01*
X77936071Y-72751764D01*
X77986798Y-72616448D01*
X77993500Y-72554756D01*
X79284500Y-72554756D01*
X79291202Y-72616448D01*
X79341929Y-72751764D01*
X79347309Y-72758943D01*
X79347311Y-72758946D01*
X79347525Y-72759231D01*
X79428596Y-72867404D01*
X79435776Y-72872785D01*
X79537054Y-72948689D01*
X79537057Y-72948691D01*
X79544236Y-72954071D01*
X79614131Y-72980273D01*
X79672157Y-73002026D01*
X79672159Y-73002026D01*
X79679552Y-73004798D01*
X79687402Y-73005651D01*
X79687403Y-73005651D01*
X79737847Y-73011131D01*
X79741244Y-73011500D01*
X80636756Y-73011500D01*
X80640153Y-73011131D01*
X80690597Y-73005651D01*
X80690598Y-73005651D01*
X80698448Y-73004798D01*
X80705841Y-73002026D01*
X80705843Y-73002026D01*
X80763869Y-72980273D01*
X80833764Y-72954071D01*
X80840943Y-72948691D01*
X80840946Y-72948689D01*
X80942224Y-72872785D01*
X80949404Y-72867404D01*
X81030475Y-72759231D01*
X81030689Y-72758946D01*
X81030691Y-72758943D01*
X81036071Y-72751764D01*
X81086798Y-72616448D01*
X81093500Y-72554756D01*
X81093500Y-72409185D01*
X81113502Y-72341064D01*
X81167158Y-72294571D01*
X81219500Y-72283185D01*
X81343541Y-72283185D01*
X81364512Y-72276371D01*
X81383735Y-72271756D01*
X81384592Y-72271620D01*
X81405518Y-72268306D01*
X81414352Y-72263805D01*
X81414357Y-72263803D01*
X81425166Y-72258295D01*
X81443433Y-72250728D01*
X81449599Y-72248725D01*
X81454975Y-72246978D01*
X81454976Y-72246978D01*
X81464405Y-72243914D01*
X81472426Y-72238087D01*
X81472429Y-72238085D01*
X81482250Y-72230949D01*
X81499102Y-72220622D01*
X81518750Y-72210611D01*
X81541350Y-72188011D01*
X81541354Y-72188008D01*
X82348008Y-71381354D01*
X82348011Y-71381350D01*
X82370611Y-71358750D01*
X82380622Y-71339102D01*
X82390949Y-71322250D01*
X82398085Y-71312429D01*
X82398087Y-71312426D01*
X82403914Y-71304405D01*
X82410728Y-71283433D01*
X82418295Y-71265166D01*
X82423803Y-71254357D01*
X82423805Y-71254352D01*
X82428306Y-71245518D01*
X82431756Y-71223735D01*
X82436371Y-71204512D01*
X82438202Y-71198877D01*
X82443185Y-71183541D01*
X82443185Y-70068368D01*
X82463187Y-70000247D01*
X82480089Y-69979273D01*
X82780405Y-69678957D01*
X82842717Y-69644932D01*
X82913532Y-69649996D01*
X82970368Y-69692543D01*
X82995179Y-69759063D01*
X82995500Y-69768052D01*
X82995501Y-69938865D01*
X82995501Y-70105066D01*
X83010266Y-70179301D01*
X83014297Y-70185333D01*
X83021504Y-70252373D01*
X83015476Y-70272902D01*
X83010266Y-70280699D01*
X82995500Y-70354933D01*
X82995501Y-71205066D01*
X83010266Y-71279301D01*
X83014297Y-71285333D01*
X83021504Y-71352373D01*
X83015476Y-71372902D01*
X83010266Y-71380699D01*
X82995500Y-71454933D01*
X82995501Y-72305066D01*
X83002189Y-72338692D01*
X83007093Y-72363347D01*
X83010266Y-72379301D01*
X83017162Y-72389621D01*
X83021911Y-72401087D01*
X83019432Y-72402114D01*
X83035288Y-72452745D01*
X83019133Y-72507765D01*
X83021910Y-72508915D01*
X83017161Y-72520379D01*
X83010266Y-72530699D01*
X82995500Y-72604933D01*
X82995501Y-73355066D01*
X83002612Y-73390818D01*
X83007806Y-73416931D01*
X83010266Y-73429301D01*
X83066516Y-73513484D01*
X83150699Y-73569734D01*
X83224933Y-73584500D01*
X84149850Y-73584500D01*
X85075066Y-73584499D01*
X85110818Y-73577388D01*
X85137126Y-73572156D01*
X85137128Y-73572155D01*
X85149301Y-73569734D01*
X85159621Y-73562839D01*
X85159622Y-73562838D01*
X85223168Y-73520377D01*
X85233484Y-73513484D01*
X85289734Y-73429301D01*
X85304500Y-73355067D01*
X85304500Y-73348828D01*
X92496001Y-73348828D01*
X92497209Y-73361088D01*
X92508315Y-73416931D01*
X92517633Y-73439427D01*
X92559983Y-73502808D01*
X92577192Y-73520017D01*
X92640575Y-73562368D01*
X92663066Y-73571684D01*
X92718915Y-73582793D01*
X92731170Y-73584000D01*
X93377885Y-73584000D01*
X93393124Y-73579525D01*
X93394329Y-73578135D01*
X93396000Y-73570452D01*
X93396000Y-73565884D01*
X93904000Y-73565884D01*
X93908475Y-73581123D01*
X93909865Y-73582328D01*
X93917548Y-73583999D01*
X94568828Y-73583999D01*
X94581088Y-73582791D01*
X94636931Y-73571685D01*
X94659427Y-73562367D01*
X94722808Y-73520017D01*
X94740017Y-73502808D01*
X94782368Y-73439425D01*
X94791684Y-73416934D01*
X94802793Y-73361085D01*
X94804000Y-73348830D01*
X94804000Y-73252115D01*
X94799525Y-73236876D01*
X94798135Y-73235671D01*
X94790452Y-73234000D01*
X93922115Y-73234000D01*
X93906876Y-73238475D01*
X93905671Y-73239865D01*
X93904000Y-73247548D01*
X93904000Y-73565884D01*
X93396000Y-73565884D01*
X93396000Y-73252115D01*
X93391525Y-73236876D01*
X93390135Y-73235671D01*
X93382452Y-73234000D01*
X92514116Y-73234000D01*
X92498877Y-73238475D01*
X92497672Y-73239865D01*
X92496001Y-73247548D01*
X92496001Y-73348828D01*
X85304500Y-73348828D01*
X85304499Y-72604934D01*
X85296973Y-72567096D01*
X85292156Y-72542874D01*
X85292155Y-72542872D01*
X85289734Y-72530699D01*
X85282838Y-72520379D01*
X85278089Y-72508913D01*
X85280568Y-72507886D01*
X85264712Y-72457255D01*
X85280867Y-72402235D01*
X85278090Y-72401085D01*
X85282839Y-72389621D01*
X85289734Y-72379301D01*
X85304500Y-72305067D01*
X85304499Y-71454934D01*
X85289734Y-71380699D01*
X85285703Y-71374667D01*
X85278496Y-71307627D01*
X85284524Y-71287098D01*
X85289734Y-71279301D01*
X85304500Y-71205067D01*
X85304499Y-70354934D01*
X85289734Y-70280699D01*
X85285703Y-70274667D01*
X85278496Y-70207627D01*
X85284524Y-70187098D01*
X85289734Y-70179301D01*
X85304500Y-70105067D01*
X85304499Y-69254934D01*
X85289734Y-69180699D01*
X85285703Y-69174667D01*
X85278496Y-69107627D01*
X85284524Y-69087098D01*
X85289734Y-69079301D01*
X85304500Y-69005067D01*
X85304499Y-68154934D01*
X85289734Y-68080699D01*
X85285703Y-68074667D01*
X85278496Y-68007627D01*
X85284524Y-67987098D01*
X85289734Y-67979301D01*
X85304500Y-67905067D01*
X85304499Y-67054934D01*
X85289734Y-66980699D01*
X85285459Y-66974301D01*
X85278222Y-66906958D01*
X85285810Y-66881117D01*
X85291684Y-66866936D01*
X85302793Y-66811085D01*
X85304000Y-66798830D01*
X85304000Y-66652115D01*
X85299525Y-66636876D01*
X85298135Y-66635671D01*
X85290452Y-66634000D01*
X83014116Y-66634000D01*
X82998877Y-66638475D01*
X82997672Y-66639865D01*
X82996001Y-66647548D01*
X82996001Y-66798828D01*
X82997209Y-66811088D01*
X83008316Y-66866931D01*
X83014192Y-66881120D01*
X83021778Y-66951711D01*
X83015617Y-66972690D01*
X83010266Y-66980699D01*
X83007845Y-66992868D01*
X83007845Y-66992869D01*
X83001431Y-67025115D01*
X82995500Y-67054933D01*
X82995501Y-67905066D01*
X83010266Y-67979301D01*
X83014297Y-67985333D01*
X83021504Y-68052373D01*
X83015476Y-68072902D01*
X83010266Y-68080699D01*
X82995500Y-68154933D01*
X82995500Y-68276949D01*
X82975498Y-68345070D01*
X82958595Y-68366044D01*
X81735992Y-69588646D01*
X81735989Y-69588650D01*
X81713389Y-69611250D01*
X81703378Y-69630898D01*
X81693051Y-69647750D01*
X81685915Y-69657571D01*
X81685913Y-69657574D01*
X81680086Y-69665595D01*
X81677022Y-69675024D01*
X81677022Y-69675025D01*
X81673273Y-69686565D01*
X81665705Y-69704834D01*
X81660197Y-69715643D01*
X81660195Y-69715648D01*
X81655694Y-69724482D01*
X81654143Y-69734276D01*
X81652244Y-69746265D01*
X81647629Y-69765488D01*
X81640815Y-69786459D01*
X81640815Y-70901633D01*
X81620813Y-70969754D01*
X81603910Y-70990728D01*
X81307963Y-71286675D01*
X81245651Y-71320701D01*
X81174836Y-71315636D01*
X81118000Y-71273089D01*
X81094768Y-71209106D01*
X81093500Y-71209244D01*
X81087651Y-71155403D01*
X81087651Y-71155402D01*
X81086798Y-71147552D01*
X81036071Y-71012236D01*
X81030691Y-71005057D01*
X81030689Y-71005054D01*
X80954785Y-70903776D01*
X80949404Y-70896596D01*
X80853109Y-70824427D01*
X80840946Y-70815311D01*
X80840943Y-70815309D01*
X80833764Y-70809929D01*
X80744046Y-70776296D01*
X80705843Y-70761974D01*
X80705841Y-70761974D01*
X80698448Y-70759202D01*
X80690598Y-70758349D01*
X80690597Y-70758349D01*
X80640153Y-70752869D01*
X80640152Y-70752869D01*
X80636756Y-70752500D01*
X79741244Y-70752500D01*
X79737848Y-70752869D01*
X79737847Y-70752869D01*
X79687403Y-70758349D01*
X79687402Y-70758349D01*
X79679552Y-70759202D01*
X79672159Y-70761974D01*
X79672157Y-70761974D01*
X79633954Y-70776296D01*
X79544236Y-70809929D01*
X79537057Y-70815309D01*
X79537054Y-70815311D01*
X79524891Y-70824427D01*
X79428596Y-70896596D01*
X79423215Y-70903776D01*
X79347311Y-71005054D01*
X79347309Y-71005057D01*
X79341929Y-71012236D01*
X79291202Y-71147552D01*
X79290349Y-71155402D01*
X79290349Y-71155403D01*
X79288370Y-71173623D01*
X79284500Y-71209244D01*
X79284500Y-72554756D01*
X77993500Y-72554756D01*
X77993500Y-71209244D01*
X77989630Y-71173623D01*
X77987651Y-71155403D01*
X77987651Y-71155402D01*
X77986798Y-71147552D01*
X77936071Y-71012236D01*
X77930691Y-71005057D01*
X77930689Y-71005054D01*
X77854785Y-70903776D01*
X77849404Y-70896596D01*
X77753109Y-70824427D01*
X77740946Y-70815311D01*
X77740943Y-70815309D01*
X77733764Y-70809929D01*
X77644046Y-70776296D01*
X77605843Y-70761974D01*
X77605841Y-70761974D01*
X77598448Y-70759202D01*
X77590598Y-70758349D01*
X77590597Y-70758349D01*
X77540153Y-70752869D01*
X77540152Y-70752869D01*
X77536756Y-70752500D01*
X76641244Y-70752500D01*
X76637848Y-70752869D01*
X76637847Y-70752869D01*
X76587403Y-70758349D01*
X76587402Y-70758349D01*
X76579552Y-70759202D01*
X76572159Y-70761974D01*
X76572157Y-70761974D01*
X76533954Y-70776296D01*
X76444236Y-70809929D01*
X76437057Y-70815309D01*
X76437054Y-70815311D01*
X76424891Y-70824427D01*
X76328596Y-70896596D01*
X76323215Y-70903776D01*
X76247311Y-71005054D01*
X76247309Y-71005057D01*
X76241929Y-71012236D01*
X76191202Y-71147552D01*
X76190349Y-71155402D01*
X76190349Y-71155403D01*
X76188370Y-71173623D01*
X76184500Y-71209244D01*
X76184500Y-71354815D01*
X76164498Y-71422936D01*
X76110842Y-71469429D01*
X76058500Y-71480815D01*
X75529367Y-71480815D01*
X75461246Y-71460813D01*
X75440272Y-71443910D01*
X75140404Y-71144042D01*
X75106378Y-71081730D01*
X75103499Y-71054947D01*
X75103499Y-70944934D01*
X75105658Y-70944934D01*
X75117053Y-70884792D01*
X75124462Y-70872174D01*
X75156369Y-70824422D01*
X75165684Y-70801934D01*
X75176793Y-70746085D01*
X75178000Y-70733830D01*
X75177999Y-70506173D01*
X75176791Y-70493912D01*
X75165685Y-70438069D01*
X75156367Y-70415573D01*
X75124463Y-70367826D01*
X75103248Y-70300073D01*
X75103437Y-70295384D01*
X75103500Y-70295067D01*
X75103500Y-70185053D01*
X75123502Y-70116932D01*
X75140404Y-70095958D01*
X75583271Y-69653090D01*
X75645584Y-69619065D01*
X75672367Y-69616185D01*
X75946000Y-69616185D01*
X76014121Y-69636187D01*
X76060614Y-69689843D01*
X76072000Y-69742185D01*
X76072000Y-69962756D01*
X76078702Y-70024448D01*
X76129429Y-70159764D01*
X76134809Y-70166943D01*
X76134811Y-70166946D01*
X76165300Y-70207627D01*
X76216096Y-70275404D01*
X76223276Y-70280785D01*
X76324554Y-70356689D01*
X76324557Y-70356691D01*
X76331736Y-70362071D01*
X76421454Y-70395704D01*
X76459657Y-70410026D01*
X76459659Y-70410026D01*
X76467052Y-70412798D01*
X76474902Y-70413651D01*
X76474903Y-70413651D01*
X76525347Y-70419131D01*
X76528744Y-70419500D01*
X77349256Y-70419500D01*
X77352653Y-70419131D01*
X77403097Y-70413651D01*
X77403098Y-70413651D01*
X77410948Y-70412798D01*
X77418341Y-70410026D01*
X77418343Y-70410026D01*
X77456546Y-70395704D01*
X77546264Y-70362071D01*
X77553443Y-70356691D01*
X77553446Y-70356689D01*
X77654724Y-70280785D01*
X77661904Y-70275404D01*
X77712700Y-70207627D01*
X77743189Y-70166946D01*
X77743191Y-70166943D01*
X77748571Y-70159764D01*
X77799298Y-70024448D01*
X77806000Y-69962756D01*
X77806000Y-68467244D01*
X77799298Y-68405552D01*
X77748571Y-68270236D01*
X77743191Y-68263057D01*
X77743189Y-68263054D01*
X77667285Y-68161776D01*
X77661904Y-68154596D01*
X77610715Y-68116232D01*
X77553446Y-68073311D01*
X77553443Y-68073309D01*
X77546264Y-68067929D01*
X77431923Y-68025065D01*
X77418343Y-68019974D01*
X77418341Y-68019974D01*
X77410948Y-68017202D01*
X77403098Y-68016349D01*
X77403097Y-68016349D01*
X77352653Y-68010869D01*
X77352652Y-68010869D01*
X77349256Y-68010500D01*
X76528744Y-68010500D01*
X76525348Y-68010869D01*
X76525347Y-68010869D01*
X76474903Y-68016349D01*
X76474902Y-68016349D01*
X76467052Y-68017202D01*
X76459659Y-68019974D01*
X76459657Y-68019974D01*
X76446077Y-68025065D01*
X76331736Y-68067929D01*
X76324557Y-68073309D01*
X76324554Y-68073311D01*
X76267285Y-68116232D01*
X76216096Y-68154596D01*
X76210715Y-68161776D01*
X76134811Y-68263054D01*
X76134809Y-68263057D01*
X76129429Y-68270236D01*
X76078702Y-68405552D01*
X76072000Y-68467244D01*
X76072000Y-68687815D01*
X76051998Y-68755936D01*
X75998342Y-68802429D01*
X75946000Y-68813815D01*
X75390458Y-68813815D01*
X75369488Y-68820628D01*
X75350264Y-68825244D01*
X75338278Y-68827142D01*
X75338276Y-68827143D01*
X75328482Y-68828694D01*
X75319648Y-68833195D01*
X75319645Y-68833196D01*
X75308836Y-68838704D01*
X75290571Y-68846270D01*
X75279027Y-68850021D01*
X75279026Y-68850022D01*
X75269595Y-68853086D01*
X75259246Y-68860605D01*
X75251755Y-68866047D01*
X75234903Y-68876374D01*
X75224088Y-68881885D01*
X75224085Y-68881887D01*
X75215250Y-68886389D01*
X75192646Y-68908993D01*
X74423042Y-69678596D01*
X74360730Y-69712622D01*
X74333947Y-69715501D01*
X74223934Y-69715501D01*
X74188182Y-69722612D01*
X74161874Y-69727844D01*
X74161872Y-69727845D01*
X74149699Y-69730266D01*
X74139379Y-69737161D01*
X74139378Y-69737162D01*
X74131861Y-69742185D01*
X74065516Y-69786516D01*
X74009266Y-69870699D01*
X73994500Y-69944933D01*
X73994500Y-69951120D01*
X73994501Y-70132862D01*
X73994501Y-70295066D01*
X73992342Y-70295066D01*
X73980947Y-70355208D01*
X73973538Y-70367826D01*
X73941631Y-70415578D01*
X73932316Y-70438066D01*
X73921207Y-70493915D01*
X73920000Y-70506170D01*
X70993500Y-70506170D01*
X70993500Y-67058327D01*
X71863381Y-67058327D01*
X71872208Y-67069945D01*
X72085273Y-67224746D01*
X72091953Y-67228986D01*
X72355610Y-67373933D01*
X72362745Y-67377290D01*
X72642490Y-67488049D01*
X72650015Y-67490494D01*
X72941418Y-67565313D01*
X72949189Y-67566796D01*
X73247676Y-67604503D01*
X73255566Y-67605000D01*
X73556434Y-67605000D01*
X73564324Y-67604503D01*
X73862811Y-67566796D01*
X73870582Y-67565313D01*
X74161985Y-67490494D01*
X74169510Y-67488049D01*
X74449255Y-67377290D01*
X74456390Y-67373933D01*
X74596643Y-67296828D01*
X77156001Y-67296828D01*
X77157209Y-67309088D01*
X77168315Y-67364931D01*
X77177633Y-67387427D01*
X77219983Y-67450808D01*
X77237192Y-67468017D01*
X77300575Y-67510368D01*
X77323066Y-67519684D01*
X77378915Y-67530793D01*
X77391170Y-67532000D01*
X78237885Y-67532000D01*
X78253124Y-67527525D01*
X78254329Y-67526135D01*
X78256000Y-67518452D01*
X78256000Y-67513884D01*
X78764000Y-67513884D01*
X78768475Y-67529123D01*
X78769865Y-67530328D01*
X78777548Y-67531999D01*
X79628828Y-67531999D01*
X79641088Y-67530791D01*
X79696931Y-67519685D01*
X79719427Y-67510367D01*
X79782808Y-67468017D01*
X79800017Y-67450808D01*
X79842368Y-67387425D01*
X79851684Y-67364934D01*
X79862793Y-67309085D01*
X79864000Y-67296830D01*
X79864000Y-67025115D01*
X79859525Y-67009876D01*
X79858135Y-67008671D01*
X79850452Y-67007000D01*
X78782115Y-67007000D01*
X78766876Y-67011475D01*
X78765671Y-67012865D01*
X78764000Y-67020548D01*
X78764000Y-67513884D01*
X78256000Y-67513884D01*
X78256000Y-67025115D01*
X78251525Y-67009876D01*
X78250135Y-67008671D01*
X78242452Y-67007000D01*
X77174116Y-67007000D01*
X77158877Y-67011475D01*
X77157672Y-67012865D01*
X77156001Y-67020548D01*
X77156001Y-67296828D01*
X74596643Y-67296828D01*
X74720047Y-67228986D01*
X74726727Y-67224746D01*
X74940163Y-67069676D01*
X74948586Y-67058752D01*
X74941683Y-67045893D01*
X73418812Y-65523022D01*
X73404868Y-65515408D01*
X73403035Y-65515539D01*
X73396420Y-65519790D01*
X71869994Y-67046216D01*
X71863381Y-67058327D01*
X70993500Y-67058327D01*
X70993500Y-66351416D01*
X71013502Y-66283295D01*
X71067158Y-66236802D01*
X71137432Y-66226698D01*
X71202012Y-66256192D01*
X71233508Y-66297768D01*
X71249604Y-66331975D01*
X71253416Y-66338908D01*
X71414625Y-66592933D01*
X71419270Y-66599326D01*
X71488850Y-66683435D01*
X71501369Y-66691890D01*
X71512106Y-66685684D01*
X73033978Y-65163812D01*
X73040356Y-65152132D01*
X73770408Y-65152132D01*
X73770539Y-65153965D01*
X73774790Y-65160580D01*
X75298791Y-66684581D01*
X75312053Y-66691823D01*
X75322158Y-66684634D01*
X75392730Y-66599326D01*
X75397375Y-66592933D01*
X75468483Y-66480885D01*
X77156000Y-66480885D01*
X77160475Y-66496124D01*
X77161865Y-66497329D01*
X77169548Y-66499000D01*
X78237885Y-66499000D01*
X78253124Y-66494525D01*
X78254329Y-66493135D01*
X78256000Y-66485452D01*
X78256000Y-66480885D01*
X78764000Y-66480885D01*
X78768475Y-66496124D01*
X78769865Y-66497329D01*
X78777548Y-66499000D01*
X79845884Y-66499000D01*
X79861123Y-66494525D01*
X79862328Y-66493135D01*
X79863999Y-66485452D01*
X79863999Y-66209172D01*
X79862791Y-66196912D01*
X79860040Y-66183079D01*
X79866369Y-66112365D01*
X79909924Y-66056299D01*
X79983619Y-66032500D01*
X80300959Y-66032499D01*
X80392000Y-66032499D01*
X80460120Y-66052501D01*
X80506614Y-66106156D01*
X80512174Y-66131714D01*
X80512896Y-66131502D01*
X80518000Y-66148884D01*
X80518000Y-66167000D01*
X81133815Y-66167000D01*
X81201936Y-66187002D01*
X81248429Y-66240658D01*
X81259815Y-66293000D01*
X81259815Y-67599634D01*
X81239813Y-67667755D01*
X81222910Y-67688729D01*
X80908586Y-68003053D01*
X80846274Y-68037079D01*
X80775262Y-68031940D01*
X80743343Y-68019974D01*
X80743341Y-68019974D01*
X80735948Y-68017202D01*
X80728098Y-68016349D01*
X80728097Y-68016349D01*
X80677653Y-68010869D01*
X80677652Y-68010869D01*
X80674256Y-68010500D01*
X79853744Y-68010500D01*
X79850348Y-68010869D01*
X79850347Y-68010869D01*
X79799903Y-68016349D01*
X79799902Y-68016349D01*
X79792052Y-68017202D01*
X79784659Y-68019974D01*
X79784657Y-68019974D01*
X79771077Y-68025065D01*
X79656736Y-68067929D01*
X79649557Y-68073309D01*
X79649554Y-68073311D01*
X79592285Y-68116232D01*
X79541096Y-68154596D01*
X79535715Y-68161776D01*
X79459811Y-68263054D01*
X79459809Y-68263057D01*
X79454429Y-68270236D01*
X79403702Y-68405552D01*
X79397000Y-68467244D01*
X79397000Y-69962756D01*
X79403702Y-70024448D01*
X79454429Y-70159764D01*
X79459809Y-70166943D01*
X79459811Y-70166946D01*
X79490300Y-70207627D01*
X79541096Y-70275404D01*
X79548276Y-70280785D01*
X79649554Y-70356689D01*
X79649557Y-70356691D01*
X79656736Y-70362071D01*
X79746454Y-70395704D01*
X79784657Y-70410026D01*
X79784659Y-70410026D01*
X79792052Y-70412798D01*
X79799902Y-70413651D01*
X79799903Y-70413651D01*
X79850347Y-70419131D01*
X79853744Y-70419500D01*
X80674256Y-70419500D01*
X80677653Y-70419131D01*
X80728097Y-70413651D01*
X80728098Y-70413651D01*
X80735948Y-70412798D01*
X80743341Y-70410026D01*
X80743343Y-70410026D01*
X80781546Y-70395704D01*
X80871264Y-70362071D01*
X80878443Y-70356691D01*
X80878446Y-70356689D01*
X80979724Y-70280785D01*
X80986904Y-70275404D01*
X81037700Y-70207627D01*
X81068189Y-70166946D01*
X81068191Y-70166943D01*
X81073571Y-70159764D01*
X81124298Y-70024448D01*
X81131000Y-69962756D01*
X81131000Y-68967553D01*
X81151002Y-68899432D01*
X81167904Y-68878458D01*
X81967007Y-68079354D01*
X81989611Y-68056750D01*
X81994113Y-68047915D01*
X81999626Y-68037097D01*
X82009953Y-68020245D01*
X82012783Y-68016349D01*
X82022914Y-68002405D01*
X82026612Y-67991026D01*
X82029730Y-67981429D01*
X82037296Y-67963164D01*
X82042804Y-67952355D01*
X82042805Y-67952352D01*
X82047306Y-67943518D01*
X82050756Y-67921735D01*
X82055372Y-67902512D01*
X82062185Y-67881542D01*
X82062185Y-66293000D01*
X82082187Y-66224879D01*
X82135843Y-66178386D01*
X82188185Y-66167000D01*
X83058000Y-66167000D01*
X83058000Y-66126000D01*
X85285884Y-66126000D01*
X85301123Y-66121525D01*
X85302328Y-66120135D01*
X85303999Y-66112452D01*
X85303999Y-65961172D01*
X85302791Y-65948912D01*
X85291684Y-65893069D01*
X85285808Y-65878880D01*
X85278222Y-65808289D01*
X85284383Y-65787310D01*
X85289734Y-65779301D01*
X85292156Y-65767128D01*
X85303293Y-65711135D01*
X85304500Y-65705067D01*
X85304499Y-64854934D01*
X85289734Y-64780699D01*
X85282838Y-64770379D01*
X85278089Y-64758913D01*
X85280427Y-64757945D01*
X85264412Y-64706795D01*
X85280481Y-64652075D01*
X85277620Y-64650890D01*
X85291684Y-64616936D01*
X85302793Y-64561085D01*
X85304000Y-64548830D01*
X85304000Y-64452115D01*
X85299525Y-64436876D01*
X85298135Y-64435671D01*
X85290452Y-64434000D01*
X83082000Y-64434000D01*
X83058000Y-64426953D01*
X83058000Y-64262000D01*
X82165903Y-64262000D01*
X82097782Y-64241998D01*
X82051289Y-64188342D01*
X82042409Y-64135017D01*
X82040000Y-64135017D01*
X82039999Y-63907885D01*
X82996000Y-63907885D01*
X83000475Y-63923124D01*
X83001865Y-63924329D01*
X83009548Y-63926000D01*
X83877885Y-63926000D01*
X83893124Y-63921525D01*
X83894329Y-63920135D01*
X83896000Y-63912452D01*
X83896000Y-63907885D01*
X84404000Y-63907885D01*
X84408475Y-63923124D01*
X84409865Y-63924329D01*
X84417548Y-63926000D01*
X85285884Y-63926000D01*
X85301123Y-63921525D01*
X85302328Y-63920135D01*
X85303999Y-63912452D01*
X85303999Y-63811172D01*
X85302791Y-63798912D01*
X85291685Y-63743069D01*
X85282367Y-63720573D01*
X85240017Y-63657192D01*
X85222808Y-63639983D01*
X85159425Y-63597632D01*
X85136934Y-63588316D01*
X85081085Y-63577207D01*
X85068830Y-63576000D01*
X84422115Y-63576000D01*
X84406876Y-63580475D01*
X84405671Y-63581865D01*
X84404000Y-63589548D01*
X84404000Y-63907885D01*
X83896000Y-63907885D01*
X83896000Y-63594116D01*
X83891525Y-63578877D01*
X83890135Y-63577672D01*
X83882452Y-63576001D01*
X83231172Y-63576001D01*
X83218912Y-63577209D01*
X83163069Y-63588315D01*
X83140573Y-63597633D01*
X83077192Y-63639983D01*
X83059983Y-63657192D01*
X83017632Y-63720575D01*
X83008316Y-63743066D01*
X82997207Y-63798915D01*
X82996000Y-63811170D01*
X82996000Y-63907885D01*
X82039999Y-63907885D01*
X82039999Y-63731173D01*
X82038791Y-63718912D01*
X82027685Y-63663069D01*
X82018367Y-63640573D01*
X81976017Y-63577192D01*
X81958808Y-63559983D01*
X81895425Y-63517632D01*
X81872934Y-63508316D01*
X81817085Y-63497207D01*
X81804830Y-63496000D01*
X81517173Y-63496001D01*
X81504912Y-63497209D01*
X81449069Y-63508315D01*
X81426573Y-63517633D01*
X81363192Y-63559983D01*
X81345983Y-63577192D01*
X81303632Y-63640575D01*
X81294316Y-63663066D01*
X81283207Y-63718915D01*
X81282000Y-63731170D01*
X81282001Y-64135016D01*
X81279333Y-64135016D01*
X81268267Y-64193394D01*
X81219432Y-64244926D01*
X81156098Y-64262000D01*
X80518000Y-64262000D01*
X80518000Y-64397500D01*
X80497998Y-64465621D01*
X80444342Y-64512114D01*
X80392000Y-64523500D01*
X80300959Y-64523500D01*
X79983618Y-64523501D01*
X79915500Y-64503499D01*
X79869006Y-64449844D01*
X79860041Y-64372919D01*
X79862793Y-64359083D01*
X79864000Y-64346830D01*
X79864000Y-64075115D01*
X79859525Y-64059876D01*
X79858135Y-64058671D01*
X79850452Y-64057000D01*
X78782115Y-64057000D01*
X78766876Y-64061475D01*
X78765671Y-64062865D01*
X78764000Y-64070548D01*
X78764000Y-64563884D01*
X78768475Y-64579123D01*
X78769865Y-64580328D01*
X78777548Y-64581999D01*
X79135969Y-64581999D01*
X79204090Y-64602001D01*
X79250583Y-64655657D01*
X79259548Y-64732578D01*
X79256742Y-64746690D01*
X79255500Y-64752933D01*
X79255501Y-65803066D01*
X79259550Y-65823422D01*
X79253222Y-65894132D01*
X79209668Y-65950199D01*
X79135971Y-65974000D01*
X78782115Y-65974000D01*
X78766876Y-65978475D01*
X78765671Y-65979865D01*
X78764000Y-65987548D01*
X78764000Y-66480885D01*
X78256000Y-66480885D01*
X78256000Y-65992116D01*
X78251525Y-65976877D01*
X78250135Y-65975672D01*
X78242452Y-65974001D01*
X77883521Y-65974001D01*
X77815400Y-65953999D01*
X77768907Y-65900343D01*
X77759942Y-65823422D01*
X77762792Y-65809090D01*
X77764000Y-65796830D01*
X77764000Y-65550115D01*
X77759525Y-65534876D01*
X77758135Y-65533671D01*
X77750452Y-65532000D01*
X77282115Y-65532000D01*
X77266876Y-65536475D01*
X77265671Y-65537865D01*
X77264000Y-65545548D01*
X77264000Y-65968587D01*
X77243998Y-66036708D01*
X77226298Y-66058473D01*
X77201540Y-66082793D01*
X77177632Y-66118575D01*
X77168316Y-66141064D01*
X77157207Y-66196915D01*
X77156000Y-66209170D01*
X77156000Y-66480885D01*
X75468483Y-66480885D01*
X75558584Y-66338908D01*
X75562396Y-66331975D01*
X75690494Y-66059754D01*
X75693409Y-66052391D01*
X75776446Y-65796828D01*
X76256001Y-65796828D01*
X76257209Y-65809088D01*
X76268315Y-65864931D01*
X76277633Y-65887427D01*
X76319983Y-65950808D01*
X76337192Y-65968017D01*
X76400575Y-66010368D01*
X76423066Y-66019684D01*
X76478915Y-66030793D01*
X76491170Y-66032000D01*
X76737885Y-66032000D01*
X76753124Y-66027525D01*
X76754329Y-66026135D01*
X76756000Y-66018452D01*
X76756000Y-65550115D01*
X76751525Y-65534876D01*
X76750135Y-65533671D01*
X76742452Y-65532000D01*
X76274116Y-65532000D01*
X76258877Y-65536475D01*
X76257672Y-65537865D01*
X76256001Y-65545548D01*
X76256001Y-65796828D01*
X75776446Y-65796828D01*
X75786376Y-65766268D01*
X75788347Y-65758591D01*
X75844719Y-65463076D01*
X75845712Y-65455213D01*
X75864603Y-65154958D01*
X75864603Y-65147042D01*
X75855722Y-65005885D01*
X76256000Y-65005885D01*
X76260475Y-65021124D01*
X76261865Y-65022329D01*
X76269548Y-65024000D01*
X76737885Y-65024000D01*
X76753124Y-65019525D01*
X76754329Y-65018135D01*
X76756000Y-65010452D01*
X76756000Y-64542116D01*
X76751525Y-64526877D01*
X76750135Y-64525672D01*
X76742452Y-64524001D01*
X76491172Y-64524001D01*
X76478912Y-64525209D01*
X76423069Y-64536315D01*
X76400573Y-64545633D01*
X76337192Y-64587983D01*
X76319983Y-64605192D01*
X76277632Y-64668575D01*
X76268316Y-64691066D01*
X76257207Y-64746915D01*
X76256000Y-64759170D01*
X76256000Y-65005885D01*
X75855722Y-65005885D01*
X75845712Y-64846787D01*
X75844719Y-64838924D01*
X75788347Y-64543409D01*
X75786376Y-64535732D01*
X75724997Y-64346828D01*
X77156001Y-64346828D01*
X77157209Y-64359088D01*
X77168316Y-64414933D01*
X77177633Y-64437426D01*
X77198687Y-64468937D01*
X77218800Y-64485746D01*
X77258244Y-64544777D01*
X77264000Y-64582427D01*
X77264000Y-65005885D01*
X77268475Y-65021124D01*
X77269865Y-65022329D01*
X77277548Y-65024000D01*
X77745884Y-65024000D01*
X77761123Y-65019525D01*
X77762328Y-65018135D01*
X77763999Y-65010452D01*
X77763999Y-64759172D01*
X77762792Y-64746917D01*
X77759940Y-64732577D01*
X77766271Y-64661863D01*
X77809827Y-64605797D01*
X77883520Y-64582000D01*
X78237885Y-64582000D01*
X78253124Y-64577525D01*
X78254329Y-64576135D01*
X78256000Y-64568452D01*
X78256000Y-64075115D01*
X78251525Y-64059876D01*
X78250135Y-64058671D01*
X78242452Y-64057000D01*
X77174116Y-64057000D01*
X77158877Y-64061475D01*
X77157672Y-64062865D01*
X77156001Y-64070548D01*
X77156001Y-64346828D01*
X75724997Y-64346828D01*
X75693409Y-64249609D01*
X75690494Y-64242246D01*
X75562396Y-63970025D01*
X75558584Y-63963092D01*
X75397375Y-63709067D01*
X75392730Y-63702674D01*
X75323150Y-63618565D01*
X75310631Y-63610110D01*
X75299894Y-63616316D01*
X73778022Y-65138188D01*
X73770408Y-65152132D01*
X73040356Y-65152132D01*
X73041592Y-65149868D01*
X73041461Y-65148035D01*
X73037210Y-65141420D01*
X71513209Y-63617419D01*
X71499947Y-63610177D01*
X71489842Y-63617366D01*
X71419270Y-63702674D01*
X71414625Y-63709067D01*
X71253416Y-63963092D01*
X71249604Y-63970025D01*
X71233508Y-64004232D01*
X71186405Y-64057353D01*
X71118061Y-64076576D01*
X71050173Y-64055797D01*
X71004296Y-64001614D01*
X70993500Y-63950584D01*
X70993500Y-62610500D01*
X71013502Y-62542379D01*
X71067158Y-62495886D01*
X71119500Y-62484500D01*
X72931009Y-62484500D01*
X72999130Y-62504502D01*
G37*
%TD.AperFunction*%
%TD*%
M02*
