%TF.GenerationSoftware,KiCad,Pcbnew,(6.0.9)*%
%TF.CreationDate,2022-12-24T19:37:18+02:00*%
%TF.ProjectId,GPSBoard,47505342-6f61-4726-942e-6b696361645f,rev?*%
%TF.SameCoordinates,Original*%
%TF.FileFunction,Drillmap*%
%TF.FilePolarity,Positive*%
%FSLAX45Y45*%
G04 Gerber Fmt 4.5, Leading zero omitted, Abs format (unit mm)*
G04 Created by KiCad (PCBNEW (6.0.9)) date 2022-12-24 19:37:18*
%MOMM*%
%LPD*%
G01*
G04 APERTURE LIST*
%ADD10C,0.050000*%
%ADD11C,0.200000*%
G04 APERTURE END LIST*
D10*
X7073900Y-6223000D02*
X11315700Y-6223000D01*
X11315700Y-6223000D02*
X11315700Y-7493000D01*
X11315700Y-7493000D02*
X7073900Y-7493000D01*
X7073900Y-7493000D02*
X7073900Y-6223000D01*
D11*
X7329019Y-7805976D02*
X7329019Y-7605976D01*
X7376638Y-7605976D01*
X7405209Y-7615500D01*
X7424257Y-7634548D01*
X7433781Y-7653595D01*
X7443305Y-7691690D01*
X7443305Y-7720262D01*
X7433781Y-7758357D01*
X7424257Y-7777405D01*
X7405209Y-7796452D01*
X7376638Y-7805976D01*
X7329019Y-7805976D01*
X7529019Y-7805976D02*
X7529019Y-7672643D01*
X7529019Y-7710738D02*
X7538543Y-7691690D01*
X7548067Y-7682167D01*
X7567114Y-7672643D01*
X7586162Y-7672643D01*
X7652828Y-7805976D02*
X7652828Y-7672643D01*
X7652828Y-7605976D02*
X7643305Y-7615500D01*
X7652828Y-7625024D01*
X7662352Y-7615500D01*
X7652828Y-7605976D01*
X7652828Y-7625024D01*
X7776638Y-7805976D02*
X7757590Y-7796452D01*
X7748067Y-7777405D01*
X7748067Y-7605976D01*
X7881400Y-7805976D02*
X7862352Y-7796452D01*
X7852828Y-7777405D01*
X7852828Y-7605976D01*
X8109971Y-7805976D02*
X8109971Y-7605976D01*
X8176638Y-7748833D01*
X8243305Y-7605976D01*
X8243305Y-7805976D01*
X8424257Y-7805976D02*
X8424257Y-7701214D01*
X8414733Y-7682167D01*
X8395686Y-7672643D01*
X8357590Y-7672643D01*
X8338543Y-7682167D01*
X8424257Y-7796452D02*
X8405210Y-7805976D01*
X8357590Y-7805976D01*
X8338543Y-7796452D01*
X8329019Y-7777405D01*
X8329019Y-7758357D01*
X8338543Y-7739309D01*
X8357590Y-7729786D01*
X8405210Y-7729786D01*
X8424257Y-7720262D01*
X8519495Y-7672643D02*
X8519495Y-7872643D01*
X8519495Y-7682167D02*
X8538543Y-7672643D01*
X8576638Y-7672643D01*
X8595686Y-7682167D01*
X8605210Y-7691690D01*
X8614733Y-7710738D01*
X8614733Y-7767881D01*
X8605210Y-7786928D01*
X8595686Y-7796452D01*
X8576638Y-7805976D01*
X8538543Y-7805976D01*
X8519495Y-7796452D01*
X8700448Y-7786928D02*
X8709971Y-7796452D01*
X8700448Y-7805976D01*
X8690924Y-7796452D01*
X8700448Y-7786928D01*
X8700448Y-7805976D01*
X8700448Y-7682167D02*
X8709971Y-7691690D01*
X8700448Y-7701214D01*
X8690924Y-7691690D01*
X8700448Y-7682167D01*
X8700448Y-7701214D01*
M02*
