%TF.GenerationSoftware,KiCad,Pcbnew,(6.0.9)*%
%TF.CreationDate,2022-12-24T19:37:18+02:00*%
%TF.ProjectId,GPSBoard,47505342-6f61-4726-942e-6b696361645f,rev?*%
%TF.SameCoordinates,Original*%
%TF.FileFunction,Drillmap*%
%TF.FilePolarity,Positive*%
%FSLAX45Y45*%
G04 Gerber Fmt 4.5, Leading zero omitted, Abs format (unit mm)*
G04 Created by KiCad (PCBNEW (6.0.9)) date 2022-12-24 19:37:18*
%MOMM*%
%LPD*%
G01*
G04 APERTURE LIST*
%ADD10C,0.050000*%
%ADD11C,0.200000*%
%ADD12C,0.030000*%
%ADD13C,0.100000*%
%ADD14C,0.220000*%
G04 APERTURE END LIST*
D10*
X7073900Y-6223000D02*
X11315700Y-6223000D01*
X11315700Y-6223000D02*
X11315700Y-7493000D01*
X11315700Y-7493000D02*
X7073900Y-7493000D01*
X7073900Y-7493000D02*
X7073900Y-6223000D01*
D11*
D12*
X7339100Y-7047000D02*
X7369100Y-7077000D01*
X7369100Y-7047000D02*
X7339100Y-7077000D01*
X7351000Y-6970000D02*
X7381000Y-7000000D01*
X7381000Y-6970000D02*
X7351000Y-7000000D01*
X7351000Y-7109700D02*
X7381000Y-7139700D01*
X7381000Y-7109700D02*
X7351000Y-7139700D01*
X7389100Y-7173200D02*
X7419100Y-7203200D01*
X7419100Y-7173200D02*
X7389100Y-7203200D01*
X7401800Y-6919200D02*
X7431800Y-6949200D01*
X7431800Y-6919200D02*
X7401800Y-6949200D01*
X7439900Y-7211300D02*
X7469900Y-7241300D01*
X7469900Y-7211300D02*
X7439900Y-7241300D01*
X7452600Y-6881100D02*
X7482600Y-6911100D01*
X7482600Y-6881100D02*
X7452600Y-6911100D01*
X7490700Y-7249400D02*
X7520700Y-7279400D01*
X7520700Y-7249400D02*
X7490700Y-7279400D01*
X7503400Y-6830300D02*
X7533400Y-6860300D01*
X7533400Y-6830300D02*
X7503400Y-6860300D01*
X7540700Y-7047000D02*
X7570700Y-7077000D01*
X7570700Y-7047000D02*
X7540700Y-7077000D01*
X7554200Y-6982700D02*
X7584200Y-7012700D01*
X7584200Y-6982700D02*
X7554200Y-7012700D01*
X7554200Y-7262100D02*
X7584200Y-7292100D01*
X7584200Y-7262100D02*
X7554200Y-7292100D01*
X7566900Y-6792200D02*
X7596900Y-6822200D01*
X7596900Y-6792200D02*
X7566900Y-6822200D01*
X7592300Y-6512800D02*
X7622300Y-6542800D01*
X7622300Y-6512800D02*
X7592300Y-6542800D01*
X7592300Y-6601700D02*
X7622300Y-6631700D01*
X7622300Y-6601700D02*
X7592300Y-6631700D01*
X7605000Y-7325600D02*
X7635000Y-7355600D01*
X7635000Y-7325600D02*
X7605000Y-7355600D01*
X7617700Y-6398500D02*
X7647700Y-6428500D01*
X7647700Y-6398500D02*
X7617700Y-6428500D01*
X7617700Y-6754100D02*
X7647700Y-6784100D01*
X7647700Y-6754100D02*
X7617700Y-6784100D01*
X7643100Y-6335000D02*
X7673100Y-6365000D01*
X7673100Y-6335000D02*
X7643100Y-6365000D01*
X7655800Y-6627100D02*
X7685800Y-6657100D01*
X7685800Y-6627100D02*
X7655800Y-6657100D01*
X7655800Y-6703300D02*
X7685800Y-6733300D01*
X7685800Y-6703300D02*
X7655800Y-6733300D01*
X7668500Y-6271500D02*
X7698500Y-6301500D01*
X7698500Y-6271500D02*
X7668500Y-6301500D01*
X7668500Y-7325600D02*
X7698500Y-7355600D01*
X7698500Y-7325600D02*
X7668500Y-7355600D01*
X7693900Y-6754100D02*
X7723900Y-6784100D01*
X7723900Y-6754100D02*
X7693900Y-6784100D01*
X7732000Y-7325600D02*
X7762000Y-7355600D01*
X7762000Y-7325600D02*
X7732000Y-7355600D01*
X7744700Y-6258800D02*
X7774700Y-6288800D01*
X7774700Y-6258800D02*
X7744700Y-6288800D01*
X7782800Y-6779500D02*
X7812800Y-6809500D01*
X7812800Y-6779500D02*
X7782800Y-6809500D01*
X7782800Y-7033500D02*
X7812800Y-7063500D01*
X7812800Y-7033500D02*
X7782800Y-7063500D01*
X7795500Y-6474700D02*
X7825500Y-6504700D01*
X7825500Y-6474700D02*
X7795500Y-6504700D01*
X7795500Y-6550900D02*
X7825500Y-6580900D01*
X7825500Y-6550900D02*
X7795500Y-6580900D01*
X7795500Y-7325600D02*
X7825500Y-7355600D01*
X7825500Y-7325600D02*
X7795500Y-7355600D01*
X7808200Y-6843000D02*
X7838200Y-6873000D01*
X7838200Y-6843000D02*
X7808200Y-6873000D01*
X7808200Y-6906500D02*
X7838200Y-6936500D01*
X7838200Y-6906500D02*
X7808200Y-6936500D01*
X7808200Y-6970000D02*
X7838200Y-7000000D01*
X7838200Y-6970000D02*
X7808200Y-7000000D01*
X7820900Y-6258800D02*
X7850900Y-6288800D01*
X7850900Y-6258800D02*
X7820900Y-6288800D01*
X7820900Y-7097000D02*
X7850900Y-7127000D01*
X7850900Y-7097000D02*
X7820900Y-7127000D01*
X7820900Y-7173200D02*
X7850900Y-7203200D01*
X7850900Y-7173200D02*
X7820900Y-7203200D01*
X7820900Y-7249400D02*
X7850900Y-7279400D01*
X7850900Y-7249400D02*
X7820900Y-7279400D01*
X7846300Y-6779500D02*
X7876300Y-6809500D01*
X7876300Y-6779500D02*
X7846300Y-6809500D01*
X7846300Y-7033500D02*
X7876300Y-7063500D01*
X7876300Y-7033500D02*
X7846300Y-7063500D01*
X7871700Y-6474700D02*
X7901700Y-6504700D01*
X7901700Y-6474700D02*
X7871700Y-6504700D01*
X7871700Y-6550900D02*
X7901700Y-6580900D01*
X7901700Y-6550900D02*
X7871700Y-6580900D01*
X7871700Y-7135100D02*
X7901700Y-7165100D01*
X7901700Y-7135100D02*
X7871700Y-7165100D01*
X7871700Y-7211300D02*
X7901700Y-7241300D01*
X7901700Y-7211300D02*
X7871700Y-7241300D01*
X7871700Y-7287500D02*
X7901700Y-7317500D01*
X7901700Y-7287500D02*
X7871700Y-7317500D01*
X7884400Y-6843000D02*
X7914400Y-6873000D01*
X7914400Y-6843000D02*
X7884400Y-6873000D01*
X7884400Y-6906500D02*
X7914400Y-6936500D01*
X7914400Y-6906500D02*
X7884400Y-6936500D01*
X7884400Y-6970000D02*
X7914400Y-7000000D01*
X7914400Y-6970000D02*
X7884400Y-7000000D01*
X7897100Y-6258800D02*
X7927100Y-6288800D01*
X7927100Y-6258800D02*
X7897100Y-6288800D01*
X7909800Y-6779500D02*
X7939800Y-6809500D01*
X7939800Y-6779500D02*
X7909800Y-6809500D01*
X7909800Y-7033500D02*
X7939800Y-7063500D01*
X7939800Y-7033500D02*
X7909800Y-7063500D01*
X7935200Y-7325600D02*
X7965200Y-7355600D01*
X7965200Y-7325600D02*
X7935200Y-7355600D01*
X7986000Y-6754100D02*
X8016000Y-6784100D01*
X8016000Y-6754100D02*
X7986000Y-6784100D01*
X7998700Y-6271500D02*
X8028700Y-6301500D01*
X8028700Y-6271500D02*
X7998700Y-6301500D01*
X7998700Y-7325600D02*
X8028700Y-7355600D01*
X8028700Y-7325600D02*
X7998700Y-7355600D01*
X8011400Y-6335000D02*
X8041400Y-6365000D01*
X8041400Y-6335000D02*
X8011400Y-6365000D01*
X8049500Y-6652500D02*
X8079500Y-6682500D01*
X8079500Y-6652500D02*
X8049500Y-6682500D01*
X8062200Y-6373100D02*
X8092200Y-6403100D01*
X8092200Y-6373100D02*
X8062200Y-6403100D01*
X8062200Y-6728700D02*
X8092200Y-6758700D01*
X8092200Y-6728700D02*
X8062200Y-6758700D01*
X8062200Y-7325600D02*
X8092200Y-7355600D01*
X8092200Y-7325600D02*
X8062200Y-7355600D01*
X8074900Y-6296900D02*
X8104900Y-6326900D01*
X8104900Y-6296900D02*
X8074900Y-6326900D01*
X8113000Y-7046200D02*
X8143000Y-7076200D01*
X8143000Y-7046200D02*
X8113000Y-7076200D01*
X8113000Y-7287500D02*
X8143000Y-7317500D01*
X8143000Y-7287500D02*
X8113000Y-7317500D01*
X8138400Y-6906500D02*
X8168400Y-6936500D01*
X8168400Y-6906500D02*
X8138400Y-6936500D01*
X8138400Y-7351000D02*
X8168400Y-7381000D01*
X8168400Y-7351000D02*
X8138400Y-7381000D01*
X8151100Y-6284200D02*
X8181100Y-6314200D01*
X8181100Y-6284200D02*
X8151100Y-6314200D01*
X8163800Y-7236700D02*
X8193800Y-7266700D01*
X8193800Y-7236700D02*
X8163800Y-7266700D01*
X8176500Y-6855700D02*
X8206500Y-6885700D01*
X8206500Y-6855700D02*
X8176500Y-6885700D01*
X8189200Y-7300200D02*
X8219200Y-7330200D01*
X8219200Y-7300200D02*
X8189200Y-7330200D01*
X8214600Y-7198600D02*
X8244600Y-7228600D01*
X8244600Y-7198600D02*
X8214600Y-7228600D01*
X8214600Y-7376400D02*
X8244600Y-7406400D01*
X8244600Y-7376400D02*
X8214600Y-7406400D01*
X8227300Y-6296900D02*
X8257300Y-6326900D01*
X8257300Y-6296900D02*
X8227300Y-6326900D01*
X8240000Y-6373100D02*
X8270000Y-6403100D01*
X8270000Y-6373100D02*
X8240000Y-6403100D01*
X8240000Y-6652500D02*
X8270000Y-6682500D01*
X8270000Y-6652500D02*
X8240000Y-6682500D01*
X8240000Y-6728700D02*
X8270000Y-6758700D01*
X8270000Y-6728700D02*
X8240000Y-6758700D01*
X8240000Y-6804900D02*
X8270000Y-6834900D01*
X8270000Y-6804900D02*
X8240000Y-6834900D01*
X8252700Y-7147800D02*
X8282700Y-7177800D01*
X8282700Y-7147800D02*
X8252700Y-7177800D01*
X8252700Y-7249400D02*
X8282700Y-7279400D01*
X8282700Y-7249400D02*
X8252700Y-7279400D01*
X8252700Y-7312900D02*
X8282700Y-7342900D01*
X8282700Y-7312900D02*
X8252700Y-7342900D01*
X8290800Y-7376400D02*
X8320800Y-7406400D01*
X8320800Y-7376400D02*
X8290800Y-7406400D01*
X8303500Y-6296900D02*
X8333500Y-6326900D01*
X8333500Y-6296900D02*
X8303500Y-6326900D01*
X8354300Y-7376400D02*
X8384300Y-7406400D01*
X8384300Y-7376400D02*
X8354300Y-7406400D01*
X8367000Y-6296900D02*
X8397000Y-6326900D01*
X8397000Y-6296900D02*
X8367000Y-6326900D01*
X8417800Y-7376400D02*
X8447800Y-7406400D01*
X8447800Y-7376400D02*
X8417800Y-7406400D01*
X8430500Y-6296900D02*
X8460500Y-6326900D01*
X8460500Y-6296900D02*
X8430500Y-6326900D01*
X8481300Y-7376400D02*
X8511300Y-7406400D01*
X8511300Y-7376400D02*
X8481300Y-7406400D01*
X8494000Y-6296900D02*
X8524000Y-6326900D01*
X8524000Y-6296900D02*
X8494000Y-6326900D01*
X8544800Y-7376400D02*
X8574800Y-7406400D01*
X8574800Y-7376400D02*
X8544800Y-7406400D01*
X8557500Y-6296900D02*
X8587500Y-6326900D01*
X8587500Y-6296900D02*
X8557500Y-6326900D01*
X8557500Y-6360400D02*
X8587500Y-6390400D01*
X8587500Y-6360400D02*
X8557500Y-6390400D01*
X8557500Y-6423900D02*
X8587500Y-6453900D01*
X8587500Y-6423900D02*
X8557500Y-6453900D01*
X8557500Y-6487400D02*
X8587500Y-6517400D01*
X8587500Y-6487400D02*
X8557500Y-6517400D01*
X8557500Y-6550900D02*
X8587500Y-6580900D01*
X8587500Y-6550900D02*
X8557500Y-6580900D01*
X8557500Y-6614400D02*
X8587500Y-6644400D01*
X8587500Y-6614400D02*
X8557500Y-6644400D01*
X8557500Y-6677900D02*
X8587500Y-6707900D01*
X8587500Y-6677900D02*
X8557500Y-6707900D01*
X8557500Y-6741400D02*
X8587500Y-6771400D01*
X8587500Y-6741400D02*
X8557500Y-6771400D01*
X8557500Y-6804900D02*
X8587500Y-6834900D01*
X8587500Y-6804900D02*
X8557500Y-6834900D01*
X8557500Y-6868400D02*
X8587500Y-6898400D01*
X8587500Y-6868400D02*
X8557500Y-6898400D01*
X8557500Y-6931900D02*
X8587500Y-6961900D01*
X8587500Y-6931900D02*
X8557500Y-6961900D01*
X8557500Y-6995400D02*
X8587500Y-7025400D01*
X8587500Y-6995400D02*
X8557500Y-7025400D01*
X8557500Y-7058900D02*
X8587500Y-7088900D01*
X8587500Y-7058900D02*
X8557500Y-7088900D01*
X8557500Y-7122400D02*
X8587500Y-7152400D01*
X8587500Y-7122400D02*
X8557500Y-7152400D01*
X8557500Y-7185900D02*
X8587500Y-7215900D01*
X8587500Y-7185900D02*
X8557500Y-7215900D01*
X8557500Y-7249400D02*
X8587500Y-7279400D01*
X8587500Y-7249400D02*
X8557500Y-7279400D01*
X8557500Y-7312900D02*
X8587500Y-7342900D01*
X8587500Y-7312900D02*
X8557500Y-7342900D01*
X8608300Y-7376400D02*
X8638300Y-7406400D01*
X8638300Y-7376400D02*
X8608300Y-7406400D01*
X8621000Y-6296900D02*
X8651000Y-6326900D01*
X8651000Y-6296900D02*
X8621000Y-6326900D01*
X8621000Y-6423900D02*
X8651000Y-6453900D01*
X8651000Y-6423900D02*
X8621000Y-6453900D01*
X8621000Y-6550900D02*
X8651000Y-6580900D01*
X8651000Y-6550900D02*
X8621000Y-6580900D01*
X8621000Y-6677900D02*
X8651000Y-6707900D01*
X8651000Y-6677900D02*
X8621000Y-6707900D01*
X8621000Y-6804900D02*
X8651000Y-6834900D01*
X8651000Y-6804900D02*
X8621000Y-6834900D01*
X8621000Y-6931900D02*
X8651000Y-6961900D01*
X8651000Y-6931900D02*
X8621000Y-6961900D01*
X8621000Y-7058900D02*
X8651000Y-7088900D01*
X8651000Y-7058900D02*
X8621000Y-7088900D01*
X8621000Y-7185900D02*
X8651000Y-7215900D01*
X8651000Y-7185900D02*
X8621000Y-7215900D01*
X8621000Y-7249400D02*
X8651000Y-7279400D01*
X8651000Y-7249400D02*
X8621000Y-7279400D01*
X8621000Y-7312900D02*
X8651000Y-7342900D01*
X8651000Y-7312900D02*
X8621000Y-7342900D01*
X8659100Y-6360400D02*
X8689100Y-6390400D01*
X8689100Y-6360400D02*
X8659100Y-6390400D01*
X8659100Y-6487400D02*
X8689100Y-6517400D01*
X8689100Y-6487400D02*
X8659100Y-6517400D01*
X8659100Y-6614400D02*
X8689100Y-6644400D01*
X8689100Y-6614400D02*
X8659100Y-6644400D01*
X8659100Y-6741400D02*
X8689100Y-6771400D01*
X8689100Y-6741400D02*
X8659100Y-6771400D01*
X8659100Y-6868400D02*
X8689100Y-6898400D01*
X8689100Y-6868400D02*
X8659100Y-6898400D01*
X8659100Y-6995400D02*
X8689100Y-7025400D01*
X8689100Y-6995400D02*
X8659100Y-7025400D01*
X8659100Y-7122400D02*
X8689100Y-7152400D01*
X8689100Y-7122400D02*
X8659100Y-7152400D01*
X8671800Y-7376400D02*
X8701800Y-7406400D01*
X8701800Y-7376400D02*
X8671800Y-7406400D01*
X8684500Y-6296900D02*
X8714500Y-6326900D01*
X8714500Y-6296900D02*
X8684500Y-6326900D01*
X8709900Y-6423900D02*
X8739900Y-6453900D01*
X8739900Y-6423900D02*
X8709900Y-6453900D01*
X8709900Y-6550900D02*
X8739900Y-6580900D01*
X8739900Y-6550900D02*
X8709900Y-6580900D01*
X8709900Y-6677900D02*
X8739900Y-6707900D01*
X8739900Y-6677900D02*
X8709900Y-6707900D01*
X8709900Y-6804900D02*
X8739900Y-6834900D01*
X8739900Y-6804900D02*
X8709900Y-6834900D01*
X8709900Y-6931900D02*
X8739900Y-6961900D01*
X8739900Y-6931900D02*
X8709900Y-6961900D01*
X8709900Y-7058900D02*
X8739900Y-7088900D01*
X8739900Y-7058900D02*
X8709900Y-7088900D01*
X8709900Y-7185900D02*
X8739900Y-7215900D01*
X8739900Y-7185900D02*
X8709900Y-7215900D01*
X8709900Y-7249400D02*
X8739900Y-7279400D01*
X8739900Y-7249400D02*
X8709900Y-7279400D01*
X8709900Y-7312900D02*
X8739900Y-7342900D01*
X8739900Y-7312900D02*
X8709900Y-7342900D01*
X8735300Y-7376400D02*
X8765300Y-7406400D01*
X8765300Y-7376400D02*
X8735300Y-7406400D01*
X8748000Y-6296900D02*
X8778000Y-6326900D01*
X8778000Y-6296900D02*
X8748000Y-6326900D01*
X8773400Y-6360400D02*
X8803400Y-6390400D01*
X8803400Y-6360400D02*
X8773400Y-6390400D01*
X8773400Y-6423900D02*
X8803400Y-6453900D01*
X8803400Y-6423900D02*
X8773400Y-6453900D01*
X8773400Y-6487400D02*
X8803400Y-6517400D01*
X8803400Y-6487400D02*
X8773400Y-6517400D01*
X8773400Y-6550900D02*
X8803400Y-6580900D01*
X8803400Y-6550900D02*
X8773400Y-6580900D01*
X8773400Y-6614400D02*
X8803400Y-6644400D01*
X8803400Y-6614400D02*
X8773400Y-6644400D01*
X8773400Y-6677900D02*
X8803400Y-6707900D01*
X8803400Y-6677900D02*
X8773400Y-6707900D01*
X8773400Y-6741400D02*
X8803400Y-6771400D01*
X8803400Y-6741400D02*
X8773400Y-6771400D01*
X8773400Y-6804900D02*
X8803400Y-6834900D01*
X8803400Y-6804900D02*
X8773400Y-6834900D01*
X8773400Y-6868400D02*
X8803400Y-6898400D01*
X8803400Y-6868400D02*
X8773400Y-6898400D01*
X8773400Y-6931900D02*
X8803400Y-6961900D01*
X8803400Y-6931900D02*
X8773400Y-6961900D01*
X8773400Y-6995400D02*
X8803400Y-7025400D01*
X8803400Y-6995400D02*
X8773400Y-7025400D01*
X8773400Y-7058900D02*
X8803400Y-7088900D01*
X8803400Y-7058900D02*
X8773400Y-7088900D01*
X8773400Y-7122400D02*
X8803400Y-7152400D01*
X8803400Y-7122400D02*
X8773400Y-7152400D01*
X8773400Y-7185900D02*
X8803400Y-7215900D01*
X8803400Y-7185900D02*
X8773400Y-7215900D01*
X8773400Y-7249400D02*
X8803400Y-7279400D01*
X8803400Y-7249400D02*
X8773400Y-7279400D01*
X8773400Y-7312900D02*
X8803400Y-7342900D01*
X8803400Y-7312900D02*
X8773400Y-7342900D01*
X8798800Y-7376400D02*
X8828800Y-7406400D01*
X8828800Y-7376400D02*
X8798800Y-7406400D01*
X8811500Y-6296900D02*
X8841500Y-6326900D01*
X8841500Y-6296900D02*
X8811500Y-6326900D01*
X8836900Y-6423900D02*
X8866900Y-6453900D01*
X8866900Y-6423900D02*
X8836900Y-6453900D01*
X8836900Y-6550900D02*
X8866900Y-6580900D01*
X8866900Y-6550900D02*
X8836900Y-6580900D01*
X8836900Y-6677900D02*
X8866900Y-6707900D01*
X8866900Y-6677900D02*
X8836900Y-6707900D01*
X8836900Y-6804900D02*
X8866900Y-6834900D01*
X8866900Y-6804900D02*
X8836900Y-6834900D01*
X8836900Y-6931900D02*
X8866900Y-6961900D01*
X8866900Y-6931900D02*
X8836900Y-6961900D01*
X8836900Y-7058900D02*
X8866900Y-7088900D01*
X8866900Y-7058900D02*
X8836900Y-7088900D01*
X8836900Y-7185900D02*
X8866900Y-7215900D01*
X8866900Y-7185900D02*
X8836900Y-7215900D01*
X8836900Y-7249400D02*
X8866900Y-7279400D01*
X8866900Y-7249400D02*
X8836900Y-7279400D01*
X8836900Y-7312900D02*
X8866900Y-7342900D01*
X8866900Y-7312900D02*
X8836900Y-7342900D01*
X8862300Y-7376400D02*
X8892300Y-7406400D01*
X8892300Y-7376400D02*
X8862300Y-7406400D01*
X8875000Y-6296900D02*
X8905000Y-6326900D01*
X8905000Y-6296900D02*
X8875000Y-6326900D01*
X8887700Y-6360400D02*
X8917700Y-6390400D01*
X8917700Y-6360400D02*
X8887700Y-6390400D01*
X8887700Y-6487400D02*
X8917700Y-6517400D01*
X8917700Y-6487400D02*
X8887700Y-6517400D01*
X8887700Y-6614400D02*
X8917700Y-6644400D01*
X8917700Y-6614400D02*
X8887700Y-6644400D01*
X8887700Y-6741400D02*
X8917700Y-6771400D01*
X8917700Y-6741400D02*
X8887700Y-6771400D01*
X8887700Y-6868400D02*
X8917700Y-6898400D01*
X8917700Y-6868400D02*
X8887700Y-6898400D01*
X8887700Y-6995400D02*
X8917700Y-7025400D01*
X8917700Y-6995400D02*
X8887700Y-7025400D01*
X8887700Y-7122400D02*
X8917700Y-7152400D01*
X8917700Y-7122400D02*
X8887700Y-7152400D01*
X8925800Y-7376400D02*
X8955800Y-7406400D01*
X8955800Y-7376400D02*
X8925800Y-7406400D01*
X8938500Y-6296900D02*
X8968500Y-6326900D01*
X8968500Y-6296900D02*
X8938500Y-6326900D01*
X8938500Y-6423900D02*
X8968500Y-6453900D01*
X8968500Y-6423900D02*
X8938500Y-6453900D01*
X8938500Y-6550900D02*
X8968500Y-6580900D01*
X8968500Y-6550900D02*
X8938500Y-6580900D01*
X8938500Y-6677900D02*
X8968500Y-6707900D01*
X8968500Y-6677900D02*
X8938500Y-6707900D01*
X8938500Y-6804900D02*
X8968500Y-6834900D01*
X8968500Y-6804900D02*
X8938500Y-6834900D01*
X8938500Y-6931900D02*
X8968500Y-6961900D01*
X8968500Y-6931900D02*
X8938500Y-6961900D01*
X8938500Y-7058900D02*
X8968500Y-7088900D01*
X8968500Y-7058900D02*
X8938500Y-7088900D01*
X8938500Y-7185900D02*
X8968500Y-7215900D01*
X8968500Y-7185900D02*
X8938500Y-7215900D01*
X8938500Y-7249400D02*
X8968500Y-7279400D01*
X8968500Y-7249400D02*
X8938500Y-7279400D01*
X8938500Y-7312900D02*
X8968500Y-7342900D01*
X8968500Y-7312900D02*
X8938500Y-7342900D01*
X8989300Y-7376400D02*
X9019300Y-7406400D01*
X9019300Y-7376400D02*
X8989300Y-7406400D01*
X9002000Y-6296900D02*
X9032000Y-6326900D01*
X9032000Y-6296900D02*
X9002000Y-6326900D01*
X9002000Y-6360400D02*
X9032000Y-6390400D01*
X9032000Y-6360400D02*
X9002000Y-6390400D01*
X9002000Y-6423900D02*
X9032000Y-6453900D01*
X9032000Y-6423900D02*
X9002000Y-6453900D01*
X9002000Y-6487400D02*
X9032000Y-6517400D01*
X9032000Y-6487400D02*
X9002000Y-6517400D01*
X9002000Y-6550900D02*
X9032000Y-6580900D01*
X9032000Y-6550900D02*
X9002000Y-6580900D01*
X9002000Y-6614400D02*
X9032000Y-6644400D01*
X9032000Y-6614400D02*
X9002000Y-6644400D01*
X9002000Y-6677900D02*
X9032000Y-6707900D01*
X9032000Y-6677900D02*
X9002000Y-6707900D01*
X9002000Y-6741400D02*
X9032000Y-6771400D01*
X9032000Y-6741400D02*
X9002000Y-6771400D01*
X9002000Y-6804900D02*
X9032000Y-6834900D01*
X9032000Y-6804900D02*
X9002000Y-6834900D01*
X9002000Y-6868400D02*
X9032000Y-6898400D01*
X9032000Y-6868400D02*
X9002000Y-6898400D01*
X9002000Y-6931900D02*
X9032000Y-6961900D01*
X9032000Y-6931900D02*
X9002000Y-6961900D01*
X9002000Y-6995400D02*
X9032000Y-7025400D01*
X9032000Y-6995400D02*
X9002000Y-7025400D01*
X9002000Y-7058900D02*
X9032000Y-7088900D01*
X9032000Y-7058900D02*
X9002000Y-7088900D01*
X9002000Y-7122400D02*
X9032000Y-7152400D01*
X9032000Y-7122400D02*
X9002000Y-7152400D01*
X9002000Y-7185900D02*
X9032000Y-7215900D01*
X9032000Y-7185900D02*
X9002000Y-7215900D01*
X9002000Y-7249400D02*
X9032000Y-7279400D01*
X9032000Y-7249400D02*
X9002000Y-7279400D01*
X9002000Y-7312900D02*
X9032000Y-7342900D01*
X9032000Y-7312900D02*
X9002000Y-7342900D01*
X9052800Y-7376400D02*
X9082800Y-7406400D01*
X9082800Y-7376400D02*
X9052800Y-7406400D01*
X9065500Y-6296900D02*
X9095500Y-6326900D01*
X9095500Y-6296900D02*
X9065500Y-6326900D01*
X9065500Y-6423900D02*
X9095500Y-6453900D01*
X9095500Y-6423900D02*
X9065500Y-6453900D01*
X9065500Y-6550900D02*
X9095500Y-6580900D01*
X9095500Y-6550900D02*
X9065500Y-6580900D01*
X9065500Y-6677900D02*
X9095500Y-6707900D01*
X9095500Y-6677900D02*
X9065500Y-6707900D01*
X9065500Y-6804900D02*
X9095500Y-6834900D01*
X9095500Y-6804900D02*
X9065500Y-6834900D01*
X9065500Y-6931900D02*
X9095500Y-6961900D01*
X9095500Y-6931900D02*
X9065500Y-6961900D01*
X9065500Y-7058900D02*
X9095500Y-7088900D01*
X9095500Y-7058900D02*
X9065500Y-7088900D01*
X9065500Y-7185900D02*
X9095500Y-7215900D01*
X9095500Y-7185900D02*
X9065500Y-7215900D01*
X9065500Y-7249400D02*
X9095500Y-7279400D01*
X9095500Y-7249400D02*
X9065500Y-7279400D01*
X9065500Y-7312900D02*
X9095500Y-7342900D01*
X9095500Y-7312900D02*
X9065500Y-7342900D01*
X9103600Y-6360400D02*
X9133600Y-6390400D01*
X9133600Y-6360400D02*
X9103600Y-6390400D01*
X9103600Y-6487400D02*
X9133600Y-6517400D01*
X9133600Y-6487400D02*
X9103600Y-6517400D01*
X9103600Y-6614400D02*
X9133600Y-6644400D01*
X9133600Y-6614400D02*
X9103600Y-6644400D01*
X9103600Y-6741400D02*
X9133600Y-6771400D01*
X9133600Y-6741400D02*
X9103600Y-6771400D01*
X9103600Y-6868400D02*
X9133600Y-6898400D01*
X9133600Y-6868400D02*
X9103600Y-6898400D01*
X9103600Y-6995400D02*
X9133600Y-7025400D01*
X9133600Y-6995400D02*
X9103600Y-7025400D01*
X9103600Y-7122400D02*
X9133600Y-7152400D01*
X9133600Y-7122400D02*
X9103600Y-7152400D01*
X9116300Y-7376400D02*
X9146300Y-7406400D01*
X9146300Y-7376400D02*
X9116300Y-7406400D01*
X9129000Y-6296900D02*
X9159000Y-6326900D01*
X9159000Y-6296900D02*
X9129000Y-6326900D01*
X9141700Y-6423900D02*
X9171700Y-6453900D01*
X9171700Y-6423900D02*
X9141700Y-6453900D01*
X9141700Y-6550900D02*
X9171700Y-6580900D01*
X9171700Y-6550900D02*
X9141700Y-6580900D01*
X9141700Y-6677900D02*
X9171700Y-6707900D01*
X9171700Y-6677900D02*
X9141700Y-6707900D01*
X9141700Y-6804900D02*
X9171700Y-6834900D01*
X9171700Y-6804900D02*
X9141700Y-6834900D01*
X9141700Y-6931900D02*
X9171700Y-6961900D01*
X9171700Y-6931900D02*
X9141700Y-6961900D01*
X9141700Y-7058900D02*
X9171700Y-7088900D01*
X9171700Y-7058900D02*
X9141700Y-7088900D01*
X9141700Y-7185900D02*
X9171700Y-7215900D01*
X9171700Y-7185900D02*
X9141700Y-7215900D01*
X9141700Y-7249400D02*
X9171700Y-7279400D01*
X9171700Y-7249400D02*
X9141700Y-7279400D01*
X9141700Y-7312900D02*
X9171700Y-7342900D01*
X9171700Y-7312900D02*
X9141700Y-7342900D01*
X9179800Y-7376400D02*
X9209800Y-7406400D01*
X9209800Y-7376400D02*
X9179800Y-7406400D01*
X9192500Y-6296900D02*
X9222500Y-6326900D01*
X9222500Y-6296900D02*
X9192500Y-6326900D01*
X9205200Y-6360400D02*
X9235200Y-6390400D01*
X9235200Y-6360400D02*
X9205200Y-6390400D01*
X9205200Y-6423900D02*
X9235200Y-6453900D01*
X9235200Y-6423900D02*
X9205200Y-6453900D01*
X9205200Y-6487400D02*
X9235200Y-6517400D01*
X9235200Y-6487400D02*
X9205200Y-6517400D01*
X9205200Y-6550900D02*
X9235200Y-6580900D01*
X9235200Y-6550900D02*
X9205200Y-6580900D01*
X9205200Y-6614400D02*
X9235200Y-6644400D01*
X9235200Y-6614400D02*
X9205200Y-6644400D01*
X9205200Y-6677900D02*
X9235200Y-6707900D01*
X9235200Y-6677900D02*
X9205200Y-6707900D01*
X9205200Y-6741400D02*
X9235200Y-6771400D01*
X9235200Y-6741400D02*
X9205200Y-6771400D01*
X9205200Y-6804900D02*
X9235200Y-6834900D01*
X9235200Y-6804900D02*
X9205200Y-6834900D01*
X9205200Y-6868400D02*
X9235200Y-6898400D01*
X9235200Y-6868400D02*
X9205200Y-6898400D01*
X9205200Y-6931900D02*
X9235200Y-6961900D01*
X9235200Y-6931900D02*
X9205200Y-6961900D01*
X9205200Y-6995400D02*
X9235200Y-7025400D01*
X9235200Y-6995400D02*
X9205200Y-7025400D01*
X9205200Y-7058900D02*
X9235200Y-7088900D01*
X9235200Y-7058900D02*
X9205200Y-7088900D01*
X9205200Y-7122400D02*
X9235200Y-7152400D01*
X9235200Y-7122400D02*
X9205200Y-7152400D01*
X9205200Y-7185900D02*
X9235200Y-7215900D01*
X9235200Y-7185900D02*
X9205200Y-7215900D01*
X9205200Y-7249400D02*
X9235200Y-7279400D01*
X9235200Y-7249400D02*
X9205200Y-7279400D01*
X9205200Y-7312900D02*
X9235200Y-7342900D01*
X9235200Y-7312900D02*
X9205200Y-7342900D01*
X9243300Y-7376400D02*
X9273300Y-7406400D01*
X9273300Y-7376400D02*
X9243300Y-7406400D01*
X9256000Y-6296900D02*
X9286000Y-6326900D01*
X9286000Y-6296900D02*
X9256000Y-6326900D01*
X9306800Y-7376400D02*
X9336800Y-7406400D01*
X9336800Y-7376400D02*
X9306800Y-7406400D01*
X9319500Y-6296900D02*
X9349500Y-6326900D01*
X9349500Y-6296900D02*
X9319500Y-6326900D01*
X9370300Y-7376400D02*
X9400300Y-7406400D01*
X9400300Y-7376400D02*
X9370300Y-7406400D01*
X9383000Y-6296900D02*
X9413000Y-6326900D01*
X9413000Y-6296900D02*
X9383000Y-6326900D01*
X9433800Y-7376400D02*
X9463800Y-7406400D01*
X9463800Y-7376400D02*
X9433800Y-7406400D01*
X9446500Y-6296900D02*
X9476500Y-6326900D01*
X9476500Y-6296900D02*
X9446500Y-6326900D01*
X9497300Y-7312900D02*
X9527300Y-7342900D01*
X9527300Y-7312900D02*
X9497300Y-7342900D01*
X9497300Y-7376400D02*
X9527300Y-7406400D01*
X9527300Y-7376400D02*
X9497300Y-7406400D01*
X9510000Y-6296900D02*
X9540000Y-6326900D01*
X9540000Y-6296900D02*
X9510000Y-6326900D01*
X9510000Y-6360400D02*
X9540000Y-6390400D01*
X9540000Y-6360400D02*
X9510000Y-6390400D01*
X9510000Y-6423900D02*
X9540000Y-6453900D01*
X9540000Y-6423900D02*
X9510000Y-6453900D01*
X9510000Y-6716000D02*
X9540000Y-6746000D01*
X9540000Y-6716000D02*
X9510000Y-6746000D01*
X9510000Y-6817600D02*
X9540000Y-6847600D01*
X9540000Y-6817600D02*
X9510000Y-6847600D01*
X9510000Y-6906500D02*
X9540000Y-6936500D01*
X9540000Y-6906500D02*
X9510000Y-6936500D01*
X9535400Y-7262100D02*
X9565400Y-7292100D01*
X9565400Y-7262100D02*
X9535400Y-7292100D01*
X9560800Y-7084300D02*
X9590800Y-7114300D01*
X9590800Y-7084300D02*
X9560800Y-7114300D01*
D10*
X7187800Y-6769100D02*
G75*
G03*
X7187800Y-6769100I-25000J0D01*
G01*
X7187800Y-6883400D02*
G75*
G03*
X7187800Y-6883400I-25000J0D01*
G01*
X7187800Y-7277100D02*
G75*
G03*
X7187800Y-7277100I-25000J0D01*
G01*
X7187800Y-7404100D02*
G75*
G03*
X7187800Y-7404100I-25000J0D01*
G01*
X7302100Y-6807200D02*
G75*
G03*
X7302100Y-6807200I-25000J0D01*
G01*
X7314800Y-7277100D02*
G75*
G03*
X7314800Y-7277100I-25000J0D01*
G01*
X7314800Y-7404100D02*
G75*
G03*
X7314800Y-7404100I-25000J0D01*
G01*
X7441800Y-7404100D02*
G75*
G03*
X7441800Y-7404100I-25000J0D01*
G01*
X7568800Y-7404100D02*
G75*
G03*
X7568800Y-7404100I-25000J0D01*
G01*
X7581500Y-6299200D02*
G75*
G03*
X7581500Y-6299200I-25000J0D01*
G01*
X9664300Y-7416800D02*
G75*
G03*
X9664300Y-7416800I-25000J0D01*
G01*
X9715100Y-7124700D02*
G75*
G03*
X9715100Y-7124700I-25000J0D01*
G01*
X9969100Y-6502400D02*
G75*
G03*
X9969100Y-6502400I-25000J0D01*
G01*
X10058000Y-7124700D02*
G75*
G03*
X10058000Y-7124700I-25000J0D01*
G01*
X10350100Y-7353300D02*
G75*
G03*
X10350100Y-7353300I-25000J0D01*
G01*
X10388200Y-6718300D02*
G75*
G03*
X10388200Y-6718300I-25000J0D01*
G01*
X10566000Y-6718300D02*
G75*
G03*
X10566000Y-6718300I-25000J0D01*
G01*
X10718400Y-6502400D02*
G75*
G03*
X10718400Y-6502400I-25000J0D01*
G01*
X10718400Y-6654800D02*
G75*
G03*
X10718400Y-6654800I-25000J0D01*
G01*
X10883500Y-6502400D02*
G75*
G03*
X10883500Y-6502400I-25000J0D01*
G01*
X10883500Y-6654800D02*
G75*
G03*
X10883500Y-6654800I-25000J0D01*
G01*
X10896200Y-7099300D02*
G75*
G03*
X10896200Y-7099300I-25000J0D01*
G01*
X10908900Y-6819900D02*
G75*
G03*
X10908900Y-6819900I-25000J0D01*
G01*
X11099400Y-7416800D02*
G75*
G03*
X11099400Y-7416800I-25000J0D01*
G01*
D13*
X11036300Y-6401600D02*
X11036300Y-6501600D01*
X10986300Y-6451600D02*
X11086300Y-6451600D01*
X11036300Y-6655600D02*
X11036300Y-6755600D01*
X10986300Y-6705600D02*
X11086300Y-6705600D01*
X11036300Y-6909600D02*
X11036300Y-7009600D01*
X10986300Y-6959600D02*
X11086300Y-6959600D01*
X11036300Y-7163600D02*
X11036300Y-7263600D01*
X10986300Y-7213600D02*
X11086300Y-7213600D01*
D14*
X7418382Y-6592882D02*
X7418382Y-6437317D01*
X7262817Y-6437317D01*
X7262817Y-6592882D01*
X7418382Y-6592882D01*
X10644183Y-7240582D02*
X10644183Y-7085017D01*
X10488618Y-7085017D01*
X10488618Y-7240582D01*
X10644183Y-7240582D01*
D11*
X7329019Y-7805976D02*
X7329019Y-7605976D01*
X7376638Y-7605976D01*
X7405209Y-7615500D01*
X7424257Y-7634548D01*
X7433781Y-7653595D01*
X7443305Y-7691690D01*
X7443305Y-7720262D01*
X7433781Y-7758357D01*
X7424257Y-7777405D01*
X7405209Y-7796452D01*
X7376638Y-7805976D01*
X7329019Y-7805976D01*
X7529019Y-7805976D02*
X7529019Y-7672643D01*
X7529019Y-7710738D02*
X7538543Y-7691690D01*
X7548067Y-7682167D01*
X7567114Y-7672643D01*
X7586162Y-7672643D01*
X7652828Y-7805976D02*
X7652828Y-7672643D01*
X7652828Y-7605976D02*
X7643305Y-7615500D01*
X7652828Y-7625024D01*
X7662352Y-7615500D01*
X7652828Y-7605976D01*
X7652828Y-7625024D01*
X7776638Y-7805976D02*
X7757590Y-7796452D01*
X7748067Y-7777405D01*
X7748067Y-7605976D01*
X7881400Y-7805976D02*
X7862352Y-7796452D01*
X7852828Y-7777405D01*
X7852828Y-7605976D01*
X8109971Y-7805976D02*
X8109971Y-7605976D01*
X8176638Y-7748833D01*
X8243305Y-7605976D01*
X8243305Y-7805976D01*
X8424257Y-7805976D02*
X8424257Y-7701214D01*
X8414733Y-7682167D01*
X8395686Y-7672643D01*
X8357590Y-7672643D01*
X8338543Y-7682167D01*
X8424257Y-7796452D02*
X8405210Y-7805976D01*
X8357590Y-7805976D01*
X8338543Y-7796452D01*
X8329019Y-7777405D01*
X8329019Y-7758357D01*
X8338543Y-7739309D01*
X8357590Y-7729786D01*
X8405210Y-7729786D01*
X8424257Y-7720262D01*
X8519495Y-7672643D02*
X8519495Y-7872643D01*
X8519495Y-7682167D02*
X8538543Y-7672643D01*
X8576638Y-7672643D01*
X8595686Y-7682167D01*
X8605210Y-7691690D01*
X8614733Y-7710738D01*
X8614733Y-7767881D01*
X8605210Y-7786928D01*
X8595686Y-7796452D01*
X8576638Y-7805976D01*
X8538543Y-7805976D01*
X8519495Y-7796452D01*
X8700448Y-7786928D02*
X8709971Y-7796452D01*
X8700448Y-7805976D01*
X8690924Y-7796452D01*
X8700448Y-7786928D01*
X8700448Y-7805976D01*
X8700448Y-7682167D02*
X8709971Y-7691690D01*
X8700448Y-7701214D01*
X8690924Y-7691690D01*
X8700448Y-7682167D01*
X8700448Y-7701214D01*
D12*
X7041400Y-8120500D02*
X7071400Y-8150500D01*
X7071400Y-8120500D02*
X7041400Y-8150500D01*
D11*
X7367114Y-8025976D02*
X7386162Y-8025976D01*
X7405209Y-8035500D01*
X7414733Y-8045024D01*
X7424257Y-8064071D01*
X7433781Y-8102167D01*
X7433781Y-8149786D01*
X7424257Y-8187881D01*
X7414733Y-8206928D01*
X7405209Y-8216452D01*
X7386162Y-8225976D01*
X7367114Y-8225976D01*
X7348067Y-8216452D01*
X7338543Y-8206928D01*
X7329019Y-8187881D01*
X7319495Y-8149786D01*
X7319495Y-8102167D01*
X7329019Y-8064071D01*
X7338543Y-8045024D01*
X7348067Y-8035500D01*
X7367114Y-8025976D01*
X7519495Y-8206928D02*
X7529019Y-8216452D01*
X7519495Y-8225976D01*
X7509971Y-8216452D01*
X7519495Y-8206928D01*
X7519495Y-8225976D01*
X7595686Y-8025976D02*
X7719495Y-8025976D01*
X7652828Y-8102167D01*
X7681400Y-8102167D01*
X7700448Y-8111690D01*
X7709971Y-8121214D01*
X7719495Y-8140262D01*
X7719495Y-8187881D01*
X7709971Y-8206928D01*
X7700448Y-8216452D01*
X7681400Y-8225976D01*
X7624257Y-8225976D01*
X7605209Y-8216452D01*
X7595686Y-8206928D01*
X7843305Y-8025976D02*
X7862352Y-8025976D01*
X7881400Y-8035500D01*
X7890924Y-8045024D01*
X7900448Y-8064071D01*
X7909971Y-8102167D01*
X7909971Y-8149786D01*
X7900448Y-8187881D01*
X7890924Y-8206928D01*
X7881400Y-8216452D01*
X7862352Y-8225976D01*
X7843305Y-8225976D01*
X7824257Y-8216452D01*
X7814733Y-8206928D01*
X7805209Y-8187881D01*
X7795686Y-8149786D01*
X7795686Y-8102167D01*
X7805209Y-8064071D01*
X7814733Y-8045024D01*
X7824257Y-8035500D01*
X7843305Y-8025976D01*
X8033781Y-8025976D02*
X8052828Y-8025976D01*
X8071876Y-8035500D01*
X8081400Y-8045024D01*
X8090924Y-8064071D01*
X8100448Y-8102167D01*
X8100448Y-8149786D01*
X8090924Y-8187881D01*
X8081400Y-8206928D01*
X8071876Y-8216452D01*
X8052828Y-8225976D01*
X8033781Y-8225976D01*
X8014733Y-8216452D01*
X8005209Y-8206928D01*
X7995686Y-8187881D01*
X7986162Y-8149786D01*
X7986162Y-8102167D01*
X7995686Y-8064071D01*
X8005209Y-8045024D01*
X8014733Y-8035500D01*
X8033781Y-8025976D01*
X8186162Y-8225976D02*
X8186162Y-8092643D01*
X8186162Y-8111690D02*
X8195686Y-8102167D01*
X8214733Y-8092643D01*
X8243305Y-8092643D01*
X8262352Y-8102167D01*
X8271876Y-8121214D01*
X8271876Y-8225976D01*
X8271876Y-8121214D02*
X8281400Y-8102167D01*
X8300448Y-8092643D01*
X8329019Y-8092643D01*
X8348067Y-8102167D01*
X8357590Y-8121214D01*
X8357590Y-8225976D01*
X8452829Y-8225976D02*
X8452829Y-8092643D01*
X8452829Y-8111690D02*
X8462352Y-8102167D01*
X8481400Y-8092643D01*
X8509971Y-8092643D01*
X8529019Y-8102167D01*
X8538543Y-8121214D01*
X8538543Y-8225976D01*
X8538543Y-8121214D02*
X8548067Y-8102167D01*
X8567114Y-8092643D01*
X8595686Y-8092643D01*
X8614733Y-8102167D01*
X8624257Y-8121214D01*
X8624257Y-8225976D01*
X9014733Y-8016452D02*
X8843305Y-8273595D01*
X9271876Y-8025976D02*
X9290924Y-8025976D01*
X9309971Y-8035500D01*
X9319495Y-8045024D01*
X9329019Y-8064071D01*
X9338543Y-8102167D01*
X9338543Y-8149786D01*
X9329019Y-8187881D01*
X9319495Y-8206928D01*
X9309971Y-8216452D01*
X9290924Y-8225976D01*
X9271876Y-8225976D01*
X9252829Y-8216452D01*
X9243305Y-8206928D01*
X9233781Y-8187881D01*
X9224257Y-8149786D01*
X9224257Y-8102167D01*
X9233781Y-8064071D01*
X9243305Y-8045024D01*
X9252829Y-8035500D01*
X9271876Y-8025976D01*
X9424257Y-8206928D02*
X9433781Y-8216452D01*
X9424257Y-8225976D01*
X9414733Y-8216452D01*
X9424257Y-8206928D01*
X9424257Y-8225976D01*
X9557590Y-8025976D02*
X9576638Y-8025976D01*
X9595686Y-8035500D01*
X9605210Y-8045024D01*
X9614733Y-8064071D01*
X9624257Y-8102167D01*
X9624257Y-8149786D01*
X9614733Y-8187881D01*
X9605210Y-8206928D01*
X9595686Y-8216452D01*
X9576638Y-8225976D01*
X9557590Y-8225976D01*
X9538543Y-8216452D01*
X9529019Y-8206928D01*
X9519495Y-8187881D01*
X9509971Y-8149786D01*
X9509971Y-8102167D01*
X9519495Y-8064071D01*
X9529019Y-8045024D01*
X9538543Y-8035500D01*
X9557590Y-8025976D01*
X9814733Y-8225976D02*
X9700448Y-8225976D01*
X9757590Y-8225976D02*
X9757590Y-8025976D01*
X9738543Y-8054548D01*
X9719495Y-8073595D01*
X9700448Y-8083119D01*
X10005210Y-8225976D02*
X9890924Y-8225976D01*
X9948067Y-8225976D02*
X9948067Y-8025976D01*
X9929019Y-8054548D01*
X9909971Y-8073595D01*
X9890924Y-8083119D01*
X10119495Y-8111690D02*
X10100448Y-8102167D01*
X10090924Y-8092643D01*
X10081400Y-8073595D01*
X10081400Y-8064071D01*
X10090924Y-8045024D01*
X10100448Y-8035500D01*
X10119495Y-8025976D01*
X10157590Y-8025976D01*
X10176638Y-8035500D01*
X10186162Y-8045024D01*
X10195686Y-8064071D01*
X10195686Y-8073595D01*
X10186162Y-8092643D01*
X10176638Y-8102167D01*
X10157590Y-8111690D01*
X10119495Y-8111690D01*
X10100448Y-8121214D01*
X10090924Y-8130738D01*
X10081400Y-8149786D01*
X10081400Y-8187881D01*
X10090924Y-8206928D01*
X10100448Y-8216452D01*
X10119495Y-8225976D01*
X10157590Y-8225976D01*
X10176638Y-8216452D01*
X10186162Y-8206928D01*
X10195686Y-8187881D01*
X10195686Y-8149786D01*
X10186162Y-8130738D01*
X10176638Y-8121214D01*
X10157590Y-8111690D01*
X10271876Y-8025976D02*
X10271876Y-8064071D01*
X10348067Y-8025976D02*
X10348067Y-8064071D01*
X10643305Y-8302167D02*
X10633781Y-8292643D01*
X10614733Y-8264071D01*
X10605210Y-8245024D01*
X10595686Y-8216452D01*
X10586162Y-8168833D01*
X10586162Y-8130738D01*
X10595686Y-8083119D01*
X10605210Y-8054548D01*
X10614733Y-8035500D01*
X10633781Y-8006928D01*
X10643305Y-7997405D01*
X10709971Y-8045024D02*
X10719495Y-8035500D01*
X10738543Y-8025976D01*
X10786162Y-8025976D01*
X10805210Y-8035500D01*
X10814733Y-8045024D01*
X10824257Y-8064071D01*
X10824257Y-8083119D01*
X10814733Y-8111690D01*
X10700448Y-8225976D01*
X10824257Y-8225976D01*
X10995686Y-8025976D02*
X10957590Y-8025976D01*
X10938543Y-8035500D01*
X10929019Y-8045024D01*
X10909971Y-8073595D01*
X10900448Y-8111690D01*
X10900448Y-8187881D01*
X10909971Y-8206928D01*
X10919495Y-8216452D01*
X10938543Y-8225976D01*
X10976638Y-8225976D01*
X10995686Y-8216452D01*
X11005210Y-8206928D01*
X11014733Y-8187881D01*
X11014733Y-8140262D01*
X11005210Y-8121214D01*
X10995686Y-8111690D01*
X10976638Y-8102167D01*
X10938543Y-8102167D01*
X10919495Y-8111690D01*
X10909971Y-8121214D01*
X10900448Y-8140262D01*
X11186162Y-8025976D02*
X11148067Y-8025976D01*
X11129019Y-8035500D01*
X11119495Y-8045024D01*
X11100448Y-8073595D01*
X11090924Y-8111690D01*
X11090924Y-8187881D01*
X11100448Y-8206928D01*
X11109971Y-8216452D01*
X11129019Y-8225976D01*
X11167114Y-8225976D01*
X11186162Y-8216452D01*
X11195686Y-8206928D01*
X11205209Y-8187881D01*
X11205209Y-8140262D01*
X11195686Y-8121214D01*
X11186162Y-8111690D01*
X11167114Y-8102167D01*
X11129019Y-8102167D01*
X11109971Y-8111690D01*
X11100448Y-8121214D01*
X11090924Y-8140262D01*
X11443305Y-8225976D02*
X11443305Y-8025976D01*
X11529019Y-8225976D02*
X11529019Y-8121214D01*
X11519495Y-8102167D01*
X11500448Y-8092643D01*
X11471876Y-8092643D01*
X11452828Y-8102167D01*
X11443305Y-8111690D01*
X11652828Y-8225976D02*
X11633781Y-8216452D01*
X11624257Y-8206928D01*
X11614733Y-8187881D01*
X11614733Y-8130738D01*
X11624257Y-8111690D01*
X11633781Y-8102167D01*
X11652828Y-8092643D01*
X11681400Y-8092643D01*
X11700448Y-8102167D01*
X11709971Y-8111690D01*
X11719495Y-8130738D01*
X11719495Y-8187881D01*
X11709971Y-8206928D01*
X11700448Y-8216452D01*
X11681400Y-8225976D01*
X11652828Y-8225976D01*
X11833781Y-8225976D02*
X11814733Y-8216452D01*
X11805209Y-8197405D01*
X11805209Y-8025976D01*
X11986162Y-8216452D02*
X11967114Y-8225976D01*
X11929019Y-8225976D01*
X11909971Y-8216452D01*
X11900448Y-8197405D01*
X11900448Y-8121214D01*
X11909971Y-8102167D01*
X11929019Y-8092643D01*
X11967114Y-8092643D01*
X11986162Y-8102167D01*
X11995686Y-8121214D01*
X11995686Y-8140262D01*
X11900448Y-8159309D01*
X12071876Y-8216452D02*
X12090924Y-8225976D01*
X12129019Y-8225976D01*
X12148067Y-8216452D01*
X12157590Y-8197405D01*
X12157590Y-8187881D01*
X12148067Y-8168833D01*
X12129019Y-8159309D01*
X12100448Y-8159309D01*
X12081400Y-8149786D01*
X12071876Y-8130738D01*
X12071876Y-8121214D01*
X12081400Y-8102167D01*
X12100448Y-8092643D01*
X12129019Y-8092643D01*
X12148067Y-8102167D01*
X12224257Y-8302167D02*
X12233781Y-8292643D01*
X12252828Y-8264071D01*
X12262352Y-8245024D01*
X12271876Y-8216452D01*
X12281400Y-8168833D01*
X12281400Y-8130738D01*
X12271876Y-8083119D01*
X12262352Y-8054548D01*
X12252828Y-8035500D01*
X12233781Y-8006928D01*
X12224257Y-7997405D01*
D10*
X7071400Y-8399500D02*
G75*
G03*
X7071400Y-8399500I-25000J0D01*
G01*
D11*
X7367114Y-8289976D02*
X7386162Y-8289976D01*
X7405209Y-8299500D01*
X7414733Y-8309024D01*
X7424257Y-8328071D01*
X7433781Y-8366167D01*
X7433781Y-8413786D01*
X7424257Y-8451881D01*
X7414733Y-8470929D01*
X7405209Y-8480452D01*
X7386162Y-8489976D01*
X7367114Y-8489976D01*
X7348067Y-8480452D01*
X7338543Y-8470929D01*
X7329019Y-8451881D01*
X7319495Y-8413786D01*
X7319495Y-8366167D01*
X7329019Y-8328071D01*
X7338543Y-8309024D01*
X7348067Y-8299500D01*
X7367114Y-8289976D01*
X7519495Y-8470929D02*
X7529019Y-8480452D01*
X7519495Y-8489976D01*
X7509971Y-8480452D01*
X7519495Y-8470929D01*
X7519495Y-8489976D01*
X7709971Y-8289976D02*
X7614733Y-8289976D01*
X7605209Y-8385214D01*
X7614733Y-8375690D01*
X7633781Y-8366167D01*
X7681400Y-8366167D01*
X7700448Y-8375690D01*
X7709971Y-8385214D01*
X7719495Y-8404262D01*
X7719495Y-8451881D01*
X7709971Y-8470929D01*
X7700448Y-8480452D01*
X7681400Y-8489976D01*
X7633781Y-8489976D01*
X7614733Y-8480452D01*
X7605209Y-8470929D01*
X7843305Y-8289976D02*
X7862352Y-8289976D01*
X7881400Y-8299500D01*
X7890924Y-8309024D01*
X7900448Y-8328071D01*
X7909971Y-8366167D01*
X7909971Y-8413786D01*
X7900448Y-8451881D01*
X7890924Y-8470929D01*
X7881400Y-8480452D01*
X7862352Y-8489976D01*
X7843305Y-8489976D01*
X7824257Y-8480452D01*
X7814733Y-8470929D01*
X7805209Y-8451881D01*
X7795686Y-8413786D01*
X7795686Y-8366167D01*
X7805209Y-8328071D01*
X7814733Y-8309024D01*
X7824257Y-8299500D01*
X7843305Y-8289976D01*
X8033781Y-8289976D02*
X8052828Y-8289976D01*
X8071876Y-8299500D01*
X8081400Y-8309024D01*
X8090924Y-8328071D01*
X8100448Y-8366167D01*
X8100448Y-8413786D01*
X8090924Y-8451881D01*
X8081400Y-8470929D01*
X8071876Y-8480452D01*
X8052828Y-8489976D01*
X8033781Y-8489976D01*
X8014733Y-8480452D01*
X8005209Y-8470929D01*
X7995686Y-8451881D01*
X7986162Y-8413786D01*
X7986162Y-8366167D01*
X7995686Y-8328071D01*
X8005209Y-8309024D01*
X8014733Y-8299500D01*
X8033781Y-8289976D01*
X8186162Y-8489976D02*
X8186162Y-8356643D01*
X8186162Y-8375690D02*
X8195686Y-8366167D01*
X8214733Y-8356643D01*
X8243305Y-8356643D01*
X8262352Y-8366167D01*
X8271876Y-8385214D01*
X8271876Y-8489976D01*
X8271876Y-8385214D02*
X8281400Y-8366167D01*
X8300448Y-8356643D01*
X8329019Y-8356643D01*
X8348067Y-8366167D01*
X8357590Y-8385214D01*
X8357590Y-8489976D01*
X8452829Y-8489976D02*
X8452829Y-8356643D01*
X8452829Y-8375690D02*
X8462352Y-8366167D01*
X8481400Y-8356643D01*
X8509971Y-8356643D01*
X8529019Y-8366167D01*
X8538543Y-8385214D01*
X8538543Y-8489976D01*
X8538543Y-8385214D02*
X8548067Y-8366167D01*
X8567114Y-8356643D01*
X8595686Y-8356643D01*
X8614733Y-8366167D01*
X8624257Y-8385214D01*
X8624257Y-8489976D01*
X9014733Y-8280452D02*
X8843305Y-8537595D01*
X9271876Y-8289976D02*
X9290924Y-8289976D01*
X9309971Y-8299500D01*
X9319495Y-8309024D01*
X9329019Y-8328071D01*
X9338543Y-8366167D01*
X9338543Y-8413786D01*
X9329019Y-8451881D01*
X9319495Y-8470929D01*
X9309971Y-8480452D01*
X9290924Y-8489976D01*
X9271876Y-8489976D01*
X9252829Y-8480452D01*
X9243305Y-8470929D01*
X9233781Y-8451881D01*
X9224257Y-8413786D01*
X9224257Y-8366167D01*
X9233781Y-8328071D01*
X9243305Y-8309024D01*
X9252829Y-8299500D01*
X9271876Y-8289976D01*
X9424257Y-8470929D02*
X9433781Y-8480452D01*
X9424257Y-8489976D01*
X9414733Y-8480452D01*
X9424257Y-8470929D01*
X9424257Y-8489976D01*
X9557590Y-8289976D02*
X9576638Y-8289976D01*
X9595686Y-8299500D01*
X9605210Y-8309024D01*
X9614733Y-8328071D01*
X9624257Y-8366167D01*
X9624257Y-8413786D01*
X9614733Y-8451881D01*
X9605210Y-8470929D01*
X9595686Y-8480452D01*
X9576638Y-8489976D01*
X9557590Y-8489976D01*
X9538543Y-8480452D01*
X9529019Y-8470929D01*
X9519495Y-8451881D01*
X9509971Y-8413786D01*
X9509971Y-8366167D01*
X9519495Y-8328071D01*
X9529019Y-8309024D01*
X9538543Y-8299500D01*
X9557590Y-8289976D01*
X9814733Y-8489976D02*
X9700448Y-8489976D01*
X9757590Y-8489976D02*
X9757590Y-8289976D01*
X9738543Y-8318548D01*
X9719495Y-8337595D01*
X9700448Y-8347119D01*
X9909971Y-8489976D02*
X9948067Y-8489976D01*
X9967114Y-8480452D01*
X9976638Y-8470929D01*
X9995686Y-8442357D01*
X10005210Y-8404262D01*
X10005210Y-8328071D01*
X9995686Y-8309024D01*
X9986162Y-8299500D01*
X9967114Y-8289976D01*
X9929019Y-8289976D01*
X9909971Y-8299500D01*
X9900448Y-8309024D01*
X9890924Y-8328071D01*
X9890924Y-8375690D01*
X9900448Y-8394738D01*
X9909971Y-8404262D01*
X9929019Y-8413786D01*
X9967114Y-8413786D01*
X9986162Y-8404262D01*
X9995686Y-8394738D01*
X10005210Y-8375690D01*
X10071876Y-8289976D02*
X10205210Y-8289976D01*
X10119495Y-8489976D01*
X10271876Y-8289976D02*
X10271876Y-8328071D01*
X10348067Y-8289976D02*
X10348067Y-8328071D01*
X10643305Y-8566167D02*
X10633781Y-8556643D01*
X10614733Y-8528071D01*
X10605210Y-8509024D01*
X10595686Y-8480452D01*
X10586162Y-8432833D01*
X10586162Y-8394738D01*
X10595686Y-8347119D01*
X10605210Y-8318548D01*
X10614733Y-8299500D01*
X10633781Y-8270928D01*
X10643305Y-8261405D01*
X10709971Y-8309024D02*
X10719495Y-8299500D01*
X10738543Y-8289976D01*
X10786162Y-8289976D01*
X10805210Y-8299500D01*
X10814733Y-8309024D01*
X10824257Y-8328071D01*
X10824257Y-8347119D01*
X10814733Y-8375690D01*
X10700448Y-8489976D01*
X10824257Y-8489976D01*
X10995686Y-8356643D02*
X10995686Y-8489976D01*
X10948067Y-8280452D02*
X10900448Y-8423310D01*
X11024257Y-8423310D01*
X11252828Y-8489976D02*
X11252828Y-8289976D01*
X11338543Y-8489976D02*
X11338543Y-8385214D01*
X11329019Y-8366167D01*
X11309971Y-8356643D01*
X11281400Y-8356643D01*
X11262352Y-8366167D01*
X11252828Y-8375690D01*
X11462352Y-8489976D02*
X11443305Y-8480452D01*
X11433781Y-8470929D01*
X11424257Y-8451881D01*
X11424257Y-8394738D01*
X11433781Y-8375690D01*
X11443305Y-8366167D01*
X11462352Y-8356643D01*
X11490924Y-8356643D01*
X11509971Y-8366167D01*
X11519495Y-8375690D01*
X11529019Y-8394738D01*
X11529019Y-8451881D01*
X11519495Y-8470929D01*
X11509971Y-8480452D01*
X11490924Y-8489976D01*
X11462352Y-8489976D01*
X11643305Y-8489976D02*
X11624257Y-8480452D01*
X11614733Y-8461405D01*
X11614733Y-8289976D01*
X11795686Y-8480452D02*
X11776638Y-8489976D01*
X11738543Y-8489976D01*
X11719495Y-8480452D01*
X11709971Y-8461405D01*
X11709971Y-8385214D01*
X11719495Y-8366167D01*
X11738543Y-8356643D01*
X11776638Y-8356643D01*
X11795686Y-8366167D01*
X11805209Y-8385214D01*
X11805209Y-8404262D01*
X11709971Y-8423310D01*
X11881400Y-8480452D02*
X11900448Y-8489976D01*
X11938543Y-8489976D01*
X11957590Y-8480452D01*
X11967114Y-8461405D01*
X11967114Y-8451881D01*
X11957590Y-8432833D01*
X11938543Y-8423310D01*
X11909971Y-8423310D01*
X11890924Y-8413786D01*
X11881400Y-8394738D01*
X11881400Y-8385214D01*
X11890924Y-8366167D01*
X11909971Y-8356643D01*
X11938543Y-8356643D01*
X11957590Y-8366167D01*
X12033781Y-8566167D02*
X12043305Y-8556643D01*
X12062352Y-8528071D01*
X12071876Y-8509024D01*
X12081400Y-8480452D01*
X12090924Y-8432833D01*
X12090924Y-8394738D01*
X12081400Y-8347119D01*
X12071876Y-8318548D01*
X12062352Y-8299500D01*
X12043305Y-8270928D01*
X12033781Y-8261405D01*
D13*
X7021400Y-8613500D02*
X7021400Y-8713500D01*
X6971400Y-8663500D02*
X7071400Y-8663500D01*
D11*
X7433781Y-8753976D02*
X7319495Y-8753976D01*
X7376638Y-8753976D02*
X7376638Y-8553976D01*
X7357590Y-8582548D01*
X7338543Y-8601595D01*
X7319495Y-8611119D01*
X7519495Y-8734929D02*
X7529019Y-8744452D01*
X7519495Y-8753976D01*
X7509971Y-8744452D01*
X7519495Y-8734929D01*
X7519495Y-8753976D01*
X7652828Y-8553976D02*
X7671876Y-8553976D01*
X7690924Y-8563500D01*
X7700448Y-8573024D01*
X7709971Y-8592071D01*
X7719495Y-8630167D01*
X7719495Y-8677786D01*
X7709971Y-8715881D01*
X7700448Y-8734929D01*
X7690924Y-8744452D01*
X7671876Y-8753976D01*
X7652828Y-8753976D01*
X7633781Y-8744452D01*
X7624257Y-8734929D01*
X7614733Y-8715881D01*
X7605209Y-8677786D01*
X7605209Y-8630167D01*
X7614733Y-8592071D01*
X7624257Y-8573024D01*
X7633781Y-8563500D01*
X7652828Y-8553976D01*
X7843305Y-8553976D02*
X7862352Y-8553976D01*
X7881400Y-8563500D01*
X7890924Y-8573024D01*
X7900448Y-8592071D01*
X7909971Y-8630167D01*
X7909971Y-8677786D01*
X7900448Y-8715881D01*
X7890924Y-8734929D01*
X7881400Y-8744452D01*
X7862352Y-8753976D01*
X7843305Y-8753976D01*
X7824257Y-8744452D01*
X7814733Y-8734929D01*
X7805209Y-8715881D01*
X7795686Y-8677786D01*
X7795686Y-8630167D01*
X7805209Y-8592071D01*
X7814733Y-8573024D01*
X7824257Y-8563500D01*
X7843305Y-8553976D01*
X8033781Y-8553976D02*
X8052828Y-8553976D01*
X8071876Y-8563500D01*
X8081400Y-8573024D01*
X8090924Y-8592071D01*
X8100448Y-8630167D01*
X8100448Y-8677786D01*
X8090924Y-8715881D01*
X8081400Y-8734929D01*
X8071876Y-8744452D01*
X8052828Y-8753976D01*
X8033781Y-8753976D01*
X8014733Y-8744452D01*
X8005209Y-8734929D01*
X7995686Y-8715881D01*
X7986162Y-8677786D01*
X7986162Y-8630167D01*
X7995686Y-8592071D01*
X8005209Y-8573024D01*
X8014733Y-8563500D01*
X8033781Y-8553976D01*
X8186162Y-8753976D02*
X8186162Y-8620643D01*
X8186162Y-8639690D02*
X8195686Y-8630167D01*
X8214733Y-8620643D01*
X8243305Y-8620643D01*
X8262352Y-8630167D01*
X8271876Y-8649214D01*
X8271876Y-8753976D01*
X8271876Y-8649214D02*
X8281400Y-8630167D01*
X8300448Y-8620643D01*
X8329019Y-8620643D01*
X8348067Y-8630167D01*
X8357590Y-8649214D01*
X8357590Y-8753976D01*
X8452829Y-8753976D02*
X8452829Y-8620643D01*
X8452829Y-8639690D02*
X8462352Y-8630167D01*
X8481400Y-8620643D01*
X8509971Y-8620643D01*
X8529019Y-8630167D01*
X8538543Y-8649214D01*
X8538543Y-8753976D01*
X8538543Y-8649214D02*
X8548067Y-8630167D01*
X8567114Y-8620643D01*
X8595686Y-8620643D01*
X8614733Y-8630167D01*
X8624257Y-8649214D01*
X8624257Y-8753976D01*
X9014733Y-8544452D02*
X8843305Y-8801595D01*
X9271876Y-8553976D02*
X9290924Y-8553976D01*
X9309971Y-8563500D01*
X9319495Y-8573024D01*
X9329019Y-8592071D01*
X9338543Y-8630167D01*
X9338543Y-8677786D01*
X9329019Y-8715881D01*
X9319495Y-8734929D01*
X9309971Y-8744452D01*
X9290924Y-8753976D01*
X9271876Y-8753976D01*
X9252829Y-8744452D01*
X9243305Y-8734929D01*
X9233781Y-8715881D01*
X9224257Y-8677786D01*
X9224257Y-8630167D01*
X9233781Y-8592071D01*
X9243305Y-8573024D01*
X9252829Y-8563500D01*
X9271876Y-8553976D01*
X9424257Y-8734929D02*
X9433781Y-8744452D01*
X9424257Y-8753976D01*
X9414733Y-8744452D01*
X9424257Y-8734929D01*
X9424257Y-8753976D01*
X9557590Y-8553976D02*
X9576638Y-8553976D01*
X9595686Y-8563500D01*
X9605210Y-8573024D01*
X9614733Y-8592071D01*
X9624257Y-8630167D01*
X9624257Y-8677786D01*
X9614733Y-8715881D01*
X9605210Y-8734929D01*
X9595686Y-8744452D01*
X9576638Y-8753976D01*
X9557590Y-8753976D01*
X9538543Y-8744452D01*
X9529019Y-8734929D01*
X9519495Y-8715881D01*
X9509971Y-8677786D01*
X9509971Y-8630167D01*
X9519495Y-8592071D01*
X9529019Y-8573024D01*
X9538543Y-8563500D01*
X9557590Y-8553976D01*
X9690924Y-8553976D02*
X9814733Y-8553976D01*
X9748067Y-8630167D01*
X9776638Y-8630167D01*
X9795686Y-8639690D01*
X9805210Y-8649214D01*
X9814733Y-8668262D01*
X9814733Y-8715881D01*
X9805210Y-8734929D01*
X9795686Y-8744452D01*
X9776638Y-8753976D01*
X9719495Y-8753976D01*
X9700448Y-8744452D01*
X9690924Y-8734929D01*
X9909971Y-8753976D02*
X9948067Y-8753976D01*
X9967114Y-8744452D01*
X9976638Y-8734929D01*
X9995686Y-8706357D01*
X10005210Y-8668262D01*
X10005210Y-8592071D01*
X9995686Y-8573024D01*
X9986162Y-8563500D01*
X9967114Y-8553976D01*
X9929019Y-8553976D01*
X9909971Y-8563500D01*
X9900448Y-8573024D01*
X9890924Y-8592071D01*
X9890924Y-8639690D01*
X9900448Y-8658738D01*
X9909971Y-8668262D01*
X9929019Y-8677786D01*
X9967114Y-8677786D01*
X9986162Y-8668262D01*
X9995686Y-8658738D01*
X10005210Y-8639690D01*
X10176638Y-8620643D02*
X10176638Y-8753976D01*
X10129019Y-8544452D02*
X10081400Y-8687310D01*
X10205210Y-8687310D01*
X10271876Y-8553976D02*
X10271876Y-8592071D01*
X10348067Y-8553976D02*
X10348067Y-8592071D01*
X10643305Y-8830167D02*
X10633781Y-8820643D01*
X10614733Y-8792071D01*
X10605210Y-8773024D01*
X10595686Y-8744452D01*
X10586162Y-8696833D01*
X10586162Y-8658738D01*
X10595686Y-8611119D01*
X10605210Y-8582548D01*
X10614733Y-8563500D01*
X10633781Y-8534929D01*
X10643305Y-8525405D01*
X10805210Y-8620643D02*
X10805210Y-8753976D01*
X10757590Y-8544452D02*
X10709971Y-8687310D01*
X10833781Y-8687310D01*
X11062352Y-8753976D02*
X11062352Y-8553976D01*
X11148067Y-8753976D02*
X11148067Y-8649214D01*
X11138543Y-8630167D01*
X11119495Y-8620643D01*
X11090924Y-8620643D01*
X11071876Y-8630167D01*
X11062352Y-8639690D01*
X11271876Y-8753976D02*
X11252828Y-8744452D01*
X11243305Y-8734929D01*
X11233781Y-8715881D01*
X11233781Y-8658738D01*
X11243305Y-8639690D01*
X11252828Y-8630167D01*
X11271876Y-8620643D01*
X11300448Y-8620643D01*
X11319495Y-8630167D01*
X11329019Y-8639690D01*
X11338543Y-8658738D01*
X11338543Y-8715881D01*
X11329019Y-8734929D01*
X11319495Y-8744452D01*
X11300448Y-8753976D01*
X11271876Y-8753976D01*
X11452828Y-8753976D02*
X11433781Y-8744452D01*
X11424257Y-8725405D01*
X11424257Y-8553976D01*
X11605209Y-8744452D02*
X11586162Y-8753976D01*
X11548067Y-8753976D01*
X11529019Y-8744452D01*
X11519495Y-8725405D01*
X11519495Y-8649214D01*
X11529019Y-8630167D01*
X11548067Y-8620643D01*
X11586162Y-8620643D01*
X11605209Y-8630167D01*
X11614733Y-8649214D01*
X11614733Y-8668262D01*
X11519495Y-8687310D01*
X11690924Y-8744452D02*
X11709971Y-8753976D01*
X11748067Y-8753976D01*
X11767114Y-8744452D01*
X11776638Y-8725405D01*
X11776638Y-8715881D01*
X11767114Y-8696833D01*
X11748067Y-8687310D01*
X11719495Y-8687310D01*
X11700448Y-8677786D01*
X11690924Y-8658738D01*
X11690924Y-8649214D01*
X11700448Y-8630167D01*
X11719495Y-8620643D01*
X11748067Y-8620643D01*
X11767114Y-8630167D01*
X11843305Y-8830167D02*
X11852828Y-8820643D01*
X11871876Y-8792071D01*
X11881400Y-8773024D01*
X11890924Y-8744452D01*
X11900448Y-8696833D01*
X11900448Y-8658738D01*
X11890924Y-8611119D01*
X11881400Y-8582548D01*
X11871876Y-8563500D01*
X11852828Y-8534929D01*
X11843305Y-8525405D01*
X7042111Y-8998211D02*
X7042111Y-8856789D01*
X6900689Y-8856789D01*
X6900689Y-8998211D01*
X7042111Y-8998211D01*
X7319495Y-8837024D02*
X7329019Y-8827500D01*
X7348067Y-8817976D01*
X7395686Y-8817976D01*
X7414733Y-8827500D01*
X7424257Y-8837024D01*
X7433781Y-8856071D01*
X7433781Y-8875119D01*
X7424257Y-8903690D01*
X7309971Y-9017976D01*
X7433781Y-9017976D01*
X7519495Y-8998929D02*
X7529019Y-9008452D01*
X7519495Y-9017976D01*
X7509971Y-9008452D01*
X7519495Y-8998929D01*
X7519495Y-9017976D01*
X7605209Y-8837024D02*
X7614733Y-8827500D01*
X7633781Y-8817976D01*
X7681400Y-8817976D01*
X7700448Y-8827500D01*
X7709971Y-8837024D01*
X7719495Y-8856071D01*
X7719495Y-8875119D01*
X7709971Y-8903690D01*
X7595686Y-9017976D01*
X7719495Y-9017976D01*
X7843305Y-8817976D02*
X7862352Y-8817976D01*
X7881400Y-8827500D01*
X7890924Y-8837024D01*
X7900448Y-8856071D01*
X7909971Y-8894167D01*
X7909971Y-8941786D01*
X7900448Y-8979881D01*
X7890924Y-8998929D01*
X7881400Y-9008452D01*
X7862352Y-9017976D01*
X7843305Y-9017976D01*
X7824257Y-9008452D01*
X7814733Y-8998929D01*
X7805209Y-8979881D01*
X7795686Y-8941786D01*
X7795686Y-8894167D01*
X7805209Y-8856071D01*
X7814733Y-8837024D01*
X7824257Y-8827500D01*
X7843305Y-8817976D01*
X8033781Y-8817976D02*
X8052828Y-8817976D01*
X8071876Y-8827500D01*
X8081400Y-8837024D01*
X8090924Y-8856071D01*
X8100448Y-8894167D01*
X8100448Y-8941786D01*
X8090924Y-8979881D01*
X8081400Y-8998929D01*
X8071876Y-9008452D01*
X8052828Y-9017976D01*
X8033781Y-9017976D01*
X8014733Y-9008452D01*
X8005209Y-8998929D01*
X7995686Y-8979881D01*
X7986162Y-8941786D01*
X7986162Y-8894167D01*
X7995686Y-8856071D01*
X8005209Y-8837024D01*
X8014733Y-8827500D01*
X8033781Y-8817976D01*
X8186162Y-9017976D02*
X8186162Y-8884643D01*
X8186162Y-8903690D02*
X8195686Y-8894167D01*
X8214733Y-8884643D01*
X8243305Y-8884643D01*
X8262352Y-8894167D01*
X8271876Y-8913214D01*
X8271876Y-9017976D01*
X8271876Y-8913214D02*
X8281400Y-8894167D01*
X8300448Y-8884643D01*
X8329019Y-8884643D01*
X8348067Y-8894167D01*
X8357590Y-8913214D01*
X8357590Y-9017976D01*
X8452829Y-9017976D02*
X8452829Y-8884643D01*
X8452829Y-8903690D02*
X8462352Y-8894167D01*
X8481400Y-8884643D01*
X8509971Y-8884643D01*
X8529019Y-8894167D01*
X8538543Y-8913214D01*
X8538543Y-9017976D01*
X8538543Y-8913214D02*
X8548067Y-8894167D01*
X8567114Y-8884643D01*
X8595686Y-8884643D01*
X8614733Y-8894167D01*
X8624257Y-8913214D01*
X8624257Y-9017976D01*
X9014733Y-8808452D02*
X8843305Y-9065595D01*
X9271876Y-8817976D02*
X9290924Y-8817976D01*
X9309971Y-8827500D01*
X9319495Y-8837024D01*
X9329019Y-8856071D01*
X9338543Y-8894167D01*
X9338543Y-8941786D01*
X9329019Y-8979881D01*
X9319495Y-8998929D01*
X9309971Y-9008452D01*
X9290924Y-9017976D01*
X9271876Y-9017976D01*
X9252829Y-9008452D01*
X9243305Y-8998929D01*
X9233781Y-8979881D01*
X9224257Y-8941786D01*
X9224257Y-8894167D01*
X9233781Y-8856071D01*
X9243305Y-8837024D01*
X9252829Y-8827500D01*
X9271876Y-8817976D01*
X9424257Y-8998929D02*
X9433781Y-9008452D01*
X9424257Y-9017976D01*
X9414733Y-9008452D01*
X9424257Y-8998929D01*
X9424257Y-9017976D01*
X9557590Y-8817976D02*
X9576638Y-8817976D01*
X9595686Y-8827500D01*
X9605210Y-8837024D01*
X9614733Y-8856071D01*
X9624257Y-8894167D01*
X9624257Y-8941786D01*
X9614733Y-8979881D01*
X9605210Y-8998929D01*
X9595686Y-9008452D01*
X9576638Y-9017976D01*
X9557590Y-9017976D01*
X9538543Y-9008452D01*
X9529019Y-8998929D01*
X9519495Y-8979881D01*
X9509971Y-8941786D01*
X9509971Y-8894167D01*
X9519495Y-8856071D01*
X9529019Y-8837024D01*
X9538543Y-8827500D01*
X9557590Y-8817976D01*
X9738543Y-8903690D02*
X9719495Y-8894167D01*
X9709971Y-8884643D01*
X9700448Y-8865595D01*
X9700448Y-8856071D01*
X9709971Y-8837024D01*
X9719495Y-8827500D01*
X9738543Y-8817976D01*
X9776638Y-8817976D01*
X9795686Y-8827500D01*
X9805210Y-8837024D01*
X9814733Y-8856071D01*
X9814733Y-8865595D01*
X9805210Y-8884643D01*
X9795686Y-8894167D01*
X9776638Y-8903690D01*
X9738543Y-8903690D01*
X9719495Y-8913214D01*
X9709971Y-8922738D01*
X9700448Y-8941786D01*
X9700448Y-8979881D01*
X9709971Y-8998929D01*
X9719495Y-9008452D01*
X9738543Y-9017976D01*
X9776638Y-9017976D01*
X9795686Y-9008452D01*
X9805210Y-8998929D01*
X9814733Y-8979881D01*
X9814733Y-8941786D01*
X9805210Y-8922738D01*
X9795686Y-8913214D01*
X9776638Y-8903690D01*
X9986162Y-8817976D02*
X9948067Y-8817976D01*
X9929019Y-8827500D01*
X9919495Y-8837024D01*
X9900448Y-8865595D01*
X9890924Y-8903690D01*
X9890924Y-8979881D01*
X9900448Y-8998929D01*
X9909971Y-9008452D01*
X9929019Y-9017976D01*
X9967114Y-9017976D01*
X9986162Y-9008452D01*
X9995686Y-8998929D01*
X10005210Y-8979881D01*
X10005210Y-8932262D01*
X9995686Y-8913214D01*
X9986162Y-8903690D01*
X9967114Y-8894167D01*
X9929019Y-8894167D01*
X9909971Y-8903690D01*
X9900448Y-8913214D01*
X9890924Y-8932262D01*
X10176638Y-8817976D02*
X10138543Y-8817976D01*
X10119495Y-8827500D01*
X10109971Y-8837024D01*
X10090924Y-8865595D01*
X10081400Y-8903690D01*
X10081400Y-8979881D01*
X10090924Y-8998929D01*
X10100448Y-9008452D01*
X10119495Y-9017976D01*
X10157590Y-9017976D01*
X10176638Y-9008452D01*
X10186162Y-8998929D01*
X10195686Y-8979881D01*
X10195686Y-8932262D01*
X10186162Y-8913214D01*
X10176638Y-8903690D01*
X10157590Y-8894167D01*
X10119495Y-8894167D01*
X10100448Y-8903690D01*
X10090924Y-8913214D01*
X10081400Y-8932262D01*
X10271876Y-8817976D02*
X10271876Y-8856071D01*
X10348067Y-8817976D02*
X10348067Y-8856071D01*
X10643305Y-9094167D02*
X10633781Y-9084643D01*
X10614733Y-9056071D01*
X10605210Y-9037024D01*
X10595686Y-9008452D01*
X10586162Y-8960833D01*
X10586162Y-8922738D01*
X10595686Y-8875119D01*
X10605210Y-8846548D01*
X10614733Y-8827500D01*
X10633781Y-8798929D01*
X10643305Y-8789405D01*
X10709971Y-8837024D02*
X10719495Y-8827500D01*
X10738543Y-8817976D01*
X10786162Y-8817976D01*
X10805210Y-8827500D01*
X10814733Y-8837024D01*
X10824257Y-8856071D01*
X10824257Y-8875119D01*
X10814733Y-8903690D01*
X10700448Y-9017976D01*
X10824257Y-9017976D01*
X11062352Y-9017976D02*
X11062352Y-8817976D01*
X11148067Y-9017976D02*
X11148067Y-8913214D01*
X11138543Y-8894167D01*
X11119495Y-8884643D01*
X11090924Y-8884643D01*
X11071876Y-8894167D01*
X11062352Y-8903690D01*
X11271876Y-9017976D02*
X11252828Y-9008452D01*
X11243305Y-8998929D01*
X11233781Y-8979881D01*
X11233781Y-8922738D01*
X11243305Y-8903690D01*
X11252828Y-8894167D01*
X11271876Y-8884643D01*
X11300448Y-8884643D01*
X11319495Y-8894167D01*
X11329019Y-8903690D01*
X11338543Y-8922738D01*
X11338543Y-8979881D01*
X11329019Y-8998929D01*
X11319495Y-9008452D01*
X11300448Y-9017976D01*
X11271876Y-9017976D01*
X11452828Y-9017976D02*
X11433781Y-9008452D01*
X11424257Y-8989405D01*
X11424257Y-8817976D01*
X11605209Y-9008452D02*
X11586162Y-9017976D01*
X11548067Y-9017976D01*
X11529019Y-9008452D01*
X11519495Y-8989405D01*
X11519495Y-8913214D01*
X11529019Y-8894167D01*
X11548067Y-8884643D01*
X11586162Y-8884643D01*
X11605209Y-8894167D01*
X11614733Y-8913214D01*
X11614733Y-8932262D01*
X11519495Y-8951310D01*
X11690924Y-9008452D02*
X11709971Y-9017976D01*
X11748067Y-9017976D01*
X11767114Y-9008452D01*
X11776638Y-8989405D01*
X11776638Y-8979881D01*
X11767114Y-8960833D01*
X11748067Y-8951310D01*
X11719495Y-8951310D01*
X11700448Y-8941786D01*
X11690924Y-8922738D01*
X11690924Y-8913214D01*
X11700448Y-8894167D01*
X11719495Y-8884643D01*
X11748067Y-8884643D01*
X11767114Y-8894167D01*
X11843305Y-9094167D02*
X11852828Y-9084643D01*
X11871876Y-9056071D01*
X11881400Y-9037024D01*
X11890924Y-9008452D01*
X11900448Y-8960833D01*
X11900448Y-8922738D01*
X11890924Y-8875119D01*
X11881400Y-8846548D01*
X11871876Y-8827500D01*
X11852828Y-8798929D01*
X11843305Y-8789405D01*
M02*
