%TF.GenerationSoftware,KiCad,Pcbnew,(6.0.9)*%
%TF.CreationDate,2022-12-24T19:37:37+02:00*%
%TF.ProjectId,GPSBoard,47505342-6f61-4726-942e-6b696361645f,rev?*%
%TF.SameCoordinates,Original*%
%TF.FileFunction,Paste,Top*%
%TF.FilePolarity,Positive*%
%FSLAX46Y46*%
G04 Gerber Fmt 4.6, Leading zero omitted, Abs format (unit mm)*
G04 Created by KiCad (PCBNEW (6.0.9)) date 2022-12-24 19:37:37*
%MOMM*%
%LPD*%
G01*
G04 APERTURE LIST*
G04 Aperture macros list*
%AMRoundRect*
0 Rectangle with rounded corners*
0 $1 Rounding radius*
0 $2 $3 $4 $5 $6 $7 $8 $9 X,Y pos of 4 corners*
0 Add a 4 corners polygon primitive as box body*
4,1,4,$2,$3,$4,$5,$6,$7,$8,$9,$2,$3,0*
0 Add four circle primitives for the rounded corners*
1,1,$1+$1,$2,$3*
1,1,$1+$1,$4,$5*
1,1,$1+$1,$6,$7*
1,1,$1+$1,$8,$9*
0 Add four rect primitives between the rounded corners*
20,1,$1+$1,$2,$3,$4,$5,0*
20,1,$1+$1,$4,$5,$6,$7,0*
20,1,$1+$1,$6,$7,$8,$9,0*
20,1,$1+$1,$8,$9,$2,$3,0*%
G04 Aperture macros list end*
%TA.AperFunction,Profile*%
%ADD10C,0.050000*%
%TD*%
%ADD11RoundRect,0.237500X0.237500X-0.287500X0.237500X0.287500X-0.237500X0.287500X-0.237500X-0.287500X0*%
%ADD12RoundRect,0.237500X-0.250000X-0.237500X0.250000X-0.237500X0.250000X0.237500X-0.250000X0.237500X0*%
%ADD13RoundRect,0.250000X0.362500X0.700000X-0.362500X0.700000X-0.362500X-0.700000X0.362500X-0.700000X0*%
%ADD14R,1.000000X1.000000*%
%ADD15R,2.200000X1.050000*%
%ADD16RoundRect,0.250000X-0.650000X0.412500X-0.650000X-0.412500X0.650000X-0.412500X0.650000X0.412500X0*%
%ADD17R,0.250000X0.360000*%
%ADD18RoundRect,0.237500X0.287500X0.237500X-0.287500X0.237500X-0.287500X-0.237500X0.287500X-0.237500X0*%
%ADD19RoundRect,0.250000X-0.400000X-0.625000X0.400000X-0.625000X0.400000X0.625000X-0.400000X0.625000X0*%
%ADD20R,0.600000X0.300000*%
%ADD21R,0.250000X0.190000*%
%ADD22RoundRect,0.250000X-0.700000X0.362500X-0.700000X-0.362500X0.700000X-0.362500X0.700000X0.362500X0*%
%ADD23R,1.800000X0.700000*%
%ADD24R,1.800000X0.800000*%
G04 APERTURE END LIST*
D10*
X70739000Y-62230000D02*
X113157000Y-62230000D01*
X113157000Y-62230000D02*
X113157000Y-74930000D01*
X113157000Y-74930000D02*
X70739000Y-74930000D01*
X70739000Y-74930000D02*
X70739000Y-62230000D01*
D11*
%TO.C,D4*%
X101854000Y-65151000D03*
X101854000Y-63401000D03*
%TD*%
D12*
%TO.C,R3*%
X100203000Y-72644000D03*
X102028000Y-72644000D03*
%TD*%
D13*
%TO.C,L2*%
X80264000Y-69215000D03*
X76939000Y-69215000D03*
%TD*%
D14*
%TO.C,J2*%
X80010000Y-65278000D03*
D15*
X78510000Y-66753000D03*
D14*
X77010000Y-65278000D03*
D15*
X78510000Y-63803000D03*
%TD*%
D16*
%TO.C,C1*%
X99441000Y-63500000D03*
X99441000Y-66625000D03*
%TD*%
D17*
%TO.C,D1*%
X81661000Y-63930000D03*
X81661000Y-64770000D03*
%TD*%
D12*
%TO.C,R2*%
X99949000Y-68580000D03*
X101774000Y-68580000D03*
%TD*%
D18*
%TO.C,D2*%
X98284000Y-68580000D03*
X96534000Y-68580000D03*
%TD*%
D19*
%TO.C,R1*%
X77089000Y-71882000D03*
X80189000Y-71882000D03*
%TD*%
D18*
%TO.C,D3*%
X98397000Y-72644000D03*
X96647000Y-72644000D03*
%TD*%
D20*
%TO.C,FL1*%
X74549000Y-70120000D03*
D21*
X74299000Y-70620000D03*
D20*
X74549000Y-71120000D03*
D21*
X74799000Y-70620000D03*
%TD*%
D12*
%TO.C,R4*%
X103505000Y-65278000D03*
X105330000Y-65278000D03*
%TD*%
D22*
%TO.C,L1*%
X96901000Y-63373000D03*
X96901000Y-66698000D03*
%TD*%
D23*
%TO.C,IC1*%
X93650000Y-72980000D03*
D24*
X93650000Y-71880000D03*
X93650000Y-70780000D03*
X93650000Y-69680000D03*
X93650000Y-68580000D03*
X93650000Y-67480000D03*
X93650000Y-66380000D03*
X93650000Y-65280000D03*
D23*
X93650000Y-64180000D03*
X84150000Y-64180000D03*
D24*
X84150000Y-65280000D03*
X84150000Y-66380000D03*
X84150000Y-67480000D03*
X84150000Y-68580000D03*
X84150000Y-69680000D03*
X84150000Y-70780000D03*
X84150000Y-71880000D03*
D23*
X84150000Y-72980000D03*
%TD*%
M02*
